<?xml version="1.0" encoding="UTF-8" standalone="no"?>
<!-- Created with Inkscape (http://www.inkscape.org/) -->

<svg
   xmlns:dc="http://purl.org/dc/elements/1.1/"
   xmlns:cc="http://creativecommons.org/ns#"
   xmlns:rdf="http://www.w3.org/1999/02/22-rdf-syntax-ns#"
   xmlns:svg="http://www.w3.org/2000/svg"
   xmlns="http://www.w3.org/2000/svg"
   xmlns:sodipodi="http://sodipodi.sourceforge.net/DTD/sodipodi-0.dtd"
   xmlns:inkscape="http://www.inkscape.org/namespaces/inkscape"
   width="30.016638mm"
   height="24.996151mm"
   viewBox="0 0 30.016638 24.996151"
   version="1.1"
   id="svg3746"
   inkscape:version="0.92.4 (5da689c313, 2019-01-14)"
   sodipodi:docname="ibama.svg">
  <defs
     id="defs3740" />
  <sodipodi:namedview
     id="base"
     pagecolor="#ffffff"
     bordercolor="#666666"
     borderopacity="1.0"
     inkscape:pageopacity="0.0"
     inkscape:pageshadow="2"
     inkscape:zoom="1.4"
     inkscape:cx="5.8988557"
     inkscape:cy="24.935641"
     inkscape:document-units="mm"
     inkscape:current-layer="layer1"
     showgrid="false"
     inkscape:window-width="1920"
     inkscape:window-height="1001"
     inkscape:window-x="-9"
     inkscape:window-y="-9"
     inkscape:window-maximized="1" />
  <metadata
     id="metadata3743">
    <rdf:RDF>
      <cc:Work
         rdf:about="">
        <dc:format>image/svg+xml</dc:format>
        <dc:type
           rdf:resource="http://purl.org/dc/dcmitype/StillImage" />
        <dc:title></dc:title>
      </cc:Work>
    </rdf:RDF>
  </metadata>
  <g
     inkscape:label="Layer 1"
     inkscape:groupmode="layer"
     id="layer1"
     transform="translate(-35.923972,-118.80778)">
    <g
       transform="matrix(0.23368578,0,0,0.23368578,31.107651,111.74199)"
       id="g3708"
       style="opacity:0.733">
      <path
         style="fill:#9c9c9c;stroke-width:0.32000002"
         d="m 42.240002,136.96945 -2.4,-0.16945 -0.08159,-30.94572 -0.08159,-30.94572 -1.518413,-1.03465 C 33.340229,70.59079 27.516728,63.290131 23.736354,55.793632 22.02922,52.408378 20.429177,48.27401 20.626836,47.758915 c 0.160722,-0.418832 0.6663,-0.462803 3.320995,-0.288829 5.207296,0.341255 10.039201,1.884125 13.623285,4.350039 1.700246,1.169801 2.031754,1.209565 2.16663,0.259875 0.0993,-0.699149 0.233581,-0.724634 4.636852,-0.88 2.494026,-0.088 4.591021,-0.232 4.659987,-0.32 0.06897,-0.088 0.790058,-1.107312 1.602426,-2.265139 2.127434,-3.032125 5.88449,-6.417632 10.932573,-9.851418 3.352013,-2.280093 4.494381,-2.907437 4.777863,-2.623811 0.260391,0.260528 0.378045,2.559654 0.390784,7.63656 l 0.01824,7.263808 5.901773,0.100192 c 4.804759,0.08157 6.3341,-0.005 8.227626,-0.465536 2.195482,-0.534019 2.377616,-0.535152 3.249373,-0.02019 C 84.955275,51.138867 86.243426,51.2 95.630508,51.2 c 7.129072,0 10.640292,-0.110918 10.782252,-0.340608 0.30903,-0.500029 -1.81068,-3.528278 -3.92923,-5.613347 -3.706843,-3.648266 -9.07547,-6.634327 -17.772923,-9.885395 -2.916551,-1.090192 -4.587223,-1.881364 -4.652605,-2.203306 -0.116801,-0.575104 1.33463,-2.609289 2.060528,-2.887843 0.266726,-0.102353 1.579158,0.03992 2.916518,0.316157 5.481748,1.132286 11.977031,3.860268 16.775252,7.045513 4.55801,3.025783 8.80612,7.964925 10.03643,11.669034 0.2886,0.868886 0.54915,1.609872 0.57901,1.646633 0.0298,0.03677 3.94228,0.144765 8.69428,0.24 l 8.64,0.173162 0.089,4.199968 0.089,4.199971 1.64103,0.21769 c 3.76792,0.499833 4.73271,1.720134 6.67535,8.443174 1.16804,4.042333 1.84812,5.247149 3.36935,5.969018 0.62351,0.295875 1.08603,0.680854 1.02781,0.85551 -0.0582,0.174653 -1.4928,0.863082 -3.18796,1.529843 -3.28844,1.29345 -6.80409,3.109367 -8.5036,4.392311 l -1.04,0.785085 v 9.743715 c 0,11.242645 -0.37104,10.319575 3.58093,8.908595 3.25453,-1.161971 6.93534,-3.116358 9.98818,-5.303392 1.42499,-1.020854 2.76266,-1.857312 2.9726,-1.858794 0.76657,-0.0054 2.6883,1.365063 2.59389,1.849821 -0.12737,0.65401 -7.6598,6.026765 -10.78047,7.689525 -1.36256,0.72601 -3.76388,1.73929 -5.33626,2.25176 l -2.85887,0.93175 -0.0808,15.15722 c -0.0693,12.98587 -0.1491,15.20784 -0.55725,15.51049 -0.65948,0.48903 -5.58547,0.28221 -6.1162,-0.2568 -0.35335,-0.35884 -2.45342,-5.10659 -5.27984,-11.93646 -0.56363,-1.36198 -0.98555,-1.94787 -1.45173,-2.0159 -0.56827,-0.0829 -0.90881,0.52309 -2.5174,4.48 -3.38901,8.33649 -4.13249,9.76458 -5.20637,10.00044 -1.34416,0.29523 -2.63225,-0.10782 -2.94116,-0.9203 -0.14526,-0.38207 -0.57148,-3.20783 -0.94715,-6.27946 -0.88414,-7.22896 -0.83282,-7.02478 -1.76547,-7.02478 -0.66871,0 -1.0841,0.60602 -3.12558,4.56 -1.816922,3.51906 -2.497802,4.56 -2.982698,4.56 -0.482979,0 -1.182419,-1.05484 -3.023635,-4.56 -1.967056,-3.74473 -2.520327,-4.56 -3.094573,-4.56 -0.829392,0 -0.778701,-0.19837 -1.880772,7.36 -0.449088,3.08 -0.890524,5.847 -0.980969,6.14888 -0.226525,0.75608 -2.092912,1.06291 -3.172925,0.52163 -0.882323,-0.44221 -2.459991,-3.70423 -5.431604,-11.23051 -1.031168,-2.61167 -1.345177,-3.12 -1.927305,-3.12 -0.56745,0 -0.860573,0.42696 -1.592769,2.32 -2.38671,6.17069 -5.068941,11.81553 -5.727897,12.05455 -0.824455,0.29905 -5.244468,0.20432 -5.565258,-0.11928 -0.126842,-0.12795 0.146896,-0.54373 0.608304,-0.92395 1.840813,-1.51692 2.095427,-3.5662 0.625689,-5.03593 -0.514461,-0.51447 -1.202419,-0.93539 -1.528797,-0.93539 -0.326377,0 -0.924377,-0.23181 -1.328886,-0.51515 -0.489216,-0.34265 -1.064122,-0.44941 -1.717015,-0.31883 -1.498355,0.29967 -1.849917,-0.21389 -1.849917,-2.70235 0,-2.06453 0.441201,-3.18367 1.255108,-3.18367 0.745021,0 2.320365,0.78572 2.591648,1.29262 0.475693,0.88884 0.374858,2.63701 -0.199395,3.45687 -0.707712,1.0104 -0.434077,1.12805 1.149734,0.49433 2.364202,-0.94596 2.83576,-3.73096 0.839677,-4.95909 -0.853734,-0.52527 -1.514618,-0.60118 -4.605453,-0.529 l -3.608682,0.0843 -0.07132,6.77363 c -0.03923,3.72549 -0.149002,6.85117 -0.243946,6.94595 -0.262912,0.26247 -6.062023,0.31234 -6.320784,0.0544 -0.124624,-0.12425 -0.270525,-3.31022 -0.324224,-7.07992 L 49.884733,122.88 h -1.422365 -1.422365 l -0.0049,6.64 c -0.0026,3.652 -0.110695,6.79736 -0.24,6.98968 -0.339197,0.50451 -1.813549,0.65332 -4.555101,0.45977 z M 132.68061,74.857584 c 1.29767,-0.716326 2.3594,-1.454906 2.3594,-1.641283 0,-0.475559 -1.48628,-4.543383 -2.11364,-5.784858 -0.7314,-1.44735 -1.73506,-2.471443 -2.42214,-2.471443 -0.54337,0 -0.58422,0.391562 -0.58422,5.6 0,3.08 0.0903,5.6 0.2006,5.6 0.11034,0 1.26234,-0.586086 2.56,-1.302416 z M 39.680002,63.867197 V 59.25439 l -1.52,-1.344342 c -0.836,-0.739389 -2.366889,-1.921818 -3.401974,-2.627622 -2.270314,-1.54808 -7.073383,-3.844048 -7.747649,-3.70354 -0.807465,0.168269 5.776845,9.678493 10.205863,14.741114 1.039319,1.188 2.018842,2.16 2.176714,2.16 0.157875,0 0.287046,-2.075763 0.287046,-4.612803 z M 61.767476,50.546038 C 62.259956,49.62583 62.597904,43.2 62.153818,43.2 c -0.934646,0 -7.031815,7.036026 -6.642724,7.665584 0.118692,0.192048 1.419917,0.334416 3.056535,0.334416 2.542631,0 2.887587,-0.0705 3.199847,-0.653962 z M 72.892363,136.9182 c -0.398455,-0.24626 -0.179645,-1.62692 0.525184,-3.31381 l 0.480345,-1.14963 2.810173,0.0926 2.810173,0.0926 0.745024,1.87986 c 0.409767,1.03392 0.626164,1.99208 0.480887,2.12924 -0.333607,0.31498 -7.386452,0.55669 -7.851786,0.2691 z m 17.294887,0.11273 c -0.85464,-0.17223 -0.940806,-0.90029 -0.55297,-4.67225 0.412567,-4.01247 0.739143,-5.00834 1.415351,-4.31601 0.653622,0.66921 4.310375,7.78387 4.310375,8.38637 0,0.4143 -0.333962,0.54003 -1.52,0.57222 -0.836001,0.0227 -1.880001,0.0628 -2.320001,0.0891 -0.44,0.0263 -1.03974,-3.2e-4 -1.332755,-0.0595 z m 6.967991,-0.0144 c -0.283379,-0.0569 -0.507466,-0.3449 -0.497971,-0.64 0.02957,-0.91945 4.27568,-8.52256 4.81789,-8.62698 0.59098,-0.11381 0.80471,1.02623 1.13379,6.04775 l 0.20388,3.11105 -2.57118,0.10582 c -1.414147,0.0582 -2.80303,0.0593 -3.086409,0.002 z M 111.767,136.78517 c -0.39186,-0.28567 -0.34699,-0.61447 0.30572,-2.24 l 0.765,-1.90517 2.78713,-0.0925 2.78714,-0.0925 0.63401,1.47907 c 0.79998,1.86627 0.82773,3.01407 0.074,3.06056 -2.88659,0.17804 -6.98153,0.0615 -7.35301,-0.20937 z m -51.720993,-0.94488 c -0.397258,-0.39726 -0.526004,-1.13134 -0.526004,-2.99915 0,-2.56294 0.284554,-3.24114 1.359892,-3.24114 1.886909,0 3.409565,2.11364 2.968691,4.12092 -0.401257,1.82692 -2.773088,3.14886 -3.802579,2.11937 z m 14.991204,-4.44276 c -0.587399,-0.42952 -0.578765,-0.50448 0.294845,-2.56 0.516585,-1.21549 1.096598,-2.11753 1.361565,-2.11753 0.491171,0 2.026384,3.13264 2.026384,4.13489 0,0.32815 -0.227776,0.68404 -0.506173,0.79087 -0.88529,0.33972 -2.550506,0.20959 -3.176621,-0.24823 z m 39.088799,0.21534 c -0.45158,-0.11623 -0.55312,-0.35669 -0.42349,-1.00288 0.32191,-1.60483 1.47208,-3.88999 1.9579,-3.88999 0.55196,0 1.20325,1.13633 1.80265,3.14515 0.35008,1.17324 0.34322,1.42951 -0.0449,1.6751 -0.47463,0.30035 -2.25486,0.33962 -3.29219,0.0726 z"
         id="path3722"
         inkscape:connector-curvature="0" />
      <path
         style="fill:#898989;stroke-width:0.32000002"
         d="m 40.213337,136.42667 c -0.117335,-0.11734 -0.213335,-14.07842 -0.213335,-31.02463 V 74.590746 l -1.52,-1.034602 C 32.608559,69.559686 26.23809,60.855837 22.079656,51.148659 c -1.404841,-3.279366 -1.280107,-3.524729 1.671476,-3.287955 5.61312,0.450282 10.040982,1.891802 13.734115,4.471238 1.119114,0.781636 2.133632,1.422708 2.25448,1.424605 0.120848,0.0019 0.264848,-0.464547 0.32,-1.036547 l 0.100275,-1.04 4.540001,-0.16 4.54,-0.16 1.575766,-2.245142 c 0.866669,-1.234829 2.748676,-3.348535 4.182231,-4.697124 2.944656,-2.770121 10.583018,-8.08472 11.008369,-7.659369 0.313676,0.313677 0.476992,8.954627 0.233635,12.361635 l -0.16,2.24 6.72,0.09298 c 5.420605,0.07501 7.081175,-0.0071 8.58787,-0.424374 1.700889,-0.47111 1.917689,-0.472272 2.425197,-0.01299 0.485155,0.439059 2.01608,0.504374 11.822176,0.504374 9.541403,0 11.292063,-0.07093 11.442763,-0.463644 0.48041,-1.251917 -4.66169,-7.052685 -8.533643,-9.626752 -2.879542,-1.914314 -8.453149,-4.56746 -13.699591,-6.521271 -2.351373,-0.875667 -4.345917,-1.662809 -4.432314,-1.749209 -0.0864,-0.0864 0.247015,-0.6869 0.740922,-1.334443 0.876714,-1.149431 0.936931,-1.17278 2.539031,-0.984485 2.758812,0.324244 8.119082,2.067443 11.86032,3.857059 8.252105,3.947389 13.497215,8.826553 15.890265,14.781632 l 0.75592,1.881113 8.62055,0.16 8.62054,0.16 0.16,4.319341 0.16,4.319341 1.92,0.238656 c 3.27995,0.407699 4.26699,1.647238 5.92652,7.442662 1.13214,3.953671 2.22853,6.105664 3.37737,6.629111 0.42686,0.194489 0.77611,0.455209 0.77611,0.579376 0,0.124169 -0.9,0.549645 -2,0.945504 -2.48342,0.893712 -7.14826,3.268333 -8.86854,4.514493 l -1.29146,0.935539 v 10.05911 c 0,5.532509 0.12556,10.136707 0.27902,10.231557 0.41071,0.25383 5.52658,-1.54363 8.31538,-2.921605 1.33047,-0.657395 3.68953,-2.107542 5.24235,-3.22255 2.9386,-2.110061 3.24796,-2.180829 4.68564,-1.071885 l 0.76239,0.588061 -2.52239,1.909881 c -5.6375,4.268558 -9.28117,6.318428 -13.88239,7.810018 l -2.72,0.88175 -0.16,15.30582 -0.16,15.30583 h -2.88 -2.88 l -0.93536,-1.92 c -0.51445,-1.056 -1.8851,-4.224 -3.0459,-7.04 -2.02141,-4.90377 -2.151,-5.12399 -3.0685,-5.2146 -0.94889,-0.0937 -0.97582,-0.0513 -2.84886,4.48 -1.04,2.51603 -2.43567,5.7626 -3.1015,7.2146 l -1.21058,2.64 h -1.43577 c -0.78967,0 -1.52921,-0.15121 -1.64343,-0.33602 -0.11422,-0.18481 -0.58452,-3.29747 -1.04512,-6.91703 -0.76873,-6.04105 -0.89478,-6.60715 -1.53628,-6.89944 -0.45458,-0.20711 -0.89306,-0.20972 -1.25451,-0.007 -0.30562,0.17103 -1.58134,2.31098 -2.83493,4.75545 -1.253597,2.44446 -2.423264,4.43193 -2.599264,4.4166 -0.235466,-0.0205 -4.323809,-7.17525 -5.034093,-8.80983 -0.208055,-0.4788 -1.486346,-0.59614 -1.907399,-0.17509 -0.275792,0.2758 -0.790016,2.7947 -1.333347,6.53136 -1.166663,8.02353 -0.963027,7.44145 -2.603303,7.44145 -0.74992,0 -1.509638,-0.18 -1.688262,-0.4 -0.352461,-0.43411 -4.949159,-11.09218 -5.347972,-12.4 -0.355533,-1.1659 -0.791158,-1.6 -1.605625,-1.6 -0.963879,0 -1.084813,0.19556 -2.869357,4.64 -0.848016,2.112 -2.159498,5.172 -2.914404,6.8 l -1.372553,2.96 h -2.421844 c -1.332013,0 -2.421843,-0.0872 -2.421843,-0.1938 0,-0.1066 0.36,-0.62165 0.8,-1.14456 0.575488,-0.68393 0.8,-1.32799 0.8,-2.29499 0,-1.55237 -0.60455,-2.5664 -1.942557,-3.25831 l -0.943709,-0.48802 1.283133,-1.22061 c 1.370147,-1.30339 1.590429,-2.21516 0.900832,-3.72865 -0.627613,-1.37746 -1.975165,-1.84577 -5.775495,-2.00712 -2.406339,-0.10217 -3.577408,-0.0301 -3.903133,0.24023 -0.381107,0.31629 -0.45966,1.56047 -0.433971,6.87353 0.01725,3.56803 -0.07084,6.6527 -0.195753,6.85482 -0.322388,0.52163 -5.192151,0.49297 -5.52475,-0.0325 -0.139244,-0.22 -0.255744,-3.352 -0.258886,-6.96 l -0.0057,-6.56 -1.525728,-0.17534 c -0.839152,-0.0964 -1.678221,-0.0811 -1.864599,0.0341 -0.222153,0.1373 -0.32672,2.41097 -0.30359,6.60134 0.01939,3.51554 -0.05693,6.6322 -0.169635,6.92591 -0.170874,0.44529 -0.695447,0.53401 -3.157351,0.53401 -1.623837,0 -3.048432,-0.096 -3.165763,-0.21333 z M 132.92388,75.333824 c 1.51587,-0.806397 2.75613,-1.623958 2.75613,-1.816803 0,-0.696877 -2.03486,-5.864938 -2.76755,-7.028925 -0.87861,-1.395802 -2.14638,-2.315648 -2.82998,-2.053325 -0.40657,0.156019 -0.48247,1.143152 -0.48247,6.275187 0,3.349524 0.12774,6.090042 0.28387,6.090042 0.15614,0 1.52414,-0.659779 3.04,-1.466176 z M 40.063967,64.260214 c 0.112439,-5.68984 0.279664,-5.310185 -3.639856,-8.263632 -3.833751,-2.888816 -9.510979,-5.597712 -10.228264,-4.880428 -0.329374,0.329376 3.482765,6.331427 6.861947,10.803846 2.66305,3.524602 5.973661,7.2 6.485396,7.2 0.330131,0 0.446134,-1.082538 0.520777,-4.859786 z M 62.009309,51.12 c 0.33177,-0.405005 1.028138,-5.280582 1.029792,-7.210042 0.0016,-1.808918 -0.794726,-1.652844 -3.089789,0.605613 -2.618038,2.576285 -5.229309,5.816986 -5.229309,6.489802 0,0.441296 0.496,0.514627 3.48082,0.514627 2.396563,0 3.582883,-0.124598 3.808486,-0.4 z m 11.097732,84.65772 c 0.119031,-0.47425 0.417859,-1.3444 0.664067,-1.93365 l 0.447648,-1.07137 2.487393,0.0937 c 2.332752,0.0878 2.51254,0.14625 2.891849,0.93977 0.222451,0.46537 0.493904,1.29337 0.603232,1.84 l 0.198775,0.99388 h -3.754692 -3.754691 z m 16.744206,0.496 c -0.169338,-0.508 0.571139,-7.28277 0.82359,-7.53522 0.112842,-0.11284 0.263748,-0.14517 0.335348,-0.0718 0.308,0.31546 4.029821,7.40315 4.029821,7.67423 0,0.44502 -5.039777,0.37977 -5.188759,-0.0672 z m 7.31824,0.12634 c -0.203718,-0.32962 3.884763,-8.08006 4.262363,-8.08006 0.28112,0 0.66964,3.27956 0.7582,6.4 l 0.05,1.76 -2.453099,0.093 c -1.349203,0.0511 -2.527043,-0.0267 -2.617424,-0.17292 z m 14.830523,-0.21353 c 0,-0.24941 0.28288,-1.11341 0.62862,-1.92 L 113.25726,132.8 h 2.42275 2.42274 l 0.62863,1.46653 c 1.03672,2.41858 1.09471,2.37347 -3.05137,2.37347 -2.9621,0 -3.68,-0.0885 -3.68,-0.45347 z M 59.993133,133.6461 c -0.304102,-2.83965 -0.184758,-3.22699 1.030624,-3.34497 1.483021,-0.14396 2.336247,0.82709 2.336247,2.65887 0,1.71946 -0.814605,2.72 -2.214532,2.72 -0.911836,0 -0.939817,-0.0494 -1.152339,-2.0339 z M 75.207032,130.64 c 0.0099,-0.78502 1.179692,-3.28 1.53792,-3.28 0.298864,0 1.655053,2.86743 1.655053,3.49932 0,0.19548 -0.681924,0.34068 -1.6,0.34068 -1.313153,0 -1.59874,-0.1004 -1.592973,-0.56 z m 38.930048,0.32 c -0.24751,-0.4222 1.13255,-3.6 1.56342,-3.6 0.43241,0 1.78168,3.18043 1.52726,3.6 -0.08,0.132 -0.77653,0.24 -1.54775,0.24 -0.77123,0 -1.46555,-0.108 -1.54293,-0.24 z m -54.083742,-2.53333 c -0.264682,-0.26469 -0.272595,-2.89293 -0.01165,-3.86667 0.250282,-0.93393 1.778723,-0.97958 2.678307,-0.08 1.333728,1.33373 0.267155,4.16 -1.569891,4.16 -0.485894,0 -0.979443,-0.096 -1.096774,-0.21333 z"
         id="path3720"
         inkscape:connector-curvature="0" />
      <path
         style="fill:#6f6f6f;stroke-width:0.32000002"
         d="m 40.213337,136.42667 c -0.117335,-0.11734 -0.213335,-14.07842 -0.213335,-31.02463 V 74.590746 l -1.52,-1.034602 C 32.608559,69.559686 26.23809,60.855837 22.079656,51.148659 c -1.404841,-3.279366 -1.280107,-3.524729 1.671476,-3.287955 5.61312,0.450282 10.040982,1.891802 13.734115,4.471238 1.119114,0.781636 2.133632,1.422708 2.25448,1.424605 0.120848,0.0019 0.264848,-0.464547 0.32,-1.036547 l 0.100275,-1.04 4.540001,-0.16 4.54,-0.16 1.575766,-2.245142 c 0.866669,-1.234829 2.748676,-3.348535 4.182231,-4.697124 2.944656,-2.770121 10.583018,-8.08472 11.008369,-7.659369 0.313676,0.313677 0.476992,8.954627 0.233635,12.361635 l -0.16,2.24 6.72,0.09298 c 5.420605,0.07501 7.081175,-0.0071 8.58787,-0.424374 1.700889,-0.47111 1.917689,-0.472272 2.425197,-0.01299 0.485155,0.439059 2.01608,0.504374 11.822176,0.504374 9.541403,0 11.292063,-0.07093 11.442763,-0.463644 0.48041,-1.251917 -4.66169,-7.052685 -8.533643,-9.626752 -2.879542,-1.914314 -8.453149,-4.56746 -13.699591,-6.521271 -2.351373,-0.875667 -4.345917,-1.662809 -4.432314,-1.749209 -0.0864,-0.0864 0.247015,-0.6869 0.740922,-1.334443 0.876714,-1.149431 0.936931,-1.17278 2.539031,-0.984485 2.758812,0.324244 8.119082,2.067443 11.86032,3.857059 8.252105,3.947389 13.497215,8.826553 15.890265,14.781632 l 0.75592,1.881113 8.62055,0.16 8.62054,0.16 0.16,4.319341 0.16,4.319341 1.92,0.238656 c 3.27995,0.407699 4.26699,1.647238 5.92652,7.442662 1.13214,3.953671 2.22853,6.105664 3.37737,6.629111 0.42686,0.194489 0.77611,0.455209 0.77611,0.579376 0,0.124169 -0.9,0.549645 -2,0.945504 -2.48086,0.89279 -7.1477,3.267926 -8.8641,4.51128 l -1.28703,0.93232 -0.0844,10.321203 -0.0844,10.321216 -1.92,-0.027 c -3.81645,-0.0536 -6.99091,-1.71357 -11.79251,-6.166409 -4.17024,-3.867347 -6.30054,-4.742905 -10.20482,-4.194198 -2.59257,0.364358 -4.60421,1.374601 -10.847753,5.447715 -7.125098,4.648212 -8.756029,5.409832 -11.680036,5.454332 -3.405126,0.0518 -4.357283,-0.55209 -11.256048,-7.139346 -5.124042,-4.892669 -6.655322,-5.776602 -10.079358,-5.818304 -1.982163,-0.02413 -2.598304,0.117516 -4.464931,1.026537 -1.190999,0.58 -3.301312,1.910439 -4.689581,2.956535 -2.924688,2.203817 -8.34497,7.794118 -8.34497,8.606718 0,0.57644 0.946531,1.6134 1.472704,1.6134 0.166272,0 1.450931,-1.16303 2.854803,-2.58451 5.48192,-5.550664 9.706746,-8.294748 12.771463,-8.295237 2.501984,-3.2e-4 4.06802,1.000105 8.993086,5.745494 4.894544,4.715983 7.275792,6.340483 10.621661,7.246163 2.004026,0.54247 2.210237,0.54341 4.216679,0.0194 3.207328,-0.83769 7.424118,-3.04363 12.029607,-6.293056 5.324834,-3.756966 6.837284,-4.5228 9.326714,-4.722627 2.64107,-0.212 3.87894,0.412503 8.12995,4.101536 5.16477,4.481997 8.38655,6.148537 12.83493,6.639157 l 2.02841,0.22372 v 15.2 15.2 h -2.88 -2.88 l -0.93536,-1.92 c -0.51445,-1.056 -1.8851,-4.224 -3.0459,-7.04 -2.02141,-4.90377 -2.151,-5.12399 -3.0685,-5.2146 -0.94889,-0.0937 -0.97582,-0.0513 -2.84886,4.48 -1.04,2.51603 -2.43567,5.7626 -3.1015,7.2146 l -1.21058,2.64 h -1.43577 c -0.78967,0 -1.52921,-0.15121 -1.64343,-0.33602 -0.11422,-0.18481 -0.58452,-3.29747 -1.04512,-6.91703 -0.76873,-6.04105 -0.89478,-6.60715 -1.53628,-6.89944 -0.45458,-0.20711 -0.89306,-0.20972 -1.25451,-0.007 -0.30562,0.17103 -1.58134,2.31098 -2.83493,4.75545 -1.253597,2.44446 -2.423264,4.43193 -2.599264,4.4166 -0.235466,-0.0205 -4.323809,-7.17525 -5.034093,-8.80983 -0.208055,-0.4788 -1.486346,-0.59614 -1.907399,-0.17509 -0.275792,0.2758 -0.790016,2.7947 -1.333347,6.53136 -1.166663,8.02353 -0.963027,7.44145 -2.603303,7.44145 -0.74992,0 -1.509638,-0.18 -1.688262,-0.4 -0.352461,-0.43411 -4.949159,-11.09218 -5.347972,-12.4 -0.355533,-1.1659 -0.791158,-1.6 -1.605625,-1.6 -0.963879,0 -1.084813,0.19556 -2.869357,4.64 -0.848016,2.112 -2.159498,5.172 -2.914404,6.8 l -1.372553,2.96 h -2.421844 c -1.332013,0 -2.421843,-0.0872 -2.421843,-0.1938 0,-0.1066 0.36,-0.62165 0.8,-1.14456 0.575488,-0.68393 0.8,-1.32799 0.8,-2.29499 0,-1.55237 -0.60455,-2.5664 -1.942557,-3.25831 l -0.943709,-0.48802 1.283133,-1.22061 c 1.370147,-1.30339 1.590429,-2.21516 0.900832,-3.72865 -0.627613,-1.37746 -1.975165,-1.84577 -5.775495,-2.00712 -2.406339,-0.10217 -3.577408,-0.0301 -3.903133,0.24023 -0.381107,0.31629 -0.45966,1.56047 -0.433971,6.87353 0.01725,3.56803 -0.07084,6.6527 -0.195753,6.85482 -0.322388,0.52163 -5.192151,0.49297 -5.52475,-0.0325 -0.139244,-0.22 -0.255744,-3.352 -0.258886,-6.96 l -0.0057,-6.56 -1.525728,-0.17534 c -0.839152,-0.0964 -1.678221,-0.0811 -1.864599,0.0341 -0.222153,0.1373 -0.32672,2.41097 -0.30359,6.60134 0.01939,3.51554 -0.05693,6.6322 -0.169635,6.92591 -0.170874,0.44529 -0.695447,0.53401 -3.157351,0.53401 -1.623837,0 -3.048432,-0.096 -3.165763,-0.21333 z M 132.92388,75.333824 c 1.51587,-0.806397 2.75613,-1.623958 2.75613,-1.816803 0,-0.696877 -2.03486,-5.864938 -2.76755,-7.028925 -0.87861,-1.395802 -2.14638,-2.315648 -2.82998,-2.053325 -0.40657,0.156019 -0.48247,1.143152 -0.48247,6.275187 0,3.349524 0.12774,6.090042 0.28387,6.090042 0.15614,0 1.52414,-0.659779 3.04,-1.466176 z M 40.063967,64.260214 c 0.112439,-5.68984 0.279664,-5.310185 -3.639856,-8.263632 -3.833751,-2.888816 -9.510979,-5.597712 -10.228264,-4.880428 -0.329374,0.329376 3.482765,6.331427 6.861947,10.803846 2.66305,3.524602 5.973661,7.2 6.485396,7.2 0.330131,0 0.446134,-1.082538 0.520777,-4.859786 z M 62.009309,51.12 c 0.33177,-0.405005 1.028138,-5.280582 1.029792,-7.210042 0.0016,-1.808918 -0.794726,-1.652844 -3.089789,0.605613 -2.618038,2.576285 -5.229309,5.816986 -5.229309,6.489802 0,0.441296 0.496,0.514627 3.48082,0.514627 2.396563,0 3.582883,-0.124598 3.808486,-0.4 z m 11.097732,84.65772 c 0.119031,-0.47425 0.417859,-1.3444 0.664067,-1.93365 l 0.447648,-1.07137 2.487393,0.0937 c 2.332752,0.0878 2.51254,0.14625 2.891849,0.93977 0.222451,0.46537 0.493904,1.29337 0.603232,1.84 l 0.198775,0.99388 h -3.754692 -3.754691 z m 16.744206,0.496 c -0.169338,-0.508 0.571139,-7.28277 0.82359,-7.53522 0.112842,-0.11284 0.263748,-0.14517 0.335348,-0.0718 0.308,0.31546 4.029821,7.40315 4.029821,7.67423 0,0.44502 -5.039777,0.37977 -5.188759,-0.0672 z m 7.31824,0.12634 c -0.203718,-0.32962 3.884763,-8.08006 4.262363,-8.08006 0.28112,0 0.66964,3.27956 0.7582,6.4 l 0.05,1.76 -2.453099,0.093 c -1.349203,0.0511 -2.527043,-0.0267 -2.617424,-0.17292 z m 14.830523,-0.21353 c 0,-0.24941 0.28288,-1.11341 0.62862,-1.92 L 113.25726,132.8 h 2.42275 2.42274 l 0.62863,1.46653 c 1.03672,2.41858 1.09471,2.37347 -3.05137,2.37347 -2.9621,0 -3.68,-0.0885 -3.68,-0.45347 z M 59.993133,133.6461 c -0.304102,-2.83965 -0.184758,-3.22699 1.030624,-3.34497 1.483021,-0.14396 2.336247,0.82709 2.336247,2.65887 0,1.71946 -0.814605,2.72 -2.214532,2.72 -0.911836,0 -0.939817,-0.0494 -1.152339,-2.0339 z M 75.207032,130.64 c 0.0099,-0.78502 1.179692,-3.28 1.53792,-3.28 0.298864,0 1.655053,2.86743 1.655053,3.49932 0,0.19548 -0.681924,0.34068 -1.6,0.34068 -1.313153,0 -1.59874,-0.1004 -1.592973,-0.56 z m 38.930048,0.32 c -0.24751,-0.4222 1.13255,-3.6 1.56342,-3.6 0.43241,0 1.78168,3.18043 1.52726,3.6 -0.08,0.132 -0.77653,0.24 -1.54775,0.24 -0.77123,0 -1.46555,-0.108 -1.54293,-0.24 z m -54.083742,-2.53333 c -0.264682,-0.26469 -0.272595,-2.89293 -0.01165,-3.86667 0.250282,-0.93393 1.778723,-0.97958 2.678307,-0.08 1.333728,1.33373 0.267155,4.16 -1.569891,4.16 -0.485894,0 -0.979443,-0.096 -1.096774,-0.21333 z"
         id="path3718"
         inkscape:connector-curvature="0" />
      <path
         style="fill:#6e6e6e;stroke-width:0.32000002"
         d="M 40.320002,105.61009 V 74.900189 l -1.84,-1.332483 C 32.19148,69.013718 26.25843,60.903318 22.079656,51.148659 c -1.404841,-3.279366 -1.280107,-3.524729 1.671476,-3.287955 5.61312,0.450282 10.040982,1.891802 13.734115,4.471238 1.119114,0.781636 2.214755,1.422708 2.434755,1.424605 0.231879,0.0019 0.4,-0.400038 0.4,-0.956547 v -0.96 h 4.293364 4.29336 l 1.739421,-2.482336 c 0.956678,-1.365286 2.913671,-3.586992 4.348871,-4.937123 2.805952,-2.639639 10.579408,-8.094119 10.973584,-7.699943 0.419408,0.419408 0.650525,8.450884 0.328643,11.420688 -0.170566,1.573706 -0.232441,3.063712 -0.1375,3.311127 0.269299,0.701779 13.026749,0.359757 15.419709,-0.413399 1.722858,-0.556649 1.744746,-0.555468 2.294631,0.12361 0.550957,0.6804 0.641213,0.684979 11.856253,0.601498 12.968402,-0.09653 12.356722,0.08074 10.318292,-2.990282 -1.58686,-2.39071 -4.83542,-5.56999 -7.504263,-7.344237 -2.879542,-1.914313 -8.453149,-4.567459 -13.699591,-6.52127 -2.351373,-0.875667 -4.345917,-1.66281 -4.432314,-1.74921 -0.0864,-0.0864 0.247015,-0.686899 0.740922,-1.334442 0.876714,-1.149431 0.936931,-1.17278 2.539031,-0.984485 2.758812,0.324244 8.119082,2.067442 11.86032,3.857058 8.168185,3.907245 13.567825,8.901226 15.830195,14.640916 0.3686,0.935126 0.81986,1.880592 1.00281,2.10103 0.25076,0.30215 2.36853,0.4008 8.60416,0.4008 h 8.27153 l 0.0893,4.24 0.0893,4.24 2.06763,0.22801 c 3.44189,0.379561 4.4137,1.566982 6.09889,7.45199 1.13214,3.95367 2.22853,6.105664 3.37737,6.62911 0.42686,0.19449 0.77611,0.45521 0.77611,0.579376 0,0.12417 -0.9,0.548509 -2,0.94298 -2.65386,0.951696 -7.90256,3.690579 -9.3346,4.870995 l -1.1454,0.944134 v 9.906746 c 0,8.542579 -0.0666,9.932299 -0.48349,10.092279 -0.87928,0.33741 -4.69647,-0.59863 -6.8647,-1.68335 -1.36231,-0.68154 -3.32273,-2.156651 -5.42278,-4.080344 -3.80248,-3.483174 -5.62586,-4.581939 -8.08284,-4.870707 -3.67525,-0.431955 -6.53995,0.722231 -14.026194,5.651117 -6.655418,4.381874 -7.91826,4.989994 -10.932375,5.264404 -2.305943,0.20994 -2.552813,0.16864 -4.13441,-0.69173 -0.925117,-0.50326 -3.709549,-2.838463 -6.187626,-5.189349 C 70.667541,94.014774 67.916373,91.603862 67.031912,91.008083 65.203989,89.776784 62.37156,89.11112 60.213723,89.405709 56.914529,89.856115 50.6641,94.13711 46.327444,98.916592 43.18609,102.37872 43.23009,102.2594 44.592413,103.62172 l 1.146362,1.14637 3.930624,-3.84467 c 4.268173,-4.174822 7.221008,-6.372492 9.472772,-7.050175 3.48479,-1.048765 4.948125,-0.355875 10.39569,4.922365 4.747069,4.59952 7.440368,6.52639 10.415872,7.45185 2.712023,0.84352 3.875937,0.79466 7.003326,-0.29394 3.199411,-1.11367 6.191222,-2.79838 10.642967,-5.993133 4.236914,-3.040579 6.397864,-4.137645 8.705804,-4.419734 2.48931,-0.304253 3.83376,0.339827 7.6204,3.650665 5.32201,4.653292 8.9246,6.575972 13.1138,6.998762 l 2.08,0.20992 0.0832,14.96 0.0832,14.96 h -2.74384 -2.74384 l -1.27609,-2.76209 c -0.70185,-1.51915 -2.00552,-4.57915 -2.89704,-6.8 -0.89152,-2.22085 -1.77171,-4.22526 -1.95598,-4.45425 -0.18427,-0.22899 -0.75411,-0.37299 -1.26633,-0.32 -0.8755,0.0906 -1.04234,0.36471 -2.78509,4.57634 -1.01959,2.464 -2.36669,5.632 -2.99355,7.04 l -1.13975,2.56 -1.43563,0.0964 c -1.15781,0.0778 -1.46818,-0.0151 -1.6038,-0.48 -0.0925,-0.31704 -0.47376,-3.16844 -0.84727,-6.33644 -0.3735,-3.168 -0.81079,-6.084 -0.97175,-6.48 -0.22363,-0.55019 -0.55198,-0.72 -1.39216,-0.72 -1.08852,0 -1.12317,0.045 -3.470051,4.50986 -1.303802,2.48042 -2.504112,4.51653 -2.667357,4.52469 -0.163242,0.008 -1.351021,-2.02128 -2.639507,-4.50986 -2.30976,-4.46107 -2.357863,-4.52469 -3.421114,-4.52469 -0.59313,0 -1.170125,0.14839 -1.282215,0.32975 -0.112089,0.18137 -0.622889,3.16909 -1.13511,6.63939 -0.512224,3.47029 -1.003693,6.49825 -1.09216,6.72879 -0.106669,0.27797 -0.619907,0.38596 -1.523773,0.32061 l -1.362928,-0.0985 -2.591981,-6.08 c -3.659523,-8.58413 -3.335642,-8 -4.435751,-8 -1.141737,0 -0.968067,-0.30829 -4.416483,7.84 l -2.64081,6.24 -2.157488,0.0946 c -1.186618,0.052 -2.157488,-0.009 -2.157488,-0.1348 0,-0.12618 0.252,-0.50788 0.56,-0.84822 0.390691,-0.43171 0.56,-1.15181 0.56,-2.38179 0,-1.63751 -0.08488,-1.83637 -1.192439,-2.79378 l -1.192438,-1.03078 0.93689,-0.8976 c 1.194931,-1.14481 1.457267,-2.34306 0.837648,-3.82602 -0.71682,-1.71559 -1.925364,-2.10163 -6.579383,-2.10163 -2.853904,0 -3.856579,0.10351 -3.874627,0.4 -0.01341,0.22 -0.0039,3.136 0.02106,6.48 0.02496,3.344 -0.05148,6.332 -0.169889,6.64 -0.31656,0.82345 -5.093811,0.83239 -5.409344,0.0101 -0.116051,-0.30243 -0.195123,-3.29043 -0.175712,-6.64 0.01942,-3.34957 0.02694,-6.27699 0.01677,-6.50539 -0.0136,-0.30478 -0.550659,-0.38992 -2.018522,-0.32 l -2,0.0953 -0.08624,6.96 -0.08624,6.96 h -3.03376 -3.03376 V 105.61011 Z M 132.92388,75.333824 c 1.51587,-0.806397 2.75613,-1.623958 2.75613,-1.816803 0,-0.696877 -2.03486,-5.864938 -2.76755,-7.028925 -0.94168,-1.496013 -2.1121,-2.28751 -2.97679,-2.013069 -0.63047,0.200106 -0.65566,0.440887 -0.65566,6.266538 0,4.952813 0.081,6.058435 0.44387,6.058435 0.24414,0 1.68414,-0.659779 3.2,-1.466176 z M 40.320002,64.363155 c 0,-5.589197 0.113533,-5.345382 -3.895891,-8.366573 -3.833751,-2.888816 -9.510979,-5.597712 -10.228264,-4.880428 -0.329374,0.329376 3.482765,6.331427 6.861947,10.803846 2.985248,3.95104 5.991181,7.2 6.661431,7.2 0.560761,0 0.600777,-0.316851 0.600777,-4.756845 z M 62.019719,51.12 c 0.3752,-0.734365 1.020285,-5.28767 1.020285,-7.201648 0,-1.817702 -0.792186,-1.664627 -3.090692,0.597219 -2.224041,2.188573 -4.998605,5.539856 -5.318291,6.423754 -0.272531,0.75351 0.131542,0.846723 3.794909,0.875411 3.035626,0.02378 3.247626,-0.01722 3.593789,-0.694736 z m 11.260285,84.88648 c 0,-0.17244 0.231636,-0.89244 0.514746,-1.6 L 74.309496,133.12 h 2.36096 2.36096 l 0.484294,1.15908 c 0.850016,2.03437 0.840788,2.04092 -2.875705,2.04092 -1.980401,0 -3.360001,-0.12873 -3.360001,-0.31352 z M 90.030344,134.96 c 0.100656,-0.748 0.27778,-2.332 0.393613,-3.52 0.115834,-1.188 0.329994,-2.16 0.475911,-2.16 0.249158,0 3.820138,6.38793 3.820138,6.83364 0,0.1135 -1.096349,0.20636 -2.436333,0.20636 h -2.436337 z m 9.210267,-2.53403 c 2.274729,-4.46174 2.311379,-4.45333 2.673829,0.61403 l 0.2346,3.28 h -2.446861 -2.446864 z m 13.207259,3.10814 c 0.60558,-2.4128 0.60733,-2.41411 3.23214,-2.41411 2.62481,0 2.62656,0.001 3.23213,2.41411 l 0.19725,0.78589 h -3.42938 -3.42939 z m -52.140606,-0.25192 c -0.09828,-0.25613 -0.135628,-1.4594 -0.08298,-2.67394 l 0.09572,-2.20825 0.93656,0.068 c 1.361689,0.0989 1.94344,0.84481 1.94344,2.49201 0,1.56899 -0.479092,2.23999 -1.837018,2.57288 -0.622349,0.15257 -0.928912,0.0798 -1.055722,-0.25069 z m 15.458529,-5.89557 c 0.304963,-0.82136 0.718589,-1.54808 0.919172,-1.61494 0.273833,-0.0913 1.39504,2.32413 1.39504,3.00532 0,0.0567 -0.645456,0.103 -1.434346,0.103 h -1.434346 z m 38.474217,1.35991 c 0,-0.44353 1.30387,-3.06653 1.52434,-3.06653 0.1469,0 0.46037,0.54 0.6966,1.2 0.23622,0.66 0.49656,1.38 0.57852,1.6 0.10568,0.28368 -0.2797,0.4 -1.32523,0.4 -0.81083,0 -1.47423,-0.0601 -1.47423,-0.13347 z m -53.863152,-2.31634 c -0.11927,-0.11927 -0.216854,-1.13338 -0.216854,-2.25357 0,-2.29549 0.343692,-2.6657 1.820563,-1.96101 0.73488,0.35065 0.916873,0.66595 0.994736,1.72334 0.0686,0.93156 -0.06589,1.43583 -0.48,1.79976 -0.704583,0.61921 -1.825002,0.98492 -2.118445,0.69148 z"
         id="path3716"
         inkscape:connector-curvature="0" />
      <path
         style="fill:#4f4f4f;stroke-width:0.32000002"
         d="m 40.320002,105.6 c 0,-16.896 0.036,-30.719334 0.08,-30.718518 0.044,9.6e-4 0.944,0.357398 2,0.792406 2.479175,1.021267 2.921287,1.003894 3.511783,-0.137997 0.268519,-0.519261 0.488218,-1.003209 0.488218,-1.075443 0,-0.07223 -0.9,-0.717683 -2,-1.434336 -1.1,-0.716656 -2.489053,-1.716445 -3.086781,-2.221754 l -1.086784,-0.918748 0.0684,-4.93776 c 0.03762,-2.715767 0.136678,-5.006032 0.220125,-5.089479 0.08344,-0.08345 1.340672,1.128835 2.793837,2.693959 1.923168,2.071337 2.786573,2.790243 3.172995,2.641961 0.812496,-0.311785 2.030077,-2.450422 3.646051,-6.404153 2.986186,-7.30617 2.836493,-7.172797 7.872154,-7.013789 3.35898,0.106064 3.760001,0.179968 3.760001,0.692944 0,0.315821 -0.724618,3.00343 -1.61026,5.972464 -0.885641,2.969033 -1.696464,6.004755 -1.801824,6.746048 -0.174768,1.229616 -0.11791,1.381363 0.648375,1.730505 0.786387,0.358301 0.957379,0.271008 2.681827,-1.369126 2.287191,-2.175363 4.213498,-3.307408 11.223028,-6.595488 4.106112,-1.926125 5.576519,-2.483648 5.700211,-2.161312 0.331444,0.863728 -0.981168,4.459494 -2.441744,6.688896 -2.984182,4.555024 -8.631523,9.358694 -18.799614,15.991098 -2.86,1.86551 -5.2,3.534323 -5.2,3.70847 0,0.44057 1.0908,0.97945 1.978963,0.977654 1.187056,-0.0026 8.12515,-3.540489 11.781038,-6.007753 6.057427,-4.088 10.783553,-8.747741 14.389831,-14.187703 2.489485,-3.755315 3.581287,-6.542272 3.776141,-9.639049 l 0.155795,-2.476 11.394817,-0.084 c 13.074405,-0.09638 12.451555,0.08249 10.412045,-2.990157 -1.58686,-2.39071 -4.83542,-5.56999 -7.504266,-7.344237 -2.879542,-1.914313 -8.453149,-4.567459 -13.699591,-6.52127 -2.351373,-0.875667 -4.345917,-1.66281 -4.432314,-1.74921 -0.0864,-0.0864 0.247015,-0.686899 0.740922,-1.334442 0.876714,-1.149431 0.936931,-1.17278 2.539031,-0.984485 2.758812,0.324244 8.119082,2.067442 11.86032,3.857058 8.168188,3.907245 13.567828,8.901226 15.830198,14.640916 0.3686,0.935126 0.81986,1.880592 1.00281,2.10103 0.25076,0.30215 2.36853,0.4008 8.60416,0.4008 h 8.27153 l 0.0893,4.24 0.0893,4.24 2.06763,0.22801 c 3.44189,0.379561 4.4137,1.566982 6.09889,7.45199 1.13214,3.95367 2.22853,6.105664 3.37737,6.62911 0.42686,0.19449 0.77611,0.45521 0.77611,0.579376 0,0.12417 -0.9,0.548509 -2,0.94298 -2.65386,0.951696 -7.90256,3.690579 -9.3346,4.870995 l -1.1454,0.944134 v 9.906746 c 0,8.542579 -0.0666,9.932299 -0.48349,10.092279 -0.87928,0.33741 -4.69647,-0.59863 -6.8647,-1.68335 -1.36231,-0.68154 -3.32273,-2.156651 -5.42278,-4.080344 -3.80248,-3.483174 -5.62586,-4.581939 -8.08284,-4.870707 -3.67525,-0.431955 -6.53995,0.722231 -14.026197,5.651117 -6.655418,4.381874 -7.91826,4.989994 -10.932375,5.264404 -2.305943,0.20994 -2.552813,0.16864 -4.13441,-0.69173 -0.925117,-0.50326 -3.709549,-2.838463 -6.187626,-5.189349 -2.478074,-2.350887 -5.229242,-4.761799 -6.113703,-5.357578 -1.827923,-1.231299 -4.660352,-1.896963 -6.818189,-1.602374 -3.299194,0.450406 -9.549623,4.731401 -13.886279,9.510883 -3.141354,3.462128 -3.097354,3.342808 -1.735031,4.705128 l 1.146362,1.14637 3.930624,-3.84467 c 4.268173,-4.174822 7.221008,-6.372492 9.472772,-7.050175 3.48479,-1.048765 4.948125,-0.355875 10.39569,4.922365 4.747069,4.59952 7.440368,6.52639 10.415872,7.45185 2.712023,0.84352 3.875937,0.79466 7.003326,-0.29394 3.199411,-1.11367 6.191222,-2.79838 10.642967,-5.993133 4.236917,-3.040579 6.397867,-4.137645 8.705807,-4.419734 2.48931,-0.304253 3.83376,0.339827 7.6204,3.650665 5.32201,4.653292 8.9246,6.575972 13.1138,6.998762 l 2.08,0.20992 0.0832,14.96 0.0832,14.96 h -2.74384 -2.74384 l -1.27609,-2.76209 c -0.70185,-1.51915 -2.00552,-4.57915 -2.89704,-6.8 -0.89152,-2.22085 -1.77171,-4.22526 -1.95598,-4.45425 -0.18427,-0.22899 -0.75411,-0.37299 -1.26633,-0.32 -0.8755,0.0906 -1.04234,0.36471 -2.78509,4.57634 -1.01959,2.464 -2.36669,5.632 -2.99355,7.04 l -1.13975,2.56 -1.43563,0.0964 c -1.15781,0.0778 -1.46818,-0.0151 -1.6038,-0.48 -0.0925,-0.31704 -0.47376,-3.16844 -0.84727,-6.33644 -0.3735,-3.168 -0.81079,-6.084 -0.97175,-6.48 -0.22363,-0.55019 -0.55198,-0.72 -1.39216,-0.72 -1.08852,0 -1.12317,0.045 -3.470054,4.50986 -1.303802,2.48042 -2.504112,4.51653 -2.667357,4.52469 -0.163242,0.008 -1.351021,-2.02128 -2.639507,-4.50986 -2.30976,-4.46107 -2.357863,-4.52469 -3.421114,-4.52469 -0.59313,0 -1.170125,0.14839 -1.282215,0.32975 -0.112089,0.18137 -0.622889,3.16909 -1.13511,6.63939 -0.512224,3.47029 -1.003693,6.49825 -1.09216,6.72879 -0.106669,0.27797 -0.619907,0.38596 -1.523773,0.32061 l -1.362928,-0.0985 -2.591981,-6.08 c -3.659523,-8.58413 -3.335642,-8 -4.435751,-8 -1.141737,0 -0.968067,-0.30829 -4.416483,7.84 l -2.64081,6.24 -2.157488,0.0946 c -1.186618,0.052 -2.157488,-0.009 -2.157488,-0.1348 0,-0.12618 0.252,-0.50788 0.56,-0.84822 0.390691,-0.43171 0.56,-1.15181 0.56,-2.38179 0,-1.63751 -0.08488,-1.83637 -1.192439,-2.79378 l -1.192438,-1.03078 0.93689,-0.8976 c 1.194931,-1.14481 1.457267,-2.34306 0.837648,-3.82602 -0.71682,-1.71559 -1.925364,-2.10163 -6.579383,-2.10163 -2.853904,0 -3.856579,0.10351 -3.874627,0.4 -0.01341,0.22 -0.0039,3.136 0.02106,6.48 0.02496,3.344 -0.05148,6.332 -0.169889,6.64 -0.31656,0.82345 -5.093811,0.83239 -5.409344,0.0101 -0.116051,-0.30243 -0.195123,-3.29043 -0.175712,-6.64 0.01942,-3.34957 0.02694,-6.27699 0.01677,-6.50539 -0.0136,-0.30478 -0.550659,-0.38992 -2.018522,-0.32 l -2,0.0953 -0.08624,6.96 -0.08624,6.96 h -3.03376 -3.03376 v -30.72 z M 132.92388,75.333824 c 1.51587,-0.806397 2.75613,-1.623958 2.75613,-1.816803 0,-0.696877 -2.03486,-5.864938 -2.76755,-7.028925 -0.94168,-1.496013 -2.1121,-2.28751 -2.97679,-2.013069 -0.63047,0.200106 -0.65566,0.440887 -0.65566,6.266538 0,4.952813 0.081,6.058435 0.44387,6.058435 0.24414,0 1.68414,-0.659779 3.2,-1.466176 z M 73.280004,136.00648 c 0,-0.17244 0.231636,-0.89244 0.514746,-1.6 L 74.309496,133.12 h 2.36096 2.36096 l 0.484294,1.15908 c 0.850016,2.03437 0.840788,2.04092 -2.875705,2.04092 -1.980401,0 -3.360001,-0.12873 -3.360001,-0.31352 z M 90.030344,134.96 c 0.100656,-0.748 0.27778,-2.332 0.393613,-3.52 0.115834,-1.188 0.329994,-2.16 0.475911,-2.16 0.249158,0 3.820138,6.38793 3.820138,6.83364 0,0.1135 -1.096349,0.20636 -2.436333,0.20636 h -2.436337 z m 9.210267,-2.53403 c 2.274729,-4.46174 2.311379,-4.45333 2.673829,0.61403 l 0.2346,3.28 h -2.446861 -2.446864 z m 13.207259,3.10814 c 0.60558,-2.4128 0.60733,-2.41411 3.23214,-2.41411 2.62481,0 2.62656,0.001 3.23213,2.41411 l 0.19725,0.78589 h -3.42938 -3.42939 z m -52.140606,-0.25192 c -0.09828,-0.25613 -0.135628,-1.4594 -0.08298,-2.67394 l 0.09572,-2.20825 0.93656,0.068 c 1.361689,0.0989 1.94344,0.84481 1.94344,2.49201 0,1.56899 -0.479092,2.23999 -1.837018,2.57288 -0.622349,0.15257 -0.928912,0.0798 -1.055722,-0.25069 z m 15.458529,-5.89557 c 0.304963,-0.82136 0.718589,-1.54808 0.919172,-1.61494 0.273833,-0.0913 1.39504,2.32413 1.39504,3.00532 0,0.0567 -0.645456,0.103 -1.434346,0.103 h -1.434346 z m 38.474217,1.35991 c 0,-0.44353 1.30387,-3.06653 1.52434,-3.06653 0.1469,0 0.46037,0.54 0.6966,1.2 0.23622,0.66 0.49656,1.38 0.57852,1.6 0.10568,0.28368 -0.2797,0.4 -1.32523,0.4 -0.81083,0 -1.47423,-0.0601 -1.47423,-0.13347 z m -53.863152,-2.31634 c -0.11927,-0.11927 -0.216854,-1.13338 -0.216854,-2.25357 0,-2.29549 0.343692,-2.6657 1.820563,-1.96101 0.73488,0.35065 0.916873,0.66595 0.994736,1.72334 0.0686,0.93156 -0.06589,1.43583 -0.48,1.79976 -0.704583,0.61921 -1.825002,0.98492 -2.118445,0.69148 z M 42.718124,56.69359 C 40.465436,54.254736 40.168578,53.794486 40.258399,52.88 l 0.102154,-1.04 h 4.307942 4.307943 l -0.487744,0.943194 c -0.268259,0.518755 -0.912947,2.210755 -1.43264,3.76 -0.519693,1.549244 -1.131907,2.840921 -1.360474,2.870396 -0.228566,0.02947 -1.568422,-1.194528 -2.977456,-2.72 z m 22.367429,0.77202 c -0.145412,-0.378932 0.709865,-5.28769 0.96591,-5.543735 0.05317,-0.05317 2.745338,-0.05734 5.982605,-0.0093 L 77.920005,52 76.160004,52.788291 c -0.968,0.433562 -3.338301,1.560288 -5.267337,2.50384 -5.184161,2.535738 -5.607326,2.694119 -5.807114,2.173479 z"
         id="path3714"
         inkscape:connector-curvature="0" />
      <path
         style="fill:#4b4b4b;stroke-width:0.32000002"
         d="m 40.320002,105.6 c 0,-16.896 0.036,-30.719334 0.08,-30.718518 0.044,9.6e-4 0.944,0.357398 2,0.792406 2.479175,1.021267 2.921287,1.003894 3.511783,-0.137997 0.268519,-0.519261 0.488218,-1.003209 0.488218,-1.075443 0,-0.07223 -0.9,-0.717683 -2,-1.434336 -1.1,-0.716656 -2.489053,-1.716445 -3.086781,-2.221754 l -1.086784,-0.918748 0.0684,-4.93776 c 0.03762,-2.715767 0.136678,-5.006032 0.220125,-5.089479 0.08344,-0.08345 1.340672,1.128835 2.793837,2.693959 1.923168,2.071337 2.786573,2.790243 3.172995,2.641961 0.812496,-0.311785 2.030077,-2.450422 3.646051,-6.404153 2.986186,-7.30617 2.836493,-7.172797 7.872154,-7.013789 3.35898,0.106064 3.760001,0.179968 3.760001,0.692944 0,0.315821 -0.724618,3.00343 -1.61026,5.972464 -0.885641,2.969033 -1.696464,6.004755 -1.801824,6.746048 -0.174768,1.229616 -0.11791,1.381363 0.648375,1.730505 0.786387,0.358301 0.957379,0.271008 2.681827,-1.369126 2.287191,-2.175363 4.213498,-3.307408 11.223028,-6.595488 4.106112,-1.926125 5.576519,-2.483648 5.700211,-2.161312 0.331444,0.863728 -0.981168,4.459494 -2.441744,6.688896 -2.984182,4.555024 -8.631523,9.358694 -18.799614,15.991098 -2.86,1.86551 -5.2,3.534323 -5.2,3.70847 0,0.44057 1.0908,0.97945 1.978963,0.977654 1.187056,-0.0026 8.12515,-3.540489 11.781038,-6.007753 6.057427,-4.088 10.783553,-8.747741 14.389831,-14.187703 2.490704,-3.757158 3.581271,-6.541939 3.776375,-9.643046 l 0.156025,-2.48 H 95.37495 c 6.12299,0 11.36158,-0.08783 11.64132,-0.195171 0.37515,-0.143959 0.666,0.170915 1.10844,1.2 0.88547,2.059549 0.45399,5.584883 -1.78546,14.58759 -0.74183,2.982189 -1.05653,4.854829 -0.91238,5.429171 0.40016,1.594352 2.9689,3.7656 5.4057,4.569204 2.73969,0.903488 4.88304,0.778297 7.35147,-0.429396 2.38602,-1.167369 4.36314,-3.240067 6.6769,-6.99968 1.96292,-3.18951 3.45229,-5.041718 4.05407,-5.041718 0.22256,0 0.37017,2.087107 0.43162,6.102509 l 0.0934,6.102509 -1.65294,1.247427 c -4.90132,3.698883 -10.85468,9.805187 -10.51838,10.788598 0.10513,0.307427 0.55405,0.990957 0.9976,1.518957 l 0.80646,0.96 2.78363,-2.939667 c 2.77065,-2.925962 6.71945,-6.500333 7.18127,-6.500333 0.1333,0 0.24236,4.396518 0.24236,9.770042 0,8.420628 -0.0668,9.795668 -0.48349,9.955578 -0.87928,0.33741 -4.69647,-0.59863 -6.8647,-1.68335 -1.36231,-0.68154 -3.32273,-2.156651 -5.42278,-4.080344 -3.80248,-3.483174 -5.62586,-4.581939 -8.08284,-4.870707 -3.67525,-0.431955 -6.53995,0.722231 -14.026194,5.651117 -6.655418,4.381874 -7.91826,4.989994 -10.932375,5.264404 -2.305943,0.20994 -2.552813,0.16864 -4.13441,-0.69173 -0.925117,-0.50326 -3.709549,-2.838463 -6.187626,-5.189349 C 70.667541,94.014774 67.916373,91.603862 67.031912,91.008083 65.203989,89.776784 62.37156,89.11112 60.213723,89.405709 56.914529,89.856115 50.6641,94.13711 46.327444,98.916592 43.18609,102.37872 43.23009,102.2594 44.592413,103.62172 l 1.146362,1.14637 3.930624,-3.84467 c 4.268173,-4.174822 7.221008,-6.372492 9.472772,-7.050175 3.48479,-1.048765 4.948125,-0.355875 10.39569,4.922365 4.747069,4.59952 7.440368,6.52639 10.415872,7.45185 2.712023,0.84352 3.875937,0.79466 7.003326,-0.29394 3.199411,-1.11367 6.191222,-2.79838 10.642967,-5.993133 4.236914,-3.040579 6.397864,-4.137645 8.705804,-4.419734 2.48931,-0.304253 3.83376,0.339827 7.6204,3.650665 5.32201,4.653292 8.9246,6.575972 13.1138,6.998762 l 2.08,0.20992 0.0832,14.96 0.0832,14.96 h -2.74384 -2.74384 l -1.27609,-2.76209 c -0.70185,-1.51915 -2.00552,-4.57915 -2.89704,-6.8 -0.89152,-2.22085 -1.77171,-4.22526 -1.95598,-4.45425 -0.18427,-0.22899 -0.75411,-0.37299 -1.26633,-0.32 -0.8755,0.0906 -1.04234,0.36471 -2.78509,4.57634 -1.01959,2.464 -2.36669,5.632 -2.99355,7.04 l -1.13975,2.56 -1.43563,0.0964 c -1.15781,0.0778 -1.46818,-0.0151 -1.6038,-0.48 -0.0925,-0.31704 -0.47376,-3.16844 -0.84727,-6.33644 -0.3735,-3.168 -0.81079,-6.084 -0.97175,-6.48 -0.22363,-0.55019 -0.55198,-0.72 -1.39216,-0.72 -1.08852,0 -1.12317,0.045 -3.470051,4.50986 -1.303802,2.48042 -2.504112,4.51653 -2.667357,4.52469 -0.163242,0.008 -1.351021,-2.02128 -2.639507,-4.50986 -2.30976,-4.46107 -2.357863,-4.52469 -3.421114,-4.52469 -0.59313,0 -1.170125,0.14839 -1.282215,0.32975 -0.112089,0.18137 -0.622889,3.16909 -1.13511,6.63939 -0.512224,3.47029 -1.003693,6.49825 -1.09216,6.72879 -0.106669,0.27797 -0.619907,0.38596 -1.523773,0.32061 l -1.362928,-0.0985 -2.591981,-6.08 c -3.659523,-8.58413 -3.335642,-8 -4.435751,-8 -1.141737,0 -0.968067,-0.30829 -4.416483,7.84 l -2.64081,6.24 -2.157488,0.0946 c -1.186618,0.052 -2.157488,-0.009 -2.157488,-0.1348 0,-0.12618 0.252,-0.50788 0.56,-0.84822 0.390691,-0.43171 0.56,-1.15181 0.56,-2.38179 0,-1.63751 -0.08488,-1.83637 -1.192439,-2.79378 l -1.192438,-1.03078 0.93689,-0.8976 c 1.194931,-1.14481 1.457267,-2.34306 0.837648,-3.82602 -0.71682,-1.71559 -1.925364,-2.10163 -6.579383,-2.10163 -2.853904,0 -3.856579,0.10351 -3.874627,0.4 -0.01341,0.22 -0.0039,3.136 0.02106,6.48 0.02496,3.344 -0.05148,6.332 -0.169889,6.64 -0.31656,0.82345 -5.093811,0.83239 -5.409344,0.0101 -0.116051,-0.30243 -0.195123,-3.29043 -0.175712,-6.64 0.01942,-3.34957 0.02694,-6.27699 0.01677,-6.50539 -0.0136,-0.30478 -0.550659,-0.38992 -2.018522,-0.32 l -2,0.0953 -0.08624,6.96 -0.08624,6.96 h -3.03376 -3.03376 v -30.72 z m 32.960002,30.40648 c 0,-0.17244 0.231636,-0.89244 0.514746,-1.6 L 74.309496,133.12 h 2.36096 2.36096 l 0.484294,1.15908 c 0.850016,2.03437 0.840788,2.04092 -2.875705,2.04092 -1.980401,0 -3.360001,-0.12873 -3.360001,-0.31352 z M 90.030344,134.96 c 0.100656,-0.748 0.27778,-2.332 0.393613,-3.52 0.115834,-1.188 0.329994,-2.16 0.475911,-2.16 0.249158,0 3.820138,6.38793 3.820138,6.83364 0,0.1135 -1.096349,0.20636 -2.436333,0.20636 h -2.436337 z m 9.210267,-2.53403 c 2.274729,-4.46174 2.311379,-4.45333 2.673829,0.61403 l 0.2346,3.28 h -2.446861 -2.446864 z m 13.207259,3.10814 c 0.60558,-2.4128 0.60733,-2.41411 3.23214,-2.41411 2.62481,0 2.62656,0.001 3.23213,2.41411 l 0.19725,0.78589 h -3.42938 -3.42939 z m -52.140606,-0.25192 c -0.09828,-0.25613 -0.135628,-1.4594 -0.08298,-2.67394 l 0.09572,-2.20825 0.93656,0.068 c 1.361689,0.0989 1.94344,0.84481 1.94344,2.49201 0,1.56899 -0.479092,2.23999 -1.837018,2.57288 -0.622349,0.15257 -0.928912,0.0798 -1.055722,-0.25069 z m 15.458529,-5.89557 c 0.304963,-0.82136 0.718589,-1.54808 0.919172,-1.61494 0.273833,-0.0913 1.39504,2.32413 1.39504,3.00532 0,0.0567 -0.645456,0.103 -1.434346,0.103 h -1.434346 z m 38.474217,1.35991 c 0,-0.44353 1.30387,-3.06653 1.52434,-3.06653 0.1469,0 0.46037,0.54 0.6966,1.2 0.23622,0.66 0.49656,1.38 0.57852,1.6 0.10568,0.28368 -0.2797,0.4 -1.32523,0.4 -0.81083,0 -1.47423,-0.0601 -1.47423,-0.13347 z m -53.863152,-2.31634 c -0.11927,-0.11927 -0.216854,-1.13338 -0.216854,-2.25357 0,-2.29549 0.343692,-2.6657 1.820563,-1.96101 0.73488,0.35065 0.916873,0.66595 0.994736,1.72334 0.0686,0.93156 -0.06589,1.43583 -0.48,1.79976 -0.704583,0.61921 -1.825002,0.98492 -2.118445,0.69148 z M 112.13391,74.249968 c -0.90346,-0.365488 -2.3739,-2.160368 -2.3739,-2.897674 0,-0.329232 0.59684,-2.946185 1.32632,-5.815449 1.2133,-4.772266 1.3292,-5.584995 1.36,-9.536845 l 0.0337,-4.32 8.39078,0.09017 8.39078,0.09017 0.0892,4.22983 0.0892,4.229834 -1.51577,0.884054 c -1.7376,1.013437 -3.36275,2.952608 -5.65533,6.748093 -1.73886,2.878781 -4.19085,5.413914 -5.9454,6.147011 -1.2067,0.504196 -3.14371,0.573917 -4.1896,0.15081 z M 42.718124,56.69359 C 40.465436,54.254736 40.168578,53.794486 40.258399,52.88 l 0.102154,-1.04 h 4.307942 4.307943 l -0.487744,0.943194 c -0.268259,0.518755 -0.912947,2.210755 -1.43264,3.76 -0.519693,1.549244 -1.131907,2.840921 -1.360474,2.870396 -0.228566,0.02947 -1.568422,-1.194528 -2.977456,-2.72 z m 22.367429,0.77202 c -0.145412,-0.378932 0.709865,-5.28769 0.96591,-5.543735 0.05317,-0.05317 2.745338,-0.05734 5.982605,-0.0093 L 77.920005,52 76.160004,52.788291 c -0.968,0.433562 -3.338301,1.560288 -5.267337,2.50384 -5.184161,2.535738 -5.607326,2.694119 -5.807114,2.173479 z"
         id="path3712"
         inkscape:connector-curvature="0" />
      <path
         style="fill:#373737;stroke-width:0.32000002"
         d="M 40.640002,105.9572 V 75.594394 l 1.953549,0.789075 c 2.430736,0.981817 3.258164,0.817277 3.8929,-0.774128 0.262409,-0.657914 0.419833,-1.343159 0.34983,-1.522771 -0.07,-0.179613 -0.736803,-0.673162 -1.481776,-1.096778 -0.744976,-0.423613 -2.110502,-1.357715 -3.034503,-2.075782 l -1.68,-1.305581 v -4.460976 -4.460976 l 2.702199,2.637549 c 2.240797,2.18719 2.801466,2.584419 3.283578,2.3264 1.269117,-0.67921 2.429363,-2.656602 4.254224,-7.250426 1.265261,-3.185107 2.386519,-5.377658 3.018202,-5.90191 0.598016,-0.496308 6.277619,-0.862333 7.000567,-0.451156 0.41375,0.235319 0.329286,0.781754 -0.611031,3.953066 -0.600131,2.024 -1.48376,5.143779 -1.963619,6.932838 -0.853344,3.18153 -0.859399,3.267287 -0.276093,3.911831 1.13744,1.256857 1.707933,1.167648 3.525447,-0.551277 2.264541,-2.141712 4.580259,-3.583328 9.424125,-5.866858 2.223322,-1.048134 4.653386,-2.209904 5.400144,-2.581708 0.746756,-0.371808 1.44408,-0.589674 1.549604,-0.484148 0.39079,0.390791 -0.848826,3.693332 -2.130791,5.676784 -2.882762,4.460192 -7.759885,8.684173 -17.256555,14.945568 -7.295376,4.810026 -7.36,4.856007 -7.36,5.236612 0,0.170371 0.468,0.602534 1.04,0.960361 1.404304,0.878496 2.430042,0.678951 6.49744,-1.264003 C 72.34995,76.413446 83.910027,63.673907 84.758533,54.24 l 0.201472,-2.24 11.261492,-0.0999 11.261493,-0.0999 0.53927,1.042828 c 0.43434,0.839914 0.49871,1.529098 0.33086,3.54186 -0.23534,2.821872 -1.10662,7.301868 -2.28004,11.723632 -1.05945,3.992291 -1.02759,4.814256 0.25161,6.491404 1.30815,1.715088 2.54601,2.443776 5.44374,3.204554 2.55282,0.670218 3.66309,0.574352 6.19159,-0.534608 2.47022,-1.083402 4.12577,-2.780778 7.01268,-7.189872 1.44048,-2.2 2.92691,-4.274317 3.30318,-4.609597 l 0.68413,-0.609597 v 6.251152 6.251149 l -1.84,1.380051 c -1.98191,1.486487 -9.55739,8.75872 -10.02146,9.620292 -0.20235,0.375683 -0.0127,0.895097 0.67177,1.84 0.52453,0.724102 1.07717,1.31655 1.22809,1.31655 0.15092,0 2.30933,-2.016 4.79647,-4.48 2.48715,-2.464 4.66677,-4.48 4.84361,-4.48 0.20823,0 0.32152,3.392995 0.32152,9.630029 v 9.630033 l -1.66195,-0.22858 c -4.11368,-0.56577 -6.71255,-2.009664 -11.36848,-6.316141 -3.94429,-3.648247 -5.18069,-4.236672 -8.88957,-4.230717 -2.72373,0.0044 -3.0276,0.07677 -5.6,1.334195 -1.496004,0.731264 -4.930926,2.786317 -7.63316,4.566787 -6.881658,4.534236 -7.484471,4.810036 -10.710301,4.900076 -2.582042,0.0721 -2.715453,0.0391 -4.42528,-1.093 -0.969639,-0.64202 -3.780506,-3.090714 -6.246375,-5.441524 -5.295274,-5.048198 -6.763325,-5.955766 -10.070327,-6.22559 -2.898586,-0.236502 -4.868404,0.419558 -8.531738,2.841549 -2.856324,1.888441 -10.622826,9.482225 -10.622826,10.386585 0,0.59364 1.85168,2.6463 2.3872,2.6463 0.152201,0 1.801344,-1.48077 3.664765,-3.29061 6.033491,-5.859997 8.871389,-7.678528 12.051309,-7.722512 2.511168,-0.03474 3.359165,0.520774 8.909882,5.836726 7.281863,6.973886 11.017627,8.483396 16.434897,6.640866 3.327268,-1.13168 6.764903,-3.03501 11.11195,-6.15243 4.863864,-3.488048 6.567074,-4.294996 9.221044,-4.368736 2.41102,-0.06699 3.01958,0.269961 7.42516,4.111176 5.06555,4.41665 8.32786,6.11638 12.3934,6.45722 l 2.1604,0.18112 V 121.48641 136.32 h -2.36082 c -1.50716,0 -2.47483,-0.14464 -2.67611,-0.4 -0.30848,-0.39136 -3.77834,-8.43411 -5.28067,-12.24 -0.7094,-1.79715 -0.83017,-1.92615 -1.88754,-2.01618 -1.32778,-0.11305 -1.51752,0.0871 -2.51776,2.65618 -1.67998,4.31493 -4.89503,11.53542 -5.23416,11.7551 -0.70041,0.4537 -2.07462,0.26159 -2.25399,-0.3151 -0.0958,-0.308 -0.54671,-3.44 -1.00203,-6.96 -0.45531,-3.52 -0.94366,-6.51782 -1.08522,-6.66183 -0.14155,-0.14401 -0.81634,-0.21601 -1.49953,-0.16 l -1.24217,0.10183 -2.276078,4.32 c -1.25184,2.376 -2.40384,4.32 -2.56,4.32 -0.15616,0 -1.291926,-1.944 -2.523926,-4.32 l -2.240001,-4.32 -1.319462,-0.0964 c -1.000743,-0.0731 -1.36937,0.0336 -1.526067,0.44198 -0.113632,0.29612 -0.62938,3.40275 -1.146103,6.90362 -0.516726,3.50088 -1.026496,6.50598 -1.132819,6.67802 -0.106326,0.17204 -0.625853,0.3128 -1.154503,0.3128 -1.105913,0 -1.321993,-0.40317 -5.059376,-9.44 l -2.117488,-5.12 h -1.265299 -1.2653 l -1.78591,4.32 c -0.982253,2.376 -2.363274,5.616 -3.068938,7.2 l -1.283024,2.88 -1.657856,0.0967 c -1.709725,0.0998 -2.13687,-0.28971 -1.269283,-1.15729 0.213712,-0.21371 0.388569,-1.19429 0.388569,-2.17906 0,-1.63825 -0.09546,-1.87797 -1.122684,-2.81936 l -1.122682,-1.02886 0.894112,-0.81922 c 0.758822,-0.69526 0.894112,-1.07062 0.894112,-2.48069 0,-1.39826 -0.143843,-1.80532 -0.907975,-2.56945 -1.105116,-1.10511 -2.531836,-1.35645 -6.932026,-1.22117 l -3.2,0.0984 -0.16,7.04 -0.16,7.04 h -2.4 -2.4 l -0.16,-7.04 -0.16,-7.04 h -2.24 -2.24 l -0.0044,6.72 c -0.0026,3.696 -0.118922,6.9 -0.258883,7.12 -0.168631,0.26506 -1.111761,0.4 -2.795597,0.4 h -2.541105 z m 32.960002,30.15993 c 0,-0.11158 0.166794,-0.75958 0.370653,-1.44 L 74.34131,133.44 h 2.318042 c 2.31231,0 2.318912,0.003 2.669347,1.00775 0.64673,1.85521 0.622256,1.87225 -2.688694,1.87225 -1.672001,0 -3.040001,-0.0913 -3.040001,-0.20287 z m 16.796558,-0.1227 c -0.188278,-0.30464 -0.04179,-2.34518 0.376605,-5.24599 l 0.180518,-1.25157 1.717236,3.17157 c 0.94448,1.74436 1.719904,3.27956 1.723161,3.41156 0.0091,0.36665 -3.768003,0.2858 -3.99752,-0.0856 z m 7.523444,0.01 c 0,-0.46719 2.990604,-6.40423 3.225944,-6.40423 0.21581,0 0.60802,3.53887 0.61178,5.52 l 0.002,1.2 h -1.920004 c -1.056,0 -1.92,-0.1421 -1.92,-0.31577 z m 14.720004,-0.0615 c 0,-0.2075 0.17292,-0.8555 0.38428,-1.44 l 0.38429,-1.06272 h 2.27143 2.27143 l 0.38428,1.06272 c 0.65343,1.80702 0.63843,1.81728 -2.65571,1.81728 -2.12104,0 -3.04,-0.11405 -3.04,-0.37728 z M 60.480004,132.96 c 0,-2.18667 0.05689,-2.4 0.64,-2.4 1.010083,0 1.92,1.1374 1.92,2.4 0,1.2626 -0.909917,2.4 -1.92,2.4 -0.583111,0 -0.64,-0.21333 -0.64,-2.4 z m 15.260832,-2.32 c -0.07532,-0.132 0.112084,-0.816 0.416439,-1.52 l 0.553379,-1.28 0.524675,1.23908 c 0.288573,0.68149 0.524676,1.36549 0.524676,1.52 0,0.34153 -1.826529,0.37855 -2.019169,0.0409 z m 38.997494,-0.48 c 0.12179,-0.396 0.40796,-1.08 0.63592,-1.52 l 0.41448,-0.8 0.30291,0.8 c 0.84603,2.23442 0.84501,2.24 -0.41163,2.24 -1.05849,0 -1.14321,-0.0648 -0.94168,-0.72 z m -54.258326,-3.89844 c 0,-1.81421 0.07914,-2.10156 0.578838,-2.10156 1.045117,0 1.7632,0.79673 1.731238,1.92086 -0.03278,1.15304 -0.479267,1.73326 -1.590076,2.06636 -0.695495,0.20856 -0.72,0.14438 -0.72,-1.88566 z M 111.99501,73.963808 c -0.61325,-0.327904 -1.3727,-1.034954 -1.68765,-1.571219 -0.56524,-0.962419 -0.55553,-1.04265 0.75098,-6.203808 1.10858,-4.379264 1.35759,-5.956643 1.53265,-9.708781 l 0.20902,-4.48 7.04,-0.06255 c 3.872,-0.0344 7.508,0.0081 8.08,0.0945 l 1.04,0.157053 v 4.13728 4.137283 l -0.88,0.46255 c -1.48244,0.779213 -3.42635,3.058026 -5.9742,7.003466 -1.73288,2.683433 -2.85406,4.066483 -3.89114,4.8 -2.64394,1.870016 -4.38459,2.21543 -6.21966,1.234226 z M 43.112495,56.392922 c -1.817113,-1.827837 -2.472493,-2.70857 -2.472493,-3.322679 0,-1.045459 0.577389,-1.220061 4.053828,-1.225875 3.601293,-0.006 3.76073,0.07737 2.999766,1.568989 -0.334441,0.655555 -0.918803,2.153731 -1.298582,3.32928 C 46.015232,57.918186 45.677612,58.88 45.644745,58.88 c -0.03287,0 -1.172378,-1.119187 -2.53225,-2.487078 z m 22.487509,0.300448 c 0,-0.770468 0.77648,-4.106397 1.032582,-4.436196 0.21153,-0.272406 1.513069,-0.353136 4.512346,-0.279891 2.318292,0.05662 4.359072,0.125943 4.535072,0.154061 0.344202,0.05499 -9.350595,4.828656 -9.806487,4.828656 -0.150432,0 -0.273513,-0.119984 -0.273513,-0.26663 z"
         id="path3710"
         inkscape:connector-curvature="0" />
    </g>
  </g>
</svg>
