<?xml version="1.0" encoding="UTF-8" standalone="no"?>
<!-- Created with Inkscape (http://www.inkscape.org/) -->

<svg
   xmlns:dc="http://purl.org/dc/elements/1.1/"
   xmlns:cc="http://creativecommons.org/ns#"
   xmlns:rdf="http://www.w3.org/1999/02/22-rdf-syntax-ns#"
   xmlns:svg="http://www.w3.org/2000/svg"
   xmlns="http://www.w3.org/2000/svg"
   xmlns:sodipodi="http://sodipodi.sourceforge.net/DTD/sodipodi-0.dtd"
   xmlns:inkscape="http://www.inkscape.org/namespaces/inkscape"
   width="52.47633mm"
   height="15.128312mm"
   viewBox="0 0 52.47633 15.128311"
   version="1.1"
   id="svg1590"
   sodipodi:docname="logocs-light.svg"
   inkscape:version="0.92.4 (5da689c313, 2019-01-14)">
  <defs
     id="defs1584">
    <clipPath
       clipPathUnits="userSpaceOnUse"
       id="clipPath3855">
      <path
         d="M 269.094,64.0557 H 442.263 V 42.9834 H 269.094 Z"
         id="path3853"
         inkscape:connector-curvature="0" />
    </clipPath>
    <clipPath
       clipPathUnits="userSpaceOnUse"
       id="clipPath3823">
      <path
         d="M 226.058,111.89 H 460.495 V 58.7012 H 226.058 Z"
         id="path3821"
         inkscape:connector-curvature="0" />
    </clipPath>
    <clipPath
       clipPathUnits="userSpaceOnUse"
       id="clipPath3791">
      <path
         d="M 471.754,113.689 H 634.693 V 55.8027 H 471.754 Z"
         id="path3789"
         inkscape:connector-curvature="0" />
    </clipPath>
  </defs>
  <sodipodi:namedview
     id="base"
     pagecolor="#ffffff"
     bordercolor="#666666"
     borderopacity="1.0"
     inkscape:pageopacity="0.0"
     inkscape:pageshadow="2"
     inkscape:zoom="5.6"
     inkscape:cx="54.222125"
     inkscape:cy="12.973969"
     inkscape:document-units="mm"
     inkscape:current-layer="g2369"
     showgrid="false"
     inkscape:window-width="1920"
     inkscape:window-height="1001"
     inkscape:window-x="-9"
     inkscape:window-y="-9"
     inkscape:window-maximized="1" />
  <metadata
     id="metadata1587">
    <rdf:RDF>
      <cc:Work
         rdf:about="">
        <dc:format>image/svg+xml</dc:format>
        <dc:type
           rdf:resource="http://purl.org/dc/dcmitype/StillImage" />
        <dc:title />
      </cc:Work>
    </rdf:RDF>
  </metadata>
  <g
     inkscape:label="Layer 1"
     inkscape:groupmode="layer"
     id="layer1"
     transform="translate(301.79684,-90.680529)">
    <g
       id="g2313">
      <g
         id="g2369">
        <g
           id="g1480">
          <path
             inkscape:connector-curvature="0"
             id="path3803"
             style="fill:#ffffff;fill-opacity:1;fill-rule:nonzero;stroke:none;stroke-width:0;stroke-miterlimit:4;stroke-dasharray:none;stroke-opacity:1"
             d="m -272.7226,101.94778 c 3.7007,3.11683 7.54401,3.64277 11.55367,1.14335 3.7989,-2.11742 7.69872,-2.48105 11.84842,1.49497 l -0.026,-0.0427 c -4.61409,-2.57709 -7.76792,-2.19029 -10.35515,-0.65415 -6.04463,3.19919 -10.27197,2.2969 -13.02086,-1.94143" />
          <path
             inkscape:connector-curvature="0"
             id="path3811"
             style="fill:#ffffff;fill-opacity:1;fill-rule:nonzero;stroke:none;stroke-width:0;stroke-miterlimit:4;stroke-dasharray:none;stroke-opacity:0"
             d="m -262.03312,102.37751 c -3.49745,2.18718 -6.8638,2.24096 -9.99072,-1.59797 3.28399,2.08765 6.6225,2.34324 9.99072,1.59797" />
          <g
             aria-label="CLEAN"
             transform="scale(1.2321213,0.81160838)"
             style="font-variant:normal;font-weight:normal;font-stretch:normal;font-size:7.10735369px;font-family:Righteous;-inkscape-font-specification:Righteous-Regular;writing-mode:lr-tb;fill:#ffffff;fill-opacity:1;fill-rule:nonzero;stroke:none;stroke-width:0.09534659"
             id="text3827">
            <path
               d="m -239.6782,123.14103 q -0.34704,0.29845 -0.77737,0.45809 -0.43033,0.15964 -0.89189,0.15964 -0.35398,0 -0.68367,-0.0937 -0.32621,-0.0902 -0.61425,-0.25681 -0.28458,-0.17005 -0.52056,-0.40604 -0.23599,-0.23598 -0.40604,-0.52055 -0.16658,-0.28805 -0.26028,-0.61426 -0.0902,-0.32969 -0.0902,-0.68367 0,-0.35398 0.0902,-0.68367 0.0937,-0.32968 0.26028,-0.61425 0.17005,-0.28805 0.40604,-0.52403 0.23598,-0.23599 0.52056,-0.40257 0.28804,-0.17005 0.61425,-0.26028 0.32969,-0.0937 0.68367,-0.0937 0.46156,0 0.89189,0.15964 0.43033,0.15617 0.77737,0.45809 l -0.5275,0.8676 q -0.21864,-0.23599 -0.51709,-0.36092 -0.29845,-0.12841 -0.62467,-0.12841 -0.32969,0 -0.61773,0.12494 -0.28804,0.12493 -0.5032,0.3401 -0.21517,0.21169 -0.3401,0.5032 -0.12494,0.28804 -0.12494,0.61426 0,0.32622 0.12494,0.61426 0.12493,0.28457 0.3401,0.49974 0.21516,0.21516 0.5032,0.34009 0.28804,0.12494 0.61773,0.12494 0.32622,0 0.62467,-0.12494 0.29845,-0.1284 0.51709,-0.36439 z"
               style="fill:#ffffff;fill-opacity:1;stroke-width:0.09534659"
               id="path1607" />
            <path
               d="m -235.61881,123.65118 h -3.48426 v -4.97654 h 0.996 v 3.98054 h 2.48826 z"
               style="fill:#ffffff;fill-opacity:1;stroke-width:0.09534659"
               id="path1609" />
            <path
               d="m -231.69026,123.65118 h -3.4114 v -4.97654 h 3.4114 v 0.996 h -2.41539 v 0.996 h 1.63455 v 0.996 h -1.63455 v 0.99254 h 2.41539 z"
               style="fill:#ffffff;fill-opacity:1;stroke-width:0.09534659"
               id="path1611" />
            <path
               d="m -228.06459,121.66264 v -0.996 q 0,-0.20475 -0.0798,-0.38521 -0.0764,-0.18393 -0.2117,-0.31928 -0.13534,-0.13534 -0.31927,-0.21169 -0.18046,-0.0798 -0.38522,-0.0798 -0.20475,0 -0.38868,0.0798 -0.18046,0.0763 -0.31581,0.21169 -0.13534,0.13535 -0.21516,0.31928 -0.0763,0.18046 -0.0763,0.38521 v 0.996 z m 0.99601,1.98854 h -0.99601 v -0.996 h -1.992 v 0.996 h -0.99253 v -2.98454 q 0,-0.41297 0.15617,-0.77389 0.15617,-0.36439 0.42339,-0.63508 0.27069,-0.27069 0.63161,-0.42686 0.36439,-0.15617 0.77736,-0.15617 0.41298,0 0.7739,0.15617 0.36439,0.15617 0.63508,0.42686 0.27069,0.27069 0.42686,0.63508 0.15617,0.36092 0.15617,0.77389 z"
               style="fill:#ffffff;fill-opacity:1;stroke-width:0.09534659"
               id="path1613" />
            <path
               d="m -222.2227,123.65118 h -1.06541 l -1.91912,-3.27605 v 3.27605 h -0.996 v -4.97654 h 1.06541 l 1.91912,3.27952 v -3.27952 h 0.996 z"
               style="fill:#ffffff;fill-opacity:1;stroke-width:0.09534659"
               id="path1615" />
          </g>
          <path
             inkscape:connector-curvature="0"
             id="path3835"
             style="fill:#ffffff;fill-opacity:1;fill-rule:nonzero;stroke:none;stroke-width:0.11875682"
             d="m -271.77907,95.130986 c -4.56146,-3.145645 -9.48475,-3.960537 -14.83073,-2.053199 -5.04735,1.580324 -10.1048,1.565318 -15.18704,-2.397258 l 0.0307,0.04082 c 5.77748,2.737957 9.87372,2.666407 13.31761,1.505054 8.02002,-2.360763 13.41311,-1.171798 16.6695,2.904585" />
          <path
             inkscape:connector-curvature="0"
             id="path3843"
             style="fill:#ffffff;fill-opacity:1;fill-rule:nonzero;stroke:none;stroke-width:0.12938687"
             d="m -286.52045,94.193729 c 4.80813,-1.917782 9.38952,-1.866401 13.55687,1.778765 -4.42088,-2.029787 -8.95736,-2.366885 -13.55687,-1.778765" />
          <g
             aria-label="Environment Solutions"
             transform="matrix(1.0039606,-0.00717182,-0.00637391,0.99610057,0,0)"
             style="font-variant:normal;font-weight:normal;font-stretch:normal;font-size:2.02374125px;font-family:Arial;-inkscape-font-specification:ArialMT;writing-mode:lr-tb;fill:#ffffff;fill-opacity:1;fill-rule:nonzero;stroke:none;stroke-width:0.11701278"
             id="text3859">
            <path
               d="m -293.74711,101.3576 v -1.448638 h 1.04744 v 0.170948 h -0.85574 v 0.44368 h 0.80139 v 0.16997 h -0.80139 v 0.49309 h 0.88934 v 0.17095 z"
               style="fill:#ffffff;fill-opacity:1;stroke-width:0.11701278"
               id="path1625" />
            <path
               d="m -292.42394,101.3576 v -1.04942 h 0.16008 v 0.14921 q 0.11561,-0.17293 0.334,-0.17293 0.0949,0 0.17391,0.0346 0.08,0.0336 0.11957,0.0889 0.0395,0.0553 0.0553,0.13143 0.01,0.0494 0.01,0.17292 v 0.64527 h -0.17787 v -0.63835 q 0,-0.1087 -0.0208,-0.16206 -0.0207,-0.0543 -0.0741,-0.086 -0.0524,-0.0326 -0.12352,-0.0326 -0.11364,0 -0.19665,0.0721 -0.082,0.0721 -0.082,0.27372 v 0.57313 z"
               style="fill:#ffffff;fill-opacity:1;stroke-width:0.11701278"
               id="path1627" />
            <path
               d="m -291.00722,101.3576 -0.39922,-1.04942 h 0.18775 l 0.2253,0.62846 q 0.0366,0.10178 0.0672,0.21147 0.0237,-0.083 0.0662,-0.19961 l 0.23321,-0.64032 h 0.18281 l -0.39724,1.04942 z"
               style="fill:#ffffff;fill-opacity:1;stroke-width:0.11701278"
               id="path1629" />
            <path
               d="m -290.28587,100.11351 v -0.204548 h 0.17787 v 0.204548 z m 0,1.24409 v -1.04942 h 0.17787 v 1.04942 z"
               style="fill:#ffffff;fill-opacity:1;stroke-width:0.11701278"
               id="path1631" />
            <path
               d="m -289.83955,101.3576 v -1.04942 h 0.16008 v 0.15909 q 0.0613,-0.11166 0.11265,-0.14724 0.0524,-0.0356 0.11462,-0.0356 0.0899,0 0.18281,0.0573 l -0.0613,0.16503 q -0.0652,-0.0385 -0.13044,-0.0385 -0.0583,0 -0.10474,0.0356 -0.0464,0.0346 -0.0662,0.0968 -0.0297,0.0949 -0.0297,0.20751 v 0.54942 z"
               style="fill:#ffffff;fill-opacity:1;stroke-width:0.11701278"
               id="path1633" />
            <path
               d="m -289.22989,100.83289 q 0,-0.29151 0.16205,-0.43183 0.13538,-0.1166 0.33005,-0.1166 0.2164,0 0.35376,0.1423 0.13735,0.1413 0.13735,0.3913 0,0.20258 -0.0613,0.31918 -0.0603,0.11561 -0.17688,0.17984 -0.11561,0.0642 -0.25296,0.0642 -0.22036,0 -0.35673,-0.1413 -0.13537,-0.14131 -0.13537,-0.40712 z m 0.1828,0 q 0,0.20158 0.088,0.30237 0.0879,0.0998 0.22135,0.0998 0.13241,0 0.22036,-0.1008 0.0879,-0.10079 0.0879,-0.30731 0,-0.19467 -0.0889,-0.29447 -0.088,-0.10079 -0.21937,-0.10079 -0.1334,0 -0.22135,0.0998 -0.088,0.0998 -0.088,0.30139 z"
               style="fill:#ffffff;fill-opacity:1;stroke-width:0.11701278"
               id="path1635" />
            <path
               d="m -288.03847,101.3576 v -1.04942 h 0.16008 v 0.14921 q 0.11561,-0.17293 0.33399,-0.17293 0.0949,0 0.17392,0.0346 0.08,0.0336 0.11957,0.0889 0.0395,0.0553 0.0553,0.13143 0.01,0.0494 0.01,0.17292 v 0.64527 h -0.17786 v -0.63835 q 0,-0.1087 -0.0208,-0.16206 -0.0208,-0.0543 -0.0741,-0.086 -0.0524,-0.0326 -0.12352,-0.0326 -0.11363,0 -0.19664,0.0721 -0.082,0.0721 -0.082,0.27372 v 0.57313 z"
               style="fill:#ffffff;fill-opacity:1;stroke-width:0.11701278"
               id="path1637" />
            <path
               d="m -286.91329,101.3576 v -1.04942 h 0.15909 v 0.14723 q 0.0494,-0.0771 0.13143,-0.12352 0.082,-0.0474 0.18676,-0.0474 0.1166,0 0.19071,0.0484 0.0751,0.0484 0.10573,0.13538 0.12451,-0.1838 0.32412,-0.1838 0.15613,0 0.24012,0.087 0.084,0.086 0.084,0.26581 v 0.72037 h -0.17688 v -0.66108 q 0,-0.10672 -0.0178,-0.15316 -0.0168,-0.0474 -0.0623,-0.0761 -0.0454,-0.0287 -0.10672,-0.0287 -0.11067,0 -0.18379,0.0741 -0.0731,0.0731 -0.0731,0.23519 v 0.60969 h -0.17787 v -0.68183 q 0,-0.11858 -0.0435,-0.17787 -0.0435,-0.0593 -0.1423,-0.0593 -0.0751,0 -0.13933,0.0395 -0.0632,0.0395 -0.0919,0.11561 -0.0286,0.0761 -0.0286,0.21937 v 0.54448 z"
               style="fill:#ffffff;fill-opacity:1;stroke-width:0.11701278"
               id="path1639" />
            <path
               d="m -284.50911,101.01965 0.1838,0.0227 q -0.0435,0.16107 -0.16107,0.25 -0.11759,0.0889 -0.3004,0.0889 -0.23024,0 -0.36562,-0.1413 -0.13439,-0.1423 -0.13439,-0.39823 0,-0.26483 0.13637,-0.41107 0.13636,-0.14625 0.35376,-0.14625 0.21047,0 0.34387,0.14328 0.1334,0.14329 0.1334,0.40317 0,0.0158 -9.8e-4,0.0474 h -0.78262 q 0.01,0.17293 0.0978,0.26483 0.088,0.0919 0.21938,0.0919 0.0978,0 0.16699,-0.0514 0.0692,-0.0514 0.10969,-0.16403 z m -0.584,-0.28755 h 0.58597 q -0.0118,-0.13242 -0.0672,-0.19862 -0.085,-0.10277 -0.22036,-0.10277 -0.12253,0 -0.20652,0.082 -0.083,0.082 -0.0919,0.21938 z"
               style="fill:#ffffff;fill-opacity:1;stroke-width:0.11701278"
               id="path1641" />
            <path
               d="m -284.10232,101.3576 v -1.04942 h 0.16008 v 0.14921 q 0.11562,-0.17293 0.334,-0.17293 0.0949,0 0.17392,0.0346 0.08,0.0336 0.11956,0.0889 0.0395,0.0553 0.0553,0.13143 0.01,0.0494 0.01,0.17292 v 0.64527 h -0.17787 v -0.63835 q 0,-0.1087 -0.0207,-0.16206 -0.0208,-0.0543 -0.0741,-0.086 -0.0524,-0.0326 -0.12352,-0.0326 -0.11364,0 -0.19664,0.0721 -0.082,0.0721 -0.082,0.27372 v 0.57313 z"
               style="fill:#ffffff;fill-opacity:1;stroke-width:0.11701278"
               id="path1643" />
            <path
               d="m -282.58876,101.1985 0.0257,0.15712 q -0.0751,0.0158 -0.13439,0.0158 -0.0968,0 -0.15019,-0.0306 -0.0534,-0.0306 -0.0751,-0.08 -0.0217,-0.0504 -0.0217,-0.21048 v -0.60376 h -0.13044 v -0.13834 h 0.13044 v -0.25989 l 0.17688,-0.106719 v 0.366609 h 0.17885 v 0.13834 h -0.17885 v 0.61364 q 0,0.0761 0.009,0.0978 0.01,0.0217 0.0306,0.0346 0.0217,0.0128 0.0613,0.0128 0.0296,0 0.0781,-0.007 z"
               style="fill:#ffffff;fill-opacity:1;stroke-width:0.11701278"
               id="path1645" />
            <path
               d="m -281.89441,100.89218 0.18083,-0.0158 q 0.0128,0.10869 0.0593,0.17885 0.0474,0.0692 0.14625,0.11265 0.0988,0.0425 0.22233,0.0425 0.10969,0 0.19368,-0.0326 0.084,-0.0326 0.12451,-0.0889 0.0415,-0.0573 0.0415,-0.12451 0,-0.0682 -0.0395,-0.11858 -0.0395,-0.0514 -0.13043,-0.086 -0.0583,-0.0227 -0.25791,-0.0702 -0.19961,-0.0484 -0.27965,-0.0909 -0.10375,-0.0543 -0.15514,-0.13438 -0.0504,-0.081 -0.0504,-0.18084 0,-0.10968 0.0623,-0.20455 0.0623,-0.09585 0.18182,-0.145254 0.11957,-0.04941 0.26581,-0.04941 0.16107,0 0.2836,0.05237 0.12352,0.05138 0.18973,0.152179 0.0662,0.10079 0.0711,0.22826 l -0.1838,0.0138 q -0.0148,-0.13735 -0.10079,-0.20751 -0.085,-0.0702 -0.25198,-0.0702 -0.17392,0 -0.25396,0.0642 -0.079,0.0632 -0.079,0.15317 0,0.0781 0.0563,0.12846 0.0553,0.0504 0.28854,0.10375 0.23419,0.0524 0.32115,0.0919 0.12648,0.0583 0.18676,0.14823 0.0603,0.0889 0.0603,0.20553 0,0.11562 -0.0662,0.21838 -0.0662,0.10178 -0.19071,0.1591 -0.12352,0.0563 -0.27866,0.0563 -0.19665,0 -0.33005,-0.0573 -0.13241,-0.0573 -0.2085,-0.17194 -0.0751,-0.11561 -0.079,-0.26087 z"
               style="fill:#ffffff;fill-opacity:1;stroke-width:0.11701278"
               id="path1647" />
            <path
               d="m -280.56827,100.83289 q 0,-0.29151 0.16205,-0.43183 0.13538,-0.1166 0.33005,-0.1166 0.2164,0 0.35376,0.1423 0.13735,0.1413 0.13735,0.3913 0,0.20258 -0.0613,0.31918 -0.0603,0.11561 -0.17688,0.17984 -0.11562,0.0642 -0.25297,0.0642 -0.22036,0 -0.35673,-0.1413 -0.13537,-0.14131 -0.13537,-0.40712 z m 0.18281,0 q 0,0.20158 0.0879,0.30237 0.088,0.0998 0.22135,0.0998 0.13241,0 0.22036,-0.1008 0.0879,-0.10079 0.0879,-0.30731 0,-0.19467 -0.0889,-0.29447 -0.0879,-0.10079 -0.21937,-0.10079 -0.1334,0 -0.22135,0.0998 -0.0879,0.0998 -0.0879,0.30139 z"
               style="fill:#ffffff;fill-opacity:1;stroke-width:0.11701278"
               id="path1649" />
            <path
               d="m -279.38084,101.3576 v -1.448638 h 0.17787 v 1.448638 z"
               style="fill:#ffffff;fill-opacity:1;stroke-width:0.11701278"
               id="path1651" />
            <path
               d="m -278.23985,101.3576 v -0.15415 q -0.12253,0.17786 -0.33301,0.17786 -0.0929,0 -0.17391,-0.0356 -0.08,-0.0356 -0.11957,-0.0889 -0.0385,-0.0543 -0.0543,-0.13242 -0.0109,-0.0524 -0.0109,-0.16601 v -0.6502 h 0.17787 v 0.58202 q 0,0.13933 0.0109,0.18775 0.0168,0.0702 0.0711,0.11067 0.0543,0.0395 0.13439,0.0395 0.08,0 0.1502,-0.0405 0.0702,-0.0415 0.0988,-0.11166 0.0297,-0.0711 0.0297,-0.20553 v -0.56226 h 0.17787 v 1.04942 z"
               style="fill:#ffffff;fill-opacity:1;stroke-width:0.11701278"
               id="path1653" />
            <path
               d="m -277.41405,101.1985 0.0257,0.15712 q -0.0751,0.0158 -0.13439,0.0158 -0.0968,0 -0.1502,-0.0306 -0.0534,-0.0306 -0.0751,-0.08 -0.0217,-0.0504 -0.0217,-0.21048 v -0.60376 h -0.13044 v -0.13834 h 0.13044 v -0.25989 l 0.17688,-0.106719 v 0.366609 h 0.17885 v 0.13834 h -0.17885 v 0.61364 q 0,0.0761 0.009,0.0978 0.01,0.0217 0.0306,0.0346 0.0217,0.0128 0.0613,0.0128 0.0297,0 0.0781,-0.007 z"
               style="fill:#ffffff;fill-opacity:1;stroke-width:0.11701278"
               id="path1655" />
            <path
               d="m -277.23881,100.11351 v -0.204548 h 0.17787 v 0.204548 z m 0,1.24409 v -1.04942 h 0.17787 v 1.04942 z"
               style="fill:#ffffff;fill-opacity:1;stroke-width:0.11701278"
               id="path1657" />
            <path
               d="m -276.85676,100.83289 q 0,-0.29151 0.16206,-0.43183 0.13538,-0.1166 0.33005,-0.1166 0.2164,0 0.35375,0.1423 0.13736,0.1413 0.13736,0.3913 0,0.20258 -0.0613,0.31918 -0.0603,0.11561 -0.17688,0.17984 -0.11561,0.0642 -0.25296,0.0642 -0.22036,0 -0.35673,-0.1413 -0.13538,-0.14131 -0.13538,-0.40712 z m 0.18281,0 q 0,0.20158 0.0879,0.30237 0.0879,0.0998 0.22135,0.0998 0.13241,0 0.22035,-0.1008 0.0879,-0.10079 0.0879,-0.30731 0,-0.19467 -0.0889,-0.29447 -0.0879,-0.10079 -0.21937,-0.10079 -0.13341,0 -0.22135,0.0998 -0.0879,0.0998 -0.0879,0.30139 z"
               style="fill:#ffffff;fill-opacity:1;stroke-width:0.11701278"
               id="path1659" />
            <path
               d="m -275.66534,101.3576 v -1.04942 h 0.16009 v 0.14921 q 0.11561,-0.17293 0.33399,-0.17293 0.0949,0 0.17392,0.0346 0.08,0.0336 0.11956,0.0889 0.0395,0.0553 0.0553,0.13143 0.01,0.0494 0.01,0.17292 v 0.64527 h -0.17787 v -0.63835 q 0,-0.1087 -0.0208,-0.16206 -0.0207,-0.0543 -0.0741,-0.086 -0.0524,-0.0326 -0.12352,-0.0326 -0.11364,0 -0.19664,0.0721 -0.082,0.0721 -0.082,0.27372 v 0.57313 z"
               style="fill:#ffffff;fill-opacity:1;stroke-width:0.11701278"
               id="path1661" />
            <path
               d="m -274.61127,101.04435 0.17589,-0.0277 q 0.0148,0.10574 0.082,0.16206 0.0682,0.0563 0.18972,0.0563 0.12254,0 0.18183,-0.0494 0.0593,-0.0504 0.0593,-0.11759 0,-0.0603 -0.0524,-0.0949 -0.0366,-0.0237 -0.18182,-0.0603 -0.19565,-0.0494 -0.27174,-0.085 -0.0751,-0.0366 -0.11463,-0.0998 -0.0385,-0.0642 -0.0385,-0.1413 0,-0.0702 0.0316,-0.12945 0.0326,-0.0603 0.0879,-0.0998 0.0415,-0.0306 0.11265,-0.0514 0.0721,-0.0217 0.15415,-0.0217 0.12352,0 0.21641,0.0356 0.0939,0.0356 0.13834,0.0968 0.0445,0.0603 0.0613,0.16206 l -0.17392,0.0237 q -0.0119,-0.081 -0.0692,-0.12649 -0.0563,-0.0454 -0.16008,-0.0454 -0.12253,0 -0.1749,0.0405 -0.0524,0.0405 -0.0524,0.0949 0,0.0346 0.0217,0.0622 0.0217,0.0287 0.0682,0.0474 0.0267,0.01 0.15711,0.0455 0.18874,0.0504 0.26285,0.083 0.0751,0.0316 0.11759,0.0929 0.0425,0.0613 0.0425,0.15217 0,0.0889 -0.0524,0.16799 -0.0514,0.0781 -0.14921,0.12154 -0.0978,0.0425 -0.22135,0.0425 -0.20454,0 -0.31225,-0.085 -0.10672,-0.085 -0.13637,-0.25198 z"
               style="fill:#ffffff;fill-opacity:1;stroke-width:0.11701278"
               id="path1663" />
          </g>
          <path
             inkscape:connector-curvature="0"
             id="path3867"
             style="fill:#ffffff;fill-opacity:1;fill-rule:nonzero;stroke:none;stroke-width:0;stroke-miterlimit:4;stroke-dasharray:none;stroke-opacity:1"
             d="m -268.46731,94.9948 -0.73722,-0.488605 -0.73676,0.489314 0.24393,-0.841474 -0.70011,-0.538813 0.88809,-0.03154 0.30404,-0.822454 0.30474,0.8221 0.88808,0.0306 -0.69965,0.539521 z" />
          <path
             inkscape:connector-curvature="0"
             id="path3871"
             style="fill:#ffffff;fill-opacity:1;stroke:none;stroke-width:0.0943086;stroke-linecap:butt;stroke-linejoin:miter;stroke-miterlimit:4;stroke-dasharray:none;stroke-opacity:1"
             d="m -268.46731,94.9948 -0.73722,-0.488605 -0.73676,0.489314 0.24393,-0.841474 -0.70011,-0.538813 0.88809,-0.03154 0.30404,-0.822454 0.30474,0.8221 0.88808,0.0306 -0.69965,0.539521 z" />
          <path
             inkscape:connector-curvature="0"
             id="path3879"
             style="fill:#ffffff;fill-opacity:1;stroke:#2f5496;stroke-width:0;stroke-linecap:butt;stroke-linejoin:miter;stroke-miterlimit:4;stroke-dasharray:none;stroke-opacity:1"
             d="m -264.98708,94.973347 -0.72576,-0.481045 -0.72543,0.481635 0.24034,-0.828479 -0.68935,-0.530425 0.87433,-0.03095 0.2993,-0.80946 0.30011,0.809342 0.87421,0.03001 -0.68867,0.531134 z" />
          <path
             inkscape:connector-curvature="0"
             id="path3867-2"
             style="fill:#ffffff;fill-opacity:1;fill-rule:nonzero;stroke:none;stroke-width:0;stroke-miterlimit:4;stroke-dasharray:none;stroke-opacity:1"
             d="m -264.98025,94.995438 -0.73722,-0.488605 -0.73675,0.489313 0.24393,-0.841473 -0.70011,-0.538813 0.88808,-0.03154 0.30404,-0.822454 0.30474,0.822099 0.88808,0.0306 -0.69964,0.539522 z" />
          <path
             inkscape:connector-curvature="0"
             id="path3871-4"
             style="fill:#ffffff;fill-opacity:1;stroke:none;stroke-width:0.0943086;stroke-linecap:butt;stroke-linejoin:miter;stroke-miterlimit:4;stroke-dasharray:none;stroke-opacity:1"
             d="m -264.98025,94.995438 -0.73722,-0.488605 -0.73675,0.489313 0.24393,-0.841473 -0.70011,-0.538813 0.88808,-0.03154 0.30404,-0.822454 0.30474,0.822099 0.88808,0.0306 -0.69964,0.539522 z" />
          <path
             inkscape:connector-curvature="0"
             id="path3867-4"
             style="fill:#ffffff;fill-opacity:1;fill-rule:nonzero;stroke:none;stroke-width:0;stroke-miterlimit:4;stroke-dasharray:none;stroke-opacity:1"
             d="m -261.62465,94.947688 -0.73722,-0.488605 -0.73675,0.489314 0.24393,-0.841474 -0.70011,-0.538813 0.88808,-0.03154 0.30404,-0.822454 0.30473,0.8221 0.88809,0.0306 -0.69965,0.539521 z" />
          <path
             inkscape:connector-curvature="0"
             id="path3871-2"
             style="fill:#ffffff;fill-opacity:1;stroke:none;stroke-width:0.0943086;stroke-linecap:butt;stroke-linejoin:miter;stroke-miterlimit:4;stroke-dasharray:none;stroke-opacity:1"
             d="m -261.62465,94.947688 -0.73722,-0.488605 -0.73675,0.489314 0.24393,-0.841474 -0.70011,-0.538813 0.88808,-0.03154 0.30404,-0.822454 0.30473,0.8221 0.88809,0.0306 -0.69965,0.539521 z" />
          <path
             inkscape:connector-curvature="0"
             id="path3867-3"
             style="fill:#ffffff;fill-opacity:1;fill-rule:nonzero;stroke:none;stroke-width:0;stroke-miterlimit:4;stroke-dasharray:none;stroke-opacity:1"
             d="m -258.36214,94.947688 -0.73721,-0.488605 -0.73676,0.489314 0.24393,-0.841474 -0.70011,-0.538813 0.88808,-0.03154 0.30405,-0.822454 0.30473,0.8221 0.88808,0.0306 -0.69964,0.539521 z" />
          <path
             inkscape:connector-curvature="0"
             id="path3871-9"
             style="fill:#ffffff;fill-opacity:1;stroke:none;stroke-width:0.0943086;stroke-linecap:butt;stroke-linejoin:miter;stroke-miterlimit:4;stroke-dasharray:none;stroke-opacity:1"
             d="m -258.36214,94.947688 -0.73721,-0.488605 -0.73676,0.489314 0.24393,-0.841474 -0.70011,-0.538813 0.88808,-0.03154 0.30405,-0.822454 0.30473,0.8221 0.88808,0.0306 -0.69964,0.539521 z" />
          <path
             inkscape:connector-curvature="0"
             id="path3867-22"
             style="fill:#ffffff;fill-opacity:1;fill-rule:nonzero;stroke:none;stroke-width:0;stroke-miterlimit:4;stroke-dasharray:none;stroke-opacity:1"
             d="m -255.12152,94.947688 -0.73722,-0.488605 -0.73675,0.489314 0.24393,-0.841474 -0.70011,-0.538813 0.88808,-0.03154 0.30404,-0.822454 0.30474,0.8221 0.88808,0.0306 -0.69965,0.539521 z" />
          <path
             inkscape:connector-curvature="0"
             id="path3871-0"
             style="fill:#ffffff;fill-opacity:1;stroke:none;stroke-width:0.0943086;stroke-linecap:butt;stroke-linejoin:miter;stroke-miterlimit:4;stroke-dasharray:none;stroke-opacity:1"
             d="m -255.12152,94.947688 -0.73722,-0.488605 -0.73675,0.489314 0.24393,-0.841474 -0.70011,-0.538813 0.88808,-0.03154 0.30404,-0.822454 0.30474,0.8221 0.88808,0.0306 -0.69965,0.539521 z" />
          <g
             aria-label="SEA"
             transform="scale(1.2793858,0.78162505)"
             style="font-variant:normal;font-weight:normal;font-stretch:normal;font-size:8.0318718px;font-family:Righteous;-inkscape-font-specification:Righteous-Regular;writing-mode:lr-tb;fill:#ffffff;fill-opacity:1;fill-rule:nonzero;stroke:none;stroke-width:0.0918242"
             id="text3795-0">
            <path
               d="m -212.33455,124.70708 q 0,-0.34904 0.13334,-0.65495 0.13334,-0.3059 0.36081,-0.53336 0.23139,-0.23139 0.53729,-0.36473 0.3059,-0.13334 0.65494,-0.13334 h 2.58055 v 1.12556 h -2.58055 q -0.11765,0 -0.21962,0.0431 -0.10197,0.0431 -0.1804,0.12157 -0.0745,0.0745 -0.11766,0.17649 -0.0431,0.10196 -0.0431,0.21962 0,0.11765 0.0431,0.22354 0.0431,0.10197 0.11766,0.1804 0.0784,0.0745 0.1804,0.11766 0.10197,0.0431 0.21962,0.0431 h 1.12556 q 0.34904,0 0.65494,0.13334 0.30983,0.12942 0.53729,0.36081 0.23139,0.22746 0.36081,0.53729 0.13334,0.3059 0.13334,0.65494 0,0.34904 -0.13334,0.65494 -0.12942,0.3059 -0.36081,0.53729 -0.22746,0.22746 -0.53729,0.36081 -0.3059,0.13334 -0.65494,0.13334 h -2.49819 v -1.12556 h 2.49819 q 0.11765,0 0.21962,-0.0431 0.10197,-0.0431 0.17648,-0.11766 0.0784,-0.0784 0.12158,-0.1804 0.0431,-0.10197 0.0431,-0.21962 0,-0.11766 -0.0431,-0.21962 -0.0431,-0.10197 -0.12158,-0.17649 -0.0745,-0.0784 -0.17648,-0.12157 -0.10197,-0.0431 -0.21962,-0.0431 h -1.12556 q -0.34904,0 -0.65494,-0.13334 -0.3059,-0.13334 -0.53729,-0.36081 -0.22747,-0.23139 -0.36081,-0.53729 -0.13334,-0.30982 -0.13334,-0.65886 z"
               style="fill:#ffffff;stroke-width:0.0918242"
               id="path1618" />
            <path
               d="m -203.24249,128.64458 h -3.85514 v -5.62388 h 3.85514 v 1.12556 h -2.72958 v 1.12556 h 1.84717 v 1.12556 h -1.84717 v 1.12164 h 2.72958 z"
               style="fill:#ffffff;stroke-width:0.0918242"
               id="path1620" />
            <path
               d="m -199.14521,126.39738 v -1.12556 q 0,-0.23139 -0.0902,-0.43532 -0.0863,-0.20786 -0.23923,-0.36081 -0.15295,-0.15295 -0.36081,-0.23923 -0.20393,-0.0902 -0.43532,-0.0902 -0.23139,0 -0.43924,0.0902 -0.20394,0.0863 -0.35689,0.23923 -0.15295,0.15295 -0.24315,0.36081 -0.0863,0.20393 -0.0863,0.43532 v 1.12556 z m 1.12556,2.2472 h -1.12556 v -1.12556 h -2.25112 v 1.12556 h -1.12164 v -3.37276 q 0,-0.4667 0.17648,-0.87457 0.17648,-0.41179 0.47846,-0.71769 0.3059,-0.3059 0.71377,-0.48238 0.41179,-0.17648 0.87849,-0.17648 0.46669,0 0.87456,0.17648 0.41179,0.17648 0.71769,0.48238 0.30591,0.3059 0.48239,0.71769 0.17648,0.40787 0.17648,0.87457 z"
               style="fill:#ffffff;stroke-width:0.0918242"
               id="path1622" />
          </g>
        </g>
      </g>
    </g>
  </g>
</svg>
