<?xml version="1.0" encoding="UTF-8" standalone="no"?>
<!-- Created with Inkscape (http://www.inkscape.org/) -->

<svg
   xmlns:dc="http://purl.org/dc/elements/1.1/"
   xmlns:cc="http://creativecommons.org/ns#"
   xmlns:rdf="http://www.w3.org/1999/02/22-rdf-syntax-ns#"
   xmlns:svg="http://www.w3.org/2000/svg"
   xmlns="http://www.w3.org/2000/svg"
   xmlns:sodipodi="http://sodipodi.sourceforge.net/DTD/sodipodi-0.dtd"
   xmlns:inkscape="http://www.inkscape.org/namespaces/inkscape"
   width="52.47633mm"
   height="15.128312mm"
   viewBox="0 0 52.47633 15.128311"
   version="1.1"
   id="svg1590"
   sodipodi:docname="logocs-dark.svg"
   inkscape:version="0.92.4 (5da689c313, 2019-01-14)">
  <defs
     id="defs1584">
    <clipPath
       clipPathUnits="userSpaceOnUse"
       id="clipPath3855">
      <path
         d="M 269.094,64.0557 H 442.263 V 42.9834 H 269.094 Z"
         id="path3853"
         inkscape:connector-curvature="0" />
    </clipPath>
    <clipPath
       clipPathUnits="userSpaceOnUse"
       id="clipPath3823">
      <path
         d="M 226.058,111.89 H 460.495 V 58.7012 H 226.058 Z"
         id="path3821"
         inkscape:connector-curvature="0" />
    </clipPath>
    <clipPath
       clipPathUnits="userSpaceOnUse"
       id="clipPath3791">
      <path
         d="M 471.754,113.689 H 634.693 V 55.8027 H 471.754 Z"
         id="path3789"
         inkscape:connector-curvature="0" />
    </clipPath>
  </defs>
  <sodipodi:namedview
     id="base"
     pagecolor="#ffffff"
     bordercolor="#666666"
     borderopacity="1.0"
     inkscape:pageopacity="0.0"
     inkscape:pageshadow="2"
     inkscape:zoom="1.979899"
     inkscape:cx="54.825695"
     inkscape:cy="-16.861692"
     inkscape:document-units="mm"
     inkscape:current-layer="g2597"
     showgrid="false"
     inkscape:window-width="1920"
     inkscape:window-height="1001"
     inkscape:window-x="-9"
     inkscape:window-y="-9"
     inkscape:window-maximized="1" />
  <metadata
     id="metadata1587">
    <rdf:RDF>
      <cc:Work
         rdf:about="">
        <dc:format>image/svg+xml</dc:format>
        <dc:type
           rdf:resource="http://purl.org/dc/dcmitype/StillImage" />
        <dc:title />
      </cc:Work>
    </rdf:RDF>
  </metadata>
  <g
     inkscape:label="Layer 1"
     inkscape:groupmode="layer"
     id="layer1"
     transform="translate(301.79684,-90.680529)">
    <g
       id="g2313">
      <g
         id="g2369">
        <g
           id="g2597"
           transform="matrix(0.47275973,0,0,0.47275973,-159.11945,47.810427)">
          <g
             id="g990">
            <path
               d="m -240.29785,114.51347 c 7.82785,6.59284 15.95738,7.70532 24.43877,2.41845 8.03559,-4.47886 16.28464,-5.24802 25.06224,3.16222 l -0.0551,-0.0904 c -9.75991,-5.45117 -16.43101,-4.633 -21.90362,-1.38368 -12.78583,6.76704 -21.72768,4.85849 -27.54223,-4.10659"
               style="fill:#2a3855;fill-opacity:1;fill-rule:nonzero;stroke:none;stroke-width:0;stroke-miterlimit:4;stroke-dasharray:none;stroke-opacity:1"
               id="path3803"
               inkscape:connector-curvature="0" />
            <path
               d="m -217.68704,115.42245 c -7.39795,4.6264 -14.51858,4.74016 -21.13278,-3.38009 6.94644,4.41588 14.00818,4.9565 21.13278,3.38009"
               style="fill:#2a3855;fill-opacity:1;fill-rule:nonzero;stroke:none;stroke-width:0;stroke-miterlimit:4;stroke-dasharray:none;stroke-opacity:0"
               id="path3811"
               inkscape:connector-curvature="0" />
            <g
               id="text3827"
               style="font-variant:normal;font-weight:normal;font-stretch:normal;font-size:15.0337553px;font-family:Righteous;-inkscape-font-specification:Righteous-Regular;writing-mode:lr-tb;fill:#2a3855;fill-opacity:1;fill-rule:nonzero;stroke:none;stroke-width:0.20168087"
               transform="scale(1.2321213,0.81160837)"
               aria-label="CLEAN">
              <path
                 id="path885"
                 style="fill:#2a3855;fill-opacity:1;stroke-width:0.20168087"
                 d="m -233.80909,135.86772 q -0.73407,0.63131 -1.64432,0.96898 -0.91024,0.33767 -1.88656,0.33767 -0.74875,0 -1.44612,-0.1982 -0.69002,-0.19086 -1.2993,-0.54321 -0.60194,-0.3597 -1.1011,-0.85886 -0.49917,-0.49917 -0.85887,-1.10111 -0.35235,-0.60928 -0.55055,-1.2993 -0.19086,-0.69737 -0.19086,-1.44612 0,-0.74875 0.19086,-1.44612 0.1982,-0.69737 0.55055,-1.2993 0.3597,-0.60928 0.85887,-1.10845 0.49916,-0.49917 1.1011,-0.85152 0.60928,-0.35969 1.2993,-0.55055 0.69737,-0.1982 1.44612,-0.1982 0.97632,0 1.88656,0.33767 0.91025,0.33033 1.64432,0.96897 l -1.11579,1.83518 q -0.46246,-0.49917 -1.09376,-0.76343 -0.6313,-0.27161 -1.32133,-0.27161 -0.69736,0 -1.30664,0.26427 -0.60928,0.26426 -1.0644,0.71938 -0.45513,0.44779 -0.71939,1.06441 -0.26427,0.60927 -0.26427,1.2993 0,0.69003 0.26427,1.2993 0.26426,0.60194 0.71939,1.05706 0.45512,0.45513 1.0644,0.71939 0.60928,0.26427 1.30664,0.26427 0.69003,0 1.32133,-0.26427 0.6313,-0.2716 1.09376,-0.77077 z" />
              <path
                 id="path887"
                 style="fill:#2a3855;fill-opacity:1;stroke-width:0.20168087"
                 d="m -225.22252,136.94681 h -7.37006 v -10.52657 h 2.10678 v 8.41979 h 5.26328 z" />
              <path
                 id="path889"
                 style="fill:#2a3855;fill-opacity:1;stroke-width:0.20168087"
                 d="m -216.91268,136.94681 h -7.21591 v -10.52657 h 7.21591 v 2.10678 h -5.10913 v 2.10679 h 3.45747 v 2.10678 h -3.45747 v 2.09944 h 5.10913 z" />
              <path
                 id="path891"
                 style="fill:#2a3855;fill-opacity:1;stroke-width:0.20168087"
                 d="m -209.24353,132.74059 v -2.10678 q 0,-0.43311 -0.16883,-0.81482 -0.1615,-0.38906 -0.44778,-0.67535 -0.28629,-0.28628 -0.67535,-0.44778 -0.38172,-0.16884 -0.81482,-0.16884 -0.4331,0 -0.82215,0.16884 -0.38172,0.1615 -0.66801,0.44778 -0.28629,0.28629 -0.45512,0.67535 -0.1615,0.38171 -0.1615,0.81482 v 2.10678 z m 2.10679,4.20622 h -2.10679 v -2.10678 h -4.21356 v 2.10678 h -2.09944 v -6.313 q 0,-0.87355 0.33033,-1.63698 0.33034,-0.77077 0.89557,-1.34335 0.57257,-0.57257 1.33601,-0.90291 0.77077,-0.33033 1.64431,-0.33033 0.87355,0 1.63698,0.33033 0.77077,0.33034 1.34335,0.90291 0.57257,0.57258 0.9029,1.34335 0.33034,0.76343 0.33034,1.63698 z" />
              <path
                 id="path893"
                 style="fill:#2a3855;fill-opacity:1;stroke-width:0.20168087"
                 d="m -196.88654,136.94681 h -2.2536 l -4.0594,-6.92962 v 6.92962 h -2.10679 v -10.52657 h 2.2536 l 4.05941,6.93697 v -6.93697 h 2.10678 z" />
            </g>
            <path
               d="m -238.30206,100.09431 c -9.64858,-6.653792 -20.06252,-8.377484 -31.37055,-4.343008 -10.67635,3.342764 -21.37407,3.311023 -32.12423,-5.070774 l 0.0649,0.08634 c 12.22076,5.791434 20.88529,5.64009 28.16993,3.183549 16.96427,-4.993578 28.37195,-2.478633 35.25999,6.143893"
               style="fill:#2a3855;fill-opacity:1;fill-rule:nonzero;stroke:none;stroke-width:0.2511991"
               id="path3835"
               inkscape:connector-curvature="0" />
            <path
               d="m -269.48362,98.111787 c 10.17035,-4.056568 19.86109,-3.947885 28.67604,3.762513 -9.35122,-4.293485 -18.94697,-5.006527 -28.67604,-3.762513"
               style="fill:#2a3855;fill-opacity:1;fill-rule:nonzero;stroke:none;stroke-width:0.2736842"
               id="path3843"
               inkscape:connector-curvature="0" />
            <g
               id="text3859"
               style="font-variant:normal;font-weight:normal;font-stretch:normal;font-size:4.28069735px;font-family:Arial;-inkscape-font-specification:ArialMT;writing-mode:lr-tb;fill:#2a3855;fill-opacity:1;fill-rule:nonzero;stroke:none;stroke-width:0.24751003"
               transform="matrix(1.0039606,-0.00717182,-0.00637391,0.99610057,0,0)"
               aria-label="Environment Solutions">
              <path
                 id="path903"
                 style="fill:#2a3855;fill-opacity:1;stroke-width:0.24751003"
                 d="m -286.72676,115.27841 v -3.06421 h 2.2156 v 0.3616 h -1.8101 v 0.9385 h 1.69514 v 0.35951 h -1.69514 v 1.043 h 1.88116 v 0.3616 z" />
              <path
                 id="path905"
                 style="fill:#2a3855;fill-opacity:1;stroke-width:0.24751003"
                 d="m -283.92794,115.27841 v -2.21977 h 0.33861 v 0.31561 q 0.24455,-0.36578 0.70648,-0.36578 0.20066,0 0.36788,0.0732 0.1693,0.0711 0.25291,0.18811 0.0836,0.11706 0.11705,0.278 0.0209,0.10451 0.0209,0.36578 v 1.36489 h -0.37623 v -1.35026 q 0,-0.22992 -0.0439,-0.34279 -0.0439,-0.11496 -0.15676,-0.18184 -0.11078,-0.069 -0.26127,-0.069 -0.24037,0 -0.41595,0.15258 -0.17349,0.15259 -0.17349,0.57898 v 1.21231 z" />
              <path
                 id="path907"
                 style="fill:#2a3855;fill-opacity:1;stroke-width:0.24751003"
                 d="m -280.93127,115.27841 -0.84443,-2.21977 h 0.39713 l 0.47656,1.32935 q 0.0773,0.21529 0.14214,0.4473 0.0502,-0.17557 0.14004,-0.42221 l 0.49328,-1.35444 h 0.38669 l -0.84026,2.21977 z" />
              <path
                 id="path909"
                 style="fill:#2a3855;fill-opacity:1;stroke-width:0.24751003"
                 d="m -279.40543,112.64687 v -0.43267 h 0.37623 v 0.43267 z m 0,2.63154 v -2.21977 h 0.37623 v 2.21977 z" />
              <path
                 id="path911"
                 style="fill:#2a3855;fill-opacity:1;stroke-width:0.24751003"
                 d="m -278.46139,115.27841 v -2.21977 h 0.33861 v 0.33652 q 0.1296,-0.23619 0.23829,-0.31144 0.11078,-0.0752 0.24246,-0.0752 0.1902,0 0.38668,0.12123 l -0.12959,0.34906 q -0.13795,-0.0815 -0.2759,-0.0815 -0.12333,0 -0.22156,0.0752 -0.0982,0.0732 -0.14005,0.20484 -0.0627,0.20066 -0.0627,0.43894 v 1.16214 z" />
              <path
                 id="path913"
                 style="fill:#2a3855;fill-opacity:1;stroke-width:0.24751003"
                 d="m -277.1718,114.16852 q 0,-0.6166 0.34279,-0.91341 0.28635,-0.24664 0.69812,-0.24664 0.45775,0 0.74829,0.30099 0.29053,0.29889 0.29053,0.82771 0,0.42849 -0.12959,0.67513 -0.1275,0.24455 -0.37414,0.38041 -0.24455,0.13587 -0.53509,0.13587 -0.46611,0 -0.75456,-0.2989 -0.28635,-0.2989 -0.28635,-0.86116 z m 0.38668,0 q 0,0.4264 0.18603,0.6396 0.18603,0.21111 0.4682,0.21111 0.28008,0 0.46611,-0.2132 0.18603,-0.2132 0.18603,-0.65005 0,-0.41176 -0.18812,-0.62287 -0.18603,-0.2132 -0.46402,-0.2132 -0.28217,0 -0.4682,0.21111 -0.18603,0.21111 -0.18603,0.6375 z" />
              <path
                 id="path915"
                 style="fill:#2a3855;fill-opacity:1;stroke-width:0.24751003"
                 d="m -274.65166,115.27841 v -2.21977 h 0.33861 v 0.31561 q 0.24455,-0.36578 0.70648,-0.36578 0.20066,0 0.36787,0.0732 0.16931,0.0711 0.25291,0.18811 0.0836,0.11706 0.11705,0.278 0.0209,0.10451 0.0209,0.36578 v 1.36489 h -0.37624 v -1.35026 q 0,-0.22992 -0.0439,-0.34279 -0.0439,-0.11496 -0.15676,-0.18184 -0.11078,-0.069 -0.26128,-0.069 -0.24037,0 -0.41594,0.15258 -0.17349,0.15259 -0.17349,0.57898 v 1.21231 z" />
              <path
                 id="path917"
                 style="fill:#2a3855;fill-opacity:1;stroke-width:0.24751003"
                 d="m -272.2716,115.27841 v -2.21977 h 0.33652 v 0.31143 q 0.10451,-0.16303 0.278,-0.26127 0.17348,-0.10033 0.39504,-0.10033 0.24664,0 0.40341,0.10242 0.15885,0.10242 0.22365,0.28636 0.26336,-0.38878 0.68558,-0.38878 0.33025,0 0.50791,0.18394 0.17767,0.18184 0.17767,0.56226 v 1.52374 h -0.37414 v -1.39833 q 0,-0.22574 -0.0376,-0.32398 -0.0355,-0.10033 -0.13168,-0.16094 -0.0961,-0.0606 -0.22574,-0.0606 -0.2341,0 -0.38877,0.15676 -0.15468,0.15468 -0.15468,0.49747 v 1.28964 h -0.37623 v -1.44223 q 0,-0.25082 -0.092,-0.37623 -0.092,-0.12541 -0.30099,-0.12541 -0.15885,0 -0.29471,0.0836 -0.13377,0.0836 -0.19439,0.24455 -0.0606,0.16094 -0.0606,0.46402 v 1.15169 z" />
              <path
                 id="path919"
                 style="fill:#2a3855;fill-opacity:1;stroke-width:0.24751003"
                 d="m -267.18621,114.56357 0.38878,0.0481 q -0.092,0.3407 -0.3407,0.52882 -0.24873,0.18812 -0.63542,0.18812 -0.48701,0 -0.77337,-0.2989 -0.28426,-0.30099 -0.28426,-0.84234 0,-0.56017 0.28844,-0.86952 0.28845,-0.30935 0.74829,-0.30935 0.44521,0 0.72738,0.30308 0.28218,0.30308 0.28218,0.85279 0,0.0335 -0.002,0.10033 h -1.65543 q 0.0209,0.36578 0.20693,0.56017 0.18603,0.19439 0.46402,0.19439 0.20693,0 0.35324,-0.10869 0.14632,-0.10869 0.23201,-0.34697 z m -1.2353,-0.60824 h 1.23948 q -0.0251,-0.28009 -0.14213,-0.42013 -0.17975,-0.21738 -0.46611,-0.21738 -0.25918,0 -0.43685,0.17348 -0.17557,0.17349 -0.19439,0.46403 z" />
              <path
                 id="path921"
                 style="fill:#2a3855;fill-opacity:1;stroke-width:0.24751003"
                 d="m -266.3257,115.27841 v -2.21977 h 0.33861 v 0.31561 q 0.24455,-0.36578 0.70648,-0.36578 0.20066,0 0.36787,0.0732 0.1693,0.0711 0.25291,0.18811 0.0836,0.11706 0.11705,0.278 0.0209,0.10451 0.0209,0.36578 v 1.36489 h -0.37623 v -1.35026 q 0,-0.22992 -0.0439,-0.34279 -0.0439,-0.11496 -0.15677,-0.18184 -0.11078,-0.069 -0.26127,-0.069 -0.24037,0 -0.41595,0.15258 -0.17348,0.15259 -0.17348,0.57898 v 1.21231 z" />
              <path
                 id="path923"
                 style="fill:#2a3855;fill-opacity:1;stroke-width:0.24751003"
                 d="m -263.1242,114.94189 0.0543,0.33234 q -0.15886,0.0334 -0.28427,0.0334 -0.20483,0 -0.3177,-0.0648 -0.11287,-0.0648 -0.15886,-0.16931 -0.046,-0.1066 -0.046,-0.44521 v -1.2771 h -0.27591 v -0.29262 h 0.27591 v -0.54972 l 0.37414,-0.22574 v 0.77546 h 0.37832 v 0.29262 h -0.37832 v 1.29801 q 0,0.16094 0.0188,0.20692 0.0209,0.046 0.0648,0.0732 0.046,0.0272 0.12959,0.0272 0.0627,0 0.16512,-0.0146 z" />
              <path
                 id="path925"
                 style="fill:#2a3855;fill-opacity:1;stroke-width:0.24751003"
                 d="m -261.65545,114.29394 0.3825,-0.0335 q 0.0272,0.22992 0.12541,0.37833 0.10033,0.14631 0.30935,0.23828 0.20902,0.0899 0.47029,0.0899 0.23201,0 0.40968,-0.069 0.17766,-0.069 0.26336,-0.18812 0.0878,-0.12123 0.0878,-0.26336 0,-0.14422 -0.0836,-0.25082 -0.0836,-0.10869 -0.2759,-0.18185 -0.12332,-0.0481 -0.54554,-0.1484 -0.42222,-0.10242 -0.59152,-0.1923 -0.21947,-0.11496 -0.32816,-0.28426 -0.1066,-0.1714 -0.1066,-0.38251 0,-0.23201 0.13168,-0.43267 0.13168,-0.20274 0.38459,-0.30725 0.25292,-0.10451 0.56226,-0.10451 0.3407,0 0.59989,0.11078 0.26127,0.10869 0.40131,0.32189 0.14005,0.21319 0.1505,0.48283 l -0.38878,0.0293 q -0.0313,-0.29054 -0.2132,-0.43894 -0.17975,-0.1484 -0.53299,-0.1484 -0.36788,0 -0.53718,0.13586 -0.16722,0.13377 -0.16722,0.32398 0,0.16512 0.11914,0.27172 0.11705,0.1066 0.61034,0.21947 0.49537,0.11078 0.67931,0.19439 0.26754,0.12332 0.39504,0.31353 0.1275,0.18811 0.1275,0.43476 0,0.24455 -0.14004,0.46193 -0.14004,0.21529 -0.4034,0.33652 -0.26128,0.11914 -0.58944,0.11914 -0.41594,0 -0.69812,-0.12123 -0.28008,-0.12123 -0.44103,-0.3637 -0.15885,-0.24455 -0.16721,-0.5518 z" />
              <path
                 id="path927"
                 style="fill:#2a3855;fill-opacity:1;stroke-width:0.24751003"
                 d="m -258.85039,114.16852 q 0,-0.6166 0.34279,-0.91341 0.28635,-0.24664 0.69812,-0.24664 0.45775,0 0.74829,0.30099 0.29053,0.29889 0.29053,0.82771 0,0.42849 -0.12959,0.67513 -0.1275,0.24455 -0.37414,0.38041 -0.24455,0.13587 -0.53509,0.13587 -0.46611,0 -0.75456,-0.2989 -0.28635,-0.2989 -0.28635,-0.86116 z m 0.38668,0 q 0,0.4264 0.18603,0.6396 0.18603,0.21111 0.4682,0.21111 0.28009,0 0.46611,-0.2132 0.18603,-0.2132 0.18603,-0.65005 0,-0.41176 -0.18812,-0.62287 -0.18602,-0.2132 -0.46402,-0.2132 -0.28217,0 -0.4682,0.21111 -0.18603,0.21111 -0.18603,0.6375 z" />
              <path
                 id="path929"
                 style="fill:#2a3855;fill-opacity:1;stroke-width:0.24751003"
                 d="m -256.33864,115.27841 v -3.06421 h 0.37623 v 3.06421 z" />
              <path
                 id="path931"
                 style="fill:#2a3855;fill-opacity:1;stroke-width:0.24751003"
                 d="m -253.92521,115.27841 v -0.32607 q -0.25918,0.37624 -0.70439,0.37624 -0.19648,0 -0.36788,-0.0752 -0.1693,-0.0753 -0.25291,-0.18812 -0.0815,-0.11496 -0.11496,-0.28008 -0.023,-0.11078 -0.023,-0.35115 v -1.37534 h 0.37623 v 1.23111 q 0,0.29472 0.023,0.39714 0.0355,0.1484 0.1505,0.2341 0.11496,0.0836 0.28426,0.0836 0.16931,0 0.31771,-0.0857 0.1484,-0.0878 0.20902,-0.23619 0.0627,-0.15049 0.0627,-0.43476 v -1.18931 h 0.37624 v 2.21977 z" />
              <path
                 id="path933"
                 style="fill:#2a3855;fill-opacity:1;stroke-width:0.24751003"
                 d="m -252.17846,114.94189 0.0543,0.33234 q -0.15886,0.0334 -0.28427,0.0334 -0.20484,0 -0.3177,-0.0648 -0.11287,-0.0648 -0.15886,-0.16931 -0.046,-0.1066 -0.046,-0.44521 v -1.2771 h -0.27591 v -0.29262 h 0.27591 v -0.54972 l 0.37414,-0.22574 v 0.77546 h 0.37832 v 0.29262 h -0.37832 v 1.29801 q 0,0.16094 0.0188,0.20692 0.0209,0.046 0.0648,0.0732 0.046,0.0272 0.12959,0.0272 0.0627,0 0.16512,-0.0146 z" />
              <path
                 id="path935"
                 style="fill:#2a3855;fill-opacity:1;stroke-width:0.24751003"
                 d="m -251.80778,112.64687 v -0.43267 h 0.37624 v 0.43267 z m 0,2.63154 v -2.21977 h 0.37624 v 2.21977 z" />
              <path
                 id="path937"
                 style="fill:#2a3855;fill-opacity:1;stroke-width:0.24751003"
                 d="m -250.99961,114.16852 q 0,-0.6166 0.34279,-0.91341 0.28636,-0.24664 0.69813,-0.24664 0.45775,0 0.74828,0.30099 0.29054,0.29889 0.29054,0.82771 0,0.42849 -0.12959,0.67513 -0.12751,0.24455 -0.37415,0.38041 -0.24455,0.13587 -0.53508,0.13587 -0.46612,0 -0.75456,-0.2989 -0.28636,-0.2989 -0.28636,-0.86116 z m 0.38669,0 q 0,0.4264 0.18602,0.6396 0.18603,0.21111 0.46821,0.21111 0.28008,0 0.46611,-0.2132 0.18602,-0.2132 0.18602,-0.65005 0,-0.41176 -0.18811,-0.62287 -0.18603,-0.2132 -0.46402,-0.2132 -0.28218,0 -0.46821,0.21111 -0.18602,0.21111 -0.18602,0.6375 z" />
              <path
                 id="path939"
                 style="fill:#2a3855;fill-opacity:1;stroke-width:0.24751003"
                 d="m -248.47948,115.27841 v -2.21977 h 0.33861 v 0.31561 q 0.24455,-0.36578 0.70648,-0.36578 0.20066,0 0.36787,0.0732 0.16931,0.0711 0.25291,0.18811 0.0836,0.11706 0.11705,0.278 0.0209,0.10451 0.0209,0.36578 v 1.36489 h -0.37624 v -1.35026 q 0,-0.22992 -0.0439,-0.34279 -0.0439,-0.11496 -0.15676,-0.18184 -0.11078,-0.069 -0.26128,-0.069 -0.24037,0 -0.41594,0.15258 -0.17349,0.15259 -0.17349,0.57898 v 1.21231 z" />
              <path
                 id="path941"
                 style="fill:#2a3855;fill-opacity:1;stroke-width:0.24751003"
                 d="m -246.24991,114.61582 0.37205,-0.0585 q 0.0314,0.22365 0.17349,0.34279 0.14422,0.11914 0.40131,0.11914 0.25919,0 0.3846,-0.10451 0.12541,-0.1066 0.12541,-0.24873 0,-0.1275 -0.11078,-0.20066 -0.0773,-0.0502 -0.3846,-0.1275 -0.41385,-0.10451 -0.5748,-0.17976 -0.15885,-0.0773 -0.24246,-0.21111 -0.0815,-0.13586 -0.0815,-0.29889 0,-0.1484 0.0669,-0.27382 0.069,-0.1275 0.18603,-0.2111 0.0878,-0.0648 0.23828,-0.10869 0.15258,-0.046 0.32607,-0.046 0.26127,0 0.45775,0.0752 0.19857,0.0752 0.29262,0.20484 0.0941,0.1275 0.12959,0.34279 l -0.36787,0.0502 q -0.0251,-0.17139 -0.14631,-0.26754 -0.11914,-0.0962 -0.33861,-0.0962 -0.25918,0 -0.36996,0.0857 -0.11078,0.0857 -0.11078,0.20065 0,0.0732 0.046,0.13169 0.046,0.0606 0.14422,0.10032 0.0564,0.0209 0.33234,0.0961 0.39923,0.1066 0.55599,0.17558 0.15886,0.0669 0.24873,0.19648 0.0899,0.12959 0.0899,0.32188 0,0.18812 -0.11078,0.35534 -0.10869,0.16512 -0.31562,0.25709 -0.20692,0.0899 -0.4682,0.0899 -0.43266,0 -0.66049,-0.17976 -0.22574,-0.17976 -0.28845,-0.533 z" />
            </g>
            <path
               d="m -231.29691,99.806244 -1.55939,-1.033517 -1.55841,1.035016 0.51597,-1.779918 -1.4809,-1.139719 1.87851,-0.06672 0.64312,-1.739687 0.64459,1.738937 1.8785,0.06472 -1.47992,1.141217 z"
               style="fill:#2f5496;fill-opacity:1;fill-rule:nonzero;stroke:none;stroke-width:0;stroke-miterlimit:4;stroke-dasharray:none;stroke-opacity:1"
               id="path3867"
               inkscape:connector-curvature="0" />
            <path
               d="m -231.29691,99.806244 -1.55939,-1.033517 -1.55841,1.035016 0.51597,-1.779918 -1.4809,-1.139719 1.87851,-0.06672 0.64312,-1.739687 0.64459,1.738937 1.8785,0.06472 -1.47992,1.141217 z"
               style="fill:#2a3855;fill-opacity:1;stroke:none;stroke-width:0.19948527;stroke-linecap:butt;stroke-linejoin:miter;stroke-miterlimit:4;stroke-dasharray:none;stroke-opacity:1"
               id="path3871"
               inkscape:connector-curvature="0" />
            <path
               d="m -223.93537,99.760865 -1.53517,-1.017525 -1.53445,1.018774 0.50838,-1.752431 -1.45815,-1.121976 1.84941,-0.06547 0.6331,-1.7122 0.6348,1.711951 1.84916,0.06347 -1.45669,1.123475 z"
               style="fill:#2f5496;fill-opacity:1;stroke:#2f5496;stroke-width:0;stroke-linecap:butt;stroke-linejoin:miter;stroke-miterlimit:4;stroke-dasharray:none;stroke-opacity:1"
               id="path3879"
               inkscape:connector-curvature="0" />
            <path
               d="m -223.92094,99.807593 -1.55939,-1.033517 -1.55841,1.035016 0.51597,-1.779918 -1.48089,-1.139719 1.8785,-0.06672 0.64312,-1.739687 0.64459,1.738937 1.8785,0.06472 -1.47991,1.141217 z"
               style="fill:#2f5496;fill-opacity:1;fill-rule:nonzero;stroke:none;stroke-width:0;stroke-miterlimit:4;stroke-dasharray:none;stroke-opacity:1"
               id="path3867-2"
               inkscape:connector-curvature="0" />
            <path
               d="m -223.92094,99.807593 -1.55939,-1.033517 -1.55841,1.035016 0.51597,-1.779918 -1.48089,-1.139719 1.8785,-0.06672 0.64312,-1.739687 0.64459,1.738937 1.8785,0.06472 -1.47991,1.141217 z"
               style="fill:#2a3855;fill-opacity:1;stroke:none;stroke-width:0.19948527;stroke-linecap:butt;stroke-linejoin:miter;stroke-miterlimit:4;stroke-dasharray:none;stroke-opacity:1"
               id="path3871-4"
               inkscape:connector-curvature="0" />
            <path
               d="m -216.82304,99.706591 -1.55939,-1.033517 -1.55841,1.035016 0.51597,-1.779918 -1.4809,-1.139719 1.87851,-0.06672 0.64312,-1.739687 0.64458,1.738937 1.87851,0.06472 -1.47992,1.141217 z"
               style="fill:#2f5496;fill-opacity:1;fill-rule:nonzero;stroke:none;stroke-width:0;stroke-miterlimit:4;stroke-dasharray:none;stroke-opacity:1"
               id="path3867-4"
               inkscape:connector-curvature="0" />
            <path
               d="m -216.82304,99.706591 -1.55939,-1.033517 -1.55841,1.035016 0.51597,-1.779918 -1.4809,-1.139719 1.87851,-0.06672 0.64312,-1.739687 0.64458,1.738937 1.87851,0.06472 -1.47992,1.141217 z"
               style="fill:#2a3855;fill-opacity:1;stroke:none;stroke-width:0.19948527;stroke-linecap:butt;stroke-linejoin:miter;stroke-miterlimit:4;stroke-dasharray:none;stroke-opacity:1"
               id="path3871-2"
               inkscape:connector-curvature="0" />
            <path
               d="m -209.92205,99.706591 -1.55938,-1.033517 -1.55842,1.035016 0.51597,-1.779918 -1.48089,-1.139719 1.8785,-0.06672 0.64313,-1.739687 0.64458,1.738937 1.87851,0.06472 -1.47992,1.141217 z"
               style="fill:#2f5496;fill-opacity:1;fill-rule:nonzero;stroke:none;stroke-width:0;stroke-miterlimit:4;stroke-dasharray:none;stroke-opacity:1"
               id="path3867-3"
               inkscape:connector-curvature="0" />
            <path
               d="m -209.92205,99.706591 -1.55938,-1.033517 -1.55842,1.035016 0.51597,-1.779918 -1.48089,-1.139719 1.8785,-0.06672 0.64313,-1.739687 0.64458,1.738937 1.87851,0.06472 -1.47992,1.141217 z"
               style="fill:#2a3855;fill-opacity:1;stroke:none;stroke-width:0.19948527;stroke-linecap:butt;stroke-linejoin:miter;stroke-miterlimit:4;stroke-dasharray:none;stroke-opacity:1"
               id="path3871-9"
               inkscape:connector-curvature="0" />
            <path
               d="m -203.06736,99.706591 -1.55939,-1.033517 -1.55841,1.035016 0.51597,-1.779918 -1.4809,-1.139719 1.87851,-0.06672 0.64312,-1.739687 0.64458,1.738937 1.87851,0.06472 -1.47992,1.141217 z"
               style="fill:#2f5496;fill-opacity:1;fill-rule:nonzero;stroke:none;stroke-width:0;stroke-miterlimit:4;stroke-dasharray:none;stroke-opacity:1"
               id="path3867-22"
               inkscape:connector-curvature="0" />
            <path
               d="m -203.06736,99.706591 -1.55939,-1.033517 -1.55841,1.035016 0.51597,-1.779918 -1.4809,-1.139719 1.87851,-0.06672 0.64312,-1.739687 0.64458,1.738937 1.87851,0.06472 -1.47992,1.141217 z"
               style="fill:#2a3855;fill-opacity:1;stroke:none;stroke-width:0.19948527;stroke-linecap:butt;stroke-linejoin:miter;stroke-miterlimit:4;stroke-dasharray:none;stroke-opacity:1"
               id="path3871-0"
               inkscape:connector-curvature="0" />
            <g
               id="text3795-0"
               style="font-variant:normal;font-weight:normal;font-stretch:normal;font-size:16.9893322px;font-family:Righteous;-inkscape-font-specification:Righteous-Regular;writing-mode:lr-tb;fill:#2a3855;fill-opacity:1;fill-rule:nonzero;stroke:none;stroke-width:0.19423017"
               transform="scale(1.2793858,0.78162506)"
               aria-label="SEA">
              <path
                 id="path896"
                 style="stroke-width:0.19423017"
                 d="m -186.06237,134.40039 q 0,-0.73831 0.28205,-1.38536 0.28205,-0.64706 0.76319,-1.1282 0.48944,-0.48944 1.13649,-0.77149 0.64706,-0.28205 1.38536,-0.28205 h 5.45849 v 2.38083 h -5.45849 q -0.24886,0 -0.46455,0.0913 -0.21568,0.0913 -0.3816,0.25716 -0.15761,0.15762 -0.24886,0.3733 -0.0913,0.21569 -0.0913,0.46456 0,0.24886 0.0913,0.47284 0.0913,0.21569 0.24886,0.3816 0.16592,0.15762 0.3816,0.24887 0.21569,0.0913 0.46455,0.0913 h 2.38083 q 0.73831,0 1.38536,0.28205 0.65535,0.27375 1.1365,0.76319 0.48943,0.48114 0.76319,1.13649 0.28205,0.64706 0.28205,1.38537 0,0.7383 -0.28205,1.38536 -0.27376,0.64705 -0.76319,1.13649 -0.48115,0.48114 -1.1365,0.76319 -0.64705,0.28205 -1.38536,0.28205 h -5.28428 v -2.38083 h 5.28428 q 0.24887,0 0.46455,-0.0913 0.21569,-0.0913 0.3733,-0.24887 0.16592,-0.16591 0.25717,-0.38159 0.0913,-0.21569 0.0913,-0.46455 0,-0.24887 -0.0913,-0.46456 -0.0913,-0.21568 -0.25717,-0.3733 -0.15761,-0.16591 -0.3733,-0.25716 -0.21568,-0.0913 -0.46455,-0.0913 h -2.38083 q -0.7383,0 -1.38536,-0.28205 -0.64705,-0.28205 -1.13649,-0.76319 -0.48114,-0.48944 -0.76319,-1.1365 -0.28205,-0.65535 -0.28205,-1.39365 z" />
              <path
                 id="path898"
                 style="stroke-width:0.19423017"
                 d="m -166.8305,142.72914 h -8.15455 v -11.89585 h 8.15455 v 2.38083 h -5.77372 v 2.38083 h 3.90721 v 2.38083 h -3.90721 v 2.37253 h 5.77372 z" />
              <path
                 id="path900"
                 style="stroke-width:0.19423017"
                 d="m -158.16377,137.97578 v -2.38083 q 0,-0.48944 -0.19079,-0.92081 -0.18251,-0.43966 -0.50603,-0.76319 -0.32353,-0.32353 -0.7632,-0.50603 -0.43137,-0.1908 -0.9208,-0.1908 -0.48944,0 -0.92911,0.1908 -0.43137,0.1825 -0.7549,0.50603 -0.32352,0.32353 -0.51432,0.76319 -0.1825,0.43137 -0.1825,0.92081 v 2.38083 z m 2.38083,4.75336 h -2.38083 v -2.38083 h -4.76165 v 2.38083 h -2.37254 v -7.13419 q 0,-0.98717 0.3733,-1.84991 0.3733,-0.87104 1.01206,-1.51809 0.64706,-0.64706 1.5098,-1.02036 0.87103,-0.3733 1.85821,-0.3733 0.98717,0 1.84991,0.3733 0.87103,0.3733 1.51809,1.02036 0.64705,0.64705 1.02035,1.51809 0.3733,0.86274 0.3733,1.84991 z" />
            </g>
          </g>
        </g>
      </g>
    </g>
  </g>
</svg>
