<?xml version="1.0" encoding="UTF-8" standalone="no"?>
<!-- Created with Inkscape (http://www.inkscape.org/) -->

<svg
   xmlns:dc="http://purl.org/dc/elements/1.1/"
   xmlns:cc="http://creativecommons.org/ns#"
   xmlns:rdf="http://www.w3.org/1999/02/22-rdf-syntax-ns#"
   xmlns:svg="http://www.w3.org/2000/svg"
   xmlns="http://www.w3.org/2000/svg"
   xmlns:sodipodi="http://sodipodi.sourceforge.net/DTD/sodipodi-0.dtd"
   xmlns:inkscape="http://www.inkscape.org/namespaces/inkscape"
   width="22.777876mm"
   height="22.777876mm"
   viewBox="0 0 22.777876 22.777876"
   version="1.1"
   id="svg938"
   inkscape:version="0.92.4 (5da689c313, 2019-01-14)"
   sodipodi:docname="qrcesign.svg">
  <defs
     id="defs932" />
  <sodipodi:namedview
     id="base"
     pagecolor="#ffffff"
     bordercolor="#666666"
     borderopacity="1.0"
     inkscape:pageopacity="0.0"
     inkscape:pageshadow="2"
     inkscape:zoom="1.979899"
     inkscape:cx="87.31968"
     inkscape:cy="-47.042527"
     inkscape:document-units="mm"
     inkscape:current-layer="layer1"
     showgrid="false"
     inkscape:window-width="1920"
     inkscape:window-height="1001"
     inkscape:window-x="-9"
     inkscape:window-y="-9"
     inkscape:window-maximized="1" />
  <metadata
     id="metadata935">
    <rdf:RDF>
      <cc:Work
         rdf:about="">
        <dc:format>image/svg+xml</dc:format>
        <dc:type
           rdf:resource="http://purl.org/dc/dcmitype/StillImage" />
        <dc:title />
      </cc:Work>
    </rdf:RDF>
  </metadata>
  <g
     inkscape:label="Layer 1"
     inkscape:groupmode="layer"
     id="layer1"
     transform="translate(-54.327774,-58.018262)">
    <g
       id="g1505"
       transform="matrix(0.00981805,0,0,-0.00981805,50.989637,84.134275)"
       style="fill:#ffffff">
      <path
         d="m 340,2380 v -280 h 280 280 v 280 280 H 620 340 Z m 480,0 V 2180 H 620 420 v 200 200 h 200 200 z"
         id="path857"
         inkscape:connector-curvature="0"
         style="fill:#ffffff" />
      <path
         d="m 500,2380 v -120 h 120 120 v 120 120 H 620 500 Z"
         id="path859"
         inkscape:connector-curvature="0"
         style="fill:#ffffff" />
      <path
         d="m 980,2620 v -40 h 80 80 v 40 40 h -80 -80 z"
         id="path861"
         inkscape:connector-curvature="0"
         style="fill:#ffffff" />
      <path
         d="m 1540,2620 v -40 h -40 -40 v -40 -40 h -120 -120 v -80 -80 h -40 -40 v 40 40 h -40 -40 v 40 40 h -40 -40 v -120 -120 h 40 40 v -40 -40 h -40 -40 v -40 -40 h 40 40 v -40 -40 h -40 -40 v -80 -80 h 80 80 v 40 40 h -40 -40 v 40 40 h 40 40 v 40 40 h 40 40 v -40 -40 h 40 40 v 40 40 h 40 40 v -80 -80 h 80 80 v -40 -40 h -40 -40 v -40 -40 h -120 -120 v -80 -80 h -40 -40 v 40 40 h -40 -40 v -80 -80 h -40 -40 v -80 -80 h -80 -80 v 40 40 h 40 40 v 40 40 h -40 -40 v -40 -40 h -40 -40 v 40 40 h -40 -40 v 40 40 h 160 160 v 40 40 H 820 660 v 40 40 h 40 40 v 40 40 h 40 40 v -40 -40 h 40 40 v 40 40 h -40 -40 v 40 40 h 40 40 v 40 40 h -40 -40 v -40 -40 h -40 -40 v -40 -40 h -80 -80 v 40 40 h 40 40 v 40 40 H 500 340 v -80 -80 h 40 40 v -40 -40 h -40 -40 v -240 -240 h 80 80 v -120 -120 h -40 -40 v -40 -40 h 120 120 v 40 40 h 40 40 v -40 -40 h 120 120 v -40 -40 h 40 40 v -40 -40 h 40 40 v 40 40 h 40 40 v -40 -40 h 120 120 v 40 40 h 80 80 v 40 40 h -80 -80 v 40 40 h -40 -40 v 80 80 h 40 40 v 40 40 h -80 -80 v 40 40 h 80 80 v 40 40 h 40 40 v -40 -40 h 40 40 v -80 -80 h -40 -40 v -80 -80 h 40 40 v 40 40 h 40 40 v 120 120 h 80 80 v 40 40 h 40 40 v -40 -40 h 40 40 v -40 -40 h -40 -40 v -40 -40 h -40 -40 v 40 40 h -40 -40 v -40 -40 h 40 40 v -80 -80 h -40 -40 v -80 -80 h -40 -40 v -40 -40 h 40 40 v -80 -80 h -40 -40 v 40 40 h -120 -120 v -80 -80 h -40 -40 v 80 80 h -40 -40 v -40 -40 h -80 -80 v 40 40 h -40 -40 v -40 -40 h -40 -40 V 500 340 h 40 40 v 160 160 h 40 40 v -80 -80 h 40 40 v -40 -40 h 40 40 v -40 -40 h 40 40 v 40 40 h -40 -40 v 80 80 h 40 40 v -40 -40 h 40 40 v -80 -80 h 40 40 v 40 40 h 40 40 v -40 -40 h 40 40 v 80 80 h 40 40 v 40 40 h 80 80 v 40 40 h 40 40 v -80 -80 h 40 40 v 40 40 h 40 40 v -40 -40 h 80 80 v -80 -80 h 40 40 v 40 40 h 40 40 v -40 -40 h 40 40 v 40 40 h 40 40 v 80 80 h -40 -40 v 40 40 h 40 40 v 40 40 h -80 -80 v 40 40 h 40 40 v 80 80 h 40 40 v 40 40 h -40 -40 v 40 40 h 40 40 v 40 40 h -40 -40 v 80 80 h 40 40 v 40 40 h -80 -80 v 80 80 h -80 -80 v 40 40 h -120 -120 v -40 -40 h -40 -40 v 80 80 h 40 40 v 40 40 h 40 40 v -40 -40 h 120 120 v 80 80 h 40 40 v -120 -120 h 40 40 v 120 120 h 40 40 v 40 40 h -40 -40 v -40 -40 h -40 -40 v 40 40 h -120 -120 v -40 -40 h -80 -80 v 40 40 h -40 -40 v -40 -40 h -40 -40 v 40 40 h -80 -80 v 40 40 h 40 40 v 40 40 h 40 40 v -40 -40 h 40 40 v 80 80 h -80 -80 v 40 40 h -40 -40 v 40 40 h -80 -80 v 80 80 h 40 40 v -40 -40 h 80 80 v -40 -40 h 40 40 v -40 -40 h 40 40 v 80 80 h -80 -80 v 40 40 h 80 80 v 40 40 h -80 -80 v -40 -40 h -80 -80 v 40 40 h -80 -80 z m 80,-240 v -40 h 40 40 v -40 -40 h 40 40 v -80 -80 h -40 -40 v -40 -40 h 40 40 v -80 -80 h -40 -40 v -40 -40 h 80 80 v -40 -40 h 40 40 v -40 -40 h 40 40 v -40 -40 h -40 -40 v 40 40 h -40 -40 v -40 -40 h -40 -40 v -40 -40 h -40 -40 v -40 -40 h -40 -40 v 40 40 h -40 -40 v 40 40 h -40 -40 v -40 -40 h -40 -40 v 40 40 h -40 -40 v -80 -80 h -40 -40 v -40 -40 h 40 40 v -40 -40 h -80 -80 v -40 -40 h -40 -40 v 40 40 h -40 -40 v 80 80 h 40 40 v 40 40 h 40 40 v 40 40 h 80 80 v 80 80 h 160 160 v 80 80 h 40 40 v 80 80 h -40 -40 v -40 -40 h -40 -40 v 160 160 h -40 -40 v -80 -80 h -40 -40 v 80 80 h -40 -40 v -80 -80 h -40 -40 v 40 40 h -40 -40 v -40 -40 h -40 -40 v 40 40 h 40 40 v 40 40 h 80 80 v 80 80 h 160 160 z m 320,-480 v -40 h -40 -40 v 40 40 h 40 40 z m 400,0 v -40 h -40 -40 v 40 40 h 40 40 z M 580,1700 v -80 h -40 -40 v 40 40 h -40 -40 v 40 40 h 80 80 z m 1600,-120 v -40 h 40 40 v 40 40 h 40 40 v -40 -40 h 40 40 v -40 -40 h 40 40 v -40 -40 h -40 -40 v -40 -40 h 40 40 v -40 -40 h 40 40 v -40 -40 h -40 -40 v 40 40 h -80 -80 v -40 -40 h 40 40 v -80 -80 h 40 40 v 40 40 h 40 40 v -40 -40 h -40 -40 v -80 -80 h -40 -40 v 40 40 h -40 -40 v 80 80 h -80 -80 v 40 40 h -40 -40 v -40 -40 h -40 -40 v 40 40 h -40 -40 v 40 40 h 40 40 v -40 -40 h 40 40 v 40 40 h 40 40 v -40 -40 h 40 40 v 80 80 h -80 -80 v 40 40 h 80 80 v -40 -40 h 40 40 v 120 120 h -40 -40 v -40 -40 h -40 -40 v 40 40 h -40 -40 v 40 40 h 40 40 z M 580,1500 v -40 h -40 -40 v -40 -40 h 40 40 v -40 -40 h -40 -40 v 40 40 h -40 -40 v 80 80 h 80 80 z m 240,-160 v -40 h 40 40 v -40 -40 h -40 -40 v -40 -40 h 40 40 v -40 -40 h -80 -80 v 80 80 h 40 40 v 40 40 h -40 -40 v 40 40 h 40 40 z M 660,1180 v -40 h -40 -40 v 40 40 h 40 40 z m 640,-80 v -40 h -40 -40 v -40 -40 h 40 40 v -40 -40 h -40 -40 v 40 40 h -40 -40 v -40 -40 h -40 -40 v 40 40 h -40 -40 v 40 40 h 40 40 v -40 -40 h 40 40 v 40 40 h 40 40 v 40 40 h 40 40 z m 640,-160 v -40 h -40 -40 v 40 40 h 40 40 z m 320,-80 V 740 h -120 -120 v 120 120 h 120 120 z M 1940,700 v -40 h -40 -40 v 40 40 h 40 40 z m 480,-40 v -80 h -40 -40 v 80 80 h 40 40 z m -720,-80 v -80 h -120 -120 v 40 40 h 80 80 v 40 40 h 40 40 z m 560,40 v -40 h -40 -40 v 40 40 h 40 40 z m 320,-120 v -80 h -40 -40 v 80 80 h 40 40 z"
         id="path863"
         inkscape:connector-curvature="0"
         style="fill:#ffffff" />
      <path
         d="m 1380,2300 v -40 h 40 40 v 40 40 h -40 -40 z"
         id="path865"
         inkscape:connector-curvature="0"
         style="fill:#ffffff" />
      <path
         d="m 1620,2140 v -40 h 40 40 v 40 40 h -40 -40 z"
         id="path867"
         inkscape:connector-curvature="0"
         style="fill:#ffffff" />
      <path
         d="m 1380,1580 v -40 h 40 40 v 40 40 h -40 -40 z"
         id="path869"
         inkscape:connector-curvature="0"
         style="fill:#ffffff" />
      <path
         d="m 1700,1580 v -40 h -40 -40 v -40 -40 h 40 40 v 40 40 h 40 40 v 40 40 h -40 -40 z"
         id="path871"
         inkscape:connector-curvature="0"
         style="fill:#ffffff" />
      <path
         d="m 1060,1340 v -40 h 40 40 v 40 40 h -40 -40 z"
         id="path873"
         inkscape:connector-curvature="0"
         style="fill:#ffffff" />
      <path
         d="m 2100,860 v -40 h 40 40 v 40 40 h -40 -40 z"
         id="path875"
         inkscape:connector-curvature="0"
         style="fill:#ffffff" />
      <path
         d="m 2100,2380 v -280 h 280 280 v 280 280 h -280 -280 z m 480,0 v -200 h -200 -200 v 200 200 h 200 200 z"
         id="path877"
         inkscape:connector-curvature="0"
         style="fill:#ffffff" />
      <path
         d="m 2260,2380 v -120 h 120 120 v 120 120 h -120 -120 z"
         id="path879"
         inkscape:connector-curvature="0"
         style="fill:#ffffff" />
      <path
         d="m 340,1180 v -40 h 40 40 v 40 40 h -40 -40 z"
         id="path881"
         inkscape:connector-curvature="0"
         style="fill:#ffffff" />
      <path
         d="M 340,620 V 340 H 620 900 V 620 900 H 620 340 Z m 480,0 V 420 H 620 420 v 200 200 h 200 200 z"
         id="path883"
         inkscape:connector-curvature="0"
         style="fill:#ffffff" />
      <path
         d="M 500,620 V 500 H 620 740 V 620 740 H 620 500 Z"
         id="path885"
         inkscape:connector-curvature="0"
         style="fill:#ffffff" />
      <path
         d="m 1860,460 v -40 h -40 -40 v -40 -40 h 40 40 v 40 40 h 40 40 v -40 -40 h 160 160 v 40 40 h -160 -160 v 40 40 h -40 -40 z"
         id="path887"
         inkscape:connector-curvature="0"
         style="fill:#ffffff" />
    </g>
  </g>
</svg>
