<?xml version="1.0" encoding="UTF-8" standalone="no"?>
<svg
   xmlns:dc="http://purl.org/dc/elements/1.1/"
   xmlns:cc="http://creativecommons.org/ns#"
   xmlns:rdf="http://www.w3.org/1999/02/22-rdf-syntax-ns#"
   xmlns:svg="http://www.w3.org/2000/svg"
   xmlns="http://www.w3.org/2000/svg"
   xmlns:sodipodi="http://sodipodi.sourceforge.net/DTD/sodipodi-0.dtd"
   xmlns:inkscape="http://www.inkscape.org/namespaces/inkscape"
   version="1.0"
   width="141.13281pt"
   height="141.13281pt"
   viewBox="0 0 141.13282 141.13282"
   preserveAspectRatio="xMidYMid meet"
   id="svg2333"
   sodipodi:docname="qrfe.svg"
   inkscape:version="0.92.4 (5da689c313, 2019-01-14)">
  <metadata
     id="metadata2339">
    <rdf:RDF>
      <cc:Work
         rdf:about="">
        <dc:format>image/svg+xml</dc:format>
        <dc:type
           rdf:resource="http://purl.org/dc/dcmitype/StillImage" />
        <dc:title></dc:title>
      </cc:Work>
    </rdf:RDF>
  </metadata>
  <defs
     id="defs2337" />
  <sodipodi:namedview
     pagecolor="#ffffff"
     bordercolor="#666666"
     borderopacity="1"
     objecttolerance="10"
     gridtolerance="10"
     guidetolerance="10"
     inkscape:pageopacity="0"
     inkscape:pageshadow="2"
     inkscape:window-width="1920"
     inkscape:window-height="1001"
     id="namedview2335"
     showgrid="false"
     inkscape:zoom="1.0224271"
     inkscape:cx="328.45345"
     inkscape:cy="-112.6125"
     inkscape:window-x="-9"
     inkscape:window-y="-9"
     inkscape:window-maximized="1"
     inkscape:current-layer="svg2333" />
  <g
     id="g2399"
     transform="matrix(0.38144006,0,0,0.38144006,-11.443202,-11.443202)">
    <g
       style="fill:#ffffff;stroke:none"
       id="g2331"
       transform="matrix(0.1,0,0,-0.1,0,430)">
      <path
         style="fill:#ffffff"
         id="path2231"
         d="m 300,3650 v -350 h 350 350 v 350 350 H 650 300 Z m 600,0 V 3400 H 650 400 v 250 250 h 250 250 z"
         inkscape:connector-curvature="0" />
      <path
         style="fill:#ffffff"
         id="path2233"
         d="m 500,3650 v -150 h 150 150 v 150 150 H 650 500 Z"
         inkscape:connector-curvature="0" />
      <path
         style="fill:#ffffff"
         id="path2235"
         d="m 1100,3850 v -150 h 50 50 v -50 -50 h 50 50 v -50 -50 h 50 50 v -50 -50 h -50 -50 v -50 -50 h 50 50 v -100 -100 h 50 50 v 50 50 h 50 50 v 200 200 h 250 250 v -150 -150 h -50 -50 v 50 50 h -50 -50 v -50 -50 h -50 -50 v 50 50 h -50 -50 v -150 -150 h 50 50 v -50 -50 h -100 -100 v -50 -50 h -50 -50 v 50 50 h -50 -50 v -50 -50 h 50 50 v -50 -50 h 50 50 v -50 -50 h -50 -50 v -50 -50 h -50 -50 v -50 -50 h -100 -100 v 150 150 h 50 50 v -50 -50 h 50 50 v 50 50 h -50 -50 v 100 100 h -100 -100 v -50 -50 h 50 50 v -50 -50 h -50 -50 V 2700 2600 H 1000 900 v 50 50 h 50 50 v 50 50 h -50 -50 v -50 -50 H 800 700 v -50 -50 H 600 500 v -50 -50 h -50 -50 v 50 50 h -50 -50 v -100 -100 h 100 100 v 50 50 h 50 50 v -50 -50 h 50 50 v -50 -50 H 550 400 v -100 -100 h -50 -50 v -100 -100 h 100 100 v -50 -50 H 400 300 v -50 -50 h 100 100 v -50 -50 H 400 300 v -250 -250 h 50 50 v 150 150 h 50 50 v -50 -50 h 100 100 v -50 -50 H 600 500 v -50 -50 h 100 100 v 50 50 h 50 50 v 50 50 h 100 100 v 50 50 h -50 -50 v 50 50 h 50 50 v 50 50 h 50 50 V 1400 1200 H 1000 900 v -50 -50 h 100 100 v -50 -50 h 50 50 v 100 100 h 50 50 v -50 -50 h 50 50 v -50 -50 h 50 50 v -50 -50 h 50 50 V 800 700 h -50 -50 v 50 50 h -50 -50 v -50 -50 h -50 -50 v 100 100 h -50 -50 v -50 -50 h -50 -50 V 650 500 h 50 50 v 100 100 h 50 50 V 600 500 h 50 50 v -50 -50 h -50 -50 v -50 -50 h 200 200 v 50 50 h 100 100 v 50 50 h 50 50 V 400 300 h 50 50 v 50 50 h 50 50 v 50 50 h 50 50 v 100 100 h 50 50 v -50 -50 h 50 50 v 50 50 h 200 200 v 50 50 h 50 50 v -50 -50 h 50 50 v -50 -50 h 50 50 v -50 -50 h -100 -100 v -50 -50 h -100 -100 v 50 50 h -100 -100 v -50 -50 h 50 50 v -50 -50 h 200 200 v 50 50 h 100 100 v -50 -50 h 100 100 v 50 50 h 50 50 v -50 -50 h 200 200 v 150 150 h -50 -50 V 500 400 h -150 -150 v 50 50 h -50 -50 v 100 100 h 50 50 v -50 -50 h 50 50 v -50 -50 h 50 50 v 50 50 h -50 -50 v 50 50 h 100 100 v 50 50 h -100 -100 v -50 -50 h -50 -50 v 100 100 h 50 50 v 50 50 h -50 -50 v 50 50 h 50 50 v 50 50 h -50 -50 v 50 50 h 100 100 V 1100 900 h 100 100 v 50 50 h -50 -50 v 150 150 h 50 50 v 50 50 h -150 -150 v 100 100 h -100 -100 v 50 50 h -100 -100 v 100 100 h 50 50 v -50 -50 h 50 50 v 50 50 h 50 50 v -100 -100 h 100 100 v -50 -50 h 50 50 v 50 50 h 50 50 v 50 50 h -100 -100 v 50 50 h 50 50 v 50 50 h 50 50 v 100 100 h -100 -100 v -50 -50 h 50 50 v -50 -50 h -150 -150 v 50 50 h -50 -50 v -50 -50 h -100 -100 v -50 -50 h -50 -50 v -150 -150 h -50 -50 v -100 -100 h -100 -100 v -100 -100 h -150 -150 v 50 50 h -50 -50 v -50 -50 h -50 -50 v 50 50 h -50 -50 v 100 100 h 50 50 v -50 -50 h 50 50 v 50 50 h 50 50 v 50 50 h 50 50 v -100 -100 h 50 50 v 50 50 h 100 100 v 100 100 h 50 50 v 50 50 h -50 -50 v 100 100 h -50 -50 v -200 -200 h -50 -50 v 250 250 h -50 -50 v 100 100 h 200 200 v -50 -50 h -100 -100 v -50 -50 h 100 100 v -50 -50 h 50 50 v 50 50 h 100 100 v 50 50 h 50 50 v 50 50 h 50 50 v 100 100 h 50 50 v 50 50 h 50 50 v -100 -100 h -50 -50 v -50 -50 h 150 150 v 50 50 h -50 -50 v 50 50 h 50 50 v 50 50 h -100 -100 v 100 100 h 50 50 v 50 50 h 50 50 v 150 150 h -150 -150 v -100 -100 h -100 -100 v 100 100 h -150 -150 v 150 150 h -100 -100 v 50 50 h 50 50 v 50 50 h -50 -50 v -50 -50 h -50 -50 v 50 50 h -150 -150 v 100 100 h 100 100 v -50 -50 h 50 50 v 50 50 h -50 -50 v 50 50 h -150 -150 v -50 -50 h -50 -50 v 50 50 h -50 -50 v -100 -100 h 100 100 v -50 -50 h -50 -50 v -50 -50 h -50 -50 v 50 50 h -50 -50 v 100 100 h -50 -50 v 50 50 h -100 -100 v -50 -50 h -50 -50 v 50 50 h -100 -100 v -50 -50 h -50 -50 v -50 -50 h -50 -50 v 50 50 h -50 -50 v 50 50 h -100 -100 z m 900,0 v -50 h 50 50 v -50 -50 h -50 -50 v 50 50 h -50 -50 v 50 50 h 50 50 z m -300,-100 v -50 h -50 -50 v -50 -50 h -50 -50 v -50 -50 h -50 -50 v 50 50 h 50 50 v 50 50 h 50 50 v 50 50 h 50 50 z m 600,-200 v -50 h -50 -50 v 50 50 h 50 50 z m 200,0 v -50 h 50 50 v 50 50 h 150 150 v -50 -50 h 50 50 v -50 -50 h 50 50 v -200 -200 h 50 50 v 50 50 h 100 100 v -50 -50 h 50 50 v -50 -50 h 50 50 v -50 -50 h 50 50 v 50 50 h 50 50 v -50 -50 h -50 -50 v -50 -50 h -50 -50 v -100 -100 h -50 -50 v -100 -100 h -50 -50 v -50 -50 h -50 -50 v 50 50 h 50 50 v 150 150 h -50 -50 v -50 -50 h -50 -50 v -100 -100 h -50 -50 v 50 50 h -50 -50 v 50 50 h 50 50 v 50 50 h -50 -50 v 50 50 h 100 100 v -50 -50 h 50 50 v 50 50 h 50 50 v 150 150 h -50 -50 v -100 -100 h -50 -50 v 50 50 h -50 -50 v 50 50 h -50 -50 v 200 200 h -50 -50 v -150 -150 h -50 -50 v -100 -100 h 50 50 v -50 -50 h -50 -50 v -100 -100 h -50 -50 v 100 100 h 50 50 v 50 50 h -50 -50 v 100 100 h -100 -100 v -100 -100 h -50 -50 v -50 -50 h 100 100 v -100 -100 h -100 -100 v -50 -50 h 150 150 v -100 -100 h -50 -50 v 50 50 h -114 -114 l 15,-40 c 10,-24 23,-40 33,-40 75,0 204,-95 237,-175 10,-25 24,-45 31,-45 15,0 17,-97 1,-102 -6,-2 -19,-25 -29,-51 l -18,-47 h 29 c 28,0 29,-1 29,-50 v -50 h -50 c -47,0 -50,2 -50,26 0,14 -4,23 -10,19 -5,-3 -10,-15 -10,-26 0,-10 5,-19 10,-19 6,0 10,-40 10,-100 v -100 h -150 -150 v -50 -50 h -50 -50 v 50 50 h -50 -50 v 50 50 h 50 50 v 39 c 0,31 -4,41 -20,46 -11,4 -46,30 -78,59 -50,46 -66,54 -129,68 -61,13 -73,13 -73,2 0,-10 14,-14 50,-14 h 50 v -150 -150 h -50 -50 v -50 -50 h 50 50 v -50 -50 h -50 -50 v -50 -50 h 50 50 v -100 -100 h -50 -50 v 100 100 h -100 -100 v -100 -100 h 50 50 v -50 -50 h 100 100 v -50 -50 h -50 -50 V 800 700 h 100 100 v -50 -50 h 50 50 v -50 -50 h -100 -100 v 50 50 h -50 -50 v -50 -50 h -50 -50 v 200 200 h -50 -50 v 50 50 h -100 -100 v 50 50 h -50 -50 v 100 100 h -100 -100 v 150 150 h -50 -50 v 50 50 h 50 50 v 50 50 h -50 -50 v 50 50 h 50 50 v -50 -50 h 50 50 v 150 150 h -100 -100 v -50 -50 H 1000 900 v 50 50 h -50 -50 v -100 -100 h -50 -50 v -150 -150 h 50 50 v 50 50 h 100 100 v -50 -50 h -50 -50 v -50 -50 H 800 700 v -50 -50 H 600 500 v 100 100 h 50 50 v 50 50 h -50 -50 v 50 50 h 50 50 v 50 50 h -50 -50 v 100 100 h 50 50 v 50 50 h 50 50 v -50 -50 h 50 50 v 50 50 h 50 50 v 50 50 h 50 50 v 50 50 H 900 800 v 100 100 h 50 50 v -50 -50 h 150 150 v -50 -50 h -50 -50 v -50 -50 h 150 150 v 100 100 h 50 50 v 50 50 h 50 50 v 50 50 h 50 50 v 50 50 h -50 -50 v 50 50 h 100 100 v -150 -150 h -100 -100 v -50 -50 h 50 c 48,0 50,-1 50,-27 v -27 l 38,36 c 35,35 127,88 151,88 7,0 11,24 11,65 v 65 h 50 50 v 50 50 h -50 -50 v 100 100 h 50 50 v 50 50 h -50 -50 v 100 100 h 50 50 v -50 -50 h 50 50 v 50 50 h 50 50 v 50 50 h 50 50 v -100 -100 h 150 150 v 100 100 h -50 -50 v -50 -50 h -50 -50 v 150 150 h 50 50 z M 1500,3350 v -50 h -50 -50 v 50 50 h 50 50 z m 2400,-300 v -50 h -50 -50 v 50 50 h 50 50 z M 2900,2450 v -50 h -50 -50 v 50 50 h 50 50 z m 300,-300 v -50 h -50 -50 v 50 50 h 50 50 z M 1000,1850 v -50 h -50 -50 v 50 50 h 50 50 z m 2400,-400 v -50 h -50 -50 v -50 -50 h 50 50 v -50 -50 h -50 -50 v 50 50 h -100 -100 v 50 50 h 100 100 v 50 50 h 50 50 z m 200,0 v -50 h -50 -50 v 50 50 h 50 50 z M 2200,1300 v -100 h -50 -50 v 100 100 h 50 50 z m 200,-150 v -50 h 50 50 v 50 50 h 50 50 v -100 -100 h 50 50 v 50 50 h 50 50 v -50 -50 h 50 50 v 100 100 h 50 50 v -50 -50 h 50 50 v -50 -50 H 3000 2900 V 900 800 h -100 -100 v 50 50 h -50 -50 v -50 -50 h -100 -100 v 50 50 h -50 -50 v 50 50 h 50 50 v 50 50 h -50 -50 v 50 50 h 50 50 z M 3500,950 V 800 h -150 -150 v 150 150 h 150 150 z M 2200,850 v -50 h -50 -50 v 50 50 h 50 50 z m 900,0 v -50 h -50 -50 v 50 50 h 50 50 z m 200,-200 v -50 h 50 50 v -50 -50 h 50 50 v -50 -50 h -50 -50 v 50 50 h -50 -50 v 50 50 h -50 -50 v 50 50 h 50 50 z M 1700,500 V 400 h -100 -100 v 50 50 h -50 -50 v 50 50 h 150 150 z"
         inkscape:connector-curvature="0" />
      <path
         style="fill:#ffffff"
         id="path2237"
         d="m 2700,3300 v -200 h 50 50 v 200 200 h -50 -50 z"
         inkscape:connector-curvature="0" />
      <path
         style="fill:#ffffff"
         id="path2239"
         d="m 2100,3150 v -50 h 50 50 v 50 50 h -50 -50 z"
         inkscape:connector-curvature="0" />
      <path
         style="fill:#ffffff"
         id="path2241"
         d="m 2300,3000 v -100 h -50 -50 v 50 50 h -100 -100 v -50 -50 h 50 50 v -50 -50 h 50 50 v -50 -50 h -50 -50 v -50 -50 l -52,-1 -53,-2 50,-7 c 28,-4 52,-3 53,2 2,4 26,8 53,8 44,0 49,-2 49,-22 0,-16 13,-31 44,-50 24,-16 46,-28 50,-28 3,0 6,45 6,100 v 100 h 50 50 v 50 50 h -50 -50 v 50 50 h 50 50 v 100 100 h -50 -50 z"
         inkscape:connector-curvature="0" />
      <path
         style="fill:#ffffff"
         id="path2243"
         d="m 3400,2650 v -50 h 50 50 v 50 50 h -50 -50 z"
         inkscape:connector-curvature="0" />
      <path
         style="fill:#ffffff"
         id="path2245"
         d="m 1988,2543 c 18,-2 45,-2 60,0 15,2 0,4 -33,4 -33,0 -45,-2 -27,-4 z"
         inkscape:connector-curvature="0" />
      <path
         style="fill:#ffffff"
         id="path2247"
         d="m 2240,2476 c 0,-2 8,-10 18,-17 15,-13 16,-12 3,4 -13,16 -21,21 -21,13 z"
         inkscape:connector-curvature="0" />
      <path
         style="fill:#ffffff"
         id="path2249"
         d="m 1734,2418 -19,-23 23,19 c 21,18 27,26 19,26 -2,0 -12,-10 -23,-22 z"
         inkscape:connector-curvature="0" />
      <path
         style="fill:#ffffff"
         id="path2251"
         d="m 2295,2420 c 10,-11 20,-20 23,-20 3,0 -3,9 -13,20 -10,11 -20,20 -23,20 -3,0 3,-9 13,-20 z"
         inkscape:connector-curvature="0" />
      <path
         style="fill:#ffffff"
         id="path2253"
         d="m 1876,2394 c -21,-21 -20,-47 2,-67 24,-22 45,-21 65,1 22,24 21,45 -1,65 -23,21 -46,22 -66,1 z"
         inkscape:connector-curvature="0" />
      <path
         style="fill:#ffffff"
         id="path2255"
         d="m 2116,2394 c -30,-30 -9,-84 33,-84 22,0 51,30 51,53 0,21 -27,47 -50,47 -10,0 -26,-7 -34,-16 z"
         inkscape:connector-curvature="0" />
      <path
         style="fill:#ffffff"
         id="path2257"
         d="m 2350,2311 c 0,-11 -8,-22 -17,-24 -12,-3 -9,-5 8,-6 23,-1 26,2 21,24 -5,30 -12,33 -12,6 z"
         inkscape:connector-curvature="0" />
      <path
         style="fill:#ffffff"
         id="path2259"
         d="m 1400,2250 v -50 h -50 -50 v -50 -50 h 50 50 v 50 50 h 50 50 v -50 -50 h 50 50 v 50 c 0,38 4,50 15,50 11,0 15,12 15,50 0,38 -4,50 -15,50 -11,0 -15,-12 -15,-50 v -50 h -50 -50 v 50 50 h -50 -50 z"
         inkscape:connector-curvature="0" />
      <path
         style="fill:#ffffff"
         id="path2261"
         d="m 1672,2250 c 0,-14 2,-19 5,-12 2,6 2,18 0,25 -3,6 -5,1 -5,-13 z"
         inkscape:connector-curvature="0" />
      <path
         style="fill:#ffffff"
         id="path2263"
         d="m 2530,2226 c 0,-2 8,-10 18,-17 15,-13 16,-12 3,4 -13,16 -21,21 -21,13 z"
         inkscape:connector-curvature="0" />
      <path
         style="fill:#ffffff"
         id="path2265"
         d="m 900,2150 v -50 h 100 100 v 50 50 H 1000 900 Z"
         inkscape:connector-curvature="0" />
      <path
         style="fill:#ffffff"
         id="path2267"
         d="m 2570,2186 c 0,-2 8,-10 18,-17 15,-13 16,-12 3,4 -13,16 -21,21 -21,13 z"
         inkscape:connector-curvature="0" />
      <path
         style="fill:#ffffff"
         id="path2269"
         d="m 2225,2144 c -19,-20 -16,-43 8,-58 20,-13 50,2 55,26 3,16 -23,48 -38,48 -5,0 -16,-7 -25,-16 z"
         inkscape:connector-curvature="0" />
      <path
         style="fill:#ffffff"
         id="path2271"
         d="m 2410,2140 c -14,-26 3,-60 31,-60 27,0 47,44 29,65 -18,21 -47,19 -60,-5 z"
         inkscape:connector-curvature="0" />
      <path
         style="fill:#ffffff"
         id="path2273"
         d="m 2608,2135 c 5,-11 12,-27 15,-35 5,-13 6,-13 6,1 1,8 -6,24 -15,35 -15,19 -15,19 -6,-1 z"
         inkscape:connector-curvature="0" />
      <path
         style="fill:#ffffff"
         id="path2275"
         d="m 600,2050 v -50 h 50 50 v 50 50 h -50 -50 z"
         inkscape:connector-curvature="0" />
      <path
         style="fill:#ffffff"
         id="path2277"
         d="m 1757,2060 c 23,-24 44,-42 46,-40 2,3 -17,23 -42,44 l -46,40 z"
         inkscape:connector-curvature="0" />
      <path
         style="fill:#ffffff"
         id="path2279"
         d="m 2632,2042 c -3,-59 -26,-110 -74,-159 -38,-39 -40,-43 -29,-74 6,-17 11,-34 11,-36 0,-2 -22,8 -49,21 -27,14 -51,22 -55,19 -4,-4 -39,-10 -79,-14 -72,-8 -72,-8 18,-4 74,2 96,0 128,-17 22,-11 41,-17 44,-14 3,3 0,19 -6,37 -10,29 -8,34 33,80 47,52 70,114 63,170 -3,32 -4,31 -5,-9 z"
         inkscape:connector-curvature="0" />
      <path
         style="fill:#ffffff"
         id="path2281"
         d="m 2053,2035 c 0,-22 2,-30 4,-17 2,12 2,30 0,40 -3,9 -5,-1 -4,-23 z"
         inkscape:connector-curvature="0" />
      <path
         style="fill:#ffffff"
         id="path2283"
         d="m 1700,2027 c 0,-26 -2,-27 -50,-27 h -50 v -50 -50 h 50 50 v -50 -50 h -50 -50 v -50 -50 h 50 50 v 50 50 h 50 50 v -50 -50 h 50 50 v 50 50 h -50 -50 v 40 c 0,33 -3,40 -19,40 -11,0 -23,5 -26,10 -3,6 -17,10 -31,10 -22,0 -24,4 -24,49 0,46 2,50 26,53 l 26,3 -26,24 -26,24 z"
         inkscape:connector-curvature="0" />
      <path
         style="fill:#ffffff"
         id="path2285"
         d="m 1400,1850 v -150 h -50 -50 v -150 -150 h 100 100 v -50 -50 h 50 50 v 50 50 h 50 50 v 50 50 h -50 -50 v -50 -50 h -50 -50 v 100 100 h -50 -50 v 50 50 h 50 50 v 150 150 h -50 -50 z"
         inkscape:connector-curvature="0" />
      <path
         style="fill:#ffffff"
         id="path2287"
         d="m 1793,1975 c -3,-9 -3,-18 -1,-21 3,-3 8,4 11,16 6,23 -1,27 -10,5 z"
         inkscape:connector-curvature="0" />
      <path
         style="fill:#ffffff"
         id="path2289"
         d="m 1888,1973 c 6,-2 18,-2 25,0 6,3 1,5 -13,5 -14,0 -19,-2 -12,-5 z"
         inkscape:connector-curvature="0" />
      <path
         style="fill:#ffffff"
         id="path2291"
         d="m 2060,1971 c 0,-6 4,-13 10,-16 6,-3 7,1 4,9 -7,18 -14,21 -14,7 z"
         inkscape:connector-curvature="0" />
      <path
         style="fill:#ffffff"
         id="path2293"
         d="m 1938,1963 c 6,-2 18,-2 25,0 6,3 1,5 -13,5 -14,0 -19,-2 -12,-5 z"
         inkscape:connector-curvature="0" />
      <path
         style="fill:#ffffff"
         id="path2295"
         d="m 1820,1946 c -14,-8 -28,-12 -32,-10 -5,3 -8,0 -8,-5 0,-6 2,-11 5,-11 10,0 65,30 65,35 0,7 -1,6 -30,-9 z"
         inkscape:connector-curvature="0" />
      <path
         style="fill:#ffffff"
         id="path2297"
         d="m 2003,1953 c 9,-2 23,-2 30,0 6,3 -1,5 -18,5 -16,0 -22,-2 -12,-5 z"
         inkscape:connector-curvature="0" />
      <path
         style="fill:#ffffff"
         id="path2299"
         d="m 2090,1916 c 0,-2 8,-10 18,-17 15,-13 16,-12 3,4 -13,16 -21,21 -21,13 z"
         inkscape:connector-curvature="0" />
      <path
         style="fill:#ffffff"
         id="path2301"
         d="m 2130,1876 c 0,-2 8,-10 18,-17 15,-13 16,-12 3,4 -13,16 -21,21 -21,13 z"
         inkscape:connector-curvature="0" />
      <path
         style="fill:#ffffff"
         id="path2303"
         d="m 2210,1820 c 8,-5 20,-10 25,-10 6,0 3,5 -5,10 -8,5 -19,10 -25,10 -5,0 -3,-5 5,-10 z"
         inkscape:connector-curvature="0" />
      <path
         style="fill:#ffffff"
         id="path2305"
         d="m 2258,1803 c 7,-3 16,-2 19,1 4,3 -2,6 -13,5 -11,0 -14,-3 -6,-6 z"
         inkscape:connector-curvature="0" />
      <path
         style="fill:#ffffff"
         id="path2307"
         d="m 2353,1753 c -49,-4 -53,-6 -53,-29 0,-22 -4,-24 -50,-24 h -50 v -50 -50 h 50 50 v 50 50 h 100 c 80,0 100,3 100,14 0,21 -40,46 -70,44 -14,-1 -49,-3 -77,-5 z"
         inkscape:connector-curvature="0" />
      <path
         style="fill:#ffffff"
         id="path2309"
         d="m 2400,950 v -50 h 100 100 v 50 50 h -100 -100 z"
         inkscape:connector-curvature="0" />
      <path
         style="fill:#ffffff"
         id="path2311"
         d="m 3300,950 v -50 h 50 50 v 50 50 h -50 -50 z"
         inkscape:connector-curvature="0" />
      <path
         style="fill:#ffffff"
         id="path2313"
         d="m 3100,3950 v -50 h -50 -50 v -50 -50 h 100 100 v 100 100 h -50 -50 z"
         inkscape:connector-curvature="0" />
      <path
         style="fill:#ffffff"
         id="path2315"
         d="m 3300,3650 v -350 h 350 350 v 350 350 h -350 -350 z m 600,0 v -250 h -250 -250 v 250 250 h 250 250 z"
         inkscape:connector-curvature="0" />
      <path
         style="fill:#ffffff"
         id="path2317"
         d="m 3500,3650 v -150 h 150 150 v 150 150 h -150 -150 z"
         inkscape:connector-curvature="0" />
      <path
         style="fill:#ffffff"
         id="path2319"
         d="m 1100,3300 v -200 h 100 100 v 50 50 h -50 -50 v 150 150 h -50 -50 z"
         inkscape:connector-curvature="0" />
      <path
         style="fill:#ffffff"
         id="path2321"
         d="m 500,3150 v -50 h 150 150 v -50 -50 h -50 -50 v -50 -50 H 500 300 v -100 -100 h 150 150 v 50 50 h 100 100 v 50 50 h 100 100 v 50 50 h -50 -50 v 50 50 h 50 50 v 50 50 h -50 -50 v -50 -50 h -50 -50 v 50 50 H 650 500 Z"
         inkscape:connector-curvature="0" />
      <path
         style="fill:#ffffff"
         id="path2323"
         d="m 300,3050 v -50 h 50 50 v 50 50 h -50 -50 z"
         inkscape:connector-curvature="0" />
      <path
         style="fill:#ffffff"
         id="path2325"
         d="M 300,650 V 300 h 350 350 v 350 350 H 650 300 Z m 600,0 V 400 H 650 400 v 250 250 h 250 250 z"
         inkscape:connector-curvature="0" />
      <path
         style="fill:#ffffff"
         id="path2327"
         d="M 500,650 V 500 H 650 800 V 650 800 H 650 500 Z"
         inkscape:connector-curvature="0" />
      <path
         style="fill:#ffffff"
         id="path2329"
         d="M 2400,400 V 300 h 50 50 v 100 100 h -50 -50 z"
         inkscape:connector-curvature="0" />
    </g>
    <rect
       y="170"
       x="160"
       height="100"
       width="110"
       id="rect2345"
       style="opacity:1;fill:#ffffff;fill-opacity:1;stroke:none;stroke-width:0.75118113;stroke-linejoin:round;stroke-miterlimit:4;stroke-dasharray:none;stroke-opacity:1" />
  </g>
</svg>
