<?xml version="1.0" encoding="UTF-8" standalone="no"?>
<!-- Created with Inkscape (http://www.inkscape.org/) -->

<svg
   xmlns:dc="http://purl.org/dc/elements/1.1/"
   xmlns:cc="http://creativecommons.org/ns#"
   xmlns:rdf="http://www.w3.org/1999/02/22-rdf-syntax-ns#"
   xmlns:svg="http://www.w3.org/2000/svg"
   xmlns="http://www.w3.org/2000/svg"
   xmlns:sodipodi="http://sodipodi.sourceforge.net/DTD/sodipodi-0.dtd"
   xmlns:inkscape="http://www.inkscape.org/namespaces/inkscape"
   width="32.775818mm"
   height="12.790648mm"
   viewBox="0 0 32.775818 12.790648"
   version="1.1"
   id="svg4902"
   inkscape:version="0.92.4 (5da689c313, 2019-01-14)"
   sodipodi:docname="anp.svg">
  <defs
     id="defs4896" />
  <sodipodi:namedview
     id="base"
     pagecolor="#ffffff"
     bordercolor="#666666"
     borderopacity="1.0"
     inkscape:pageopacity="0.0"
     inkscape:pageshadow="2"
     inkscape:zoom="3.959798"
     inkscape:cx="75.563276"
     inkscape:cy="6.7767711"
     inkscape:document-units="mm"
     inkscape:current-layer="layer1"
     showgrid="false"
     inkscape:window-width="1920"
     inkscape:window-height="1001"
     inkscape:window-x="-9"
     inkscape:window-y="-9"
     inkscape:window-maximized="1" />
  <metadata
     id="metadata4899">
    <rdf:RDF>
      <cc:Work
         rdf:about="">
        <dc:format>image/svg+xml</dc:format>
        <dc:type
           rdf:resource="http://purl.org/dc/dcmitype/StillImage" />
        <dc:title></dc:title>
      </cc:Work>
    </rdf:RDF>
  </metadata>
  <g
     inkscape:label="Layer 1"
     inkscape:groupmode="layer"
     id="layer1"
     transform="translate(2.0409167,-163.04525)">
    <g
       transform="matrix(0.19985396,0,0,0.19985396,-2.1042492,152.36505)"
       id="g4864"
       style="opacity:0.76300001">
      <path
         style="fill:#a2a2a2;stroke-width:0.32000002"
         d="m 68.310951,117.03565 c -1.000393,-0.55366 -1.409817,-1.26961 -1.420771,-2.48445 -0.01357,-1.50564 0.708352,-2.45316 2.212413,-2.90379 2.014106,-0.60344 3.621555,0.146 2.877568,1.34161 -0.229146,0.36824 -0.399034,0.3776 -0.926051,0.051 -1.438864,-0.89173 -2.574106,-0.27396 -2.574106,1.40077 0,0.73828 0.243875,1.22461 0.855238,1.70551 0.941959,0.74095 1.58513,0.34604 1.053693,-0.64696 -0.368,-0.68762 -0.09919,-0.93932 1.003146,-0.93932 0.67487,0 0.909491,0.17121 0.986669,0.72 l 0.101254,0.72 0.8,-0.77048 c 0.44,-0.42377 0.629949,-0.67342 0.422112,-0.55478 -0.697955,0.3984 -0.731235,-0.33704 -0.07657,-1.69204 0.699078,-1.44693 1.470163,-1.59414 1.326115,-0.25318 -0.04859,0.45232 0.05941,0.91372 0.24,1.02532 0.180589,0.11161 0.328342,0.61793 0.328342,1.12516 0,0.50723 0.159399,1.02074 0.354218,1.14115 0.245555,0.15176 0.288253,-0.0814 0.13919,-0.7601 -0.180665,-0.82257 -0.08425,-1.06471 0.603313,-1.51522 0.450086,-0.29491 1.014137,-0.46107 1.253446,-0.36923 0.48144,0.18474 0.996474,3.0924 0.612163,3.45602 -0.13328,0.12611 -1.3556,0.2964 -2.716259,0.37844 -1.863117,0.11232 -2.564922,0.0395 -2.842458,-0.29491 -0.279834,-0.33717 -0.474371,-0.3562 -0.80832,-0.079 -0.6016,0.49929 -3.031795,0.62612 -3.804346,0.19855 z m 12.562939,0.21157 c -0.118199,-0.1182 -0.129188,-1.03503 -0.02442,-2.0374 0.116105,-1.11082 0.04958,-2.08578 -0.170356,-2.49674 -0.251971,-0.47082 -0.258547,-0.73746 -0.02179,-0.88378 0.658244,-0.40682 1.753546,0.18112 2.674279,1.4355 1.315664,1.79242 1.832672,1.21073 0.95553,-1.07507 -0.154074,-0.40151 0.02397,-0.50973 0.838633,-0.50973 0.98768,0 1.025232,0.045 0.834237,1 -0.11,0.55 -0.2,1.70652 -0.2,2.57004 0,2.20706 -0.705811,2.41196 -2.226467,0.64635 -0.63304,-0.73501 -1.257671,-1.33639 -1.388064,-1.33639 -0.130394,0 -0.198468,0.60661 -0.151274,1.34804 0.06409,1.00683 -0.03964,1.37411 -0.409798,1.45106 -0.272583,0.0567 -0.592314,0.006 -0.710512,-0.11188 z m 5.871398,-0.22994 c -0.504221,-0.50422 -0.42176,-1.48802 0.142884,-1.70469 0.376444,-0.14446 0.404096,-0.28863 0.120819,-0.62996 -0.277879,-0.33483 -0.270327,-0.55954 0.03101,-0.92263 0.484553,-0.58385 1.408179,-0.62408 1.836611,-0.08 0.393168,0.4993 0.795309,3.42738 0.477267,3.47508 -1.329728,0.19945 -2.323859,0.14694 -2.608595,-0.1378 z m 3.753367,0.0227 c -0.611456,-0.48559 -0.97337,-3.02245 -0.545299,-3.82231 0.351062,-0.65597 1.129261,-0.76985 1.321421,-0.19338 0.07045,0.21137 0.550454,0.40881 1.066665,0.43874 0.516211,0.0299 1.046563,0.073 1.178563,0.0957 0.132001,0.0227 0.240001,0.62576 0.240001,1.34015 0,0.85579 0.118966,1.22536 0.348739,1.08335 0.207305,-0.12812 0.268569,-0.64286 0.151059,-1.26924 -0.219171,-1.16828 0.220886,-1.55218 1.200739,-1.04751 0.438701,0.22596 0.531853,0.52069 0.381267,1.2063 -0.112713,0.51318 -0.05213,0.99822 0.13946,1.11664 0.216704,0.13393 0.338736,-0.25082 0.338736,-1.06798 0,-1.50212 0.258972,-1.63326 2.987216,-1.51267 2.028318,0.0896 2.439798,0.40754 2.447888,1.89111 0.003,0.56896 0.13352,0.81939 0.35533,0.6823 0.2161,-0.13355 0.3081,-1.03016 0.24,-2.33888 -0.10439,-2.00615 -0.0704,-2.12799 0.62189,-2.22618 0.72353,-0.10262 0.73122,-0.0682 0.64,2.87051 l -0.0923,2.97438 -2.02846,0.0382 c -2.315723,0.0436 -3.158715,-0.4368 -2.59965,-1.48142 0.181843,-0.33978 0.505555,-0.62215 0.719363,-0.62751 0.213808,-0.005 0.127997,-0.1614 -0.190694,-0.34678 -0.908317,-0.52835 -1.451037,-0.10531 -1.560182,1.21614 l -0.100381,1.21535 -2.24,0.0311 c -2.559012,0.0356 -3.360001,-0.40206 -3.360001,-1.83572 0,-0.50072 -0.148518,-0.9104 -0.330041,-0.9104 -0.534394,0 -0.734295,0.9287 -0.309959,1.44 0.400532,0.48261 0.23512,1.44 -0.248796,1.44 -0.147885,0 -0.495533,-0.18 -0.772554,-0.4 z m 15.812555,-0.0981 c -1.75393,-1.2285 -0.20768,-4.26417 1.72376,-3.38415 1.05571,0.48101 0.93864,1.68239 -0.19496,2.00068 l -0.8,0.22463 0.72,0.22582 c 0.83246,0.26108 0.95218,0.9536 0.21382,1.23693 -0.72469,0.27809 -0.86949,0.25162 -1.66262,-0.30391 z m 4.87568,0.15692 c -0.11598,-0.18767 -0.21151,-1.44767 -0.21227,-2.8 l -0.001,-2.45878 1.61355,-0.096 c 1.37332,-0.0817 1.66781,0.005 1.97803,0.585 0.20046,0.37458 0.28372,0.89148 0.18503,1.14869 -0.0987,0.2572 -0.0167,0.72822 0.18217,1.0467 0.64779,1.03727 0.0777,2.20954 -1.2545,2.57951 -1.52875,0.42456 -2.22597,0.42313 -2.49062,-0.005 z m 2.30565,-1.71727 c -0.10585,-0.27583 -0.34097,-0.50151 -0.52249,-0.50151 -0.36816,0 -0.45226,1.05111 -0.11138,1.392 0.3513,0.3513 0.8445,-0.34158 0.63387,-0.89049 z m -0.21253,-2.08262 c 0,-0.16562 -0.144,-0.39012 -0.32,-0.49889 -0.176,-0.10877 -0.32,0.0267 -0.32,0.30111 0,0.27439 0.144,0.49889 0.32,0.49889 0.176,0 0.32,-0.1355 0.32,-0.30111 z m 2.36234,3.67836 c -0.0977,-0.25452 -0.11638,-1.44252 -0.0416,-2.64 0.11118,-1.77982 0.2414,-2.19775 0.71338,-2.28953 0.45947,-0.0893 0.53871,0.0356 0.38805,0.61174 -0.10414,0.3982 -0.0452,0.99328 0.13091,1.32239 0.31047,0.58013 0.34543,0.57856 1.14672,-0.0517 1.02921,-0.80957 1.71686,-0.82081 2.70418,-0.0442 0.75588,0.59457 0.78434,0.59457 1.51861,0 0.88971,-0.72044 1.73686,-0.77723 2.25638,-0.15125 0.32435,0.39083 0.50964,0.37959 1.31918,-0.08 0.87581,-0.4972 1.00693,-0.49773 1.87062,-0.007 0.67361,0.38236 1.02519,0.43081 1.27962,0.17637 0.51705,-0.51705 4.71741,-0.58674 5.13366,-0.0852 0.1854,0.2234 0.42587,1.05387 0.53437,1.8455 0.16139,1.1774 0.098,1.47745 -0.34845,1.64876 -0.81512,0.3128 -1.12799,-0.0291 -1.12799,-1.23265 0,-0.59523 -0.144,-1.17123 -0.32,-1.28 -0.19297,-0.11926 -0.32,0.31038 -0.32,1.08223 0,1.37597 -0.28537,1.75377 -1.09113,1.44457 -0.34638,-0.13292 -0.50887,-0.59909 -0.50887,-1.45992 0,-0.83555 -0.11902,-1.19109 -0.35076,-1.04787 -0.19292,0.11923 -0.28946,0.63446 -0.21453,1.14496 0.16914,1.15241 -0.48673,1.82361 -1.20194,1.23003 -0.28383,-0.23555 -0.41671,-0.68607 -0.31831,-1.07918 0.16172,-0.64608 0.15345,-0.64487 -0.19414,0.0283 -0.51962,1.00632 -2.05919,1.48135 -3.12152,0.96313 -0.7001,-0.34152 -0.98108,-0.3288 -1.69926,0.0769 -0.79916,0.45147 -0.92901,0.4354 -1.82297,-0.22553 -0.61129,-0.45195 -1.03846,-0.58875 -1.17063,-0.37489 -0.43342,0.70129 -1.78707,0.96361 -2.67827,0.51902 -0.71453,-0.35645 -0.92835,-0.35741 -1.25695,-0.006 -0.51681,0.55325 -0.98697,0.53812 -1.20838,-0.0389 z m 4.03766,-1.61725 c 0,-0.49778 -0.18134,-0.8 -0.48,-0.8 -0.47997,0 -0.66922,0.98412 -0.26667,1.38667 0.43507,0.43507 0.74667,0.19025 0.74667,-0.58667 z m 4.8,0 c 0,-0.63484 -0.16126,-0.8 -0.78112,-0.8 -0.96001,0 -1.32402,0.51135 -0.80725,1.13402 0.64666,0.77918 1.58837,0.58115 1.58837,-0.33402 z m 2.56,0 c 0,-0.49778 -0.18134,-0.8 -0.48,-0.8 -0.47997,0 -0.66922,0.98412 -0.26667,1.38667 0.43507,0.43507 0.74667,0.19025 0.74667,-0.58667 z m 8.44134,1.8351 c -0.19927,-0.13062 -0.42265,-1.47943 -0.50264,-3.0351 -0.14176,-2.75701 -0.13257,-2.8 0.59866,-2.8 0.61182,0 0.74264,0.16911 0.74264,0.96 0,0.78841 0.13155,0.96 0.736,0.96 0.4048,0 0.89334,0.15734 1.08564,0.34964 0.23238,0.23238 0.54899,0.24688 0.944,0.0433 0.92278,-0.47572 1.39436,-0.11894 1.39436,1.05489 0,0.59095 0.16592,1.17699 0.3687,1.30232 0.26514,0.16386 0.31945,-0.13942 0.19333,-1.07966 -0.19784,-1.47499 0.41598,-2.04168 1.32425,-1.22258 0.44844,0.40442 0.59426,0.40422 1.14749,-0.002 0.39286,-0.28812 0.97065,-0.39081 1.52,-0.27015 0.55326,0.12152 0.88623,0.0611 0.88623,-0.16082 0,-0.63563 0.9685,-0.74688 1.59175,-0.18285 0.74169,0.67122 1.29111,0.40752 1.05244,-0.50513 -0.13892,-0.53125 -0.0489,-0.64679 0.43005,-0.55179 0.4269,0.0847 0.57465,0.33957 0.50039,0.86327 -0.0953,0.67193 -0.0139,0.72302 0.84954,0.53338 0.55712,-0.12237 1.04233,-0.0683 1.16479,0.12987 0.14779,0.23913 0.39952,0.23811 0.85091,-0.003 0.45885,-0.24557 0.76147,-0.24313 1.06477,0.009 0.30838,0.25593 0.64024,0.25301 1.21906,-0.0107 0.59424,-0.27076 0.96908,-0.26941 1.48243,0.005 0.87028,0.46576 1.31387,0.1954 1.31387,-0.80076 0,-0.48099 0.18443,-0.78111 0.48,-0.78111 0.31372,0 0.48,0.31407 0.48,0.90666 0,1.21554 0.25067,1.39352 1.14101,0.81014 1.01132,-0.66264 2.18108,-0.29825 1.94467,0.60578 -0.0951,0.36349 -0.0418,0.90571 0.11835,1.20494 0.5178,0.96752 -0.30585,1.55978 -2.26955,1.63196 -0.98204,0.0361 -1.93294,-0.0255 -2.11311,-0.13683 -0.18017,-0.11136 -0.76914,-0.0358 -1.30882,0.16791 -1.13333,0.42779 -1.83532,0.0342 -2.38525,-1.33741 l -0.32603,-0.81315 -0.44155,1.04 c -0.59914,1.41116 -1.34121,1.32001 -1.95401,-0.24 -0.27653,-0.704 -0.61667,-1.28 -0.75585,-1.28 -0.13919,0 -0.29734,0.61109 -0.35146,1.35798 -0.0978,1.35037 -0.10557,1.3581 -1.3784,1.37979 -0.704,0.012 -1.5846,-0.1577 -1.95688,-0.37711 -0.37228,-0.2194 -0.80428,-0.2783 -0.96,-0.13089 -0.15572,0.14741 -1.47058,0.34312 -2.92193,0.43492 -2.37427,0.15017 -2.68331,0.10337 -3.08272,-0.46687 -0.44178,-0.63073 -0.44906,-0.63062 -1.52119,0.023 -1.13167,0.68994 -1.79929,0.80537 -2.39594,0.41427 z m 12.87548,-2.17454 c -0.0972,-0.25331 -0.32977,-0.46056 -0.51682,-0.46056 -0.55401,0 -0.74421,0.92886 -0.29984,1.46429 0.37099,0.44702 0.44057,0.44469 0.70258,-0.0235 0.15995,-0.28581 0.21128,-0.7269 0.11408,-0.98022 z m 8.76318,0.7852 c 0,-0.48334 -0.14331,-0.61924 -0.50617,-0.48 -0.2784,0.10684 -0.7104,0.19424 -0.96,0.19424 -0.24961,0 -0.45383,0.13398 -0.45383,0.29774 0,0.25607 0.30835,0.36962 1.68,0.61868 0.132,0.024 0.24,-0.25982 0.24,-0.63066 z m -19.84,-0.26687 c 0,-0.731 -0.50452,-1.13699 -0.80625,-0.64878 -0.26881,0.43494 0.0443,1.26989 0.47621,1.26989 0.18152,0 0.33004,-0.2795 0.33004,-0.62111 z m 6.08,0.16 c 0,-0.0776 -0.144,-0.23012 -0.32,-0.33889 -0.176,-0.10877 -0.32,-0.0453 -0.32,0.14111 0,0.18639 0.144,0.33889 0.32,0.33889 0.176,0 0.32,-0.0635 0.32,-0.14111 z M 159.15573,115.36 c -0.10131,-0.264 -0.24079,-0.48 -0.30996,-0.48 -0.0692,0 -0.12576,0.216 -0.12576,0.48 0,0.264 0.13948,0.48 0.30996,0.48 0.17047,0 0.22707,-0.216 0.12576,-0.48 z m -13.36239,-0.71333 c -0.32528,-0.32529 -0.59368,0.16444 -0.32679,0.59628 0.20161,0.32621 0.27699,0.32646 0.38538,0.001 0.0741,-0.22234 0.0477,-0.49124 -0.0586,-0.59758 z M 0.3984471,85.36 0.48000003,53.6 31.965316,53.518426 c 22.998735,-0.05959 31.602483,0.01565 31.920003,0.27918 0.357651,0.296826 0.434602,3.855604 0.434211,20.081575 C 64.319271,84.725632 64.223911,98.892 64.107623,105.36 l -0.21144,11.76 H 32.106539 0.31689413 Z M 103.04001,107.2609 c 0,-1.40184 0.64104,-1.9508 1.32112,-1.13134 0.33235,0.40045 0.32186,0.64413 -0.0566,1.31532 -0.75414,1.33743 -1.26452,1.26318 -1.26452,-0.18398 z m -35.64895,-0.34658 c -0.281082,-0.3106 -0.511056,-1.02371 -0.511056,-1.58469 0,-0.85467 0.185379,-1.10839 1.143805,-1.56543 0.912867,-0.43531 1.115731,-0.69229 1.004765,-1.27279 -0.07647,-0.40004 0.05681,-0.88989 0.296195,-1.08856 0.742067,-0.61586 1.395235,0.25467 1.395235,1.85956 v 1.42404 l 0.843155,-0.66322 c 1.041367,-0.81914 2.089988,-0.8485 2.787249,-0.078 0.798262,0.88207 0.662368,2.14391 -0.313559,2.91157 -1.006778,0.79194 -1.491859,0.8254 -2.489459,0.17175 -0.638394,-0.41829 -0.77601,-0.42396 -0.924093,-0.0381 -0.260131,0.67789 -2.599728,0.62278 -3.232237,-0.0761 z m 1.728944,-1.65321 c 0,-0.34161 -0.216,-0.62111 -0.48,-0.62111 -0.47464,0 -0.670954,0.98238 -0.275366,1.37797 0.333628,0.33363 0.755366,-0.0889 0.755366,-0.75686 z m 4.16,0.19778 c 0,-0.42962 -0.145017,-0.87075 -0.322259,-0.98029 -0.405027,-0.25032 -0.767946,0.64053 -0.522019,1.2814 0.290537,0.75713 0.844278,0.55964 0.844278,-0.30111 z m 3.806634,2.00337 c -0.01834,-0.0562 -0.05705,-1.36312 -0.086,-2.90418 -0.05908,-3.14497 0.0822,-3.33415 2.194048,-2.93796 2.082157,0.39061 2.386452,2.47002 0.49929,3.41189 -0.854816,0.42664 -1.109203,0.75371 -1.12,1.44 -0.01056,0.67196 -0.18913,0.91287 -0.733971,0.99025 -0.396,0.0562 -0.735015,0.0562 -0.753367,0 z m 2.145367,-4.29426 c -0.154896,-0.40365 -0.308983,-0.45902 -0.564983,-0.20302 -0.1936,0.1936 -0.256157,0.60176 -0.139017,0.90702 0.154896,0.40365 0.308982,0.45902 0.564982,0.20302 0.1936,-0.1936 0.256157,-0.60176 0.139018,-0.90702 z m 2.368,3.712 c -1.552464,-1.55246 -0.07786,-4.05206 1.940918,-3.29006 0.79202,0.29896 0.9425,0.26341 1.109268,-0.26203 0.230304,-0.72562 1.284073,-0.80926 1.547481,-0.12283 0.143146,0.37303 0.483277,0.43756 1.472503,0.27937 0.822784,-0.13156 1.454918,-0.0658 1.75408,0.18248 0.586525,0.48677 1.004899,0.23432 1.636797,-0.98763 0.540563,-1.04534 1.300329,-1.07648 1.190662,-0.0488 -0.03756,0.35197 0.305623,0.9841 0.762631,1.40473 l 0.830928,0.76478 -0.160826,-1.49781 c -0.167088,-1.55614 0.157751,-2.25336 0.914554,-1.96295 0.278416,0.10684 0.441005,0.66785 0.441005,1.52166 0,1.67136 0.201056,1.89804 0.986665,1.11243 0.73528,-0.73528 1.671565,-0.78938 2.3265,-0.13445 0.425171,0.42517 0.582278,0.41953 1.400841,-0.0503 1.855558,-1.06494 3.838248,0.50478 2.989758,2.36702 -0.77007,1.69011 -3.203559,1.66083 -3.852625,-0.0463 -0.219638,-0.5777 -0.465664,-0.73421 -0.953574,-0.60661 -0.855885,0.22382 -0.849546,0.73731 0.0091,0.73731 0.757084,0 0.686902,0.58402 -0.13184,1.09714 -0.410567,0.2573 -0.779277,0.21018 -1.477578,-0.18884 -0.782099,-0.4469 -0.958138,-0.45966 -1.103827,-0.08 -0.224266,0.58443 -0.969655,0.5787 -1.459232,-0.0112 -0.334186,-0.40266 -0.524084,-0.39618 -1.459338,0.0498 -0.987818,0.47105 -1.139507,0.47055 -1.8672,-0.006 -0.43562,-0.28543 -0.891117,-0.97008 -1.012218,-1.52143 -0.267037,-1.21583 -0.712006,-0.87097 -0.852618,0.66078 -0.100336,1.093 -0.137532,1.12081 -1.542816,1.15365 -1.586381,0.0371 -2.56,-0.55527 -2.56,-1.55748 0,-0.43812 -0.151145,-0.56664 -0.506173,-0.43041 -0.278393,0.10683 -0.718893,0.19424 -0.978883,0.19424 -0.259994,0 -0.383718,0.144 -0.274944,0.32 0.108774,0.176 0.477274,0.32 0.818887,0.32 0.707945,0 0.796915,0.3362 0.237113,0.896 -0.570262,0.57026 -1.453667,0.46633 -2.176,-0.256 z m 5.381255,-1.44995 c -0.05569,-0.44547 -0.245255,-0.80995 -0.421255,-0.80995 -0.176,0 -0.365565,0.36448 -0.421254,0.80995 -0.07217,0.57725 0.04886,0.80995 0.421254,0.80995 0.372394,0 0.493421,-0.2327 0.421255,-0.80995 z m 5.083059,0.29701 c 0.05737,-0.17212 -0.103344,-0.59512 -0.357146,-0.94 -0.429238,-0.58328 -0.476617,-0.58796 -0.67855,-0.0671 -0.119398,0.308 -0.12961,0.78797 -0.02269,1.06661 0.20169,0.52559 0.875978,0.48766 1.058381,-0.0596 z m 9.317941,-0.18199 c -0.15074,-1.02448 -0.90225,-1.13421 -0.90225,-0.13174 0,0.53776 0.17553,0.82667 0.50225,0.82667 0.33355,0 0.46791,-0.23343 0.4,-0.69493 z m 30.82105,-3.05817 c -0.68124,-0.56408 -0.6857,-0.6628 -0.89644,-19.862602 l -0.2118,-19.295703 -0.93208,-0.784297 C 129.63399,62.099171 128.82202,61.76 128.28541,61.76 c -1.088,0 -1.52333,-0.719549 -0.89405,-1.477782 0.23263,-0.280298 1.61061,-1.05833 3.06219,-1.72896 1.54716,-0.714791 3.59629,-2.024941 4.95222,-3.166292 1.27215,-1.070832 2.49721,-1.946966 2.72236,-1.946966 0.72428,0 1.08891,1.213622 0.99929,3.326077 -0.0481,1.133248 0.0171,2.164953 0.14475,2.292678 0.12768,0.127725 1.37884,-0.520589 2.78033,-1.440701 1.40151,-0.920108 3.45703,-1.961452 4.56785,-2.314096 6.84587,-2.173312 14.08417,2.368692 16.9181,10.616042 0.95949,2.79233 1.04449,7.684726 0.17791,10.24 -1.89463,5.586691 -7.16713,10.452742 -13.01086,12.007891 -2.40607,0.640307 -5.45723,0.578631 -8.30549,-0.167891 -1.32,-0.345968 -2.58,-0.631501 -2.8,-0.634515 -0.30577,-0.0042 -0.4,1.387449 -0.4,5.907139 0,6.767806 -0.0705,6.604387 3.04,7.044276 2.22872,0.31518 2.77895,0.6679 2.65918,1.70462 l -0.0992,0.85848 -5.95603,0.0869 c -5.30815,0.0774 -6.0305,0.0252 -6.64067,-0.48 z m 17.0767,-17.318913 c 2.37897,-1.129405 4.37259,-3.244685 5.66892,-6.01488 2.35726,-5.037353 1.16187,-12.588493 -2.5832,-16.317715 -2.03064,-2.022054 -3.24468,-2.487088 -6.83973,-2.619926 -2.71344,-0.100263 -3.25186,-0.02989 -4.18554,0.547174 -2.14119,1.323325 -2.19372,1.635219 -2.08119,12.35736 0.0981,9.350022 0.1194,9.62617 0.81762,10.605014 1.75456,2.459776 5.74381,3.085258 9.20312,1.442973 z M 72.064004,99.136 c -0.2112,-0.2112 -0.384,-0.6252 -0.384,-0.92 0,-0.336701 -0.348601,-0.605722 -0.937539,-0.723507 -0.731398,-0.146282 -0.960067,-0.383744 -1.04,-1.08 C 69.573162,95.286195 68.68265,95.21608 68.527742,96.32 c -0.153495,1.093853 -0.79073,1.509674 -1.562394,1.019517 -0.295821,-0.187901 -0.117651,-0.887885 0.71145,-2.795098 1.38639,-3.189177 1.90319,-3.297843 2.969657,-0.624419 0.85401,2.140826 1.567783,3.118576 1.229991,1.684874 -0.151363,-0.642429 -0.03472,-1.046599 0.438685,-1.52 0.694556,-0.694557 2.523005,-0.878743 3.090435,-0.311312 0.396182,0.396182 0.942672,-0.154772 1.124387,-1.133562 0.198973,-1.071754 1.308532,-0.797597 1.618858,0.4 0.269658,1.040634 0.679526,1.32137 1.051194,0.72 0.108774,-0.176 0.757107,-0.32 1.440739,-0.32 0.904739,0 1.372627,0.185114 1.71945,0.680269 l 0.476476,0.680269 0.88714,-0.697824 c 0.61784,-0.485994 1.231533,-0.668208 2.021667,-0.600269 1.015843,0.08735 1.124055,0.02224 1.034413,-0.622445 -0.06961,-0.500605 0.06365,-0.72 0.437322,-0.72 0.379801,0 0.488374,0.187622 0.370156,0.63968 -0.092,0.351827 -0.0368,0.720323 0.122679,0.818886 0.159478,0.09856 0.289958,0.602708 0.289958,1.12032 0,1.052922 0.198042,1.134023 1.101162,0.450938 0.541648,-0.409683 0.551888,-0.469824 0.08,-0.469824 -0.857498,0 -0.628362,-0.92592 0.285923,-1.155392 1.104653,-0.277251 1.609981,0.313894 1.876675,2.195392 0.162144,1.143901 0.111629,1.52728 -0.204153,1.549424 -1.515002,0.10623 -4.419713,0.0083 -4.688948,-0.158115 -0.177485,-0.109693 -0.687593,-0.03318 -1.133571,0.170019 -0.648266,0.29537 -0.958666,0.272618 -1.547891,-0.113456 -0.614333,-0.402528 -0.803594,-0.411645 -1.136957,-0.05478 -0.278186,0.297799 -0.626093,0.342154 -1.142803,0.145703 -0.408573,-0.155341 -0.939082,-0.161165 -1.178906,-0.01296 -0.242282,0.149737 -0.684432,0.13656 -0.995002,-0.02966 -0.362384,-0.193943 -0.842115,-0.170128 -1.364134,0.06772 -0.652173,0.297149 -0.959693,0.265623 -1.618288,-0.165904 -0.44721,-0.292995 -0.813108,-0.745421 -0.813108,-1.005363 0,-0.518243 -0.499107,-0.639478 -0.77759,-0.188883 -0.09645,0.156057 0.03905,0.461689 0.301114,0.679184 0.700972,0.581753 0.579948,1.80831 -0.234727,2.378931 -0.846758,0.593091 -2.20919,0.64975 -2.744797,0.114144 z m 1.999108,-1.243331 c -0.103031,-0.166711 -0.323728,-0.21881 -0.490439,-0.115776 -0.16671,0.10303 -0.218809,0.323728 -0.115776,0.490438 0.103031,0.166711 0.323728,0.21881 0.490439,0.115776 0.16671,-0.10303 0.218809,-0.323728 0.115776,-0.490438 z M 81.280005,95.68 c 0,-0.528 -0.144,-0.96 -0.32,-0.96 -0.176,0 -0.32,0.432 -0.32,0.96 0,0.528 0.144,0.96 0.32,0.96 0.176,0 0.32,-0.432 0.32,-0.96 z m -2.24,-0.064 c 0,-0.547555 -0.08534,-0.618666 -0.384,-0.32 -0.2112,0.2112 -0.6792,0.386205 -1.04,0.388899 -0.540781,0.004 -0.571693,0.05938 -0.176,0.315101 0.853987,0.551888 1.6,0.372845 1.6,-0.384 z m 7.36,-0.05869 c 0,-0.557498 -0.213213,-0.803453 -0.79248,-0.914189 -0.915754,-0.175056 -1.12752,-0.03458 -1.12752,0.747961 0,0.498212 0.237645,0.623447 1.68,0.885344 0.132,0.02397 0.24,-0.299635 0.24,-0.719116 z m 7.520001,1.857497 c -0.481412,-0.202595 -0.362858,-5.667184 0.126486,-5.830297 0.216675,-0.07223 1.002685,0.531712 1.746691,1.342086 0.744003,0.810374 1.454903,1.473408 1.57978,1.473408 0.363302,0 0.261827,-1.437216 -0.129076,-1.828118 C 96.778809,92.106803 97.155987,91.52 97.920006,91.52 c 0.892624,0 0.965513,0.308704 0.74576,3.158422 C 98.495343,96.888416 98.379078,97.28 97.893331,97.28 c -0.3145,0 -0.977159,-0.572925 -1.472573,-1.273168 -1.141063,-1.612832 -1.509824,-1.620877 -1.296215,-0.02829 0.124704,0.929728 0.04527,1.305958 -0.304035,1.44 -0.260067,0.0998 -0.497069,0.170077 -0.526675,0.156182 -0.0296,-0.01389 -0.197827,-0.08586 -0.373827,-0.159932 z m 5.73727,-0.230704 C 98.973753,96.801581 99.105372,95.782573 99.911209,95.218144 100.49581,94.808675 100.52429,94.72 100.07121,94.72 c -0.643713,0 -0.709684,-0.35352 -0.167204,-0.896 0.587504,-0.587504 1.447474,-0.458579 1.976184,0.296269 l 0.47648,0.680269 0.88714,-0.697824 c 0.61784,-0.485994 1.23153,-0.668208 2.02167,-0.600269 1.02778,0.08838 1.12466,0.02717 1.02962,-0.650704 -0.0809,-0.576915 0.0276,-0.722739 0.47384,-0.636807 0.3183,0.0613 0.59288,0.39802 0.61016,0.74826 0.0173,0.350243 0.0561,0.954262 0.0862,1.342262 l 0.0547,0.705453 0.78545,-0.785453 c 0.8927,-0.892704 1.95906,-1.004749 2.95087,-0.310054 0.6031,0.422425 0.69986,0.420358 0.86828,-0.01856 0.13888,-0.36193 0.5538,-0.467607 1.55247,-0.395399 1.17094,0.08466 1.43534,0.243475 1.87698,1.127415 0.46969,0.94007 0.56636,0.989283 1.12,0.570176 0.55492,-0.420071 0.55879,-0.459552 0.046,-0.468874 -1.16542,-0.02118 -0.25549,-1.290176 0.92511,-1.290176 0.81277,0 1.07635,0.323066 1.4132,1.732067 0.17647,0.738183 0.24446,0.406208 0.26893,-1.313181 0.0334,-2.345072 0.23828,-2.805526 1.10109,-2.474432 0.37008,0.142013 0.51062,0.83712 0.58888,2.912592 0.0565,1.499335 -0.0264,2.805434 -0.1842,2.902439 -0.41268,0.253609 -6.12583,0.209254 -6.54665,-0.05083 -0.19422,-0.120038 -0.60811,-0.08705 -0.91975,0.07331 -0.79656,0.409878 -1.36492,0.12551 -1.37634,-0.688628 -0.008,-0.588768 -0.0554,-0.615206 -0.31242,-0.175299 -0.16648,0.284922 -0.73725,0.698039 -1.26838,0.918042 -0.80404,0.333043 -1.08887,0.319299 -1.70147,-0.08209 -0.6237,-0.408665 -0.8261,-0.416041 -1.32885,-0.04842 -0.37349,0.273101 -0.77545,0.331613 -1.08563,0.158029 -0.28954,-0.162032 -0.79887,-0.136071 -1.23577,0.06299 -0.54681,0.249142 -0.94585,0.230188 -1.50997,-0.07172 -0.45651,-0.244317 -0.94095,-0.299955 -1.19727,-0.13751 -0.54615,0.346128 -2.09505,0.36151 -2.693244,0.02675 z M 114.24001,95.68 c 0,-0.528 -0.144,-0.96 -0.32,-0.96 -0.176,0 -0.32,0.432 -0.32,0.96 0,0.528 0.144,0.96 0.32,0.96 0.176,0 0.32,-0.432 0.32,-0.96 z m -8.18375,0.10649 c 0.25339,-0.660324 -0.0591,-0.979239 -1.09625,-1.118823 -0.6191,-0.08332 -0.82239,0.04955 -0.89902,0.587584 -0.0729,0.512087 0.0957,0.732445 0.64,0.836423 0.40646,0.07764 0.83161,0.16078 0.94478,0.184748 0.11317,0.02397 0.29789,-0.196502 0.41049,-0.489932 z m 4.22959,0.04944 c 0.24214,-0.631008 -0.53359,-1.621164 -0.85837,-1.095651 -0.28487,0.460919 -0.0158,1.579725 0.37989,1.579725 0.161,0 0.37631,-0.217834 0.47848,-0.484074 z M 69.30401,87.91474 c -1.898233,-1.080208 -2.744006,-2.93231 -2.744006,-6.008902 0,-2.258074 0.09058,-2.60904 1.04,-4.029671 1.344979,-2.012505 3.824167,-3.657136 9.040001,-5.996902 2.288,-1.026371 4.628,-2.218413 5.2,-2.648983 l 1.04,-0.782848 -0.0013,-4.383715 c -9.6e-4,-3.793331 -0.08589,-4.522624 -0.630074,-5.415126 -0.699462,-1.147181 -1.732582,-1.537367 -3.290832,-1.242877 -1.993421,0.376733 -2.910259,1.251773 -4.553392,4.345805 -1.784314,3.359875 -3.050711,4.459593 -5.44649,4.729632 -1.111226,0.125251 -1.602624,0.02909 -2.085856,-0.408243 -1.355031,-1.226288 -0.512148,-3.532176 2.330061,-6.374384 3.430265,-3.430266 6.923683,-4.764992 12.55778,-4.79794 4.259645,-0.0249 5.598166,0.229933 6.882074,1.310269 2.086912,1.756019 2.070473,1.645671 2.15104,14.437322 0.04662,7.400889 0.195673,11.837174 0.411261,12.24 0.647923,1.210656 3.432445,0.66968 4.715625,-0.916151 0.298506,-0.368912 0.4,-2.746524 0.4,-9.370326 8.4e-5,-9.6568 -0.04097,-9.881696 -1.803811,-9.881696 -1.118589,0 -2.036106,-0.558106 -2.036106,-1.238515 0,-0.388394 0.897943,-1.088253 2.756909,-2.148743 1.516301,-0.865008 3.622468,-2.328742 4.680375,-3.252742 1.077691,-0.94128 2.234901,-1.68 2.631721,-1.68 0.98023,0 1.451,1.198829 1.451,3.695056 0,1.135718 0.1183,2.064944 0.2629,2.064944 0.1446,0 1.2606,-0.795917 2.48,-1.768707 3.50427,-2.795555 4.53315,-3.191293 8.2971,-3.191293 2.77267,0 3.43529,0.110381 4.96195,0.826563 2.14434,1.005952 3.71957,2.526509 4.60984,4.449847 0.62539,1.3511 0.67846,2.150912 0.82821,12.48359 0.18495,12.76209 0.19346,12.8 2.87072,12.8 0.49411,0 1.23833,0.278979 1.65383,0.619952 0.61536,0.504992 0.68964,0.727514 0.40057,1.2 -0.32847,0.536886 -0.99519,0.580048 -8.96,0.580048 h -8.60512 v -0.951818 c 0,-0.899718 0.11085,-0.9808 2.0254,-1.481395 1.11396,-0.29127 2.16356,-0.667753 2.33244,-0.83663 0.18762,-0.187623 0.27109,-4.488663 0.2146,-11.057994 l -0.0924,-10.750944 -0.96,-1.020022 C 114.97234,60.629274 113.65706,60.16 110.99132,60.16 c -2.84794,0 -4.76064,0.824272 -5.89688,2.541229 l -0.78333,1.183693 0.0845,10.537539 0.0844,10.537539 1.44,0.435891 c 2.46234,0.74536 3.04,1.120909 3.04,1.976378 V 88.16 L 97.812185,88.24418 86.66436,88.32836 85.652184,87.25468 c -0.556697,-0.590525 -1.45063,-1.624733 -1.986515,-2.29824 l -0.974339,-1.224557 -2.489162,1.679671 c -3.686045,2.487318 -5.449338,3.222592 -7.722164,3.220061 -1.395785,-0.0016 -2.262921,-0.19728 -3.175994,-0.716875 z M 80.324846,82.48 c 1.820733,-1.237325 2.380074,-2.774966 2.502695,-6.88 L 82.93508,72 82.027541,72.007 c -3.213348,0.0249 -7.439546,4.150669 -7.460509,7.283251 -0.0079,1.180845 0.776281,3.279229 1.365385,3.653607 0.831568,0.528467 3.318688,0.265801 4.392429,-0.463885 z"
         id="path4878"
         inkscape:connector-curvature="0" />
      <path
         style="fill:#8e8e8e;stroke-width:0.32000002"
         d="M 0.32000002,85.282995 V 53.775136 L 31.920002,53.847568 63.520004,53.92 v 31.36 31.36 l -31.600002,0.0754 -31.60000198,0.0754 z M 67.86667,116.18667 c -0.722192,-0.7222 -0.862112,-1.94355 -0.335408,-2.92771 0.5271,-0.98489 0.815504,-0.72225 0.686966,0.62559 -0.06528,0.6845 0.05059,1.56084 0.257472,1.94741 0.518816,0.96941 0.194538,1.15827 -0.60903,0.35471 z m 3.173334,-0.37334 c 0,-0.56145 0.148253,-0.93725 0.344,-0.872 0.1892,0.0631 0.3332,0.21907 0.32,0.34667 -0.01318,0.1276 -0.024,0.52 -0.024,0.872 0,0.352 -0.144,0.64 -0.32,0.64 -0.176,0 -0.32,-0.444 -0.32,-0.98667 z m 2.066842,0.64538 c -0.11601,-0.18771 -0.13409,-0.41813 -0.04018,-0.51204 0.229222,-0.22922 0.853334,0.17466 0.853334,0.55222 0,0.40895 -0.552451,0.38165 -0.813158,-0.0402 z m 1.43111,-0.21871 c -0.01213,-0.308 -0.07527,-0.96505 -0.140313,-1.46011 -0.0778,-0.59209 0.01187,-0.85733 0.262048,-0.77513 0.480429,0.15788 0.705661,2.79524 0.238713,2.79524 -0.186121,0 -0.34832,-0.252 -0.360448,-0.56 z m 9.455022,-0.29564 c -0.308349,-0.47059 -1.134333,-1.41797 -1.835524,-2.10528 -0.878416,-0.86102 -1.17192,-1.35261 -0.943788,-1.58074 0.427852,-0.42785 4.329149,3.49218 4.091593,4.11124 -0.253158,0.65972 -0.695267,0.51647 -1.312281,-0.42522 z m 2.873869,0.51435 c -0.11601,-0.18771 -0.13409,-0.41813 -0.04018,-0.51204 0.229222,-0.22922 0.853334,0.17466 0.853334,0.55222 0,0.40895 -0.552451,0.38165 -0.813158,-0.0402 z M 88.245039,115.44 c -0.158903,-1.51988 -0.116403,-1.67604 0.373677,-1.37316 0.411731,0.25447 0.46152,2.73316 0.0549,2.73316 -0.157517,0 -0.350374,-0.612 -0.428579,-1.36 z m 2.208301,1.14667 c -0.117335,-0.11734 -0.213335,-0.90934 -0.213335,-1.76 0,-1.10169 0.127047,-1.54667 0.441588,-1.54667 0.32695,0 0.430793,0.45676 0.4,1.75943 -0.03999,1.69201 -0.168068,2.00742 -0.628253,1.54724 z m 2.567581,-0.0267 c -0.07527,-0.132 -0.237133,-0.79512 -0.35969,-1.4736 -0.171258,-0.94807 -0.125434,-1.20128 0.197971,-1.09396 0.444349,0.14747 0.957124,2.80756 0.541203,2.80756 -0.133446,0 -0.304214,-0.108 -0.379484,-0.24 z m 1.699085,-1.17334 c 0,-0.80667 0.144,-1.46667 0.32,-1.46667 0.176,0 0.32,0.504 0.32,1.12 0,0.616 0.01078,1.2244 0.024,1.352 0.01318,0.1276 -0.1308,0.2836 -0.32,0.34667 -0.211975,0.0707 -0.344,-0.44823 -0.344,-1.352 z m 1.92,0 c 0,-1.37395 0.05371,-1.46667 0.849597,-1.46667 0.81664,0 0.828092,0.0238 0.295235,0.61256 -0.304896,0.33691 -0.507216,0.93552 -0.449597,1.33026 0.05762,0.39473 -0.07523,0.77907 -0.295235,0.8541 -0.281661,0.0961 -0.4,-0.2975 -0.4,-1.33025 z m 2.56,0.93333 c 0,-0.264 0.144,-0.48 0.32,-0.48 0.176,0 0.32,0.216 0.32,0.48 0,0.264 -0.144,0.48 -0.32,0.48 -0.176,0 -0.32,-0.216 -0.32,-0.48 z m 1.493334,0.26667 c -0.32047,-0.32047 -0.25674,-2.66667 0.0724,-2.66667 0.38962,0 0.67424,0.82153 0.67424,1.94617 0,0.89443 -0.29148,1.17569 -0.74667,0.7205 z m 2.02667,-2.36556 c 0,-1.63777 0.11677,-2.50671 0.32,-2.38111 0.176,0.10877 0.32,1.26927 0.32,2.57889 0,1.37407 -0.13534,2.38111 -0.32,2.38111 -0.18686,0 -0.32,-1.07296 -0.32,-2.57889 z m 3.584,2.19489 c -0.55209,-0.55208 -0.48464,-1.856 0.096,-1.856 0.264,0 0.48,0.27622 0.48,0.61383 0,0.3376 0.0874,0.8416 0.19423,1.12 0.22917,0.59721 -0.22341,0.669 -0.77023,0.12217 z m 5.056,-2.016 c 0,-1.83608 0.10455,-2.4 0.44499,-2.4 0.5121,0 0.76111,1.51443 0.57313,3.48564 -0.0812,0.8511 -0.28268,1.31436 -0.57174,1.31436 -0.34217,0 -0.44638,-0.56032 -0.44638,-2.4 z m 4.48,0.96 c 0,-0.792 0.144,-1.44 0.32,-1.44 0.176,0 0.32,0.648 0.32,1.44 0,0.792 -0.144,1.44 -0.32,1.44 -0.176,0 -0.32,-0.648 -0.32,-1.44 z m 1.9324,0.82318 c -0.34777,-0.64981 -0.14278,-1.62318 0.34183,-1.62318 0.15717,0 0.28577,0.27622 0.28577,0.61383 0,0.3376 0.0874,0.8416 0.19423,1.12 0.27735,0.72275 -0.42652,0.62799 -0.82183,-0.11065 z m 4.2116,0.23282 c -0.46501,-0.465 -0.50963,-1.536 -0.064,-1.536 0.176,0 0.32,0.16866 0.32,0.3748 0,0.20614 0.23831,0.63814 0.52959,0.96 0.43694,0.48281 0.44813,0.5852 0.064,0.5852 -0.25608,0 -0.63839,-0.1728 -0.84959,-0.384 z m 3.1484,-0.23282 c -0.34777,-0.64981 -0.14278,-1.62318 0.34183,-1.62318 0.15717,0 0.28577,0.27622 0.28577,0.61383 0,0.3376 0.0874,0.8416 0.19423,1.12 0.27735,0.72275 -0.42652,0.62799 -0.82183,-0.11065 z m 4.1476,-0.82318 c 0,-1.10928 0.1181,-1.44 0.51423,-1.44 0.33745,0 0.44746,0.17402 0.32,0.50617 -0.10683,0.2784 -0.19423,0.9264 -0.19423,1.44 0,0.51361 -0.144,0.93383 -0.32,0.93383 -0.176,0 -0.32,-0.648 -0.32,-1.44 z m 2.20315,1.2 c -0.0203,-0.132 -0.0122,-0.48635 0.018,-0.78743 0.0302,-0.30109 -0.1092,-0.85395 -0.3097,-1.22858 -0.31449,-0.58764 -0.28402,-0.66586 0.22201,-0.56981 0.43886,0.0833 0.61134,0.45311 0.68496,1.46858 0.0582,0.80272 -0.0399,1.35724 -0.24,1.35724 -0.18612,0 -0.35498,-0.108 -0.37525,-0.24 z m 1.95685,-0.816 c 0,-0.5808 -0.18,-1.24278 -0.4,-1.47106 -0.32351,-0.33569 -0.27761,-0.3933 0.24,-0.30124 0.50151,0.0892 0.66129,0.40752 0.7384,1.47106 0.0582,0.80272 -0.0399,1.35724 -0.24,1.35724 -0.18612,0 -0.3384,-0.4752 -0.3384,-1.056 z m 2.13333,0.84267 c -0.34671,-0.34671 -0.24758,-4.90667 0.10667,-4.90667 0.176,0 0.338,0.432 0.36,0.96 0.16837,4.04082 0.11117,4.52451 -0.46667,3.94667 z M 139.69592,116.4 c -0.3188,-1.02837 -0.38358,-2.19165 -0.13074,-2.34792 0.30743,-0.19 0.44953,0.14749 0.71914,1.70792 0.17082,0.98868 -0.31611,1.51832 -0.5884,0.64 z m 1.74409,-1.01333 c 0,-0.80667 0.144,-1.46667 0.32,-1.46667 0.176,0 0.32,0.504 0.32,1.12 0,0.616 0.0108,1.2244 0.024,1.352 0.0132,0.1276 -0.1308,0.2836 -0.32,0.34667 -0.21198,0.0707 -0.344,-0.44823 -0.344,-1.352 z m 5.01333,1.2 c -0.11733,-0.11734 -0.21333,-0.90934 -0.21333,-1.76 0,-1.10169 0.12704,-1.54667 0.44159,-1.54667 0.32695,0 0.43079,0.45676 0.4,1.75943 -0.04,1.69201 -0.16807,2.00742 -0.62826,1.54724 z m 2.28954,-1.09059 c -0.1202,-1.2604 0.0682,-1.77835 0.4925,-1.35405 0.31463,0.31464 0.24255,2.65797 -0.0818,2.65797 -0.15752,0 -0.34234,-0.58676 -0.41074,-1.30392 z m 2.3094,0.048 c -0.77342,-1.51603 -0.78719,-1.62405 -0.20696,-1.62405 0.24492,0 0.53566,0.36 0.64609,0.8 0.11044,0.44 0.34205,0.8 0.51469,0.8 0.40432,0 0.40912,0.86339 0.006,1.11242 -0.16925,0.1046 -0.60125,-0.38517 -0.96,-1.08837 z m 3.06197,0.74978 c -0.10684,-0.2784 -0.19424,-0.7944 -0.19424,-1.14667 0,-0.84142 0.78914,-0.5805 0.83422,0.27583 0.0188,0.35749 0.13532,0.81356 0.25889,1.0135 0.1283,0.2076 0.0254,0.36351 -0.23999,0.36351 -0.25556,0 -0.55206,-0.22778 -0.65888,-0.50617 z m 3.61592,0.49017 c -0.2485,-1.19934 -0.16438,-2.87577 0.13932,-2.7762 0.49105,0.16101 0.67063,2.14009 0.23383,2.57689 -0.18882,0.18882 -0.35674,0.27851 -0.37315,0.19931 z M 77.141493,115.7029 c -0.40154,-0.42741 -0.678292,-0.93246 -0.615009,-1.12231 0.12722,-0.38166 1.873521,1.1026 1.873521,1.59239 0,0.52548 -0.497972,0.33948 -1.258512,-0.47008 z m 36.778517,0.1097 c 0,-0.44251 -0.12856,-0.94137 -0.28568,-1.10857 -0.39868,-0.42425 -0.0416,-2.44175 0.40404,-2.28261 0.1989,0.071 0.32079,0.47329 0.27085,0.89388 -0.0499,0.4206 0.0847,1.09298 0.29913,1.49417 0.32446,0.607 0.29941,0.81995 -0.14922,1.26858 -0.5055,0.5055 -0.53912,0.48894 -0.53912,-0.26545 z m 30.13578,-0.0732 c -0.63305,-0.67385 -0.92938,-1.49938 -0.53822,-1.49938 0.37314,0 1.76244,1.43287 1.76244,1.81771 0,0.6285 -0.44291,0.51334 -1.22422,-0.31833 z m 16.02422,-0.01 c -0.71819,-0.71012 -0.95666,-1.4894 -0.45578,-1.4894 0.39104,0 1.65578,1.42121 1.65578,1.86062 0,0.55406 -0.38451,0.43512 -1.2,-0.37122 z m -40.05027,-0.58167 c -0.42138,-1.20875 -0.15751,-1.63303 0.47643,-0.76607 0.51951,0.71047 0.58445,1.33984 0.16501,1.59908 -0.15886,0.0982 -0.44751,-0.27668 -0.64144,-0.83301 z m 7.36,0 c -0.42138,-1.20875 -0.15751,-1.63303 0.47643,-0.76607 0.51951,0.71047 0.58445,1.33984 0.16501,1.59908 -0.15886,0.0982 -0.44751,-0.27668 -0.64144,-0.83301 z m 10.16435,-0.0892 c -0.38657,-0.85288 -0.41523,-1.13852 -0.11424,-1.13852 0.71664,0 1.23657,0.91828 0.92072,1.62613 -0.26696,0.59828 -0.33216,0.55886 -0.80648,-0.48761 z m -29.86042,-0.47641 c -0.21858,-0.35367 0.28621,-0.73557 0.5817,-0.44008 0.30426,0.30425 0.24755,0.73797 -0.0965,0.73797 -0.16561,0 -0.38396,-0.13405 -0.48522,-0.29789 z m 48.00001,0 c -0.21859,-0.35367 0.2862,-0.73557 0.5817,-0.44008 0.30425,0.30425 0.24754,0.73797 -0.0965,0.73797 -0.16562,0 -0.38397,-0.13405 -0.48522,-0.29789 z m -70.720008,-1.92 c -0.101261,-0.16384 -0.03776,-0.38834 0.141114,-0.49888 0.17887,-0.11055 0.325219,0.0235 0.325219,0.29788 0,0.56209 -0.192019,0.64485 -0.466333,0.201 z M 71.040004,112.32 c 0,-0.176 0.144,-0.32 0.32,-0.32 0.176,0 0.32,0.144 0.32,0.32 0,0.176 -0.144,0.32 -0.32,0.32 -0.176,0 -0.32,-0.144 -0.32,-0.32 z m 32.493666,-5.41789 c -0.10126,-0.16384 -0.0378,-0.38834 0.14112,-0.49888 0.17887,-0.11055 0.32522,0.0235 0.32522,0.29788 0,0.56209 -0.19202,0.64485 -0.46634,0.201 z m -36.120332,-0.23544 c -0.315584,-0.31559 -0.259062,-1.70667 0.06934,-1.70667 0.155472,0 0.371565,0.252 0.480205,0.56 0.10864,0.308 0.281437,0.74 0.383991,0.96 0.192931,0.41388 -0.556474,0.56373 -0.93354,0.18667 z m 1.971136,-1.29513 c -0.156099,-1.96268 0.05001,-3.66671 0.42826,-3.54063 0.460601,0.15353 0.525539,5.04909 0.06697,5.04909 -0.216973,0 -0.425863,-0.63627 -0.495233,-1.50846 z m 2.398247,1.25106 c -0.56457,-0.35031 -0.67904,-1.9826 -0.139037,-1.9826 0.156026,0 0.354957,0.468 0.442074,1.04 0.183734,1.20641 0.173488,1.23828 -0.303037,0.9426 z m 5.552951,-2.06235 c 0.03921,-1.63434 0.181107,-2.34626 0.48,-2.40825 0.322646,-0.0669 0.424333,0.48906 0.424333,2.32004 0,1.92705 -0.09588,2.40808 -0.48,2.40824 -0.387668,1.7e-4 -0.469293,-0.4461 -0.424333,-2.32003 z m 4.267782,1.84391 c -0.229344,-0.27635 -0.308918,-0.81849 -0.189801,-1.29309 0.240438,-0.95798 0.826352,-0.75675 0.826352,0.28382 0,0.39441 0.1728,0.88991 0.384,1.10111 0.298665,0.29867 0.271817,0.384 -0.120819,0.384 -0.277648,0 -0.682528,-0.21413 -0.899732,-0.47584 z m 3.41074,-1.17028 c -0.212483,-1.79407 -0.02893,-2.45661 0.526678,-1.90101 0.466944,0.46694 0.487527,3.5464 0.02371,3.54681 -0.195485,1.8e-4 -0.443158,-0.74043 -0.550384,-1.6458 z m 2.345811,0.20612 c 0,-1.33333 0.06095,-1.44 0.822858,-1.44 0.767411,0 0.786982,0.0359 0.290477,0.53238 -0.359063,0.35906 -0.473287,0.82786 -0.350858,1.44 0.133728,0.66865 0.05725,0.90762 -0.290477,0.90762 -0.346073,0 -0.472,-0.38418 -0.472,-1.44 z m 2.944,1.056 c -0.465789,-0.46579 -0.506326,-1.74263 -0.064,-2.016 0.176,-0.10877 0.32,0.1082 0.32,0.48215 0,0.37396 0.149066,0.95846 0.331258,1.29889 0.367971,0.68756 0.009,0.83119 -0.587258,0.23496 z m 3.776001,-2.176 c 0,-1.49333 0.133334,-2.56 0.32,-2.56 0.186665,0 0.32,1.06667 0.32,2.56 0,1.49333 -0.133335,2.56 -0.32,2.56 -0.186666,0 -0.32,-1.06667 -0.32,-2.56 z m 1.85639,1.74818 c -0.304656,-0.66865 -0.275229,-0.90648 0.166858,-1.34857 0.502336,-0.50234 0.536752,-0.47182 0.536752,0.47592 0,0.62686 0.21335,1.13693 0.56,1.33884 0.499014,0.29065 0.480841,0.32723 -0.166861,0.3359 -0.473187,0.006 -0.855952,-0.27359 -1.096749,-0.80209 z m 3.587059,0.33598 c -0.243392,-0.29327 -0.309104,-0.81509 -0.171264,-1.36 0.223543,-0.88373 0.223869,-0.88353 0.670919,0.39584 0.53491,1.53083 0.5238,1.44 0.17608,1.44 -0.15445,0 -0.458531,-0.21413 -0.675735,-0.47584 z M 73.67996,105.10798 C 73.492932,104.49859 73.44163,104 73.565956,104 c 0.420439,0 0.994048,0.76465 0.994048,1.32511 0,1.03227 -0.53728,0.89971 -0.880044,-0.21713 z m 18.598356,-0.0127 C 92.089765,104.49287 92.029212,104 92.143753,104 c 0.405008,0 0.976252,0.77538 0.976252,1.32511 0,1.01664 -0.49375,0.88181 -0.841689,-0.22983 z M 101.67425,105.2 c -0.1779,-1.16813 -0.10862,-1.3579 0.38447,-1.05316 0.41049,0.2537 0.46112,2.09316 0.0576,2.09316 -0.15603,0 -0.35496,-0.468 -0.44208,-1.04 z m -18.474245,-0.73889 c 0,-0.27438 0.144,-0.40988 0.32,-0.30111 0.176,0.10877 0.32,0.33327 0.32,0.49889 0,0.16561 -0.144,0.30111 -0.32,0.30111 -0.176,0 -0.32,-0.2245 -0.32,-0.49889 z m 14.400001,0.0189 c 0,-0.264 0.144,-0.48 0.32,-0.48 0.176,0 0.32,0.216 0.32,0.48 0,0.264 -0.144,0.48 -0.32,0.48 -0.176,0 -0.32,-0.216 -0.32,-0.48 z m -17.920001,-0.57464 c 0,-0.44716 -0.09383,-1.05754 -0.208522,-1.35641 -0.180035,-0.46917 -0.114467,-0.49306 0.48,-0.17491 0.798855,0.42753 0.900064,1.37203 0.208522,1.94596 -0.405245,0.33633 -0.48,0.27175 -0.48,-0.41464 z M 132.39918,102.16 c -0.4358,-0.48808 -0.53017,-3.024605 -0.73482,-19.74984 l -0.2348,-19.18984 -0.89016,-0.89016 C 129.95913,61.749891 129.31304,61.44 128.68351,61.44 c -1.05248,0 -1.41054,-0.301405 -1.05036,-0.884182 0.127,-0.205498 1.4495,-0.946621 2.93889,-1.646944 1.48938,-0.700324 3.57197,-2.011687 4.62797,-2.914144 2.51249,-2.147172 2.87691,-2.336816 3.36357,-1.750426 0.26721,0.321962 0.32185,1.022528 0.1728,2.21545 -0.21731,1.739276 0.13339,3.060246 0.81244,3.060246 0.17947,0 1.19416,-0.589347 2.25487,-1.309664 4.26681,-2.897539 7.43365,-3.669162 11.15059,-2.716928 5.65383,1.448445 9.9433,6.865178 10.90352,13.768938 0.93337,6.710691 -2.77721,13.547891 -9.16729,16.891843 -4.26953,2.234256 -7.68216,2.663507 -12.1305,1.525811 -4.04528,-1.034608 -3.68,-1.572285 -3.68,5.416774 v 6.056775 l 0.8165,0.642262 c 0.45471,0.357669 1.58481,0.738249 2.55043,0.858899 1.81569,0.22686 2.59195,0.76546 2.27891,1.58122 -0.15623,0.40712 -1.09515,0.48407 -5.9062,0.48407 -5.04423,0 -5.77956,-0.0662 -6.22047,-0.56 z m 16.04411,-16.227046 c 2.07802,-0.733165 4.05713,-2.2672 5.46939,-4.239402 4.75148,-6.63537 2.69188,-17.742298 -3.89906,-21.026704 -1.43689,-0.716032 -2.069,-0.826688 -4.71644,-0.825651 -3.46551,0.0013 -4.65944,0.479817 -5.7789,2.315878 -0.59687,0.978944 -0.63595,1.62793 -0.63708,10.578816 -0.001,10.190026 0.0394,10.484826 1.64841,11.945197 1.35584,1.230602 2.61045,1.692896 4.63016,1.706099 1.07788,0.007 2.55546,-0.197357 3.28352,-0.454233 z m -76.123286,12.44816 c 0,-0.274388 0.144,-0.409888 0.32,-0.301114 0.176,0.108774 0.32,0.333274 0.32,0.498886 0,0.165613 -0.144,0.301114 -0.32,0.301114 -0.176,0 -0.32,-0.224499 -0.32,-0.498886 z m 2.061376,-0.811248 c -0.119017,-0.192573 -0.544384,-0.287434 -0.94526,-0.210804 -0.624733,0.119428 -0.756026,-0.02486 -0.91897,-1.009865 -0.31457,-1.901619 -0.22449,-2.157959 0.399024,-1.135501 0.326579,0.53553 0.974038,1.222851 1.438803,1.527376 0.835571,0.547485 1.126893,1.178928 0.543914,1.178928 -0.165613,0 -0.398493,-0.157562 -0.517511,-0.350134 z m -7.181376,-0.91098 c 0,-0.165612 0.144,-0.390112 0.32,-0.498886 0.176,-0.108774 0.32,0.02672 0.32,0.301114 0,0.274387 -0.144,0.498886 -0.32,0.498886 -0.176,0 -0.32,-0.135501 -0.32,-0.301114 z M 70.200945,96.4 c -0.19441,-0.608298 -0.663831,-1.75992 -1.161498,-2.849488 -0.331206,-0.725117 -0.07078,-1.521811 0.401952,-1.229648 0.152445,0.09421 0.562093,0.924563 0.910327,1.845219 0.348237,0.920653 0.732963,1.925917 0.854953,2.233917 0.15673,0.395715 0.06799,0.56 -0.302483,0.56 -0.288352,0 -0.604816,-0.252 -0.703251,-0.56 z m 6.023059,0.176 c -0.465788,-0.465789 -0.506326,-1.742627 -0.064,-2.016 0.296976,-0.183542 0.464586,0.264035 0.344544,0.920051 -0.02819,0.154029 0.193082,0.550029 0.491703,0.88 0.443078,0.489597 0.457306,0.599949 0.07735,0.599949 -0.25608,0 -0.638397,-0.1728 -0.849597,-0.384 z m 3.136001,-1.056 c 0,-1.029021 0.129382,-1.44 0.453334,-1.44 0.323949,0 0.453331,0.410979 0.453331,1.44 0,1.029021 -0.129382,1.44 -0.453331,1.44 -0.323952,0 -0.453334,-0.410979 -0.453334,-1.44 z m 2.235632,0.586666 C 81.593077,95.608 81.502357,94.84 81.393694,94.4 c -0.177155,-0.717325 -0.146262,-0.750394 0.298938,-0.32 0.631965,0.610947 0.852285,2.617776 0.307373,2.799754 -0.25673,0.08573 -0.401565,-0.191165 -0.404368,-0.773088 z m 1.922099,0.209094 c -0.189632,-0.354333 -0.230701,-0.839232 -0.09126,-1.077555 0.188236,-0.321728 0.435145,-0.155824 0.958793,0.64424 0.674563,1.030643 0.678535,1.077555 0.09126,1.077555 -0.337703,0 -0.769162,-0.289907 -0.958793,-0.64424 z M 87.022533,96.88 c -0.212432,-0.972762 -0.107469,-2.788723 0.156189,-2.702224 0.453917,0.148915 0.642909,2.782224 0.199683,2.782224 -0.186121,0 -0.346262,-0.036 -0.355872,-0.08 z m 1.764314,-0.26129 c -0.11601,-0.187708 -0.13409,-0.418128 -0.04018,-0.512044 0.229222,-0.22922 0.853334,0.174665 0.853334,0.55222 0,0.408951 -0.552451,0.381655 -0.813158,-0.04018 z M 90.214008,96.4 c -0.0143,-0.308 -0.05512,-0.95761 -0.09072,-1.443574 -0.03589,-0.489991 0.08259,-0.835268 0.265997,-0.77513 0.446749,0.14649 0.625901,2.778704 0.189123,2.778704 -0.186121,0 -0.350099,-0.252 -0.364397,-0.56 z m 3.865998,0.06111 c 0,-0.274388 0.144,-0.409888 0.32,-0.301114 0.176,0.108774 0.32,0.333274 0.32,0.498886 0,0.165613 -0.144,0.301114 -0.32,0.301114 -0.176,0 -0.32,-0.224499 -0.32,-0.498886 z m 1.84,-1.473812 C 94.27285,93.244765 93.655698,92.16 94.311481,92.16 c 0.421648,0 3.928525,3.876518 3.928525,4.342611 0,0.773037 -0.410112,0.505171 -2.32,-1.515309 z m 3.813334,1.759364 C 99.365135,96.378464 99.500303,96 100.00001,96 c 0.264,0 0.48,0.216 0.48,0.48 0,0.499702 -0.37847,0.63487 -0.74667,0.266666 z M 101.06992,95.52 c -0.1051,-1.321526 0.22291,-1.987226 0.51244,-1.04 0.43445,1.421325 0.45232,2.48 0.0419,2.48 -0.29092,0 -0.47855,-0.487424 -0.55431,-1.44 z m 2.00182,0.72 c -0.36635,-0.985546 -0.052,-1.807027 0.38074,-0.995027 0.17441,0.327264 0.53528,0.847027 0.80192,1.155027 0.44187,0.510413 0.42282,0.56 -0.21511,0.56 -0.43319,0 -0.8019,-0.274368 -0.96755,-0.72 z m 3.45156,0.576624 C 106.26584,96.559171 106.6194,94.08 106.91362,94.08 c 0.15751,0 0.28639,0.648 0.28639,1.44 0,1.276688 -0.2389,1.734435 -0.67671,1.296624 z M 108.54401,96.576 c -0.44762,-0.447619 -0.51277,-1.738646 -0.1006,-1.993386 0.15588,-0.09634 0.35336,0.147165 0.43885,0.541114 0.0855,0.393949 0.26137,0.968272 0.39083,1.276272 0.26959,0.641366 -0.16001,0.745072 -0.72908,0.176 z m 3.88266,-1.056 c 0,-0.986666 0.13433,-1.44 0.42667,-1.44 0.29235,0 0.42667,0.453334 0.42667,1.44 0,0.986666 -0.13432,1.44 -0.42667,1.44 -0.29234,0 -0.42667,-0.453334 -0.42667,-1.44 z m 2.04542,-0.06767 c -0.19556,-1.722845 -0.1913,-1.742826 0.30596,-1.434932 0.48559,0.300669 0.67215,2.699204 0.22163,2.849376 -0.21103,0.07035 -0.42381,-0.500096 -0.52759,-1.414444 z m 2.00792,1.02767 c 0,-0.264 0.12859,-0.48 0.28576,-0.48 0.15717,0 0.36865,0.216 0.46996,0.48 0.1122,0.292387 6.4e-4,0.48 -0.28576,0.48 -0.25848,0 -0.46996,-0.216 -0.46996,-0.48 z m 1.28,-0.96 c 0,-1.428195 0.39242,-1.906742 0.76576,-0.933827 0.37956,0.989104 0.21286,2.373827 -0.28576,2.373827 -0.35556,0 -0.48,-0.373334 -0.48,-1.44 z m 2.08,-1.12 c 0,-3.305968 0.60687,-3.218528 0.73346,0.10568 0.0701,1.84096 -0.01,2.45432 -0.32,2.45432 -0.30349,0 -0.41346,-0.680883 -0.41346,-2.56 z m -9.20623,0.876736 c -0.17743,-1.164877 -0.10791,-1.354493 0.38494,-1.049894 0.41267,0.255043 0.45482,1.665219 0.0571,1.911008 -0.15629,0.09659 -0.35522,-0.290912 -0.44207,-0.861114 z M 74.073825,94.700531 c -0.116742,-0.367817 -0.136688,-0.744329 -0.04433,-0.836691 0.266979,-0.266979 0.850508,0.210653 0.850508,0.69616 0,0.747498 -0.581369,0.848842 -0.806178,0.140531 z M 68.160004,94.72 c 0,-0.176 0.144,-0.32 0.32,-0.32 0.176,0 0.32,0.144 0.32,0.32 0,0.176 -0.144,0.32 -0.32,0.32 -0.176,0 -0.32,-0.144 -0.32,-0.32 z m 9.426842,-0.02128 c -0.116009,-0.187709 -0.134089,-0.418128 -0.04018,-0.512045 0.229223,-0.229219 0.853335,0.174666 0.853335,0.552221 0,0.40895 -0.552452,0.381654 -0.813159,-0.04018 z M 97.760006,92.48 c -0.108775,-0.176 0.02672,-0.32 0.301113,-0.32 0.274388,0 0.498887,0.144 0.498887,0.32 0,0.176 -0.135501,0.32 -0.301114,0.32 -0.165613,0 -0.390112,-0.144 -0.498886,-0.32 z M 69.920004,87.888534 C 68.71011,87.332621 67.997809,86.53584 67.372209,85.038566 66.7637,83.582198 66.732676,80.332048 67.314004,78.940733 c 0.698957,-1.672832 3.549069,-3.964365 6.904122,-5.551015 7.324071,-3.463648 8.352496,-4.011632 8.681085,-4.625609 0.218829,-0.408883 0.309088,-2.3668 0.244035,-5.293546 l -0.103241,-4.644659 -1.04505,-0.93295 c -1.13063,-1.009357 -2.510461,-1.206826 -4.134118,-0.591639 -1.410746,0.534519 -2.288589,1.540544 -3.683012,4.220797 -1.430621,2.749837 -2.549616,3.875968 -4.403251,4.431331 -2.626855,0.787024 -3.823786,-0.497997 -2.72777,-2.928525 0.84791,-1.880329 4.126525,-4.985737 6.379876,-6.042832 2.839769,-1.332195 5.03111,-1.762793 8.975885,-1.763766 3.104045,-6.4e-4 3.712352,0.09315 5.12,0.790406 1.175395,0.582218 1.766528,1.12945 2.23744,2.071274 0.602183,1.204368 0.642439,1.966131 0.681258,12.891994 0.0378,10.640387 0.08881,11.664537 0.609594,12.24 1.005036,1.11055 3.198771,0.773657 4.869149,-0.747764 0.714675,-0.65094 0.72,-0.723632 0.72,-9.830416 0,-8.481827 -0.04419,-9.214614 -0.585197,-9.704217 C 95.73295,62.638317 95.112473,62.4 94.67597,62.4 c -0.963081,0 -2.05184,-0.736541 -1.767897,-1.195971 0.113216,-0.183187 1.611216,-1.130871 3.328889,-2.105965 1.717674,-0.975094 3.692269,-2.359062 4.387988,-3.075482 2.1841,-2.249084 3.05506,-1.519756 3.05506,2.55825 0,1.220541 0.13435,2.219168 0.29855,2.219168 0.16421,0 1.28021,-0.788035 2.48,-1.75119 3.42463,-2.749178 4.9519,-3.459044 7.79638,-3.623709 4.51821,-0.261555 7.9,1.385529 9.74507,4.746278 l 0.96,1.748621 0.16,11.097379 c 0.15364,10.656269 0.1868,11.133261 0.83432,12 0.51147,0.684621 1.045,0.955875 2.20906,1.123111 1.5697,0.225513 2.14478,0.669526 1.85277,1.430492 C 129.88438,87.914406 128.19645,88 121.55573,88 c -7.23699,0 -8.32037,-0.06401 -8.48826,-0.50151 -0.27965,-0.728756 0.2763,-1.133248 2.00024,-1.455312 2.83248,-0.529165 2.6923,0.09383 2.6923,-11.96545 0,-10.527462 -0.007,-10.632826 -0.72947,-11.705533 -1.23266,-1.829145 -2.85403,-2.520841 -5.92328,-2.526931 -3.00986,-0.006 -4.5361,0.568496 -5.93859,2.235254 -1.39184,1.654116 -1.52275,2.844279 -1.4223,12.931216 0.10628,10.67136 0.0737,10.5381 2.67606,10.928356 1.7078,0.256099 2.55193,0.823996 2.27961,1.533635 -0.18196,0.474192 -1.27175,0.525571 -11.011993,0.519158 C 85.463912,87.984851 86.49789,88.20129 84.348587,85.2 83.686888,84.276 82.942165,83.52 82.69365,83.52 c -0.248516,0 -1.320589,0.63953 -2.382381,1.421178 -4.036125,2.971225 -7.93345,4.076656 -10.391265,2.947356 z m 8.888746,-4.387776 c 0.664813,-0.184617 1.699466,-0.766524 2.299229,-1.293126 1.673322,-1.469194 2.13312,-3.060755 2.024496,-7.007632 l -0.09247,-3.36 -0.883975,-0.101638 c -2.110774,-0.242695 -6.444582,2.79942 -7.464074,5.239408 -0.973913,2.330905 -0.229052,5.605075 1.468048,6.453062 0.976554,0.487952 1.128964,0.491974 2.648746,0.06993 z"
         id="path4876"
         inkscape:connector-curvature="0" />
      <path
         style="fill:#656565;stroke-width:0.32000002"
         d="M 0.32000002,85.282995 V 53.775136 L 31.920002,53.847568 63.520004,53.92 v 31.36 31.36 l -31.600002,0.0754 -31.60000198,0.0754 z M 38.667177,114.45275 C 46.685472,111.69397 52.302355,104.51624 52.982045,96.16 53.640099,88.069731 48.809209,76.247114 39.514124,63.2 c -3.6776,-5.16209 -6.590426,-8.64 -7.236189,-8.64 -0.91788,0 -6.396493,6.866474 -10.603243,13.289286 -5.595142,8.542596 -9.086152,16.279863 -10.180324,22.56306 -0.57725,3.314812 -0.22815,8.156499 0.786581,10.909134 1.320663,3.58252 2.363937,5.20483 5.137964,7.98963 2.9102,2.92149 6.393975,4.89855 10.101089,5.73241 3.117923,0.70133 8.169907,0.43359 11.147175,-0.59077 z M 27.520002,99.236563 C 24.806097,98.359136 23.262332,97.452064 21.142063,95.489069 17.477557,92.096384 15.630552,86.816637 16.339246,81.76 c 0.860224,-6.137824 5.67717,-11.548029 11.671943,-13.109469 10.062688,-2.620998 19.988814,5.085303 19.988814,15.518621 0,6.980528 -5.381802,13.762464 -12.160001,15.323555 -2.235942,0.514963 -6.324249,0.389095 -8.32,-0.256144 z M 67.86667,116.18667 c -0.722192,-0.7222 -0.862112,-1.94355 -0.335408,-2.92771 0.5271,-0.98489 0.815504,-0.72225 0.686966,0.62559 -0.06528,0.6845 0.05059,1.56084 0.257472,1.94741 0.518816,0.96941 0.194538,1.15827 -0.60903,0.35471 z m 3.173334,-0.37334 c 0,-0.56145 0.148253,-0.93725 0.344,-0.872 0.1892,0.0631 0.3332,0.21907 0.32,0.34667 -0.01318,0.1276 -0.024,0.52 -0.024,0.872 0,0.352 -0.144,0.64 -0.32,0.64 -0.176,0 -0.32,-0.444 -0.32,-0.98667 z m 2.066842,0.64538 c -0.11601,-0.18771 -0.13409,-0.41813 -0.04018,-0.51204 0.229222,-0.22922 0.853334,0.17466 0.853334,0.55222 0,0.40895 -0.552451,0.38165 -0.813158,-0.0402 z m 1.43111,-0.21871 c -0.01213,-0.308 -0.07527,-0.96505 -0.140313,-1.46011 -0.0778,-0.59209 0.01187,-0.85733 0.262048,-0.77513 0.480429,0.15788 0.705661,2.79524 0.238713,2.79524 -0.186121,0 -0.34832,-0.252 -0.360448,-0.56 z m 9.455022,-0.29564 c -0.308349,-0.47059 -1.134333,-1.41797 -1.835524,-2.10528 -0.878416,-0.86102 -1.17192,-1.35261 -0.943788,-1.58074 0.427852,-0.42785 4.329149,3.49218 4.091593,4.11124 -0.253158,0.65972 -0.695267,0.51647 -1.312281,-0.42522 z m 2.873869,0.51435 c -0.11601,-0.18771 -0.13409,-0.41813 -0.04018,-0.51204 0.229222,-0.22922 0.853334,0.17466 0.853334,0.55222 0,0.40895 -0.552451,0.38165 -0.813158,-0.0402 z M 88.245039,115.44 c -0.158903,-1.51988 -0.116403,-1.67604 0.373677,-1.37316 0.411731,0.25447 0.46152,2.73316 0.0549,2.73316 -0.157517,0 -0.350374,-0.612 -0.428579,-1.36 z m 2.208301,1.14667 c -0.117335,-0.11734 -0.213335,-0.90934 -0.213335,-1.76 0,-1.10169 0.127047,-1.54667 0.441588,-1.54667 0.32695,0 0.430793,0.45676 0.4,1.75943 -0.03999,1.69201 -0.168068,2.00742 -0.628253,1.54724 z m 2.567581,-0.0267 c -0.07527,-0.132 -0.237133,-0.79512 -0.35969,-1.4736 -0.171258,-0.94807 -0.125434,-1.20128 0.197971,-1.09396 0.444349,0.14747 0.957124,2.80756 0.541203,2.80756 -0.133446,0 -0.304214,-0.108 -0.379484,-0.24 z m 1.699085,-1.17334 c 0,-0.80667 0.144,-1.46667 0.32,-1.46667 0.176,0 0.32,0.504 0.32,1.12 0,0.616 0.01078,1.2244 0.024,1.352 0.01318,0.1276 -0.1308,0.2836 -0.32,0.34667 -0.211975,0.0707 -0.344,-0.44823 -0.344,-1.352 z m 1.92,0 c 0,-1.37395 0.05371,-1.46667 0.849597,-1.46667 0.81664,0 0.828092,0.0238 0.295235,0.61256 -0.304896,0.33691 -0.507216,0.93552 -0.449597,1.33026 0.05762,0.39473 -0.07523,0.77907 -0.295235,0.8541 -0.281661,0.0961 -0.4,-0.2975 -0.4,-1.33025 z m 2.56,0.93333 c 0,-0.264 0.144,-0.48 0.32,-0.48 0.176,0 0.32,0.216 0.32,0.48 0,0.264 -0.144,0.48 -0.32,0.48 -0.176,0 -0.32,-0.216 -0.32,-0.48 z m 1.493334,0.26667 c -0.32047,-0.32047 -0.25674,-2.66667 0.0724,-2.66667 0.38962,0 0.67424,0.82153 0.67424,1.94617 0,0.89443 -0.29148,1.17569 -0.74667,0.7205 z m 2.02667,-2.36556 c 0,-1.63777 0.11677,-2.50671 0.32,-2.38111 0.176,0.10877 0.32,1.26927 0.32,2.57889 0,1.37407 -0.13534,2.38111 -0.32,2.38111 -0.18686,0 -0.32,-1.07296 -0.32,-2.57889 z m 3.584,2.19489 c -0.55209,-0.55208 -0.48464,-1.856 0.096,-1.856 0.264,0 0.48,0.27622 0.48,0.61383 0,0.3376 0.0874,0.8416 0.19423,1.12 0.22917,0.59721 -0.22341,0.669 -0.77023,0.12217 z m 5.056,-2.016 c 0,-1.83608 0.10455,-2.4 0.44499,-2.4 0.5121,0 0.76111,1.51443 0.57313,3.48564 -0.0812,0.8511 -0.28268,1.31436 -0.57174,1.31436 -0.34217,0 -0.44638,-0.56032 -0.44638,-2.4 z m 4.48,0.96 c 0,-0.792 0.144,-1.44 0.32,-1.44 0.176,0 0.32,0.648 0.32,1.44 0,0.792 -0.144,1.44 -0.32,1.44 -0.176,0 -0.32,-0.648 -0.32,-1.44 z m 1.9324,0.82318 c -0.34777,-0.64981 -0.14278,-1.62318 0.34183,-1.62318 0.15717,0 0.28577,0.27622 0.28577,0.61383 0,0.3376 0.0874,0.8416 0.19423,1.12 0.27735,0.72275 -0.42652,0.62799 -0.82183,-0.11065 z m 4.2116,0.23282 c -0.46501,-0.465 -0.50963,-1.536 -0.064,-1.536 0.176,0 0.32,0.16866 0.32,0.3748 0,0.20614 0.23831,0.63814 0.52959,0.96 0.43694,0.48281 0.44813,0.5852 0.064,0.5852 -0.25608,0 -0.63839,-0.1728 -0.84959,-0.384 z m 3.1484,-0.23282 c -0.34777,-0.64981 -0.14278,-1.62318 0.34183,-1.62318 0.15717,0 0.28577,0.27622 0.28577,0.61383 0,0.3376 0.0874,0.8416 0.19423,1.12 0.27735,0.72275 -0.42652,0.62799 -0.82183,-0.11065 z m 4.1476,-0.82318 c 0,-1.10928 0.1181,-1.44 0.51423,-1.44 0.33745,0 0.44746,0.17402 0.32,0.50617 -0.10683,0.2784 -0.19423,0.9264 -0.19423,1.44 0,0.51361 -0.144,0.93383 -0.32,0.93383 -0.176,0 -0.32,-0.648 -0.32,-1.44 z m 2.20315,1.2 c -0.0203,-0.132 -0.0122,-0.48635 0.018,-0.78743 0.0302,-0.30109 -0.1092,-0.85395 -0.3097,-1.22858 -0.31449,-0.58764 -0.28402,-0.66586 0.22201,-0.56981 0.43886,0.0833 0.61134,0.45311 0.68496,1.46858 0.0582,0.80272 -0.0399,1.35724 -0.24,1.35724 -0.18612,0 -0.35498,-0.108 -0.37525,-0.24 z m 1.95685,-0.816 c 0,-0.5808 -0.18,-1.24278 -0.4,-1.47106 -0.32351,-0.33569 -0.27761,-0.3933 0.24,-0.30124 0.50151,0.0892 0.66129,0.40752 0.7384,1.47106 0.0582,0.80272 -0.0399,1.35724 -0.24,1.35724 -0.18612,0 -0.3384,-0.4752 -0.3384,-1.056 z m 2.13333,0.84267 c -0.34671,-0.34671 -0.24758,-4.90667 0.10667,-4.90667 0.176,0 0.338,0.432 0.36,0.96 0.16837,4.04082 0.11117,4.52451 -0.46667,3.94667 z M 139.69592,116.4 c -0.3188,-1.02837 -0.38358,-2.19165 -0.13074,-2.34792 0.30743,-0.19 0.44953,0.14749 0.71914,1.70792 0.17082,0.98868 -0.31611,1.51832 -0.5884,0.64 z m 1.74409,-1.01333 c 0,-0.80667 0.144,-1.46667 0.32,-1.46667 0.176,0 0.32,0.504 0.32,1.12 0,0.616 0.0108,1.2244 0.024,1.352 0.0132,0.1276 -0.1308,0.2836 -0.32,0.34667 -0.21198,0.0707 -0.344,-0.44823 -0.344,-1.352 z m 5.01333,1.2 c -0.11733,-0.11734 -0.21333,-0.90934 -0.21333,-1.76 0,-1.10169 0.12704,-1.54667 0.44159,-1.54667 0.32695,0 0.43079,0.45676 0.4,1.75943 -0.04,1.69201 -0.16807,2.00742 -0.62826,1.54724 z m 2.28954,-1.09059 c -0.1202,-1.2604 0.0682,-1.77835 0.4925,-1.35405 0.31463,0.31464 0.24255,2.65797 -0.0818,2.65797 -0.15752,0 -0.34234,-0.58676 -0.41074,-1.30392 z m 2.3094,0.048 c -0.77342,-1.51603 -0.78719,-1.62405 -0.20696,-1.62405 0.24492,0 0.53566,0.36 0.64609,0.8 0.11044,0.44 0.34205,0.8 0.51469,0.8 0.40432,0 0.40912,0.86339 0.006,1.11242 -0.16925,0.1046 -0.60125,-0.38517 -0.96,-1.08837 z m 3.06197,0.74978 c -0.10684,-0.2784 -0.19424,-0.7944 -0.19424,-1.14667 0,-0.84142 0.78914,-0.5805 0.83422,0.27583 0.0188,0.35749 0.13532,0.81356 0.25889,1.0135 0.1283,0.2076 0.0254,0.36351 -0.23999,0.36351 -0.25556,0 -0.55206,-0.22778 -0.65888,-0.50617 z m 3.61592,0.49017 c -0.2485,-1.19934 -0.16438,-2.87577 0.13932,-2.7762 0.49105,0.16101 0.67063,2.14009 0.23383,2.57689 -0.18882,0.18882 -0.35674,0.27851 -0.37315,0.19931 z M 77.141493,115.7029 c -0.40154,-0.42741 -0.678292,-0.93246 -0.615009,-1.12231 0.12722,-0.38166 1.873521,1.1026 1.873521,1.59239 0,0.52548 -0.497972,0.33948 -1.258512,-0.47008 z m 36.778517,0.1097 c 0,-0.44251 -0.12856,-0.94137 -0.28568,-1.10857 -0.39868,-0.42425 -0.0416,-2.44175 0.40404,-2.28261 0.1989,0.071 0.32079,0.47329 0.27085,0.89388 -0.0499,0.4206 0.0847,1.09298 0.29913,1.49417 0.32446,0.607 0.29941,0.81995 -0.14922,1.26858 -0.5055,0.5055 -0.53912,0.48894 -0.53912,-0.26545 z m 30.13578,-0.0732 c -0.63305,-0.67385 -0.92938,-1.49938 -0.53822,-1.49938 0.37314,0 1.76244,1.43287 1.76244,1.81771 0,0.6285 -0.44291,0.51334 -1.22422,-0.31833 z m 16.02422,-0.01 c -0.71819,-0.71012 -0.95666,-1.4894 -0.45578,-1.4894 0.39104,0 1.65578,1.42121 1.65578,1.86062 0,0.55406 -0.38451,0.43512 -1.2,-0.37122 z m -40.05027,-0.58167 c -0.42138,-1.20875 -0.15751,-1.63303 0.47643,-0.76607 0.51951,0.71047 0.58445,1.33984 0.16501,1.59908 -0.15886,0.0982 -0.44751,-0.27668 -0.64144,-0.83301 z m 7.36,0 c -0.42138,-1.20875 -0.15751,-1.63303 0.47643,-0.76607 0.51951,0.71047 0.58445,1.33984 0.16501,1.59908 -0.15886,0.0982 -0.44751,-0.27668 -0.64144,-0.83301 z m 10.16435,-0.0892 c -0.38657,-0.85288 -0.41523,-1.13852 -0.11424,-1.13852 0.71664,0 1.23657,0.91828 0.92072,1.62613 -0.26696,0.59828 -0.33216,0.55886 -0.80648,-0.48761 z m -29.86042,-0.47641 c -0.21858,-0.35367 0.28621,-0.73557 0.5817,-0.44008 0.30426,0.30425 0.24755,0.73797 -0.0965,0.73797 -0.16561,0 -0.38396,-0.13405 -0.48522,-0.29789 z m 48.00001,0 c -0.21859,-0.35367 0.2862,-0.73557 0.5817,-0.44008 0.30425,0.30425 0.24754,0.73797 -0.0965,0.73797 -0.16562,0 -0.38397,-0.13405 -0.48522,-0.29789 z m -70.720008,-1.92 c -0.101261,-0.16384 -0.03776,-0.38834 0.141114,-0.49888 0.17887,-0.11055 0.325219,0.0235 0.325219,0.29788 0,0.56209 -0.192019,0.64485 -0.466333,0.201 z M 71.040004,112.32 c 0,-0.176 0.144,-0.32 0.32,-0.32 0.176,0 0.32,0.144 0.32,0.32 0,0.176 -0.144,0.32 -0.32,0.32 -0.176,0 -0.32,-0.144 -0.32,-0.32 z m 32.493666,-5.41789 c -0.10126,-0.16384 -0.0378,-0.38834 0.14112,-0.49888 0.17887,-0.11055 0.32522,0.0235 0.32522,0.29788 0,0.56209 -0.19202,0.64485 -0.46634,0.201 z m -36.120332,-0.23544 c -0.315584,-0.31559 -0.259062,-1.70667 0.06934,-1.70667 0.155472,0 0.371565,0.252 0.480205,0.56 0.10864,0.308 0.281437,0.74 0.383991,0.96 0.192931,0.41388 -0.556474,0.56373 -0.93354,0.18667 z m 1.971136,-1.29513 c -0.156099,-1.96268 0.05001,-3.66671 0.42826,-3.54063 0.460601,0.15353 0.525539,5.04909 0.06697,5.04909 -0.216973,0 -0.425863,-0.63627 -0.495233,-1.50846 z m 2.398247,1.25106 c -0.56457,-0.35031 -0.67904,-1.9826 -0.139037,-1.9826 0.156026,0 0.354957,0.468 0.442074,1.04 0.183734,1.20641 0.173488,1.23828 -0.303037,0.9426 z m 5.552951,-2.06235 c 0.03921,-1.63434 0.181107,-2.34626 0.48,-2.40825 0.322646,-0.0669 0.424333,0.48906 0.424333,2.32004 0,1.92705 -0.09588,2.40808 -0.48,2.40824 -0.387668,1.7e-4 -0.469293,-0.4461 -0.424333,-2.32003 z m 4.267782,1.84391 c -0.229344,-0.27635 -0.308918,-0.81849 -0.189801,-1.29309 0.240438,-0.95798 0.826352,-0.75675 0.826352,0.28382 0,0.39441 0.1728,0.88991 0.384,1.10111 0.298665,0.29867 0.271817,0.384 -0.120819,0.384 -0.277648,0 -0.682528,-0.21413 -0.899732,-0.47584 z m 3.41074,-1.17028 c -0.212483,-1.79407 -0.02893,-2.45661 0.526678,-1.90101 0.466944,0.46694 0.487527,3.5464 0.02371,3.54681 -0.195485,1.8e-4 -0.443158,-0.74043 -0.550384,-1.6458 z m 2.345811,0.20612 c 0,-1.33333 0.06095,-1.44 0.822858,-1.44 0.767411,0 0.786982,0.0359 0.290477,0.53238 -0.359063,0.35906 -0.473287,0.82786 -0.350858,1.44 0.133728,0.66865 0.05725,0.90762 -0.290477,0.90762 -0.346073,0 -0.472,-0.38418 -0.472,-1.44 z m 2.944,1.056 c -0.465789,-0.46579 -0.506326,-1.74263 -0.064,-2.016 0.176,-0.10877 0.32,0.1082 0.32,0.48215 0,0.37396 0.149066,0.95846 0.331258,1.29889 0.367971,0.68756 0.009,0.83119 -0.587258,0.23496 z m 3.776001,-2.176 c 0,-1.49333 0.133334,-2.56 0.32,-2.56 0.186665,0 0.32,1.06667 0.32,2.56 0,1.49333 -0.133335,2.56 -0.32,2.56 -0.186666,0 -0.32,-1.06667 -0.32,-2.56 z m 1.85639,1.74818 c -0.304656,-0.66865 -0.275229,-0.90648 0.166858,-1.34857 0.502336,-0.50234 0.536752,-0.47182 0.536752,0.47592 0,0.62686 0.21335,1.13693 0.56,1.33884 0.499014,0.29065 0.480841,0.32723 -0.166861,0.3359 -0.473187,0.006 -0.855952,-0.27359 -1.096749,-0.80209 z m 3.587059,0.33598 c -0.243392,-0.29327 -0.309104,-0.81509 -0.171264,-1.36 0.223543,-0.88373 0.223869,-0.88353 0.670919,0.39584 0.53491,1.53083 0.5238,1.44 0.17608,1.44 -0.15445,0 -0.458531,-0.21413 -0.675735,-0.47584 z M 73.67996,105.10798 C 73.492932,104.49859 73.44163,104 73.565956,104 c 0.420439,0 0.994048,0.76465 0.994048,1.32511 0,1.03227 -0.53728,0.89971 -0.880044,-0.21713 z m 18.598356,-0.0127 C 92.089765,104.49287 92.029212,104 92.143753,104 c 0.405008,0 0.976252,0.77538 0.976252,1.32511 0,1.01664 -0.49375,0.88181 -0.841689,-0.22983 z M 101.67425,105.2 c -0.1779,-1.16813 -0.10862,-1.3579 0.38447,-1.05316 0.41049,0.2537 0.46112,2.09316 0.0576,2.09316 -0.15603,0 -0.35496,-0.468 -0.44208,-1.04 z m -18.474245,-0.73889 c 0,-0.27438 0.144,-0.40988 0.32,-0.30111 0.176,0.10877 0.32,0.33327 0.32,0.49889 0,0.16561 -0.144,0.30111 -0.32,0.30111 -0.176,0 -0.32,-0.2245 -0.32,-0.49889 z m 14.400001,0.0189 c 0,-0.264 0.144,-0.48 0.32,-0.48 0.176,0 0.32,0.216 0.32,0.48 0,0.264 -0.144,0.48 -0.32,0.48 -0.176,0 -0.32,-0.216 -0.32,-0.48 z m -17.920001,-0.57464 c 0,-0.44716 -0.09383,-1.05754 -0.208522,-1.35641 -0.180035,-0.46917 -0.114467,-0.49306 0.48,-0.17491 0.798855,0.42753 0.900064,1.37203 0.208522,1.94596 -0.405245,0.33633 -0.48,0.27175 -0.48,-0.41464 z M 132.39918,102.16 c -0.4358,-0.48808 -0.53017,-3.024605 -0.73482,-19.74984 l -0.2348,-19.18984 -0.89016,-0.89016 C 129.95913,61.749891 129.31304,61.44 128.68351,61.44 c -1.05248,0 -1.41054,-0.301405 -1.05036,-0.884182 0.127,-0.205498 1.4495,-0.946621 2.93889,-1.646944 1.48938,-0.700324 3.57197,-2.011687 4.62797,-2.914144 2.51249,-2.147172 2.87691,-2.336816 3.36357,-1.750426 0.26721,0.321962 0.32185,1.022528 0.1728,2.21545 -0.21731,1.739276 0.13339,3.060246 0.81244,3.060246 0.17947,0 1.19416,-0.589347 2.25487,-1.309664 4.26681,-2.897539 7.43365,-3.669162 11.15059,-2.716928 5.65383,1.448445 9.9433,6.865178 10.90352,13.768938 0.93337,6.710691 -2.77721,13.547891 -9.16729,16.891843 -4.26953,2.234256 -7.68216,2.663507 -12.1305,1.525811 -4.04528,-1.034608 -3.68,-1.572285 -3.68,5.416774 v 6.056775 l 0.8165,0.642262 c 0.45471,0.357669 1.58481,0.738249 2.55043,0.858899 1.81569,0.22686 2.59195,0.76546 2.27891,1.58122 -0.15623,0.40712 -1.09515,0.48407 -5.9062,0.48407 -5.04423,0 -5.77956,-0.0662 -6.22047,-0.56 z m 16.04411,-16.227046 c 2.07802,-0.733165 4.05713,-2.2672 5.46939,-4.239402 4.75148,-6.63537 2.69188,-17.742298 -3.89906,-21.026704 -1.43689,-0.716032 -2.069,-0.826688 -4.71644,-0.825651 -3.46551,0.0013 -4.65944,0.479817 -5.7789,2.315878 -0.59687,0.978944 -0.63595,1.62793 -0.63708,10.578816 -0.001,10.190026 0.0394,10.484826 1.64841,11.945197 1.35584,1.230602 2.61045,1.692896 4.63016,1.706099 1.07788,0.007 2.55546,-0.197357 3.28352,-0.454233 z m -76.123286,12.44816 c 0,-0.274388 0.144,-0.409888 0.32,-0.301114 0.176,0.108774 0.32,0.333274 0.32,0.498886 0,0.165613 -0.144,0.301114 -0.32,0.301114 -0.176,0 -0.32,-0.224499 -0.32,-0.498886 z m 2.061376,-0.811248 c -0.119017,-0.192573 -0.544384,-0.287434 -0.94526,-0.210804 -0.624733,0.119428 -0.756026,-0.02486 -0.91897,-1.009865 -0.31457,-1.901619 -0.22449,-2.157959 0.399024,-1.135501 0.326579,0.53553 0.974038,1.222851 1.438803,1.527376 0.835571,0.547485 1.126893,1.178928 0.543914,1.178928 -0.165613,0 -0.398493,-0.157562 -0.517511,-0.350134 z m -7.181376,-0.91098 c 0,-0.165612 0.144,-0.390112 0.32,-0.498886 0.176,-0.108774 0.32,0.02672 0.32,0.301114 0,0.274387 -0.144,0.498886 -0.32,0.498886 -0.176,0 -0.32,-0.135501 -0.32,-0.301114 z M 70.200945,96.4 c -0.19441,-0.608298 -0.663831,-1.75992 -1.161498,-2.849488 -0.331206,-0.725117 -0.07078,-1.521811 0.401952,-1.229648 0.152445,0.09421 0.562093,0.924563 0.910327,1.845219 0.348237,0.920653 0.732963,1.925917 0.854953,2.233917 0.15673,0.395715 0.06799,0.56 -0.302483,0.56 -0.288352,0 -0.604816,-0.252 -0.703251,-0.56 z m 6.023059,0.176 c -0.465788,-0.465789 -0.506326,-1.742627 -0.064,-2.016 0.296976,-0.183542 0.464586,0.264035 0.344544,0.920051 -0.02819,0.154029 0.193082,0.550029 0.491703,0.88 0.443078,0.489597 0.457306,0.599949 0.07735,0.599949 -0.25608,0 -0.638397,-0.1728 -0.849597,-0.384 z m 3.136001,-1.056 c 0,-1.029021 0.129382,-1.44 0.453334,-1.44 0.323949,0 0.453331,0.410979 0.453331,1.44 0,1.029021 -0.129382,1.44 -0.453331,1.44 -0.323952,0 -0.453334,-0.410979 -0.453334,-1.44 z m 2.235632,0.586666 C 81.593077,95.608 81.502357,94.84 81.393694,94.4 c -0.177155,-0.717325 -0.146262,-0.750394 0.298938,-0.32 0.631965,0.610947 0.852285,2.617776 0.307373,2.799754 -0.25673,0.08573 -0.401565,-0.191165 -0.404368,-0.773088 z m 1.922099,0.209094 c -0.189632,-0.354333 -0.230701,-0.839232 -0.09126,-1.077555 0.188236,-0.321728 0.435145,-0.155824 0.958793,0.64424 0.674563,1.030643 0.678535,1.077555 0.09126,1.077555 -0.337703,0 -0.769162,-0.289907 -0.958793,-0.64424 z M 87.022533,96.88 c -0.212432,-0.972762 -0.107469,-2.788723 0.156189,-2.702224 0.453917,0.148915 0.642909,2.782224 0.199683,2.782224 -0.186121,0 -0.346262,-0.036 -0.355872,-0.08 z m 1.764314,-0.26129 c -0.11601,-0.187708 -0.13409,-0.418128 -0.04018,-0.512044 0.229222,-0.22922 0.853334,0.174665 0.853334,0.55222 0,0.408951 -0.552451,0.381655 -0.813158,-0.04018 z M 90.214008,96.4 c -0.0143,-0.308 -0.05512,-0.95761 -0.09072,-1.443574 -0.03589,-0.489991 0.08259,-0.835268 0.265997,-0.77513 0.446749,0.14649 0.625901,2.778704 0.189123,2.778704 -0.186121,0 -0.350099,-0.252 -0.364397,-0.56 z m 3.865998,0.06111 c 0,-0.274388 0.144,-0.409888 0.32,-0.301114 0.176,0.108774 0.32,0.333274 0.32,0.498886 0,0.165613 -0.144,0.301114 -0.32,0.301114 -0.176,0 -0.32,-0.224499 -0.32,-0.498886 z m 1.84,-1.473812 C 94.27285,93.244765 93.655698,92.16 94.311481,92.16 c 0.421648,0 3.928525,3.876518 3.928525,4.342611 0,0.773037 -0.410112,0.505171 -2.32,-1.515309 z m 3.813334,1.759364 C 99.365135,96.378464 99.500303,96 100.00001,96 c 0.264,0 0.48,0.216 0.48,0.48 0,0.499702 -0.37847,0.63487 -0.74667,0.266666 z M 101.06992,95.52 c -0.1051,-1.321526 0.22291,-1.987226 0.51244,-1.04 0.43445,1.421325 0.45232,2.48 0.0419,2.48 -0.29092,0 -0.47855,-0.487424 -0.55431,-1.44 z m 2.00182,0.72 c -0.36635,-0.985546 -0.052,-1.807027 0.38074,-0.995027 0.17441,0.327264 0.53528,0.847027 0.80192,1.155027 0.44187,0.510413 0.42282,0.56 -0.21511,0.56 -0.43319,0 -0.8019,-0.274368 -0.96755,-0.72 z m 3.45156,0.576624 C 106.26584,96.559171 106.6194,94.08 106.91362,94.08 c 0.15751,0 0.28639,0.648 0.28639,1.44 0,1.276688 -0.2389,1.734435 -0.67671,1.296624 z M 108.54401,96.576 c -0.44762,-0.447619 -0.51277,-1.738646 -0.1006,-1.993386 0.15588,-0.09634 0.35336,0.147165 0.43885,0.541114 0.0855,0.393949 0.26137,0.968272 0.39083,1.276272 0.26959,0.641366 -0.16001,0.745072 -0.72908,0.176 z m 3.88266,-1.056 c 0,-0.986666 0.13433,-1.44 0.42667,-1.44 0.29235,0 0.42667,0.453334 0.42667,1.44 0,0.986666 -0.13432,1.44 -0.42667,1.44 -0.29234,0 -0.42667,-0.453334 -0.42667,-1.44 z m 2.04542,-0.06767 c -0.19556,-1.722845 -0.1913,-1.742826 0.30596,-1.434932 0.48559,0.300669 0.67215,2.699204 0.22163,2.849376 -0.21103,0.07035 -0.42381,-0.500096 -0.52759,-1.414444 z m 2.00792,1.02767 c 0,-0.264 0.12859,-0.48 0.28576,-0.48 0.15717,0 0.36865,0.216 0.46996,0.48 0.1122,0.292387 6.4e-4,0.48 -0.28576,0.48 -0.25848,0 -0.46996,-0.216 -0.46996,-0.48 z m 1.28,-0.96 c 0,-1.428195 0.39242,-1.906742 0.76576,-0.933827 0.37956,0.989104 0.21286,2.373827 -0.28576,2.373827 -0.35556,0 -0.48,-0.373334 -0.48,-1.44 z m 2.08,-1.12 c 0,-3.305968 0.60687,-3.218528 0.73346,0.10568 0.0701,1.84096 -0.01,2.45432 -0.32,2.45432 -0.30349,0 -0.41346,-0.680883 -0.41346,-2.56 z m -9.20623,0.876736 c -0.17743,-1.164877 -0.10791,-1.354493 0.38494,-1.049894 0.41267,0.255043 0.45482,1.665219 0.0571,1.911008 -0.15629,0.09659 -0.35522,-0.290912 -0.44207,-0.861114 z M 74.073825,94.700531 c -0.116742,-0.367817 -0.136688,-0.744329 -0.04433,-0.836691 0.266979,-0.266979 0.850508,0.210653 0.850508,0.69616 0,0.747498 -0.581369,0.848842 -0.806178,0.140531 z M 68.160004,94.72 c 0,-0.176 0.144,-0.32 0.32,-0.32 0.176,0 0.32,0.144 0.32,0.32 0,0.176 -0.144,0.32 -0.32,0.32 -0.176,0 -0.32,-0.144 -0.32,-0.32 z m 9.426842,-0.02128 c -0.116009,-0.187709 -0.134089,-0.418128 -0.04018,-0.512045 0.229223,-0.229219 0.853335,0.174666 0.853335,0.552221 0,0.40895 -0.552452,0.381654 -0.813159,-0.04018 z M 97.760006,92.48 c -0.108775,-0.176 0.02672,-0.32 0.301113,-0.32 0.274388,0 0.498887,0.144 0.498887,0.32 0,0.176 -0.135501,0.32 -0.301114,0.32 -0.165613,0 -0.390112,-0.144 -0.498886,-0.32 z M 69.920004,87.888534 C 68.71011,87.332621 67.997809,86.53584 67.372209,85.038566 66.7637,83.582198 66.732676,80.332048 67.314004,78.940733 c 0.698957,-1.672832 3.549069,-3.964365 6.904122,-5.551015 7.324071,-3.463648 8.352496,-4.011632 8.681085,-4.625609 0.218829,-0.408883 0.309088,-2.3668 0.244035,-5.293546 l -0.103241,-4.644659 -1.04505,-0.93295 c -1.13063,-1.009357 -2.510461,-1.206826 -4.134118,-0.591639 -1.410746,0.534519 -2.288589,1.540544 -3.683012,4.220797 -1.430621,2.749837 -2.549616,3.875968 -4.403251,4.431331 -2.626855,0.787024 -3.823786,-0.497997 -2.72777,-2.928525 0.84791,-1.880329 4.126525,-4.985737 6.379876,-6.042832 2.839769,-1.332195 5.03111,-1.762793 8.975885,-1.763766 3.104045,-6.4e-4 3.712352,0.09315 5.12,0.790406 1.175395,0.582218 1.766528,1.12945 2.23744,2.071274 0.602183,1.204368 0.642439,1.966131 0.681258,12.891994 0.0378,10.640387 0.08881,11.664537 0.609594,12.24 1.005036,1.11055 3.198771,0.773657 4.869149,-0.747764 0.714675,-0.65094 0.72,-0.723632 0.72,-9.830416 0,-8.481827 -0.04419,-9.214614 -0.585197,-9.704217 C 95.73295,62.638317 95.112473,62.4 94.67597,62.4 c -0.963081,0 -2.05184,-0.736541 -1.767897,-1.195971 0.113216,-0.183187 1.611216,-1.130871 3.328889,-2.105965 1.717674,-0.975094 3.692269,-2.359062 4.387988,-3.075482 2.1841,-2.249084 3.05506,-1.519756 3.05506,2.55825 0,1.220541 0.13435,2.219168 0.29855,2.219168 0.16421,0 1.28021,-0.788035 2.48,-1.75119 3.42463,-2.749178 4.9519,-3.459044 7.79638,-3.623709 4.51821,-0.261555 7.9,1.385529 9.74507,4.746278 l 0.96,1.748621 0.16,11.097379 c 0.15364,10.656269 0.1868,11.133261 0.83432,12 0.51147,0.684621 1.045,0.955875 2.20906,1.123111 1.5697,0.225513 2.14478,0.669526 1.85277,1.430492 C 129.88438,87.914406 128.19645,88 121.55573,88 c -7.23699,0 -8.32037,-0.06401 -8.48826,-0.50151 -0.27965,-0.728756 0.2763,-1.133248 2.00024,-1.455312 2.83248,-0.529165 2.6923,0.09383 2.6923,-11.96545 0,-10.527462 -0.007,-10.632826 -0.72947,-11.705533 -1.23266,-1.829145 -2.85403,-2.520841 -5.92328,-2.526931 -3.00986,-0.006 -4.5361,0.568496 -5.93859,2.235254 -1.39184,1.654116 -1.52275,2.844279 -1.4223,12.931216 0.10628,10.67136 0.0737,10.5381 2.67606,10.928356 1.7078,0.256099 2.55193,0.823996 2.27961,1.533635 -0.18196,0.474192 -1.27175,0.525571 -11.011993,0.519158 C 85.463912,87.984851 86.49789,88.20129 84.348587,85.2 83.686888,84.276 82.942165,83.52 82.69365,83.52 c -0.248516,0 -1.320589,0.63953 -2.382381,1.421178 -4.036125,2.971225 -7.93345,4.076656 -10.391265,2.947356 z m 8.888746,-4.387776 c 0.664813,-0.184617 1.699466,-0.766524 2.299229,-1.293126 1.673322,-1.469194 2.13312,-3.060755 2.024496,-7.007632 l -0.09247,-3.36 -0.883975,-0.101638 c -2.110774,-0.242695 -6.444582,2.79942 -7.464074,5.239408 -0.973913,2.330905 -0.229052,5.605075 1.468048,6.453062 0.976554,0.487952 1.128964,0.491974 2.648746,0.06993 z"
         id="path4874"
         inkscape:connector-curvature="0" />
      <path
         style="fill:#585858;stroke-width:0.32000002"
         d="M 0.89270716,107.28 C 0.83460568,99.336611 0.80008888,98.757478 0.64000004,103.04 0.53802221,105.768 0.42426809,95.832 0.38721311,80.96 L 0.31984041,53.92 15.839921,54.006 c 8.536045,0.0473 15.520081,0.209661 15.520081,0.3608 0,0.151139 -0.842587,1.280813 -1.872416,2.510381 C 20.130234,68.049443 13.286053,80.313885 11.315884,89.44 c -0.649836,3.010134 -0.634549,7.796749 0.03321,10.4 1.00239,3.90778 2.586014,6.5988 5.758445,9.78518 4.498172,4.51796 8.858651,6.34982 15.052459,6.32361 3.861712,-0.0164 6.438272,-0.64536 9.804413,-2.39357 8.423924,-4.37498 12.839307,-13.745265 11.022737,-23.392346 -1.713261,-9.098432 -9.05066,-22.708448 -17.942628,-33.281479 -1.146487,-1.363235 -2.084522,-2.551235 -2.084522,-2.64 0,-0.271049 30.351167,-0.179299 30.518997,0.09226 0.08622,0.139507 0.07179,14.179507 -0.03206,31.2 L 63.258113,116.48 H 32.109055 0.96000006 Z m 83.46131684,8.69326 c -0.119593,-0.31165 -0.04808,-0.45794 0.185763,-0.38 0.478349,0.15945 0.741725,0.88674 0.32112,0.88674 -0.171836,0 -0.399932,-0.22803 -0.506883,-0.50674 z m -16.711127,-0.59457 c -0.09736,-0.25372 -0.120621,-0.72172 -0.05169,-1.04 0.07826,-0.36135 0.187792,-0.18809 0.291642,0.46131 0.174272,1.08976 0.061,1.36295 -0.239949,0.57869 z m 13.957108,-2.59758 c 0,-0.27438 0.144,-0.40988 0.32,-0.30111 0.176,0.10877 0.32,0.33327 0.32,0.49889 0,0.16561 -0.144,0.30111 -0.32,0.30111 -0.176,0 -0.32,-0.2245 -0.32,-0.49889 z m 50.869865,-10.87332 c -0.31728,-0.38231 -0.44246,-4.7233 -0.56059,-19.440004 -0.14534,-18.106397 -0.17967,-18.986909 -0.77323,-19.828858 -0.4055,-0.575184 -1.11326,-1.004986 -2.0386,-1.237987 -0.77959,-0.196307 -1.41744,-0.488541 -1.41744,-0.649411 0,-0.160871 1.332,-0.918759 2.96,-1.684196 1.7941,-0.843532 3.77927,-2.097968 5.04,-3.184787 1.144,-0.986195 2.224,-1.747657 2.4,-1.692134 0.176,0.05552 0.36183,1.192598 0.41295,2.526832 0.13496,3.522339 0.34255,3.587011 4.05056,1.261904 3.51377,-2.203309 5.40353,-2.766173 8.53492,-2.542122 5.7326,0.410163 10.85593,5.542218 12.29026,12.311178 1.2382,5.843411 -0.22041,10.713309 -4.4848,14.973449 -4.7718,4.767053 -10.21851,6.265466 -16.76097,4.611018 -1.45141,-0.36703 -2.84683,-0.587552 -3.10092,-0.490045 -0.3796,0.145667 -0.462,1.231779 -0.462,6.089485 0,5.673008 0.0291,5.945629 0.72,6.738493 0.52823,0.606215 1.21132,0.905015 2.56463,1.121825 2.11513,0.33886 2.47537,0.5057 2.47537,1.14646 0,0.70899 -11.26044,0.67944 -11.85014,-0.0311 z m 17.24399,-16.280363 c 5.42929,-2.764025 8.20059,-9.660496 6.6037,-16.433558 -0.94037,-3.988506 -3.22694,-7.240317 -6.13619,-8.726477 C 148.82856,59.77632 148.22218,59.68 145.22443,59.68 c -3.71298,0 -4.39034,0.255341 -5.84465,2.203238 -0.63352,0.848538 -0.65977,1.282602 -0.65977,10.910525 v 10.026832 l 0.97855,1.229703 c 0.5382,0.676336 1.6182,1.564108 2.4,1.972825 1.95913,1.024218 5.15209,0.858307 7.6153,-0.395696 z M 28.931499,99.045162 C 21.070427,97.334739 15.650188,89.689654 16.864802,82.025443 c 0.499359,-3.15095 1.477473,-5.468189 3.21333,-7.612665 5.678375,-7.015056 15.924398,-7.794938 22.366328,-1.702429 3.401213,3.216726 4.915543,6.694723 4.915543,11.289651 0,4.621728 -1.511978,8.070701 -4.973053,11.344042 -2.050967,1.939718 -4.988644,3.373059 -7.872151,3.84095 -2.516232,0.408294 -3.135406,0.392787 -5.5833,-0.13983 z M 97.46655,96.362947 c -0.137847,-0.22304 -0.164211,-0.491945 -0.05859,-0.597571 0.28639,-0.286387 0.598646,0.134816 0.443965,0.598864 -0.108391,0.325174 -0.183767,0.324922 -0.385376,-0.0013 z M 69.760004,94.701114 c 0,-0.186388 0.144,-0.249888 0.32,-0.141114 0.176,0.108774 0.32,0.261274 0.32,0.338886 0,0.07761 -0.144,0.141114 -0.32,0.141114 -0.176,0 -0.32,-0.152499 -0.32,-0.338886 z M 94.61334,93.226666 c -0.117334,-0.117332 -0.213334,-0.362132 -0.213334,-0.544 0,-0.200512 0.149046,-0.18162 0.378665,0.048 0.208269,0.208268 0.304269,0.453068 0.213335,0.544 -0.09094,0.09093 -0.261335,0.06933 -0.378666,-0.048 z M 69.407326,87.275776 C 67.847431,86.236794 67.067998,84.446182 67.076014,81.92 c 0.0079,-2.498006 0.492313,-3.533101 2.534096,-5.415152 1.357408,-1.251213 2.97343,-2.114106 10.920644,-5.8312 0.731913,-0.34233 1.703913,-0.995584 2.16,-1.45167 0.806595,-0.806596 0.829251,-0.941991 0.829251,-4.955892 0,-4.557452 -0.314099,-5.791568 -1.764378,-6.932358 -1.076896,-0.847085 -2.448243,-0.873754 -4.192771,-0.08153 -1.490637,0.676925 -2.500384,1.886864 -3.895498,4.667802 -1.408093,2.806819 -2.942579,4 -5.144186,4 -4.242295,0 0.518957,-7.12815 6.174688,-9.24423 2.620308,-0.980384 5.73121,-1.41657 8.839201,-1.23936 3.327847,0.189747 4.964621,0.87944 5.894035,2.48359 0.611578,1.055568 0.658112,1.807408 0.808909,13.068778 l 0.16,11.948777 0.75545,0.611223 c 1.338445,1.082912 3.792986,0.522201 5.124583,-1.17065 0.697545,-0.886784 0.706169,-1.026573 0.613728,-9.94783 -0.104855,-10.119197 -0.0643,-9.944208 -2.392029,-10.322567 -0.703447,-0.114342 -1.221732,-0.379072 -1.221732,-0.624035 0,-0.233994 1.368001,-1.21095 3.040001,-2.171014 1.672,-0.960064 3.621449,-2.31417 4.332114,-3.009127 2.18158,-2.133363 2.63451,-1.744729 2.7865,2.390941 0.0448,1.217974 0.2342,2.264912 0.42097,2.326531 0.18678,0.06162 1.55478,-0.848569 3.04,-2.022637 3.87442,-3.062716 4.81637,-3.419699 8.58652,-3.25414 3.58883,0.157596 5.70594,1.029136 7.35259,3.026812 1.84288,2.235732 1.96053,3.063047 1.96894,13.845943 0.004,5.380646 0.14066,10.358995 0.30325,11.062995 0.35307,1.528771 1.61471,2.72 2.88079,2.72 1.2397,0 1.92833,0.297914 1.92833,0.834237 0,0.369561 -1.41904,0.445763 -8.30112,0.445763 -4.56561,0 -8.38003,-0.127683 -8.47647,-0.283741 -0.2779,-0.449641 0.50403,-0.905171 1.96817,-1.146614 0.74282,-0.122493 1.71482,-0.509226 2.16,-0.859405 l 0.80942,-0.636691 V 74.291782 c 0,-11.840198 -0.002,-11.852496 -2.51436,-13.633289 -1.1748,-0.832803 -1.65129,-0.955962 -4.1269,-1.066698 -2.47429,-0.110675 -2.96276,-0.03718 -4.21357,0.633997 -0.77816,0.417552 -1.85816,1.306714 -2.4,1.975914 l -0.98517,1.216726 -0.0922,10.658003 -0.0922,10.658 0.8553,0.672784 c 0.47042,0.370029 1.01589,0.673584 1.21215,0.674567 1.01139,0.0051 2.75685,0.722563 2.75685,1.133254 0,0.397443 -1.57098,0.46496 -10.818843,0.46496 -8.17601,0 -10.940551,-0.09771 -11.317082,-0.4 -0.274032,-0.22 -1.098099,-1.228 -1.831254,-2.24 -0.733159,-1.012 -1.49849,-1.84 -1.700737,-1.84 -0.202246,0 -1.41296,0.722573 -2.690473,1.605718 -3.47472,2.402074 -5.36346,3.187456 -7.674295,3.191156 -1.498323,0.0022 -2.205677,-0.165386 -3.04,-0.721098 z m 10.795613,-4.049728 c 1.212291,-0.739219 2.458483,-2.357184 2.952874,-3.833798 0.559283,-1.670439 0.478458,-7.219053 -0.112301,-7.709338 -1.432496,-1.188867 -6.33889,1.433558 -7.983904,4.267331 -1.418628,2.443783 -1.356215,5.114445 0.164707,7.047981 0.563024,0.71577 0.910147,0.841597 2.318915,0.840579 1.066128,-6.4e-4 2.014323,-0.219219 2.659709,-0.612755 z"
         id="path4872"
         inkscape:connector-curvature="0" />
      <path
         style="fill:#505050;stroke-width:0.32000002"
         d="M 0.89270716,107.28 C 0.83460568,99.336611 0.80008888,98.757478 0.64000004,103.04 0.53802221,105.768 0.42426809,95.832 0.38721311,80.96 L 0.31984041,53.92 15.839921,54.006 c 8.536045,0.0473 15.520081,0.209661 15.520081,0.3608 0,0.151139 -0.842587,1.280813 -1.872416,2.510381 C 20.130234,68.049443 13.286053,80.313885 11.315884,89.44 c -0.649836,3.010134 -0.634549,7.796749 0.03321,10.4 1.00239,3.90778 2.586014,6.5988 5.758445,9.78518 4.498172,4.51796 8.858651,6.34982 15.052459,6.32361 3.861712,-0.0164 6.438272,-0.64536 9.804413,-2.39357 8.423924,-4.37498 12.839307,-13.745265 11.022737,-23.392346 -1.713261,-9.098432 -9.05066,-22.708448 -17.942628,-33.281479 -1.146487,-1.363235 -2.084522,-2.551235 -2.084522,-2.64 0,-0.271049 30.351167,-0.179299 30.518997,0.09226 0.08622,0.139507 0.07179,14.179507 -0.03206,31.2 L 63.258113,116.48 H 32.109055 0.96000006 Z m 83.46131684,8.69326 c -0.119593,-0.31165 -0.04808,-0.45794 0.185763,-0.38 0.478349,0.15945 0.741725,0.88674 0.32112,0.88674 -0.171836,0 -0.399932,-0.22803 -0.506883,-0.50674 z m -16.711127,-0.59457 c -0.09736,-0.25372 -0.120621,-0.72172 -0.05169,-1.04 0.07826,-0.36135 0.187792,-0.18809 0.291642,0.46131 0.174272,1.08976 0.061,1.36295 -0.239949,0.57869 z m 13.957108,-2.59758 c 0,-0.27438 0.144,-0.40988 0.32,-0.30111 0.176,0.10877 0.32,0.33327 0.32,0.49889 0,0.16561 -0.144,0.30111 -0.32,0.30111 -0.176,0 -0.32,-0.2245 -0.32,-0.49889 z m 50.869865,-10.87332 c -0.31728,-0.38231 -0.44246,-4.7233 -0.56059,-19.440004 -0.14534,-18.106397 -0.17967,-18.986909 -0.77323,-19.828858 -0.4055,-0.575184 -1.11326,-1.004986 -2.0386,-1.237987 -0.77959,-0.196307 -1.41744,-0.488541 -1.41744,-0.649411 0,-0.160871 1.332,-0.918759 2.96,-1.684196 1.7941,-0.843532 3.77927,-2.097968 5.04,-3.184787 1.144,-0.986195 2.224,-1.747657 2.4,-1.692134 0.176,0.05552 0.36183,1.192598 0.41295,2.526832 0.13496,3.522339 0.34255,3.587011 4.05056,1.261904 3.51377,-2.203309 5.40353,-2.766173 8.53492,-2.542122 5.7326,0.410163 10.85593,5.542218 12.29026,12.311178 1.2382,5.843411 -0.22041,10.713309 -4.4848,14.973449 -4.7718,4.767053 -10.21851,6.265466 -16.76097,4.611018 -1.45141,-0.36703 -2.84683,-0.587552 -3.10092,-0.490045 -0.3796,0.145667 -0.462,1.231779 -0.462,6.089485 0,5.673008 0.0291,5.945629 0.72,6.738493 0.52823,0.606215 1.21132,0.905015 2.56463,1.121825 2.11513,0.33886 2.47537,0.5057 2.47537,1.14646 0,0.70899 -11.26044,0.67944 -11.85014,-0.0311 z m 17.24399,-16.280363 c 5.42929,-2.764025 8.20059,-9.660496 6.6037,-16.433558 -0.94037,-3.988506 -3.22694,-7.240317 -6.13619,-8.726477 C 148.82856,59.77632 148.22218,59.68 145.22443,59.68 c -3.71298,0 -4.39034,0.255341 -5.84465,2.203238 -0.63352,0.848538 -0.65977,1.282602 -0.65977,10.910525 v 10.026832 l 0.97855,1.229703 c 0.5382,0.676336 1.6182,1.564108 2.4,1.972825 1.95913,1.024218 5.15209,0.858307 7.6153,-0.395696 z m -52.24731,10.73552 c -0.137847,-0.22304 -0.164211,-0.491945 -0.05859,-0.597571 0.28639,-0.286387 0.598646,0.134816 0.443965,0.598864 -0.108391,0.325174 -0.183767,0.324922 -0.385376,-0.0013 z M 69.760004,94.701114 c 0,-0.186388 0.144,-0.249888 0.32,-0.141114 0.176,0.108774 0.32,0.261274 0.32,0.338886 0,0.07761 -0.144,0.141114 -0.32,0.141114 -0.176,0 -0.32,-0.152499 -0.32,-0.338886 z M 94.61334,93.226666 c -0.117334,-0.117332 -0.213334,-0.362132 -0.213334,-0.544 0,-0.200512 0.149046,-0.18162 0.378665,0.048 0.208269,0.208268 0.304269,0.453068 0.213335,0.544 -0.09094,0.09093 -0.261335,0.06933 -0.378666,-0.048 z M 69.407326,87.275776 C 67.847431,86.236794 67.067998,84.446182 67.076014,81.92 c 0.0079,-2.498006 0.492313,-3.533101 2.534096,-5.415152 1.357408,-1.251213 2.97343,-2.114106 10.920644,-5.8312 0.731913,-0.34233 1.703913,-0.995584 2.16,-1.45167 0.806595,-0.806596 0.829251,-0.941991 0.829251,-4.955892 0,-4.557452 -0.314099,-5.791568 -1.764378,-6.932358 -1.076896,-0.847085 -2.448243,-0.873754 -4.192771,-0.08153 -1.490637,0.676925 -2.500384,1.886864 -3.895498,4.667802 -1.408093,2.806819 -2.942579,4 -5.144186,4 -4.242295,0 0.518957,-7.12815 6.174688,-9.24423 2.620308,-0.980384 5.73121,-1.41657 8.839201,-1.23936 3.327847,0.189747 4.964621,0.87944 5.894035,2.48359 0.611578,1.055568 0.658112,1.807408 0.808909,13.068778 l 0.16,11.948777 0.75545,0.611223 c 1.338445,1.082912 3.792986,0.522201 5.124583,-1.17065 0.697545,-0.886784 0.706169,-1.026573 0.613728,-9.94783 -0.104855,-10.119197 -0.0643,-9.944208 -2.392029,-10.322567 -0.703447,-0.114342 -1.221732,-0.379072 -1.221732,-0.624035 0,-0.233994 1.368001,-1.21095 3.040001,-2.171014 1.672,-0.960064 3.621449,-2.31417 4.332114,-3.009127 2.18158,-2.133363 2.63451,-1.744729 2.7865,2.390941 0.0448,1.217974 0.2342,2.264912 0.42097,2.326531 0.18678,0.06162 1.55478,-0.848569 3.04,-2.022637 3.87442,-3.062716 4.81637,-3.419699 8.58652,-3.25414 3.58883,0.157596 5.70594,1.029136 7.35259,3.026812 1.84288,2.235732 1.96053,3.063047 1.96894,13.845943 0.004,5.380646 0.14066,10.358995 0.30325,11.062995 0.35307,1.528771 1.61471,2.72 2.88079,2.72 1.2397,0 1.92833,0.297914 1.92833,0.834237 0,0.369561 -1.41904,0.445763 -8.30112,0.445763 -4.56561,0 -8.38003,-0.127683 -8.47647,-0.283741 -0.2779,-0.449641 0.50403,-0.905171 1.96817,-1.146614 0.74282,-0.122493 1.71482,-0.509226 2.16,-0.859405 l 0.80942,-0.636691 V 74.291782 c 0,-11.840198 -0.002,-11.852496 -2.51436,-13.633289 -1.1748,-0.832803 -1.65129,-0.955962 -4.1269,-1.066698 -2.47429,-0.110675 -2.96276,-0.03718 -4.21357,0.633997 -0.77816,0.417552 -1.85816,1.306714 -2.4,1.975914 l -0.98517,1.216726 -0.0922,10.658003 -0.0922,10.658 0.8553,0.672784 c 0.47042,0.370029 1.01589,0.673584 1.21215,0.674567 1.01139,0.0051 2.75685,0.722563 2.75685,1.133254 0,0.397443 -1.57098,0.46496 -10.818843,0.46496 -8.17601,0 -10.940551,-0.09771 -11.317082,-0.4 -0.274032,-0.22 -1.098099,-1.228 -1.831254,-2.24 -0.733159,-1.012 -1.49849,-1.84 -1.700737,-1.84 -0.202246,0 -1.41296,0.722573 -2.690473,1.605718 -3.47472,2.402074 -5.36346,3.187456 -7.674295,3.191156 -1.498323,0.0022 -2.205677,-0.165386 -3.04,-0.721098 z m 10.795613,-4.049728 c 1.212291,-0.739219 2.458483,-2.357184 2.952874,-3.833798 0.559283,-1.670439 0.478458,-7.219053 -0.112301,-7.709338 -1.432496,-1.188867 -6.33889,1.433558 -7.983904,4.267331 -1.418628,2.443783 -1.356215,5.114445 0.164707,7.047981 0.563024,0.71577 0.910147,0.841597 2.318915,0.840579 1.066128,-6.4e-4 2.014323,-0.219219 2.659709,-0.612755 z M 21.120001,73.12 C 21.717052,72.504 22.277548,72 22.365548,72 c 0.088,0 -0.328496,0.504 -0.925547,1.12 -0.59705,0.616 -1.157547,1.12 -1.245547,1.12 -0.088,0 0.328497,-0.504 0.925547,-1.12 z m 3.754667,-2.759709 c 0.217067,-0.218694 0.475277,-0.317014 0.573801,-0.218489 0.09852,0.09852 -0.07908,0.277456 -0.394667,0.397625 -0.456063,0.173658 -0.492819,0.136903 -0.179134,-0.179136 z m 11.225334,-1.138886 c 0.230999,-0.09244 0.506999,-0.08107 0.613335,0.02525 0.106332,0.106333 -0.08267,0.181965 -0.42,0.16807 -0.372784,-0.01536 -0.448608,-0.09118 -0.193335,-0.193331 z m -7.38,-0.313335 c 0.22,-0.08877 0.58,-0.08877 0.8,0 0.22,0.08877 0.04,0.161405 -0.4,0.161405 -0.44,0 -0.62,-0.07263 -0.4,-0.161405 z m 6.1,-0.0067 C 35.051,68.80893 35.327,68.8203 35.433336,68.92662 c 0.106333,0.106333 -0.08267,0.181965 -0.42,0.168071 -0.372784,-0.01536 -0.448608,-0.09118 -0.193334,-0.193331 z m -3.3756,-0.33103 c 0.48642,-0.07355 1.206419,-0.07159 1.6,0.0044 0.393581,0.07595 -0.0044,0.136134 -0.8844,0.133734 -0.88,-0.0026 -1.20202,-0.06455 -0.7156,-0.138102 z"
         id="path4870"
         inkscape:connector-curvature="0" />
      <path
         style="fill:#383838;stroke-width:0.32000002"
         d="m 132.52773,101.97751 c -0.23993,-0.28911 -0.42041,-6.463907 -0.57164,-19.557792 l -0.22099,-19.135296 -0.77674,-0.923097 c -0.51422,-0.611123 -1.20103,-0.990944 -2.03217,-1.12385 -1.64828,-0.263571 -1.31389,-0.644441 1.8828,-2.144557 1.3738,-0.644684 3.35578,-1.902697 4.40441,-2.795584 3.2338,-2.753507 3.6078,-2.709948 3.24212,0.377604 -0.20663,1.744668 0.16764,3.165062 0.834,3.165062 0.23394,0 1.65874,-0.782525 3.16623,-1.738944 3.45058,-2.189206 5.72396,-2.885885 8.6238,-2.642771 5.9574,0.499446 10.91748,5.714547 12.34978,12.984739 0.43216,2.193565 0.46496,3.104845 0.18238,5.066355 -0.89258,6.195687 -5.57121,11.511939 -12.04322,13.684522 -2.97833,0.999792 -5.39198,1.035539 -9.22112,0.136563 -1.56852,-0.368246 -3.06234,-0.588765 -3.31961,-0.490045 -0.38766,0.148762 -0.46775,1.222231 -0.46775,6.269539 0,7.477732 -0.17384,7.146182 4.15747,7.929362 0.97136,0.17564 1.47184,0.43838 1.54346,0.8103 0.0971,0.504 -0.37804,0.55038 -5.63829,0.55038 -4.36815,0 -5.82828,-0.10122 -6.09492,-0.42249 z M 148.503,86.229904 c 4.60153,-1.591517 7.84129,-6.284861 8.21202,-11.896502 0.39743,-6.015677 -1.99318,-11.270932 -6.26666,-13.775959 -1.31516,-0.770918 -1.87934,-0.885337 -4.84835,-0.983267 -3.10264,-0.102333 -3.4452,-0.05292 -4.47239,0.645117 -0.61181,0.415766 -1.43981,1.241805 -1.84,1.835645 -0.71652,1.063251 -0.72761,1.225542 -0.72761,10.648275 0,10.365328 0.0129,10.452128 1.81143,12.159136 1.91947,1.821824 5.21546,2.376141 8.13156,1.367555 z m -51.222994,9.75121 c 0,-0.186388 0.144,-0.249888 0.32,-0.141114 0.176,0.108774 0.32,0.261274 0.32,0.338886 0,0.07761 -0.144,0.141114 -0.32,0.141114 -0.176,0 -0.32,-0.152499 -0.32,-0.338886 z m -2.88,-3.2 c 0,-0.186388 0.144,-0.249888 0.32,-0.141114 0.176,0.108774 0.32,0.261274 0.32,0.338886 0,0.07761 -0.144,0.141114 -0.32,0.141114 -0.176,0 -0.32,-0.152499 -0.32,-0.338886 z M 1.1669556,90.351718 C 1.05313,89.005165 0.96000006,80.293165 0.96000006,70.991718 V 54.08 H 15.946667 c 8.242668,0 15.072269,0.0856 15.176891,0.190224 0.104623,0.104621 -1.074839,1.758051 -2.621026,3.674288 -9.494354,11.76663 -16.235171,24.127373 -17.972009,32.955555 -0.317721,1.614941 -0.446118,1.873655 -0.6527125,1.315175 C 9.6383458,91.567907 9.4095167,91.52 6.5569319,91.52 3.9355593,91.52 3.39406,91.6124 2.8062802,92.16 1.6406776,93.245923 1.3880497,92.967258 1.1669556,90.351718 Z m 1.3721505,0.713456 c 0.3097286,-0.3732 0.2593323,-0.423929 -0.2808177,-0.282675 -0.3620586,0.09468 -0.6582883,0.299351 -0.6582883,0.454823 0,0.431622 0.516617,0.336921 0.939106,-0.172148 z m 56.2808969,1.516231 c 0.230999,-0.09244 0.506999,-0.08107 0.613335,0.02525 0.106333,0.106333 -0.08267,0.181965 -0.42,0.16807 -0.372784,-0.01536 -0.448608,-0.09118 -0.193335,-0.193331 z M 61.52706,91.799056 C 61.300432,91.572429 59.78674,91.438845 57.459373,91.44008 L 53.752634,91.442 53.576208,90.600973 C 52.9496,87.613882 50.536614,81.112938 48.688982,77.434054 45.293708,70.67361 40.233746,62.994365 35.333922,57.165766 34.07557,55.66889 33.337343,54.534608 33.509455,54.362496 c 0.166173,-0.166173 6.539456,-0.25368 14.989818,-0.205818 L 63.200004,54.24 63.149293,72.713565 c -0.04407,16.057101 -0.114336,18.537197 -0.537142,18.96 -0.582189,0.582192 -0.6236,0.586982 -1.085091,0.125491 z m 7.945459,-4.491373 c -1.616537,-1.111424 -2.272515,-2.589888 -2.272515,-5.121859 0,-1.179286 0.153162,-2.549536 0.340358,-3.044992 0.830298,-2.197568 3.680327,-4.208733 9.844782,-6.947114 2.335446,-1.037456 4.6712,-2.283228 5.190563,-2.768387 l 0.944298,-0.882105 v -4.383252 c 0,-3.394006 -0.118067,-4.632064 -0.523149,-5.485708 -0.889866,-1.875252 -3.110026,-2.540202 -5.32713,-1.595508 -1.426336,0.607754 -2.36631,1.715764 -3.903037,4.600768 -1.415987,2.658333 -2.632938,3.753821 -4.574682,4.118096 -2.1084,0.395536 -2.819219,-0.829721 -1.724784,-2.973056 0.902547,-1.767542 4.222858,-4.798086 6.297453,-5.747865 3.908788,-1.789504 10.6089,-2.181485 13.725246,-0.802976 2.560518,1.13264 2.578794,1.232921 2.660198,14.596723 0.06519,10.701622 0.112385,11.567331 0.671639,12.32 1.124925,1.513965 3.782141,1.160518 5.358387,-0.712739 l 0.807178,-0.95928 -0.09366,-9.223687 c -0.06871,-6.76622 -0.198537,-9.328438 -0.487302,-9.616857 -0.216502,-0.216243 -0.996784,-0.475229 -1.733955,-0.575527 -0.737171,-0.100297 -1.393575,-0.342985 -1.458672,-0.539305 -0.0651,-0.196323 1.219177,-1.11448 2.853952,-2.040349 1.634774,-0.925872 3.650147,-2.313245 4.478613,-3.083053 2.38598,-2.217062 2.73806,-1.942579 2.89232,2.254845 0.0453,1.23399 0.23474,2.265101 0.42774,2.328787 0.1905,0.06286 1.4865,-0.772569 2.88,-1.856509 3.55425,-2.764672 5.19553,-3.479779 7.99557,-3.483648 4.33852,-0.006 7.43205,1.557341 9.01117,4.553876 l 0.88691,1.682998 0.16,11.04 c 0.11634,8.027584 0.26982,11.231984 0.56247,11.74359 0.59537,1.040788 1.68892,1.69641 2.82955,1.69641 0.9938,0 1.9236,0.657709 1.51187,1.069443 -0.11581,0.115805 -3.85856,0.210557 -8.31723,0.210557 -6.82311,0 -8.10666,-0.07259 -8.10666,-0.458435 0,-0.485623 0.40304,-0.660551 2.29231,-0.994922 0.64477,-0.114115 1.47277,-0.487401 1.84,-0.829526 0.65087,-0.606381 0.66769,-0.888109 0.66769,-11.185475 0,-11.300084 -0.022,-11.472567 -1.65396,-12.996368 C 115.16016,60.033322 113.47914,59.52 110.87439,59.52 c -2.61651,0 -3.80961,0.41592 -5.38295,1.876531 -1.90266,1.766327 -1.91393,1.841293 -1.9404,12.901296 l -0.0242,10.137827 0.74371,0.791642 c 0.40904,0.435405 1.27151,0.885062 1.91661,0.999235 1.89243,0.334941 2.2929,0.509466 2.2929,0.999235 0,0.396141 -1.57363,0.450535 -10.948503,0.378436 L 86.583,87.52 84.851035,85.36 c -0.952579,-1.188 -1.932022,-2.16 -2.176541,-2.16 -0.244518,0 -1.342307,0.654221 -2.439532,1.453824 -3.084628,2.247917 -5.180846,3.156019 -7.588875,3.287578 -1.775094,0.09698 -2.248201,0.0026 -3.173568,-0.633719 z m 10.495876,-3.931337 c 1.333498,-0.689578 2.838915,-2.557994 3.229383,-4.00808 0.18959,-0.704074 0.303648,-2.757965 0.253465,-4.564202 L 83.360005,71.52 82.314024,71.41928 c -1.311402,-0.126278 -4.005047,1.078269 -5.659328,2.530746 -1.385876,1.216816 -2.726832,3.795123 -2.731565,5.252086 -0.0047,1.454694 0.539981,3.053501 1.325011,3.88913 0.550931,0.586435 1.041635,0.748758 2.263533,0.748758 0.858061,0 1.963584,-0.208643 2.45672,-0.463654 z M 0.45721241,60.96 c 2.247e-4,-4.048 0.046084,-5.659875 0.10190957,-3.581946 0.0558256,2.07793 0.0556417,5.38993 -4.096e-4,7.36 C 0.5026632,66.708125 0.45698771,65.008 0.45721241,60.96 Z"
         id="path4868"
         inkscape:connector-curvature="0" />
      <path
         style="fill:#060606;stroke-width:0.32000002"
         d="m 134.72971,102.16164 c -0.96267,-0.066 -1.93467,-0.27297 -2.16,-0.45998 -0.32438,-0.26922 -0.4097,-4.233654 -0.4097,-19.036732 0,-15.961664 -0.07,-18.831978 -0.47818,-19.621395 C 131.06386,61.848509 130.00605,61.12 128.8888,61.12 c -1.51433,0 -0.99772,-0.498454 1.91121,-1.844051 1.67165,-0.773264 3.6382,-2.014909 4.88,-3.081146 1.144,-0.982265 2.188,-1.787933 2.32,-1.790371 0.132,-0.0026 0.24,0.991792 0.24,2.209395 0,1.217607 0.0874,2.441607 0.19423,2.72 0.34045,0.887191 1.63841,0.550279 4.11926,-1.069235 3.3216,-2.168368 5.04732,-2.694218 8.28398,-2.52425 2.18646,0.11482 2.92496,0.308538 4.61937,1.211725 6.16787,3.287712 9.57534,12.004643 7.42019,18.982205 -1.59037,5.14904 -6.72184,9.982698 -12.12505,11.421357 -2.13907,0.569549 -5.95441,0.439949 -8.80317,-0.299031 -3.01431,-0.781923 -2.59775,-0.761945 -3.20595,-0.15374 -0.41882,0.418816 -0.50286,1.438448 -0.50286,6.101036 0,6.951159 0.24558,7.562086 3.2,7.960556 1.84432,0.24875 2.96996,0.71111 2.71916,1.11691 -0.18817,0.30446 -5.49909,0.34968 -9.42946,0.0803 z m 14.8412,-16.18716 c 2.28621,-1.046656 4.66392,-3.474048 5.93204,-6.055981 3.41969,-6.962589 0.78222,-16.647101 -5.35432,-19.660531 C 148.5122,59.454378 147.98106,59.36 145.0951,59.36 c -3.06136,0 -3.28627,0.0468 -4.43483,0.922851 -2.28294,1.74128 -2.40621,2.382528 -2.40621,12.517149 0,8.073136 0.0593,9.090589 0.59913,10.279354 0.65403,1.44024 2.30569,2.92846 3.94326,3.553043 1.57618,0.601171 4.68339,0.299408 6.77446,-0.657917 z m -78.672583,1.70409 c -3.012211,-0.567914 -4.652963,-5.06601 -3.097213,-8.490957 0.32288,-0.710813 1.250663,-1.876515 2.061735,-2.590451 1.439651,-1.267229 2.518128,-1.854208 9.57009,-5.208656 4.308919,-2.049648 4.407712,-2.209604 4.40528,-7.132615 -0.0022,-4.284153 -0.305174,-5.577078 -1.597469,-6.815177 -0.80024,-0.766676 -1.224233,-0.918967 -2.504739,-0.899648 -2.632131,0.0397 -4.163805,1.189376 -5.674071,4.258934 -1.759421,3.575949 -3.169302,4.8 -5.528723,4.8 -0.968768,0 -1.295296,-0.140445 -1.418071,-0.609933 -0.270048,-1.032672 0.879204,-3.041238 2.829786,-4.945661 3.303536,-3.225363 7.19913,-4.504547 13.095073,-4.29998 3.862576,0.134012 5.165607,0.575763 6.156986,2.087318 0.504569,0.769318 0.579622,2.116867 0.723014,12.981526 l 0.16,12.123098 0.897844,0.771818 C 91.471663,84.132682 92.234815,84.48 92.67374,84.48 c 0.939075,0 2.552,-0.765795 3.566266,-1.693213 0.715696,-0.654413 0.72,-0.715094 0.72,-10.152973 0,-10.643193 0.05837,-10.376864 -2.360311,-10.769363 -0.63783,-0.103504 -1.15969,-0.305808 -1.15969,-0.449561 0,-0.143757 1.260001,-0.946816 2.800001,-1.78458 1.54,-0.837766 3.462934,-2.141305 4.273184,-2.896758 2.21723,-2.06727 2.48383,-1.920685 2.59436,1.426448 0.085,2.57359 0.14726,2.807821 0.77017,2.896714 0.4386,0.06259 1.45474,-0.530781 2.88,-1.681767 C 110.22595,56.574141 111.60869,56 114.88583,56 c 4.40518,0 7.16109,1.34928 8.72346,4.270954 0.68465,1.280307 0.71659,1.733907 0.87072,12.369046 0.15077,10.403142 0.19793,11.104566 0.81751,12.159283 0.76844,1.30809 1.80072,1.909418 3.28915,1.916 0.70965,0.0032 1.02204,0.138599 0.93334,0.404717 -0.10186,0.305584 -1.99645,0.4 -8.02667,0.4 -8.09395,0 -9.52475,-0.240432 -6.23245,-1.047309 1.03145,-0.252787 1.98204,-0.733129 2.41912,-1.2224 0.7146,-0.799942 0.72,-0.882035 0.72,-10.960329 0,-9.89482 -0.0184,-10.190781 -0.72,-11.579575 -1.15161,-2.279584 -3.51341,-3.504893 -6.76288,-3.508601 -3.14029,-0.0036 -5.678,1.409337 -6.92641,3.856419 -0.58798,1.152544 -0.63071,1.917126 -0.63071,11.285891 0,11.689232 -0.0763,11.386477 3.04627,12.08528 1.05791,0.236749 1.75373,0.56271 1.75373,0.821546 0,0.594592 -20.275928,0.611452 -21.330078,0.01773 -0.379543,-0.213764 -1.351242,-1.28866 -2.159338,-2.38866 -0.808096,-1.1 -1.65352,-2 -1.878724,-2 -0.225203,0 -1.4135,0.724912 -2.640662,1.610916 -3.875463,2.798057 -6.508359,3.7051 -9.252881,3.187654 z m 8.680846,-3.858928 c 1.228953,-0.46433 2.585456,-1.802301 3.385897,-3.339642 0.959367,-1.842573 1.227537,-8.081683 0.383642,-8.925581 -1.59744,-1.597437 -7.599655,1.807485 -8.970711,5.088887 -0.971961,2.32623 -0.367469,5.911401 1.179402,6.994873 0.852096,0.596829 2.701549,0.680279 4.02177,0.181463 z"
         id="path4866"
         inkscape:connector-curvature="0" />
    </g>
  </g>
</svg>
