<?xml version="1.0" encoding="UTF-8" standalone="no"?>
<!-- Created with Inkscape (http://www.inkscape.org/) -->

<svg
   xmlns:dc="http://purl.org/dc/elements/1.1/"
   xmlns:cc="http://creativecommons.org/ns#"
   xmlns:rdf="http://www.w3.org/1999/02/22-rdf-syntax-ns#"
   xmlns:svg="http://www.w3.org/2000/svg"
   xmlns="http://www.w3.org/2000/svg"
   xmlns:sodipodi="http://sodipodi.sourceforge.net/DTD/sodipodi-0.dtd"
   xmlns:inkscape="http://www.inkscape.org/namespaces/inkscape"
   width="25.030617mm"
   height="26.372843mm"
   viewBox="0 0 25.030617 26.372843"
   version="1.1"
   id="svg7214"
   inkscape:version="0.92.4 (5da689c313, 2019-01-14)"
   sodipodi:docname="anvisa.svg">
  <defs
     id="defs7208" />
  <sodipodi:namedview
     id="base"
     pagecolor="#ffffff"
     bordercolor="#666666"
     borderopacity="1.0"
     inkscape:pageopacity="0.0"
     inkscape:pageshadow="2"
     inkscape:zoom="1.4"
     inkscape:cx="-6.7980704"
     inkscape:cy="67.189435"
     inkscape:document-units="mm"
     inkscape:current-layer="layer1"
     showgrid="false"
     inkscape:window-width="1920"
     inkscape:window-height="1001"
     inkscape:window-x="-9"
     inkscape:window-y="-9"
     inkscape:window-maximized="1" />
  <metadata
     id="metadata7211">
    <rdf:RDF>
      <cc:Work
         rdf:about="">
        <dc:format>image/svg+xml</dc:format>
        <dc:type
           rdf:resource="http://purl.org/dc/dcmitype/StillImage" />
        <dc:title></dc:title>
      </cc:Work>
    </rdf:RDF>
  </metadata>
  <g
     inkscape:label="Layer 1"
     inkscape:groupmode="layer"
     id="layer1"
     transform="translate(38.371323,-148.97058)">
    <g
       transform="matrix(0.2216902,0,0,0.2216902,-49.254519,145.43911)"
       id="g7176">
      <path
         style="fill:#d5d5d5"
         d="M 99.759919,133.71756 C 98.043656,132.35499 94,121.99643 94,118.96249 c 0,-3.78201 3.770728,-2.30398 5.835855,2.28751 l 1.911535,4.25 1.15597,-3 c 0.63579,-1.65 1.35351,-3.5625 1.59493,-4.25 0.24142,-0.6875 1.35306,-1.25 2.47033,-1.25 2.68119,0 2.61098,2.21474 -0.31714,10.00374 -2.55095,6.78566 -4.45932,8.64482 -6.891561,6.71382 z m 24.516211,-1.35052 c -2.53241,-2.53241 -2.56137,-2.6853 -0.75829,-4.00374 1.45481,-1.06379 1.60675,-1.63871 0.67841,-2.56705 -1.54377,-1.54377 -1.54154,-6.05096 0.004,-7.59625 0.66,-0.66 2.87786,-1.2 4.92857,-1.2 4.8918,0 8.78236,3.70094 5.81709,5.53358 -0.70091,0.43319 -0.53331,1.44681 0.5,3.02384 2.18818,3.33958 1.94635,4.98906 -1.08052,7.37 -3.55339,2.7951 -6.92056,2.60807 -10.08901,-0.56038 z M 130.5,129 c -0.33992,-0.55 -1.29303,-1 -2.11803,-1 -0.825,0 -1.22189,0.45 -0.88197,1 0.33992,0.55 1.29303,1 2.11803,1 0.825,0 1.22189,-0.45 0.88197,-1 z M 55,132.58898 c 0,-1.77079 4.021857,-12.65903 5.29648,-14.33898 2.188616,-2.88459 4.781213,-1.32318 7.3146,4.40525 1.375562,3.11039 2.757049,6.93539 3.069971,8.5 C 71.15479,133.52395 70.914886,134 69.247445,134 68.146039,134 66.684689,133.325 66,132.5 65.315311,131.675 63.965311,131 63,131 c -0.965311,0 -2.315311,0.675 -3,1.5 -1.574752,1.89746 -5,1.95842 -5,0.089 z m 20.666667,0.74435 c -0.833496,-0.83349 -0.881142,-12.61084 -0.05968,-14.75154 0.995096,-2.59318 4.345393,-1.82895 6.189521,1.41189 2.117922,3.72199 2.980785,3.78729 3.387068,0.25632 0.227577,-1.97786 0.877979,-2.75 2.316422,-2.75 1.833333,0 2,0.66667 2,8 0,7.46623 -0.145905,8.02077 -2.186802,8.31127 -1.459856,0.2078 -2.744678,-0.54016 -3.86501,-2.25 C 81.322143,128.31651 80,128.29302 80,131.5 c 0,1.75758 -0.544444,2.5 -1.833333,2.5 -1.008334,0 -2.133334,-0.3 -2.5,-0.66667 z m 38.000003,0 c -0.98553,-0.98553 -0.78025,-13.60559 0.24772,-15.22905 0.48607,-0.76764 1.60418,-1.11926 2.48469,-0.78138 1.28401,0.49272 1.60092,2.20417 1.60092,8.64572 0,7.12134 -0.20774,8.03138 -1.83333,8.03138 -1.00834,0 -2.13334,-0.3 -2.5,-0.66667 z m 27.05182,0.0518 c -0.70834,-0.70833 3.75389,-13.04448 5.46362,-15.10458 2.40188,-2.89408 4.87994,-0.94834 7.88422,6.19058 1.61352,3.83414 2.93367,7.54664 2.93367,8.25 0,1.76396 -3.48026,1.61002 -5,-0.22115 -0.68469,-0.825 -2.26664,-1.5 -3.51546,-1.5 -1.24881,0 -2.52958,0.675 -2.84617,1.5 -0.57197,1.49053 -3.74385,2.06119 -4.91988,0.88515 z M 85.481577,106.75 C 85.230968,106.0625 84.907591,100.1 84.762962,93.5 L 84.5,81.5 71.105995,81 C 60.236036,80.594223 57.520692,80.195834 56.696848,78.885923 56.13852,77.99818 55.964199,76.53568 56.309468,75.635923 56.845646,74.238666 58.814076,74 69.801949,74 76.877544,74 82.928369,73.738297 83.248228,73.418439 83.568087,73.09858 83.193087,71.313033 82.414895,69.450557 80.726899,65.410615 80.564148,61 82.103071,61 c 0.606688,0 3.397856,2.063209 6.202593,4.58491 5.214182,4.687997 25.055876,15.147242 29.682296,15.646567 2.14878,0.231916 2.55776,-0.208625 3,-3.231477 L 121.5,74.5 h 18.20455 c 17.90872,0 18.2212,-0.03656 19.22856,-2.25 C 160.12329,69.634887 162,69.256696 162,71.631966 c 0,2.859291 -4.04386,8.303134 -8.34024,11.227617 -5.57814,3.796961 -12.41148,6.270512 -19.39613,7.021069 L 128.5,90.5 l -0.29795,7.455318 c -0.32257,8.071262 -1.37047,10.306442 -4.61454,9.842942 C 121.7065,107.5295 121.45054,106.66541 121,99.063104 l -0.5,-8.436897 -7.24634,-1.217134 C 109.26818,88.73965 103.03015,86.798753 99.391388,85.09597 95.752623,83.393186 92.600975,82 92.387726,82 92.174477,82 92,87.31 92,93.8 c 0,7.84444 -0.40226,12.20226 -1.2,13 -1.569172,1.56917 -4.739061,1.53937 -5.318423,-0.05 z M 143.57418,83.877005 C 151.20292,81.956066 149.53631,81 138.55902,81 130.08108,81 128,81.281184 128,82.426676 c 0,2.561446 8.14812,3.320231 15.57418,1.450329 z M 104,69.280562 C 100.69588,68.08769 99,65.618305 99,62 c 0,-8.018917 10.59711,-10.569196 13.88973,-3.342675 1.60036,3.51241 1.39199,4.921261 -1.13973,7.706098 -2.43145,2.674536 -5.36424,3.778457 -7.75,2.917139 z M 122.30756,58.078944 C 117.05251,53.175705 101.17302,44.584604 95.131841,43.376368 92.440214,42.838043 92,43.037196 92,44.793213 92,49.984023 91.945546,50 74.253254,50 59.908253,50 57.557527,49.777141 56.489021,48.315873 c -1.095203,-1.49778 -1.545376,-1.193494 -4.068469,2.75 -2.181058,3.408909 -2.924941,4.01122 -3.217335,2.605029 C 47.974979,47.764025 57.08816,39.171528 67.836699,36.102047 71.501515,35.055479 76.75,33.816877 79.5,33.349598 L 84.5,32.5 85,24.5 c 0.447429,-7.158861 0.719485,-8.031359 2.587505,-8.298257 3.236741,-0.462457 4.291546,1.768141 4.614541,9.758382 l 0.297954,7.37076 6,1.254396 c 7.79936,1.630581 13.93451,3.875866 17.47044,6.393671 C 117.53151,42.090528 119.30177,43 119.90437,43 120.64249,43 121,38.747815 121,29.968615 c 0,-11.142175 0.23717,-13.122394 1.63592,-13.659147 0.89976,-0.345269 2.36226,-0.170473 3.25,0.388435 1.32004,0.831077 1.66503,3.314268 1.89375,13.631121 l 0.27967,12.614923 13.72033,0.278027 L 155.5,43.5 v 3 3 l -14,0.5 c -8.62529,0.308046 -13.89068,0.883908 -13.71524,1.5 0.15662,0.55 0.78023,2.653718 1.3858,4.67493 1.08063,3.606831 0.65413,6.862242 -0.88918,6.786948 -0.42976,-0.02097 -3.11798,-2.218287 -5.97382,-4.882934 z M 84.501157,41.998127 C 86.785445,38.302072 66.368901,38.231099 62.677736,41.922264 61.907421,42.692579 64.777936,43 72.740983,43 c 6.362515,0 11.40656,-0.429712 11.760174,-1.001873 z"
         id="path7190"
         inkscape:connector-curvature="0" />
      <path
         style="fill:#aeaeae"
         d="M 99.759919,133.71756 C 98.043656,132.35499 94,121.99643 94,118.96249 c 0,-3.78201 3.770728,-2.30398 5.835855,2.28751 l 1.911535,4.25 1.15597,-3 c 0.63579,-1.65 1.35351,-3.5625 1.59493,-4.25 0.24142,-0.6875 1.35306,-1.25 2.47033,-1.25 2.68119,0 2.61098,2.21474 -0.31714,10.00374 -2.55095,6.78566 -4.45932,8.64482 -6.891561,6.71382 z m 24.516211,-1.35052 c -2.53241,-2.53241 -2.56137,-2.6853 -0.75829,-4.00374 1.45481,-1.06379 1.60675,-1.63871 0.67841,-2.56705 -1.54377,-1.54377 -1.54154,-6.05096 0.004,-7.59625 0.66,-0.66 2.87786,-1.2 4.92857,-1.2 4.8918,0 8.78236,3.70094 5.81709,5.53358 -0.70091,0.43319 -0.53331,1.44681 0.5,3.02384 2.18818,3.33958 1.94635,4.98906 -1.08052,7.37 -3.55339,2.7951 -6.92056,2.60807 -10.08901,-0.56038 z M 130.5,129 c -0.33992,-0.55 -1.29303,-1 -2.11803,-1 -0.825,0 -1.22189,0.45 -0.88197,1 0.33992,0.55 1.29303,1 2.11803,1 0.825,0 1.22189,-0.45 0.88197,-1 z M 55,132.58898 c 0,-1.77079 4.021857,-12.65903 5.29648,-14.33898 2.188616,-2.88459 4.781213,-1.32318 7.3146,4.40525 1.375562,3.11039 2.757049,6.93539 3.069971,8.5 C 71.15479,133.52395 70.914886,134 69.247445,134 68.146039,134 66.684689,133.325 66,132.5 65.315311,131.675 63.965311,131 63,131 c -0.965311,0 -2.315311,0.675 -3,1.5 -1.574752,1.89746 -5,1.95842 -5,0.089 z m 20.666667,0.74435 c -0.833496,-0.83349 -0.881142,-12.61084 -0.05968,-14.75154 0.995096,-2.59318 4.345393,-1.82895 6.189521,1.41189 2.117922,3.72199 2.980785,3.78729 3.387068,0.25632 0.227577,-1.97786 0.877979,-2.75 2.316422,-2.75 1.833333,0 2,0.66667 2,8 0,7.46623 -0.145905,8.02077 -2.186802,8.31127 -1.459856,0.2078 -2.744678,-0.54016 -3.86501,-2.25 C 81.322143,128.31651 80,128.29302 80,131.5 c 0,1.75758 -0.544444,2.5 -1.833333,2.5 -1.008334,0 -2.133334,-0.3 -2.5,-0.66667 z m 38.000003,0 c -0.98553,-0.98553 -0.78025,-13.60559 0.24772,-15.22905 0.48607,-0.76764 1.60418,-1.11926 2.48469,-0.78138 1.28401,0.49272 1.60092,2.20417 1.60092,8.64572 0,7.12134 -0.20774,8.03138 -1.83333,8.03138 -1.00834,0 -2.13334,-0.3 -2.5,-0.66667 z m 27.05182,0.0518 c -0.70834,-0.70833 3.75389,-13.04448 5.46362,-15.10458 2.40188,-2.89408 4.87994,-0.94834 7.88422,6.19058 1.61352,3.83414 2.93367,7.54664 2.93367,8.25 0,1.76396 -3.48026,1.61002 -5,-0.22115 -0.68469,-0.825 -2.26664,-1.5 -3.51546,-1.5 -1.24881,0 -2.52958,0.675 -2.84617,1.5 -0.57197,1.49053 -3.74385,2.06119 -4.91988,0.88515 z M 85.481577,106.75 C 85.230968,106.0625 84.907591,100.1 84.762962,93.5 L 84.5,81.5 71.105995,81 C 60.236036,80.594223 57.520692,80.195834 56.696848,78.885923 56.13852,77.99818 55.964199,76.53568 56.309468,75.635923 56.850809,74.225212 58.937715,74 71.468615,74 79.460877,74 86,73.826438 86,73.614307 c 0,-0.212131 -0.672228,-1.674631 -1.493839,-3.25 C 82.870552,67.228169 82.525394,64 83.825686,64 c 0.454127,0 1.916627,1.16767 3.25,2.594821 3.254751,3.483665 13.760974,9.638718 22.811854,13.364285 10.05111,4.137286 10.9249,4.043831 11.30496,-1.209106 L 121.5,74.5 h 17 17 l 0.33749,2.38691 c 0.18562,1.3128 -0.26438,2.76841 -1,3.234687 -0.73562,0.466278 -7.02251,0.854668 -13.97086,0.86309 -11.65991,0.01413 -12.6725,0.164961 -13.14124,1.957408 C 127.03008,85.600973 127.66717,86 132.60765,86 c 2.35087,0 4.51857,0.395211 4.8171,0.878246 0.55353,0.895621 -3.96159,2.12298 -7.79975,2.120233 -2.00279,-0.0014 -2.125,0.495286 -2.125,8.636991 0,9.08898 -1.15572,11.47809 -4.86408,10.05506 C 121.29278,107.17512 121,105.48721 121,98.259343 v -8.803427 l -7.99829,-1.653868 C 106.43217,86.443613 100.99762,84.407527 92.75,80.214617 92.3375,80.004911 92,85.630833 92,92.716667 92,101.4037 91.609142,105.99086 90.8,106.8 c -1.569172,1.56917 -4.739061,1.53937 -5.318423,-0.05 z M 104,69.280562 C 100.69588,68.08769 99,65.618305 99,62 c 0,-8.018917 10.59711,-10.569196 13.88973,-3.342675 1.60036,3.51241 1.39199,4.921261 -1.13973,7.706098 -2.43145,2.674536 -5.36424,3.778457 -7.75,2.917139 z M 122.5,56.053611 C 117.56302,51.919695 100.08741,42.717281 94.75,41.440844 92.210875,40.833614 92,41.015271 92,43.809805 92,50.133325 92.388538,50 73.960399,50 57.881616,50 57.105923,49.909096 56.484769,47.952012 55.17609,43.82873 57.340243,43.07484 71.336582,42.778336 82.933838,42.532655 84.514759,42.294331 84.811561,40.746976 85.193948,38.753431 84.460139,38.422722 77.5,37.451841 c -3.901275,-0.544195 -4.56051,-0.874771 -3,-1.504364 1.1,-0.443799 3.9125,-0.838535 6.25,-0.877192 L 85,35 v -9.031385 c 0,-7.438911 0.288457,-9.142076 1.635923,-9.659147 C 90.330759,14.891626 91.5,17.280948 91.5,26.249122 v 8.523104 l 6.935882,1.237923 c 4.117488,0.734893 9.979488,2.812919 14.425998,5.113887 C 116.98144,43.255816 120.4978,45 120.676,45 120.8542,45 121,38.685877 121,30.968615 c 0,-12.067992 0.22891,-14.119227 1.63592,-14.659147 0.89976,-0.345269 2.36226,-0.170473 3.25,0.388435 1.32004,0.831077 1.66503,3.314268 1.89375,13.631121 l 0.27967,12.614923 13.72033,0.278027 L 155.5,43.5 v 3 3 l -15.25,0.276046 c -8.3875,0.151825 -15.25,0.420188 -15.25,0.596362 0,0.176174 0.70799,1.739507 1.5733,3.474073 2.97853,5.970594 1.42596,6.811858 -4.0733,2.20713 z"
         id="path7188"
         inkscape:connector-curvature="0" />
      <path
         style="fill:#a3a3a3"
         d="m 125.75,132.9199 c -0.9625,-0.5606 -1.75,-1.67192 -1.75,-2.46959 0,-1.65767 1.57813,-1.94193 2.5,-0.45031 0.33992,0.55 1.71648,1 3.05902,1 3.69199,0 2.96923,-2.57716 -1.30902,-4.66764 -3.9899,-1.94958 -5.18194,-4.50452 -3.21013,-6.8804 1.5414,-1.85727 7.3566,-1.88409 8.88624,-0.041 1.57315,1.89553 -0.48166,3.20278 -2.45718,1.56324 C 129.93157,119.69832 127,120.29976 127,121.89106 c 0,0.52461 1.57845,1.47477 3.50768,2.11147 4.17981,1.37947 6.01535,4.15167 4.55528,6.87982 -1.65163,3.08611 -5.91226,4.01828 -9.31296,2.03755 z M 56,132.01052 c 0,-0.54421 1.172853,-3.91921 2.60634,-7.5 2.548178,-6.36523 4.186935,-7.77931 6.096363,-5.26052 C 65.824795,120.73019 70,130.88454 70,132.13335 c 0,1.47288 -2.752385,0.95431 -3.361626,-0.63335 -0.329111,-0.85765 -1.821311,-1.5 -3.484544,-1.5 -1.599918,0 -3.469141,0.675 -4.15383,1.5 -1.418716,1.70945 -3,1.97854 -3,0.51052 z M 64,125.5 c 0,-0.825 -0.423442,-1.5 -0.940983,-1.5 -1.260978,0 -2.164095,1.56159 -1.365164,2.36052 C 62.820037,127.4867 64,127.04641 64,125.5 Z m 12.666667,6.83333 c -0.993971,-0.99397 -0.775965,-11.6122 0.27243,-13.26903 0.769417,-1.21594 1.159828,-1.22709 2.550624,-0.0728 0.903184,0.74958 2.299037,2.63314 3.101896,4.1857 1.995318,3.85852 3.22823,3.54081 3.598018,-0.92717 0.525272,-6.34662 2.310365,-3.65294 2.310365,3.4863 0,8.0151 -1.726695,9.25291 -5.259193,3.77017 C 80.373479,125.05612 79,125.05403 79,129.5 c 0,3.30921 -0.838852,4.32781 -2.333333,2.83333 z M 99.54585,132.07419 C 98.705025,130.7137 95,119.93019 95,118.84345 c 0,-2.40214 2.306882,-0.29334 4,3.65655 1.06091,2.475 2.32369,4.5 2.80617,4.5 0.48249,0 1.41089,-1.78111 2.06311,-3.95802 1.16627,-3.89269 2.7176,-5.78843 3.82807,-4.67796 0.31037,0.31036 -0.50707,3.61318 -1.81653,7.33959 -2.27056,6.46154 -4.74245,8.94732 -6.33497,6.37058 z m 14.86874,-0.43616 c -0.86443,-2.25267 0.01,-12.64301 1.08541,-12.89953 0.57694,-0.1376 1.1243,2.8287 1.29381,7.0115 0.18994,4.68686 -0.0863,7.25 -0.78139,7.25 -0.59135,0 -1.31038,-0.61289 -1.59783,-1.36197 z M 142,131.66987 c 0,-2.89107 4.90249,-13.18862 6.4258,-13.49721 1.12501,-0.2279 2.3278,1.29093 3.95959,5 3.67297,8.34872 3.99655,9.82734 2.15061,9.82734 -0.87932,0 -1.85779,-0.675 -2.17437,-1.5 -0.32,-0.83389 -1.80594,-1.5 -3.34617,-1.5 -1.52382,0 -3.33077,0.675 -4.01546,1.5 -1.54132,1.85717 -3,1.93977 -3,0.16987 z M 150,125.5 c 0,-0.825 -0.675,-1.5 -1.5,-1.5 -0.825,0 -1.5,0.675 -1.5,1.5 0,0.825 0.675,1.5 1.5,1.5 0.825,0 1.5,-0.675 1.5,-1.5 z M 86.481577,105.75 C 86.230968,105.0625 85.907591,99.1 85.762962,92.5 L 85.5,80.5 72.348928,80.221664 C 62.438217,80.011908 58.905873,79.59151 58.012838,78.515469 55.616114,75.627593 58.023886,75 71.5,75 c 7.360081,0 13.631136,-0.403165 13.935676,-0.895922 0.304541,-0.492757 -0.116129,-2.180257 -0.934822,-3.75 C 82.869818,67.226767 82.52695,64 83.825686,64 c 0.454127,0 1.916627,1.16767 3.25,2.594821 C 92.114192,71.987697 113.97198,83 119.63754,83 121.72708,83 122,82.537901 122,79 v -4 h 16.5 16.5 v 2.5 2.5 h -14.06642 -14.06642 l 0.31642,2.75 c 0.27975,2.431304 0.77998,2.783027 4.31642,3.034991 5.80977,0.413933 7.59631,1.308388 4.5,2.252977 -1.375,0.41947 -3.9625,0.807528 -5.75,0.862352 L 127,89 v 7.877555 c 0,5.878525 -0.3914,8.202385 -1.54238,9.157615 -2.47547,2.05446 -3.34245,0.0501 -3.66112,-8.464079 L 121.5,89.649179 113,87.830498 C 108.325,86.830224 101.74478,84.659158 98.377285,83.005909 95.009792,81.352659 91.972292,80 91.627285,80 91.282278,80 91,85.535 91,92.3 c 0,8.23333 -0.396748,12.69675 -1.2,13.5 -1.543353,1.54335 -2.744205,1.52526 -3.318423,-0.05 z M 101.65499,66.171259 C 97.023216,61.05321 102.57623,53.249898 108.74584,56.206916 115.03637,59.22189 113.4629,68 106.63193,68 c -1.94826,0 -4.00632,-0.756218 -4.97694,-1.828741 z M 122.5,56.053611 C 117.15958,51.581886 99.590924,42.451608 94.317018,41.407165 c -3.100484,-0.61402 -3.191198,-0.530272 -3.5,3.231239 L 90.5,48.5 H 74 c -15.833333,0 -16.5,-0.08081 -16.5,-2 0,-1.888792 0.759197,-2.015435 13.653599,-2.277592 C 82.575262,43.990194 84.907512,43.683404 85.420852,42.34566 86.323865,39.992447 84.19042,38.013874 80.627555,37.90032 78.9074,37.845496 76.375,37.462101 75,37.048331 c -2.390437,-0.719339 -2.346612,-0.780093 1,-1.386262 1.925,-0.348673 4.85,-0.752778 6.5,-0.89801 L 85.5,34.5 85.796502,26.503498 C 86.114828,17.91839 86.97747,15.906486 89.457618,17.964826 90.603644,18.915943 91,21.228081 91,26.962292 v 7.717402 l 7.185882,1.284189 c 4.369518,0.780876 10.121488,2.803298 14.675998,5.160153 C 116.98144,43.255816 120.7228,45 121.176,45 121.6292,45 122,38.951558 122,31.559017 c 0,-7.392541 0.40939,-13.694001 0.90976,-14.003244 0.50036,-0.309244 1.61224,-0.292692 2.47084,0.03678 1.27947,0.490981 1.61144,2.881752 1.84024,13.253244 L 127.5,43.5 141,44 c 12.66667,0.469136 13.5,0.623457 13.5,2.5 0,1.897097 -0.75891,2.014238 -14.75,2.276733 -8.1125,0.152203 -14.75,0.645566 -14.75,1.096362 0,0.450796 0.70799,2.23882 1.5733,3.973386 2.97853,5.970594 1.42596,6.811858 -4.0733,2.20713 z"
         id="path7186"
         inkscape:connector-curvature="0" />
      <path
         style="fill:#8e8e8e"
         d="m 125.75,132.9199 c -0.9625,-0.5606 -1.75,-1.67192 -1.75,-2.46959 0,-1.65767 1.57813,-1.94193 2.5,-0.45031 0.33992,0.55 1.71648,1 3.05902,1 3.69199,0 2.96923,-2.57716 -1.30902,-4.66764 -3.9899,-1.94958 -5.18194,-4.50452 -3.21013,-6.8804 1.5414,-1.85727 7.3566,-1.88409 8.88624,-0.041 1.57315,1.89553 -0.48166,3.20278 -2.45718,1.56324 C 129.93157,119.69832 127,120.29976 127,121.89106 c 0,0.52461 1.57845,1.47477 3.50768,2.11147 4.17981,1.37947 6.01535,4.15167 4.55528,6.87982 -1.65163,3.08611 -5.91226,4.01828 -9.31296,2.03755 z M 56,132.01052 c 0,-0.54421 1.172853,-3.91921 2.60634,-7.5 2.548178,-6.36523 4.186935,-7.77931 6.096363,-5.26052 C 65.824795,120.73019 70,130.88454 70,132.13335 c 0,1.47288 -2.752385,0.95431 -3.361626,-0.63335 -0.329111,-0.85765 -1.821311,-1.5 -3.484544,-1.5 -1.599918,0 -3.469141,0.675 -4.15383,1.5 -1.418716,1.70945 -3,1.97854 -3,0.51052 z M 64,125.5 c 0,-0.825 -0.423442,-1.5 -0.940983,-1.5 -1.260978,0 -2.164095,1.56159 -1.365164,2.36052 C 62.820037,127.4867 64,127.04641 64,125.5 Z m 12.666667,6.83333 c -0.993971,-0.99397 -0.775965,-11.6122 0.27243,-13.26903 0.769417,-1.21594 1.159828,-1.22709 2.550624,-0.0728 0.903184,0.74958 2.299037,2.63314 3.101896,4.1857 1.995318,3.85852 3.22823,3.54081 3.598018,-0.92717 0.525272,-6.34662 2.310365,-3.65294 2.310365,3.4863 0,8.0151 -1.726695,9.25291 -5.259193,3.77017 C 80.373479,125.05612 79,125.05403 79,129.5 c 0,3.30921 -0.838852,4.32781 -2.333333,2.83333 z M 99.54585,132.07419 C 98.705025,130.7137 95,119.93019 95,118.84345 c 0,-2.40214 2.306882,-0.29334 4,3.65655 1.06091,2.475 2.32369,4.5 2.80617,4.5 0.48249,0 1.41089,-1.78111 2.06311,-3.95802 1.16627,-3.89269 2.7176,-5.78843 3.82807,-4.67796 0.31037,0.31036 -0.50707,3.61318 -1.81653,7.33959 -2.27056,6.46154 -4.74245,8.94732 -6.33497,6.37058 z m 14.86874,-0.43616 c -0.86443,-2.25267 0.01,-12.64301 1.08541,-12.89953 0.57694,-0.1376 1.1243,2.8287 1.29381,7.0115 0.18994,4.68686 -0.0863,7.25 -0.78139,7.25 -0.59135,0 -1.31038,-0.61289 -1.59783,-1.36197 z M 142,131.66987 c 0,-2.89107 4.90249,-13.18862 6.4258,-13.49721 1.12501,-0.2279 2.3278,1.29093 3.95959,5 3.67297,8.34872 3.99655,9.82734 2.15061,9.82734 -0.87932,0 -1.85779,-0.675 -2.17437,-1.5 -0.32,-0.83389 -1.80594,-1.5 -3.34617,-1.5 -1.52382,0 -3.33077,0.675 -4.01546,1.5 -1.54132,1.85717 -3,1.93977 -3,0.16987 z M 150,125.5 c 0,-0.825 -0.675,-1.5 -1.5,-1.5 -0.825,0 -1.5,0.675 -1.5,1.5 0,0.825 0.675,1.5 1.5,1.5 0.825,0 1.5,-0.675 1.5,-1.5 z M 86.481577,105.75 C 86.230968,105.0625 85.907591,99.1 85.762962,92.5 L 85.5,80.5 72.348928,80.221664 C 62.074907,80.004219 58.922962,79.612101 57.941309,78.429282 c -0.752355,-0.906533 -0.892363,-1.877987 -0.348927,-2.421061 0.49919,-0.498859 7.127964,-0.977372 14.730609,-1.063362 13.122268,-0.148419 13.946022,-0.04076 16.25,2.123712 C 90.893792,79.248851 91,79.901139 91,91.974314 91,100.46096 90.606608,104.99339 89.8,105.8 c -1.543353,1.54335 -2.744205,1.52526 -3.318423,-0.05 z m 36.185093,0.58333 c -1.01471,-1.0147 -0.79562,-16.135601 0.24309,-16.777557 0.50036,-0.309244 1.62536,-0.287657 2.5,0.04797 1.24971,0.479559 1.59024,2.150532 1.59024,7.803245 0,7.730802 -1.80687,11.452812 -4.33333,8.926342 z M 123.75,84.310674 C 122.41576,83.962001 122,82.801673 122,79.426676 V 75 h 16.5 16.5 v 2.5 2.5 h -14 -14 v 2.5 c 0,2.537945 -0.14911,2.621021 -3.25,1.810674 z M 101.65499,66.171259 C 97.023216,61.05321 102.57623,53.249898 108.74584,56.206916 115.03637,59.22189 113.4629,68 106.63193,68 c -1.94826,0 -4.00632,-0.756218 -4.97694,-1.828741 z M 57.389548,47.572763 C 56.203792,44.482733 58.109192,44 71.491629,44 c 12.621594,0 13.41033,-0.115739 14.026873,-2.058296 0.443787,-1.398249 1.347257,-1.959432 2.817388,-1.75 C 90.142636,40.44909 90.5,41.160529 90.5,44.5 v 4 L 74.228161,48.774876 C 60.62295,49.004705 57.863439,48.807703 57.389548,47.572763 Z m 65.648722,-0.02665 c -1.3986,-1.685202 -1.53754,-28.44517 -0.15489,-29.828893 0.4302,-0.43053 1.51931,-0.499921 2.42024,-0.154201 1.37645,0.528193 1.68264,2.649526 1.91722,13.282782 L 127.5,43.5 141,44 c 12.66667,0.469136 13.5,0.623457 13.5,2.5 0,1.89959 -0.75842,2.01382 -15.10658,2.275273 -12.46599,0.227157 -15.32483,0.0123 -16.35515,-1.229163 z M 86,26.059017 C 86,17.957434 86.925138,15.863054 89.543805,18.036355 90.577936,18.894607 91,21.383204 91,26.622445 91,33.82517 90.940756,34 88.5,34 86.043215,34 86,33.862732 86,26.059017 Z"
         id="path7184"
         inkscape:connector-curvature="0" />
      <path
         style="fill:#757575"
         d="m 126.25,132.99037 c -1.2375,-0.50926 -2.25,-1.61542 -2.25,-2.45815 0,-1.72446 1.55814,-2.05618 2.5,-0.53222 0.33992,0.55 1.71648,1 3.05902,1 3.69199,0 2.96923,-2.57716 -1.30902,-4.66764 -3.9899,-1.94958 -5.18194,-4.50452 -3.21013,-6.8804 1.63374,-1.96854 7.84991,-1.90276 8.61505,0.0912 0.86383,2.2511 -0.16508,2.77973 -2.53258,1.3012 -1.54897,-0.96735 -2.35981,-1.00686 -3.21025,-0.15642 -1.48953,1.48953 -0.30813,3.31209 2.14693,3.31209 1.9233,0 5.94098,3.25208 5.94098,4.80887 0,3.31756 -5.80238,5.80603 -9.75,4.1815 z M 56,132.13335 c 0,-1.56513 4.297664,-11.60269 5.566778,-13.00167 1.849508,-2.03878 2.938697,-0.83571 5.867954,6.48144 2.813825,7.02881 2.740151,8.76011 -0.257342,6.04742 C 64.892631,129.59286 60.651882,129.5096 59,131.5 c -1.368594,1.64905 -3,1.99347 -3,0.63335 z m 8,-6.71668 c 0,-1.76593 -2.152759,-1.45839 -2.770833,0.39583 C 61.011458,126.46563 61.545833,127 62.416667,127 63.2875,127 64,126.2875 64,125.41667 Z M 76.79427,126.75 C 76.178799,116.71616 77.355396,115.55772 81.618698,122 84.874439,126.91976 86,127.04821 86,122.5 c 0,-2.49043 0.445854,-3.5 1.54569,-3.5 1.269321,0 1.492821,1.19265 1.25,6.6703 -0.34861,7.8641 -1.729715,8.94501 -4.993315,3.90795 C 80.835352,124.99894 79,124.96903 79,129.5 c 0,6.04948 -1.80393,3.80042 -2.20573,-2.75 z m 22.75158,5.32419 c -1.979959,-3.20364 -4.469584,-12.55046 -3.579922,-13.44012 0.650897,-0.65089 1.507975,0.25589 2.511122,2.65676 0.837623,2.00471 1.52295,4.10939 1.52295,4.67705 0,2.62891 2.97332,0.63024 4.04325,-2.71788 1.40068,-4.38315 2.48645,-5.81998 3.34645,-4.42847 1.02774,1.66292 -3.72133,13.61865 -5.54947,13.97072 -0.90957,0.17517 -1.942037,-0.14796 -2.29438,-0.71806 z m 14.86597,-0.44339 c -0.96982,-2.52732 0.0494,-11.96082 1.33818,-12.38553 0.92112,-0.30356 1.25,1.4517 1.25,6.6714 0,6.55043 -1.2274,9.26026 -2.58818,5.71413 z M 142,132.01052 c 0,-0.54421 1.18169,-3.94129 2.62598,-7.54906 1.82949,-4.56997 3.09479,-6.46887 4.17161,-6.26052 2.00901,0.38872 7.4711,13.51497 6.00173,14.42309 -0.58447,0.36122 -1.47578,-0.0814 -1.98069,-0.98363 -1.15168,-2.05794 -6.15268,-2.14775 -7.81863,-0.1404 -1.41872,1.70945 -3,1.97854 -3,0.51052 z m 7.80963,-6.76052 c -0.40593,-2.10784 -2.18068,-1.97493 -2.63295,0.19718 C 146.98803,126.35316 147.53927,127 148.5,127 c 1.02996,0 1.52043,-0.6554 1.30963,-1.75 z M 86.513488,104.83316 C 86.245328,104.09992 85.907591,98.1 85.762962,91.5 L 85.5,79.5 72,79 C 60.888889,78.588477 58.5,78.234568 58.5,77 c 0,-1.247936 2.333953,-1.546905 13.889077,-1.779125 18.52667,-0.372325 17.752336,-1.112755 17.387974,16.626629 -0.199138,9.695276 -0.628431,13.605306 -1.526525,13.903686 -0.687211,0.22832 -1.468878,-0.1848 -1.737038,-0.91803 z m 36.109722,-0.37268 c -0.79841,-2.08061 -0.8094,-10.811696 -0.0162,-12.878693 C 122.94083,90.711804 123.85976,90 124.64905,90 c 1.14742,0 1.37653,1.537399 1.14301,7.669746 -0.2796,7.342564 -1.74887,10.491154 -3.16885,6.790734 z M 122.3718,81.345223 C 121.0194,75.956853 122.28741,75.5 138.59529,75.5 c 13.37382,0 14.91138,0.176855 15.21434,1.75 0.30759,1.597169 -0.8467,1.75 -13.21725,1.75 H 127.0381 l -0.62746,2.5 c -0.82555,3.28926 -3.19726,3.198371 -4.03884,-0.154777 z M 101.65499,66.171259 C 97.863754,61.981994 100.87323,56 106.77204,56 110.08174,56 113,58.915699 113,62.222506 c 0,4.83893 -8.01482,7.628574 -11.34501,3.948753 z M 123.75,47.923411 C 122.22698,47.033279 122,45.231531 122,34.032097 122,20.36641 122.3848,18 124.60699,18 125.72217,18 126,20.453195 126,30.3 c 0,8.233333 0.39675,12.696748 1.2,13.5 0.80833,0.808333 5.37778,1.2 14,1.2 10.71111,0 12.8,0.244792 12.8,1.5 0,1.255923 -2.10202,1.5 -12.91821,1.5 -7.10502,0 -13.51752,0.212896 -14.25,0.473102 -0.73249,0.260205 -2.11929,0.01285 -3.08179,-0.549691 z M 58,46.5 C 58,45.240605 60.169417,45 71.524751,45 h 13.524751 l 0.981402,-2.581282 c 1.353248,-3.559313 3.404947,-2.52323 3.779461,1.908582 L 90.120731,48 H 74.060365 C 60.451152,48 58,47.771068 58,46.5 Z M 86.417143,32.644673 c -0.286049,-0.74543 -0.384426,-4.23293 -0.218616,-7.75 C 86.428757,20.011174 86.854476,18.5 88,18.5 c 1.179177,0 1.562467,1.657584 1.792064,7.75 0.245212,6.506757 0.03965,7.75 -1.281385,7.75 -0.865397,0 -1.807488,-0.609897 -2.093536,-1.355327 z"
         id="path7182"
         inkscape:connector-curvature="0" />
      <path
         style="fill:#5e5e5e"
         d="M 86.513488,104.83316 C 86.245328,104.09992 85.907591,98.1 85.762962,91.5 L 85.5,79.5 72,79 C 60.888889,78.588477 58.5,78.234568 58.5,77 c 0,-1.247936 2.333953,-1.546905 13.889077,-1.779125 18.52667,-0.372325 17.752336,-1.112755 17.387974,16.626629 -0.199138,9.695276 -0.628431,13.605306 -1.526525,13.903686 -0.687211,0.22832 -1.468878,-0.1848 -1.737038,-0.91803 z m 36.109722,-0.37268 c -0.79841,-2.08061 -0.8094,-10.811696 -0.0162,-12.878693 C 122.94083,90.711804 123.85976,90 124.64905,90 c 1.14742,0 1.37653,1.537399 1.14301,7.669746 -0.2796,7.342564 -1.74887,10.491154 -3.16885,6.790734 z M 122.3718,81.345223 C 121.0194,75.956853 122.28741,75.5 138.59529,75.5 c 13.37382,0 14.91138,0.176855 15.21434,1.75 0.30759,1.597169 -0.8467,1.75 -13.21725,1.75 H 127.0381 l -0.62746,2.5 c -0.82555,3.28926 -3.19726,3.198371 -4.03884,-0.154777 z M 103.05115,65.051152 C 101.92302,63.923019 101,62.55 101,62 c 0,-1.50218 3.79763,-5 5.42857,-5 1.95248,0 4.57479,2.775004 4.55612,4.821429 -0.0398,4.363653 -4.84388,6.319379 -7.93354,3.229723 z M 123.75,47.923411 C 122.22698,47.033279 122,45.231531 122,34.032097 122,20.36641 122.3848,18 124.60699,18 125.72217,18 126,20.453195 126,30.3 c 0,8.233333 0.39675,12.696748 1.2,13.5 0.80833,0.808333 5.37778,1.2 14,1.2 10.71111,0 12.8,0.244792 12.8,1.5 0,1.255923 -2.10202,1.5 -12.91821,1.5 -7.10502,0 -13.51752,0.212896 -14.25,0.473102 -0.73249,0.260205 -2.11929,0.01285 -3.08179,-0.549691 z M 58,46.5 C 58,45.240605 60.169417,45 71.524751,45 h 13.524751 l 0.981402,-2.581282 c 1.353248,-3.559313 3.404947,-2.52323 3.779461,1.908582 L 90.120731,48 H 74.060365 C 60.451152,48 58,47.771068 58,46.5 Z M 86.417143,32.644673 c -0.286049,-0.74543 -0.384426,-4.23293 -0.218616,-7.75 C 86.428757,20.011174 86.854476,18.5 88,18.5 c 1.179177,0 1.562467,1.657584 1.792064,7.75 0.245212,6.506757 0.03965,7.75 -1.281385,7.75 -0.865397,0 -1.807488,-0.609897 -2.093536,-1.355327 z"
         id="path7180"
         inkscape:connector-curvature="0" />
      <path
         style="fill:#444444"
         d="m 88.217332,94.3151 c -0.119533,-6.151696 -0.651326,-12.326393 -1.181764,-13.721549 -0.959606,-2.523955 -1.033415,-2.538196 -14.75,-2.845754 L 58.5,77.438692 72.627555,77.219346 c 11.043993,-0.17147 14.379248,0.08392 15.280703,1.170111 0.777614,0.936969 1.051095,5.577606 0.839776,14.25 L 88.434664,105.5 Z M 124.32814,98.5 c 0.004,-3.85 0.18518,-5.302463 0.40166,-3.227696 0.21647,2.074768 0.21284,5.224766 -0.008,6.999996 -0.22091,1.77524 -0.39803,0.0777 -0.39359,-3.7723 z M 124.07029,79.75 124,77 l 14.75,0.20683 14.75,0.206831 -13.9015,0.543169 c -12.70575,0.496448 -13.96844,0.715203 -14.67972,2.54317 -0.67398,1.732141 -0.78762,1.631694 -0.84849,-0.75 z M 103.05115,65.051152 C 101.92302,63.923019 101,62.55 101,62 c 0,-1.50218 3.79763,-5 5.42857,-5 1.95248,0 4.57479,2.775004 4.55612,4.821429 -0.0398,4.363653 -4.84388,6.319379 -7.93354,3.229723 z M 72,46.257533 C 84.585824,45.972511 85.616999,45.801078 87.227764,43.725904 L 88.955528,41.5 88.977764,44.25 89,47 73.75,46.781629 58.5,46.563258 Z M 124.21733,32.75 l 0.21733,-14.25 0.31182,12.651742 c 0.21592,8.761041 0.70717,12.979869 1.59746,13.71874 0.71614,0.594343 7.01565,1.206061 14.22086,1.380926 L 153.5,46.565336 138.75,46.782668 124,47 Z M 88.32814,25.5 c 0.0044,-3.85 0.185183,-5.302463 0.401658,-3.227696 0.216476,2.074768 0.212846,5.224768 -0.0081,7 C 88.50082,31.047537 88.323704,29.35 88.32814,25.5 Z"
         id="path7178"
         inkscape:connector-curvature="0" />
    </g>
  </g>
</svg>
