<?xml version="1.0" encoding="UTF-8" standalone="no"?>
<!-- Created with Inkscape (http://www.inkscape.org/) -->

<svg
   xmlns:dc="http://purl.org/dc/elements/1.1/"
   xmlns:cc="http://creativecommons.org/ns#"
   xmlns:rdf="http://www.w3.org/1999/02/22-rdf-syntax-ns#"
   xmlns:svg="http://www.w3.org/2000/svg"
   xmlns="http://www.w3.org/2000/svg"
   xmlns:sodipodi="http://sodipodi.sourceforge.net/DTD/sodipodi-0.dtd"
   xmlns:inkscape="http://www.inkscape.org/namespaces/inkscape"
   width="13.51768mm"
   height="16.808441mm"
   viewBox="0 0 13.51768 16.808441"
   version="1.1"
   id="svg3818"
   inkscape:version="0.92.4 (5da689c313, 2019-01-14)"
   sodipodi:docname="cetesbb.svg">
  <defs
     id="defs3812" />
  <sodipodi:namedview
     id="base"
     pagecolor="#ffffff"
     bordercolor="#666666"
     borderopacity="1.0"
     inkscape:pageopacity="0.0"
     inkscape:pageshadow="2"
     inkscape:zoom="2.8"
     inkscape:cx="53.079453"
     inkscape:cy="40.115076"
     inkscape:document-units="mm"
     inkscape:current-layer="layer1"
     showgrid="false"
     inkscape:window-width="1920"
     inkscape:window-height="1001"
     inkscape:window-x="-9"
     inkscape:window-y="-9"
     inkscape:window-maximized="1" />
  <metadata
     id="metadata3815">
    <rdf:RDF>
      <cc:Work
         rdf:about="">
        <dc:format>image/svg+xml</dc:format>
        <dc:type
           rdf:resource="http://purl.org/dc/dcmitype/StillImage" />
        <dc:title />
      </cc:Work>
    </rdf:RDF>
  </metadata>
  <g
     inkscape:label="Layer 1"
     inkscape:groupmode="layer"
     id="layer1"
     transform="translate(-33.518669,-116.52212)">
    <g
       id="g3778"
       transform="matrix(0.18685069,0,0,0.18685069,24.370459,108.9936)">
      <path
         style="fill:#cbcbcb;stroke-width:0.32000002"
         d="m 52.213849,129.55337 c -0.811449,-0.40165 -1.74016,-1.22106 -2.24,-1.97637 -0.776944,-1.17405 -0.853846,-1.56826 -0.853846,-4.37699 0,-2.83195 0.07267,-3.19655 0.880358,-4.41705 1.168384,-1.76555 3.007668,-2.68695 5.363629,-2.68695 1.028705,0 2.246052,0.21823 2.791908,0.5005 1.30735,0.67606 2.644106,2.32176 2.644106,3.2552 0,0.61487 -0.252768,0.83834 -1.304753,1.15352 -1.267638,0.37979 -1.331817,0.36195 -2.25622,-0.62716 -1.741889,-1.86381 -4.144612,-1.15285 -4.617194,1.36623 -0.30353,1.61796 0.116489,3.95403 0.841232,4.67877 1.216509,1.21651 3.312285,0.64443 3.921037,-1.07032 0.299222,-0.84286 0.965229,-0.96935 2.258544,-0.42897 1.368816,0.57193 1.493747,1.33639 0.485107,2.9684 -1.408304,2.27869 -5.100621,3.05373 -7.913908,1.66119 z m 10.570155,0.30264 c -0.273312,-0.27331 -0.384,-2.24662 -0.384,-6.84577 0,-5.59708 0.06773,-6.48775 0.506172,-6.656 0.982829,-0.37714 9.26546,-0.2146 9.669828,0.18977 0.510397,0.51039 0.489959,2.0097 -0.03332,2.44398 -0.229527,0.19049 -1.777527,0.38812 -3.44,0.43918 -2.986103,0.0917 -3.022682,0.10252 -3.022682,0.89284 0,0.78596 0.05333,0.8028 3.04,0.96 l 3.04,0.16 v 1.44 1.44 l -3.138611,0.0918 -3.138615,0.0918 0.09861,1.18819 0.09861,1.18819 3.182077,0.0923 c 3.375654,0.098 4.017923,0.34157 4.017923,1.52399 0,1.54295 -0.63991,1.74368 -5.558858,1.74368 -3.114665,0 -4.674461,-0.12132 -4.937142,-0.384 z m 15.064465,0.12544 c -0.275559,-0.17507 -0.417744,-1.76134 -0.48,-5.3551 l -0.08846,-5.10634 -1.760001,-0.16 -1.76,-0.16 v -1.44 -1.44 l 5.077194,-0.0883 c 5.485652,-0.0954 5.962807,0.0249 5.962807,1.5035 0,1.23049 -0.559152,1.62482 -2.304,1.62482 h -1.536 v 5.10874 c 0,4.72336 -0.04669,5.13373 -0.618963,5.44 -0.727793,0.3895 -1.938359,0.42481 -2.492573,0.0727 z m 8.151536,-0.0871 c -0.503421,-0.29322 -0.56,-0.96472 -0.56,-6.64627 0,-4.48897 0.111258,-6.43136 0.384,-6.7041 0.447587,-0.44759 9.1117,-0.54179 9.798145,-0.10653 0.264515,0.16772 0.384003,0.73346 0.32,1.5151 l -0.102144,1.24743 -3.360001,0.16 c -3.328,0.15847 -3.36,0.16762 -3.36,0.96 0,0.7893 0.03975,0.80123 2.972407,0.89217 2.806483,0.087 2.992445,0.13615 3.331366,0.88 0.265277,0.58222 0.265277,0.99343 0,1.57565 -0.338921,0.74385 -0.524883,0.79298 -3.331366,0.88 l -2.972407,0.0922 v 1.12 1.12 l 3.3485,0.0919 c 2.18456,0.06 3.434221,0.22683 3.595101,0.48 0.473942,0.74579 0.27152,2.11744 -0.362564,2.45679 -0.797424,0.42677 -8.964419,0.41467 -9.701037,-0.0144 z m 13.589818,-0.18656 c -1.811267,-0.89274 -3.134064,-3.43465 -2.306368,-4.43197 0.575917,-0.69394 2.841135,-0.63235 3.095235,0.0842 0.40601,1.14487 1.15511,1.68 2.35173,1.68 1.26273,0 2.09773,-0.64815 1.80792,-1.40337 -0.0953,-0.24834 -1.27748,-0.77933 -2.62709,-1.17998 -3.939654,-1.16956 -5.409417,-3.30167 -4.104246,-5.95383 0.833331,-1.69337 2.251276,-2.42282 4.709596,-2.42282 3.15931,0 5.46463,1.64075 5.25898,3.74296 -0.0903,0.92265 -0.18012,0.98246 -1.61447,1.07453 -1.35189,0.0868 -1.55861,0.0103 -1.88015,-0.69539 -0.4342,-0.95296 -1.51811,-1.28422 -2.71417,-0.82948 -0.78312,0.29775 -0.82554,0.38577 -0.3939,0.81741 0.26605,0.26605 1.33499,0.70455 2.37542,0.97443 3.49591,0.90685 4.79538,2.28916 4.72418,5.02533 -0.0385,1.48052 -0.89091,2.73283 -2.37523,3.48971 -1.42261,0.72541 -4.86178,0.74085 -6.307437,0.0283 z m 10.490187,0.24035 c -0.39097,-0.26369 -0.49837,-1.41089 -0.57904,-6.18505 -0.0616,-3.6451 0.0308,-6.20271 0.24426,-6.76423 l 0.34329,-0.90293 4.07574,0.11614 c 4.42035,0.12596 5.3771,0.44675 6.10643,2.04745 0.51892,1.13892 0.45912,2.74985 -0.13351,3.59594 -0.47066,0.67196 -0.45019,0.78042 0.32,1.69575 1.50672,1.79064 0.89874,4.84616 -1.18259,5.9433 -1.21944,0.64281 -8.3896,0.99656 -9.19458,0.45363 z m 7.17714,-3.41102 c 1.12295,-1.12295 0.10572,-2.05714 -2.24,-2.05714 h -1.73714 v 1.28 1.28 h 1.73714 c 1.15255,0 1.90636,-0.16922 2.24,-0.50286 z m -0.29714,-6.21714 c 0,-0.74946 -0.11626,-0.80607 -1.84,-0.89597 l -1.84,-0.096 v 0.99194 0.99194 l 1.84,-0.096 c 1.72374,-0.0899 1.84,-0.14652 1.84,-0.89597 z m -42.980246,-9.52 c -0.155516,-0.308 -1.480371,-4.088 -2.944121,-8.4 -1.463748,-4.312004 -2.799204,-8.020004 -2.967681,-8.240004 -0.232524,-0.303632 -2.524345,-0.4 -9.512906,-0.4 -8.1,0 -9.229927,-0.06084 -9.400816,-0.506173 -0.291197,-0.758845 -0.224448,-14.310792 0.07279,-14.779076 0.19954,-0.314362 2.225869,-0.386132 9.035098,-0.32 l 8.777873,0.08525 2.88,8.48 2.88,8.480001 h 12.300257 12.300257 l 2.746585,-8.320001 c 1.51062,-4.576 2.86,-8.5 2.99863,-8.72 0.35486,-0.563168 17.18793,-0.578343 17.75028,-0.016 0.54508,0.545084 0.54508,15.006916 0,15.552001 -0.28084,0.280838 -2.85276,0.384 -9.57339,0.384 h -9.18939 l -2.310587,6.960002 c -1.270819,3.828 -2.589139,7.716 -2.929604,8.64 l -0.61902,1.68 H 85.268271 c -10.160615,0 -11.027463,-0.043 -11.288507,-0.56 z M 73.882954,91.599975 C 73.441773,90.462119 68.16,75.131101 68.16,74.988365 c 0,-0.05962 -4.1472,-0.108391 -9.216001,-0.108391 -6.741334,0 -9.31911,-0.10311 -9.6,-0.384 -0.276176,-0.276176 -0.384,-2.429497 -0.384,-7.668742 0,-6.874705 0.03484,-7.303387 0.618963,-7.616001 1.006579,-0.538704 16.390049,-0.439965 17.142212,0.110032 0.393165,0.287488 1.564343,3.326621 3.360388,8.720001 l 2.756889,8.27871 H 85.1066 97.374742 l 2.704928,-8.32 c 1.48771,-4.576 2.85202,-8.500001 3.03181,-8.720001 0.24699,-0.30223 2.45988,-0.4 9.05347,-0.4 7.66231,0 8.75027,0.06173 8.92082,0.506173 0.31837,0.829664 0.2103,14.652872 -0.11864,15.173828 -0.25418,0.402573 -1.81059,0.505808 -9.6487,0.64 l -9.34564,0.16 -2.746391,8.167358 c -1.510515,4.492048 -2.862893,8.344048 -3.00528,8.56 -0.196089,0.297402 -2.895299,0.392643 -11.12792,0.392643 H 74.224164 Z m 0.09681,-18.240001 c -0.155516,-0.308 -1.480371,-4.088 -2.944121,-8.4 -1.463748,-4.312 -2.799204,-8.020001 -2.967681,-8.240001 -0.232524,-0.303632 -2.524345,-0.4 -9.512906,-0.4 -8.1,0 -9.229927,-0.06084 -9.400816,-0.506173 -0.291197,-0.758844 -0.224448,-14.310791 0.07279,-14.779076 0.19954,-0.314361 2.225869,-0.386131 9.035098,-0.32 l 8.777873,0.08525 2.88,8.480001 2.88,8.48 h 12.310263 12.310264 l 2.729742,-8.32984 c 1.50136,-4.581408 2.84624,-8.505409 2.98862,-8.720001 0.36765,-0.55408 17.20336,-0.55992 17.75712,-0.0061 0.49658,0.49658 0.54445,14.398276 0.0527,15.317038 -0.31576,0.59 -0.76339,0.618963 -9.56576,0.618963 -7.09336,0 -9.26969,0.09275 -9.38623,0.4 -0.0834,0.22 -1.26687,3.784001 -2.629832,7.920001 -1.36296,4.136 -2.681412,7.844 -2.929895,8.24 l -0.451786,0.72 h -10.86132 c -10.023105,0 -10.883188,-0.04322 -11.144123,-0.56 z"
         id="path3792"
         inkscape:connector-curvature="0" />
      <path
         style="fill:#b1b1b1;stroke-width:0.32000002"
         d="m 53.674691,129.8868 c -1.739046,-0.40255 -2.704502,-1.13894 -3.683594,-2.80963 -0.729811,-1.24533 -0.862672,-1.84246 -0.862672,-3.87716 0,-2.04171 0.131904,-2.6302 0.872957,-3.89471 1.564995,-2.67047 4.598314,-3.76702 7.429479,-2.68579 1.640589,0.62654 3.049143,2.1189 3.049143,3.23055 0,0.61981 -0.21289,0.80088 -1.147841,0.97628 -1.012284,0.18991 -1.255788,0.0971 -2.061961,-0.7855 -2.509005,-2.74701 -5.801549,0.29405 -4.810535,4.44311 0.431181,1.80521 0.655511,2.15641 1.637117,2.56301 1.343741,0.55659 2.471312,0.1515 3.249491,-1.16741 0.599725,-1.01646 0.779216,-1.11845 1.658823,-0.94253 1.688035,0.33761 1.952704,0.85918 1.192323,2.34964 -1.10808,2.17202 -3.776659,3.23579 -6.52273,2.60014 z m 47.213329,0.0577 c -2.133989,-0.53843 -3.774325,-2.37239 -3.547432,-3.96615 0.08165,-0.57353 0.342483,-0.71593 1.459418,-0.79674 0.83744,-0.0606 1.360004,0.0372 1.360004,0.25454 0,0.19412 0.35345,0.7064 0.78545,1.1384 1.00134,1.00135 2.70497,1.06213 3.5515,0.12672 0.88673,-0.97982 0.29928,-1.5935 -2.2802,-2.38203 -2.634245,-0.80528 -3.747273,-1.48104 -4.247433,-2.57878 -1.408793,-3.09196 1.445284,-5.94738 5.468333,-5.4709 1.93687,0.22939 3.06255,0.94505 3.81897,2.42794 0.73809,1.44696 0.46135,1.94251 -1.08481,1.94251 -0.98388,0 -1.42517,-0.18494 -1.90899,-0.8 -0.4819,-0.61264 -0.92596,-0.8 -1.89609,-0.8 -0.85854,0 -1.32925,0.16269 -1.46054,0.50481 -0.2906,0.75729 0.45403,1.26419 2.94181,2.00262 2.80135,0.8315 4.00364,1.96008 4.2061,3.94824 0.16747,1.64452 -0.64106,3.17224 -2.06991,3.91113 -1.16905,0.60454 -3.7514,0.877 -5.09618,0.53769 z m -38.022004,-0.42555 c -0.08818,-0.22979 -0.121107,-3.22156 -0.07317,-6.64837 l 0.08716,-6.23057 h 4.8 4.8 v 1.12 1.12 l -3.166531,0.16 c -2.55449,0.12907 -3.234535,0.26824 -3.518365,0.72 -0.255821,0.40718 -0.255706,0.71281 3.2e-4,1.12 0.285497,0.45387 0.903411,0.57739 3.260538,0.65177 2.564758,0.0809 2.931833,0.16598 3.107673,0.72 0.109664,0.34552 0.107984,0.91623 -0.0037,1.26823 -0.183996,0.57973 -0.484169,0.64 -3.187328,0.64 -3.185203,0 -3.372672,0.0971 -3.372672,1.74699 0,1.17888 0.644432,1.42278 4.017923,1.52067 l 3.182186,0.0923 v 1.12 1.12 l -4.886832,0.0884 c -3.789367,0.0685 -4.922835,-0.005 -5.047156,-0.32943 z m 14.955246,-0.005 c -0.227885,-0.27458 -0.39711,-2.28468 -0.452611,-5.37618 l -0.08865,-4.93764 -1.663562,-0.0962 c -1.782995,-0.10305 -2.282922,-0.64011 -1.853959,-1.99165 0.196836,-0.62018 0.426448,-0.64407 5.381565,-0.56 l 5.175956,0.0878 v 1.12 1.12 l -1.76,0.16 -1.76,0.16 -0.16,5.28 -0.16,5.28 -1.147389,0.0962 c -0.686762,0.0576 -1.293507,-0.0799 -1.511354,-0.34237 z m 8.084756,0.005 c -0.08818,-0.22979 -0.121107,-3.22156 -0.07317,-6.64837 l 0.08716,-6.23057 h 4.8 4.800001 l 0.09864,1.1886 0.09864,1.1886 -3.298637,0.0914 -3.298637,0.0914 v 1.12 1.12 l 3.04,0.16 3.040001,0.16 v 1.12 1.12 l -3.137053,0.0918 -3.13705,0.0918 0.09705,1.50821 0.09705,1.50821 2.960871,0.0461 c 3.741446,0.0583 3.986771,0.15179 3.859568,1.4717 l -0.100438,1.0422 -4.886833,0.0884 c -3.789366,0.0685 -4.922835,-0.005 -5.047155,-0.32943 z m 24.237992,0.0171 c -0.40537,-0.40537 -0.57387,-11.54888 -0.18977,-12.54983 0.2805,-0.73096 7.07294,-0.7321 8.61268,-0.002 1.94386,0.92243 2.55819,3.5066 1.19357,5.02079 -0.47068,0.52226 -0.44338,0.63469 0.35694,1.47005 1.7371,1.81313 1.19379,4.70727 -1.10456,5.88394 -1.33964,0.68584 -8.22254,0.82282 -8.86886,0.17649 z m 7.456,-3.776 c 0,-1.11393 -0.01,-1.12156 -1.80717,-1.40684 -2.43897,-0.38712 -2.83283,-0.19096 -2.83283,1.41081 v 1.30407 l 2.32,-0.094 2.32,-0.094 z m -0.77897,-4.49126 c 0.80922,-0.43308 0.79187,-1.47369 -0.0319,-1.91457 -0.35799,-0.19159 -1.32999,-0.30466 -2.16,-0.25126 -1.3011,0.0837 -1.52362,0.19954 -1.61442,0.84036 -0.1888,1.33259 0.14699,1.65673 1.71631,1.65673 0.80909,0 1.74961,-0.14907 2.09004,-0.33126 z m -42.575746,-10.8589 c -0.187971,-0.35122 -1.433347,-3.84513 -2.767504,-7.76424 -1.334154,-3.919103 -2.618186,-7.591456 -2.853402,-8.16078 l -0.427664,-1.03514 -9.378359,-0.08486 -9.378362,-0.08486 v -7.36 -7.36 l 8.458573,-0.08543 c 5.634545,-0.05691 8.572564,0.02768 8.800001,0.253351 0.187785,0.186329 1.577411,4.040774 3.088061,8.565431 l 2.74663,8.226647 12.505495,0.08369 12.505492,0.08369 0.494231,-1.36369 c 0.27183,-0.750029 1.52591,-4.53169 2.786854,-8.40369 1.26093,-3.872 2.43671,-7.22 2.61282,-7.44 0.44993,-0.562039 16.57675,-0.577095 17.13785,-0.016 0.54437,0.544377 0.54437,14.367623 0,14.912 -0.28054,0.280538 -2.81892,0.384001 -9.42112,0.384001 -6.78539,0 -9.10162,0.09783 -9.296,0.392643 -0.14238,0.215952 -1.49486,4.067952 -3.005495,8.559997 l -2.746609,8.16736 -10.759863,0.0842 c -10.468855,0.082 -10.769104,0.067 -11.101629,-0.55436 z m 0.04829,-18.809885 c -0.158918,-0.308 -1.484221,-4.088 -2.94512,-8.4 -1.460896,-4.312 -2.793572,-8.020001 -2.961498,-8.240001 -0.231558,-0.303356 -2.489824,-0.4 -9.346961,-0.4 -7.285693,0 -9.112624,-0.08554 -9.407168,-0.440441 -0.255558,-0.307927 -0.339555,-2.546352 -0.279184,-7.440001 l 0.08635,-6.999558 8.691636,-0.08509 8.691639,-0.08509 2.854953,8.565092 2.854957,8.565092 12.33114,0.08372 c 9.624266,0.06534 12.401236,-0.0049 12.650465,-0.32 0.175629,-0.222045 1.574634,-4.183719 3.108897,-8.803719 l 2.78957,-8.400001 h 8.57914 c 7.52785,0 8.60294,0.06203 8.77337,0.506173 0.10683,0.278394 0.19424,3.580109 0.19424,7.337143 0,5.783306 -0.0771,6.908093 -0.50286,7.333828 -0.43349,0.433488 -1.75412,0.502857 -9.57338,0.502857 h -9.07052 l -2.623433,7.920001 c -1.44289,4.356 -2.826189,8.244 -3.074,8.64 l -0.450567,0.72 H 85.123887 c -9.715988,0 -10.563988,-0.04385 -10.830305,-0.56 z m -0.02074,-18.578612 c -0.172813,-0.322902 -1.4172,-3.81681 -2.765306,-7.76424 -1.348109,-3.947434 -2.644544,-7.642961 -2.880966,-8.212286 l -0.42985,-1.035139 -9.378359,-0.08486 -9.378362,-0.08486 v -7.36 -7.360001 l 8.458573,-0.08543 c 5.634545,-0.0569 8.572564,0.02768 8.800001,0.253351 0.187785,0.186329 1.577411,4.040774 3.088061,8.565431 l 2.74663,8.226646 12.497719,0.08368 c 9.825867,0.06579 12.530683,-0.0026 12.651912,-0.32 0.0848,-0.222026 1.342902,-4.003684 2.795773,-8.403684 1.45287,-4.4 2.78516,-8.180001 2.96064,-8.400001 0.44832,-0.562048 16.57559,-0.577107 17.1367,-0.016 0.54437,0.544378 0.54437,14.367624 0,14.912001 -0.28054,0.280538 -2.81892,0.384 -9.42112,0.384 -6.78539,0 -9.10162,0.09783 -9.296,0.392644 -0.14238,0.215952 -1.49486,4.067952 -3.005497,8.56 l -2.746609,8.167357 -10.759863,0.08424 c -10.157299,0.07952 -10.777459,0.05136 -11.074064,-0.502851 z"
         id="path3790"
         inkscape:connector-curvature="0" />
      <path
         style="fill:#9d9d9d;stroke-width:0.32000002"
         d="m 53.674691,129.8868 c -1.739046,-0.40255 -2.704502,-1.13894 -3.683594,-2.80963 -0.729811,-1.24533 -0.862672,-1.84246 -0.862672,-3.87716 0,-2.04171 0.131904,-2.6302 0.872957,-3.89471 1.564995,-2.67047 4.598314,-3.76702 7.429479,-2.68579 1.640589,0.62654 3.049143,2.1189 3.049143,3.23055 0,0.61981 -0.21289,0.80088 -1.147841,0.97628 -1.012284,0.18991 -1.255788,0.0971 -2.061961,-0.7855 -2.509005,-2.74701 -5.801549,0.29405 -4.810535,4.44311 0.431181,1.80521 0.655511,2.15641 1.637117,2.56301 1.343741,0.55659 2.471312,0.1515 3.249491,-1.16741 0.599725,-1.01646 0.779216,-1.11845 1.658823,-0.94253 1.688035,0.33761 1.952704,0.85918 1.192323,2.34964 -1.10808,2.17202 -3.776659,3.23579 -6.52273,2.60014 z m 47.213329,0.0577 c -2.133989,-0.53843 -3.774325,-2.37239 -3.547432,-3.96615 0.08165,-0.57353 0.342483,-0.71593 1.459418,-0.79674 0.83744,-0.0606 1.360004,0.0372 1.360004,0.25454 0,0.19412 0.35345,0.7064 0.78545,1.1384 1.00134,1.00135 2.70497,1.06213 3.5515,0.12672 0.88673,-0.97982 0.29928,-1.5935 -2.2802,-2.38203 -2.634245,-0.80528 -3.747273,-1.48104 -4.247433,-2.57878 -1.408793,-3.09196 1.445284,-5.94738 5.468333,-5.4709 1.93687,0.22939 3.06255,0.94505 3.81897,2.42794 0.73809,1.44696 0.46135,1.94251 -1.08481,1.94251 -0.98388,0 -1.42517,-0.18494 -1.90899,-0.8 -0.4819,-0.61264 -0.92596,-0.8 -1.89609,-0.8 -0.85854,0 -1.32925,0.16269 -1.46054,0.50481 -0.2906,0.75729 0.45403,1.26419 2.94181,2.00262 2.80135,0.8315 4.00364,1.96008 4.2061,3.94824 0.16747,1.64452 -0.64106,3.17224 -2.06991,3.91113 -1.16905,0.60454 -3.7514,0.877 -5.09618,0.53769 z m -38.022004,-0.42555 c -0.08818,-0.22979 -0.121107,-3.22156 -0.07317,-6.64837 l 0.08716,-6.23057 h 4.8 4.8 v 1.12 1.12 l -3.166531,0.16 c -2.55449,0.12907 -3.234535,0.26824 -3.518365,0.72 -0.255821,0.40718 -0.255706,0.71281 3.2e-4,1.12 0.285497,0.45387 0.903411,0.57739 3.260538,0.65177 2.564758,0.0809 2.931833,0.16598 3.107673,0.72 0.109664,0.34552 0.107984,0.91623 -0.0037,1.26823 -0.183996,0.57973 -0.484169,0.64 -3.187328,0.64 -3.185203,0 -3.372672,0.0971 -3.372672,1.74699 0,1.17888 0.644432,1.42278 4.017923,1.52067 l 3.182186,0.0923 v 1.12 1.12 l -4.886832,0.0884 c -3.789367,0.0685 -4.922835,-0.005 -5.047156,-0.32943 z m 14.955246,-0.005 c -0.227885,-0.27458 -0.39711,-2.28468 -0.452611,-5.37618 l -0.08865,-4.93764 -1.663562,-0.0962 c -1.782995,-0.10305 -2.282922,-0.64011 -1.853959,-1.99165 0.196836,-0.62018 0.426448,-0.64407 5.381565,-0.56 l 5.175956,0.0878 v 1.12 1.12 l -1.76,0.16 -1.76,0.16 -0.16,5.28 -0.16,5.28 -1.147389,0.0962 c -0.686762,0.0576 -1.293507,-0.0799 -1.511354,-0.34237 z m 8.084756,0.005 c -0.08818,-0.22979 -0.121107,-3.22156 -0.07317,-6.64837 l 0.08716,-6.23057 h 4.8 4.800001 l 0.09864,1.1886 0.09864,1.1886 -3.298637,0.0914 -3.298637,0.0914 v 1.12 1.12 l 3.04,0.16 3.040001,0.16 v 1.12 1.12 l -3.137053,0.0918 -3.13705,0.0918 0.09705,1.50821 0.09705,1.50821 2.960871,0.0461 c 3.741446,0.0583 3.986771,0.15179 3.859568,1.4717 l -0.100438,1.0422 -4.886833,0.0884 c -3.789366,0.0685 -4.922835,-0.005 -5.047155,-0.32943 z m 24.237992,0.0171 c -0.40537,-0.40537 -0.57387,-11.54888 -0.18977,-12.54983 0.2805,-0.73096 7.07294,-0.7321 8.61268,-0.002 1.94386,0.92243 2.55819,3.5066 1.19357,5.02079 -0.47068,0.52226 -0.44338,0.63469 0.35694,1.47005 1.7371,1.81313 1.19379,4.70727 -1.10456,5.88394 -1.33964,0.68584 -8.22254,0.82282 -8.86886,0.17649 z m 7.456,-3.776 c 0,-1.11393 -0.01,-1.12156 -1.80717,-1.40684 -2.43897,-0.38712 -2.83283,-0.19096 -2.83283,1.41081 v 1.30407 l 2.32,-0.094 2.32,-0.094 z m -0.77897,-4.49126 c 0.80922,-0.43308 0.79187,-1.47369 -0.0319,-1.91457 -0.35799,-0.19159 -1.32999,-0.30466 -2.16,-0.25126 -1.3011,0.0837 -1.52362,0.19954 -1.61442,0.84036 -0.1888,1.33259 0.14699,1.65673 1.71631,1.65673 0.80909,0 1.74961,-0.14907 2.09004,-0.33126 z M 74.820737,110.64001 c -0.275872,-0.22 -1.749616,-4.06475 -3.274986,-8.54387 -1.525366,-4.479133 -2.928806,-8.331133 -3.118755,-8.560003 -0.268835,-0.32393 -2.392858,-0.416132 -9.586173,-0.416132 h -9.24082 V 85.914779 78.70955 l 8.53344,0.08523 8.533441,0.08523 2.74656,8.226647 c 1.510608,4.524656 2.899475,8.378374 3.086375,8.563814 0.229356,0.227572 4.389987,0.309924 12.8,0.253354 l 12.460187,-0.08381 2.880004,-8.640001 2.88,-8.64 h 8.48 8.48 v 7.36 7.36 l -9.09333,0.08508 c -5.79895,0.05425 -9.24111,0.207721 -9.50124,0.423616 -0.22436,0.186198 -1.64821,4.05952 -3.164125,8.60738 -1.722695,5.16823 -2.939463,8.33917 -3.244929,8.45638 -0.2688,0.10315 -4.913424,0.18755 -10.321392,0.18755 -7.385287,0 -9.957514,-0.0996 -10.334257,-0.4 z M 74.399691,91.444329 c -0.07895,-0.222378 -1.370016,-3.98817 -2.869037,-8.36843 -1.499021,-4.380256 -2.886474,-8.158074 -3.083229,-8.395149 -0.281552,-0.339251 -2.309498,-0.449117 -9.52258,-0.515898 l -9.164842,-0.08485 v -7.2 -7.2 l 8.12049,-0.08558 c 5.515639,-0.05813 8.255456,0.02643 8.541242,0.263616 0.231418,0.192057 1.66105,4.070176 3.17696,8.618039 1.722695,5.168234 2.939463,8.339168 3.244928,8.456384 0.636641,0.244304 23.9138,0.245194 24.550316,9.6e-4 0.306454,-0.117597 1.520915,-3.371795 3.284151,-8.8 l 2.79787,-8.613419 h 8.58792 8.58792 l -0.0859,7.440001 -0.0859,7.44 -9.44,0.16 -9.44,0.16 -2.880004,8.480001 -2.88,8.48 -10.648385,0.08432 c -8.351303,0.06613 -10.679351,-0.0029 -10.79193,-0.32 z m -0.0065,-18.564325 c -0.08072,-0.22 -1.378432,-3.992755 -2.883808,-8.383901 C 70.00401,60.10496 68.616941,56.32496 68.427009,56.096102 68.158202,55.772214 66.033828,55.680003 58.840858,55.680003 h -9.24082 v -7.205226 -7.205229 l 8.53344,0.08523 8.533441,0.08523 2.74656,8.226647 c 1.510608,4.524657 2.899475,8.378375 3.086375,8.563815 0.229356,0.227571 4.389987,0.309923 12.8,0.253354 l 12.460187,-0.08382 2.880009,-8.64 2.87999,-8.640001 h 8.48001 8.48 v 7.360001 7.36 l -9.33385,0.16 c -5.13362,0.088 -9.39792,0.232 -9.47622,0.32 -0.0783,0.088 -1.39805,3.940001 -2.932784,8.560001 l -2.79041,8.4 H 85.243333 c -8.271127,0 -10.736765,-0.0909 -10.850177,-0.4 z"
         id="path3788"
         inkscape:connector-curvature="0" />
      <path
         style="fill:#939393;stroke-width:0.32000002"
         d="m 53.237827,129.5718 c -1.355776,-0.39298 -3.200605,-2.50921 -3.65584,-4.19366 -0.806352,-2.98365 0.260918,-6.41513 2.464979,-7.92537 1.51576,-1.03862 4.300001,-1.24284 5.86666,-0.43032 1.443405,0.74859 2.711018,2.5777 2.207155,3.18482 -0.609629,0.73456 -1.882806,0.49825 -2.840778,-0.52726 -0.999238,-1.06969 -2.077209,-1.2261 -3.47359,-0.504 -1.184151,0.61235 -1.64641,1.75085 -1.64641,4.05494 0,2.31776 0.589677,3.57802 1.934877,4.13522 1.333427,0.55232 2.51441,0.12179 3.343091,-1.21874 0.54897,-0.88804 0.779738,-1.01372 1.592032,-0.86701 1.273825,0.23007 1.529761,0.5485 1.179511,1.46748 -0.928435,2.43601 -4.007354,3.68313 -6.971687,2.8239 z m 47.543493,0.0634 c -1.493877,-0.48731 -2.209561,-1.00426 -2.698002,-1.9488 -0.728339,-1.40845 -0.619722,-2.14572 0.343232,-2.3298 0.648419,-0.12395 1.091267,0.10938 2.05491,1.0827 1.2999,1.31296 2.21231,1.53053 3.65734,0.87213 1.94347,-0.8855 1.1466,-2.54103 -1.52525,-3.1688 -2.15029,-0.50523 -3.20333,-1.05444 -4.025288,-2.09939 -1.651527,-2.09958 -0.206739,-4.98532 2.715368,-5.42351 2.80646,-0.42086 4.8147,0.31794 5.7428,2.11268 0.62429,1.20725 0.40207,1.58759 -0.9276,1.58759 -0.71415,0 -1.26291,-0.25245 -1.739,-0.8 -0.51422,-0.59141 -1.01321,-0.8 -1.91371,-0.8 -2.39128,0 -2.758367,1.59545 -0.54611,2.37353 0.792,0.27856 2.0839,0.73281 2.8709,1.00946 0.78699,0.27664 1.79499,0.93569 2.24,1.46455 1.43741,1.70827 0.85259,4.5371 -1.15233,5.57388 -1.16868,0.60435 -3.9364,0.87247 -5.09726,0.49378 z M 62.877082,128.88851 C 62.778422,128.48782 62.738717,125.64 62.788852,122.56 l 0.09115,-5.6 4.72,-0.0886 4.72,-0.0885 v 0.93432 c 0,1.19697 -0.367737,1.32279 -3.866173,1.32279 h -2.853827 v 1.2739 c 0,1.49331 0.153715,1.56076 3.84,1.68513 2.325075,0.0784 2.4,0.10594 2.4,0.88097 0,0.78596 -0.05333,0.8028 -3.04,0.96 l -3.04,0.16 -0.09672,1.68 -0.09672,1.68 3.136724,0.005 c 1.725197,0.003 3.329322,0.12699 3.56472,0.27619 0.235398,0.14921 0.379398,0.61501 0.32,1.0351 -0.107587,0.76092 -0.125846,0.76415 -4.819767,0.85232 -4.670093,0.0877 -4.713353,0.0821 -4.891152,-0.64 z m 15.096257,0.49815 c -0.117334,-0.11733 -0.213334,-2.49333 -0.213334,-5.28 V 119.04 h -1.378839 c -1.61121,0 -2.579827,-0.5868 -2.411904,-1.46116 0.110614,-0.57597 0.467718,-0.62495 5.154797,-0.70697 l 5.035946,-0.0881 v 0.96204 c 0,1.03002 -0.307027,1.19407 -2.56,1.36784 l -1.12,0.0864 -0.08793,5.2 -0.08793,5.2 h -1.058739 c -0.582308,0 -1.154743,-0.096 -1.272074,-0.21334 z M 86.080005,123.2 v -6.4 h 4.605764 c 3.904656,0 4.635331,0.077 4.8,0.50617 0.259977,0.67749 0.265033,0.65731 -0.308621,1.23097 -0.386032,0.38603 -1.203808,0.50286 -3.52,0.50286 h -3.017143 v 1.28 c 0,0.7888 0.153498,1.29573 0.4,1.32099 0.660371,0.0677 2.209952,0.14739 4.181255,0.21509 1.828758,0.0628 1.859488,0.0793 1.76,0.94392 -0.10104,0.87812 -0.107734,0.88034 -3.141255,1.04 l -3.04,0.16 -0.09634,1.66901 -0.09634,1.669 3.456343,0.091 3.456343,0.091 0.100275,1.04 0.100275,1.04 H 90.900286 86.08001 Z m 24.142465,5.9897 c -0.0866,-0.22566 -0.11807,-3.06966 -0.07,-6.32 l 0.0875,-5.9097 3.94197,-0.09 3.94198,-0.09 1.13851,1.13851 c 1.00121,1.00121 1.11599,1.27736 0.95171,2.28972 -0.10275,0.63316 -0.43354,1.42382 -0.73508,1.75702 -0.52123,0.57595 -0.50725,0.64895 0.2835,1.48031 1.07668,1.13199 1.35206,2.31626 0.87484,3.76226 -0.65205,1.97574 -1.74737,2.38964 -6.32747,2.39103 -2.90233,9.6e-4 -3.97122,-0.1061 -4.0875,-0.4091 z m 7.47354,-2.2137 c 0.5247,-0.52471 0.48421,-2.01447 -0.0672,-2.4721 -0.27585,-0.22894 -1.3018,-0.33743 -2.64,-0.27918 l -2.1888,0.0953 -0.10255,1.07046 c -0.1737,1.81321 0.0191,1.96954 2.42851,1.96954 1.27358,0 2.34632,-0.16028 2.57004,-0.384 z m -0.64721,-5.55415 c 0.80655,-0.56492 0.92645,-1.48485 0.26509,-2.03373 -0.69986,-0.58083 -3.61733,-0.82662 -4.1882,-0.35284 -0.48531,0.40277 -0.67549,2.26824 -0.27235,2.67138 0.42101,0.42101 3.4847,0.21303 4.19546,-0.28481 z M 74.820737,110.64001 c -0.275872,-0.22 -1.749616,-4.06475 -3.274986,-8.54387 -1.525366,-4.479133 -2.928806,-8.331133 -3.118755,-8.560003 -0.268835,-0.32393 -2.392858,-0.416132 -9.586173,-0.416132 h -9.24082 V 85.914779 78.70955 l 8.53344,0.08523 8.533441,0.08523 2.74656,8.226647 c 1.510608,4.524656 2.899475,8.378374 3.086375,8.563814 0.229356,0.227572 4.389987,0.309924 12.8,0.253354 l 12.460187,-0.08381 2.880004,-8.640001 2.88,-8.64 h 8.48 8.48 v 7.36 7.36 l -9.09333,0.08508 c -5.79895,0.05425 -9.24111,0.207721 -9.50124,0.423616 -0.22436,0.186198 -1.64821,4.05952 -3.164125,8.60738 -1.722695,5.16823 -2.939463,8.33917 -3.244929,8.45638 -0.2688,0.10315 -4.913424,0.18755 -10.321392,0.18755 -7.385287,0 -9.957514,-0.0996 -10.334257,-0.4 z M 74.399691,91.444329 c -0.07895,-0.222378 -1.370016,-3.98817 -2.869037,-8.36843 -1.499021,-4.380256 -2.886474,-8.158074 -3.083229,-8.395149 -0.281552,-0.339251 -2.309498,-0.449117 -9.52258,-0.515898 l -9.164842,-0.08485 v -7.2 -7.2 l 8.12049,-0.08558 c 5.515639,-0.05813 8.255456,0.02643 8.541242,0.263616 0.231418,0.192057 1.66105,4.070176 3.17696,8.618039 1.722695,5.168234 2.939463,8.339168 3.244928,8.456384 0.636641,0.244304 23.9138,0.245194 24.550316,9.6e-4 0.306454,-0.117597 1.520915,-3.371795 3.284151,-8.8 l 2.79787,-8.613419 h 8.58792 8.58792 l -0.0859,7.440001 -0.0859,7.44 -9.44,0.16 -9.44,0.16 -2.880004,8.480001 -2.88,8.48 -10.648385,0.08432 c -8.351303,0.06613 -10.679351,-0.0029 -10.79193,-0.32 z m -0.0065,-18.564325 c -0.08072,-0.22 -1.378432,-3.992755 -2.883808,-8.383901 C 70.00401,60.10496 68.616941,56.32496 68.427009,56.096102 68.158202,55.772214 66.033828,55.680003 58.840858,55.680003 h -9.24082 v -7.205226 -7.205229 l 8.53344,0.08523 8.533441,0.08523 2.74656,8.226647 c 1.510608,4.524657 2.899475,8.378375 3.086375,8.563815 0.229356,0.227571 4.389987,0.309923 12.8,0.253354 l 12.460187,-0.08382 2.880009,-8.64 2.87999,-8.640001 h 8.48001 8.48 v 7.360001 7.36 l -9.33385,0.16 c -5.13362,0.088 -9.39792,0.232 -9.47622,0.32 -0.0783,0.088 -1.39805,3.940001 -2.932784,8.560001 l -2.79041,8.4 H 85.243333 c -8.271127,0 -10.736765,-0.0909 -10.850177,-0.4 z"
         id="path3786"
         inkscape:connector-curvature="0" />
      <path
         style="fill:#7d7d7d;stroke-width:0.32000002"
         d="m 53.237827,129.5718 c -1.355776,-0.39298 -3.200605,-2.50921 -3.65584,-4.19366 -0.806352,-2.98365 0.260918,-6.41513 2.464979,-7.92537 1.51576,-1.03862 4.300001,-1.24284 5.86666,-0.43032 1.443405,0.74859 2.711018,2.5777 2.207155,3.18482 -0.609629,0.73456 -1.882806,0.49825 -2.840778,-0.52726 -0.999238,-1.06969 -2.077209,-1.2261 -3.47359,-0.504 -1.184151,0.61235 -1.64641,1.75085 -1.64641,4.05494 0,2.31776 0.589677,3.57802 1.934877,4.13522 1.333427,0.55232 2.51441,0.12179 3.343091,-1.21874 0.54897,-0.88804 0.779738,-1.01372 1.592032,-0.86701 1.273825,0.23007 1.529761,0.5485 1.179511,1.46748 -0.928435,2.43601 -4.007354,3.68313 -6.971687,2.8239 z m 47.543493,0.0634 c -1.493877,-0.48731 -2.209561,-1.00426 -2.698002,-1.9488 -0.728339,-1.40845 -0.619722,-2.14572 0.343232,-2.3298 0.648419,-0.12395 1.091267,0.10938 2.05491,1.0827 1.2999,1.31296 2.21231,1.53053 3.65734,0.87213 1.94347,-0.8855 1.1466,-2.54103 -1.52525,-3.1688 -2.15029,-0.50523 -3.20333,-1.05444 -4.025288,-2.09939 -1.651527,-2.09958 -0.206739,-4.98532 2.715368,-5.42351 2.80646,-0.42086 4.8147,0.31794 5.7428,2.11268 0.62429,1.20725 0.40207,1.58759 -0.9276,1.58759 -0.71415,0 -1.26291,-0.25245 -1.739,-0.8 -0.51422,-0.59141 -1.01321,-0.8 -1.91371,-0.8 -2.39128,0 -2.758367,1.59545 -0.54611,2.37353 0.792,0.27856 2.0839,0.73281 2.8709,1.00946 0.78699,0.27664 1.79499,0.93569 2.24,1.46455 1.43741,1.70827 0.85259,4.5371 -1.15233,5.57388 -1.16868,0.60435 -3.9364,0.87247 -5.09726,0.49378 z M 62.877082,128.88851 C 62.778422,128.48782 62.738717,125.64 62.788852,122.56 l 0.09115,-5.6 4.72,-0.0886 4.72,-0.0885 v 0.93432 c 0,1.19697 -0.367737,1.32279 -3.866173,1.32279 h -2.853827 v 1.2739 c 0,1.49331 0.153715,1.56076 3.84,1.68513 2.325075,0.0784 2.4,0.10594 2.4,0.88097 0,0.78596 -0.05333,0.8028 -3.04,0.96 l -3.04,0.16 -0.09672,1.68 -0.09672,1.68 3.136724,0.005 c 1.725197,0.003 3.329322,0.12699 3.56472,0.27619 0.235398,0.14921 0.379398,0.61501 0.32,1.0351 -0.107587,0.76092 -0.125846,0.76415 -4.819767,0.85232 -4.670093,0.0877 -4.713353,0.0821 -4.891152,-0.64 z m 15.096257,0.49815 c -0.117334,-0.11733 -0.213334,-2.49333 -0.213334,-5.28 V 119.04 h -1.378839 c -1.61121,0 -2.579827,-0.5868 -2.411904,-1.46116 0.110614,-0.57597 0.467718,-0.62495 5.154797,-0.70697 l 5.035946,-0.0881 v 0.96204 c 0,1.03002 -0.307027,1.19407 -2.56,1.36784 l -1.12,0.0864 -0.08793,5.2 -0.08793,5.2 h -1.058739 c -0.582308,0 -1.154743,-0.096 -1.272074,-0.21334 z M 86.080005,123.2 v -6.4 h 4.605764 c 3.904656,0 4.635331,0.077 4.8,0.50617 0.259977,0.67749 0.265033,0.65731 -0.308621,1.23097 -0.386032,0.38603 -1.203808,0.50286 -3.52,0.50286 h -3.017143 v 1.28 c 0,0.7888 0.153498,1.29573 0.4,1.32099 0.660371,0.0677 2.209952,0.14739 4.181255,0.21509 1.828758,0.0628 1.859488,0.0793 1.76,0.94392 -0.10104,0.87812 -0.107734,0.88034 -3.141255,1.04 l -3.04,0.16 -0.09634,1.66901 -0.09634,1.669 3.456343,0.091 3.456343,0.091 0.100275,1.04 0.100275,1.04 H 90.900286 86.08001 Z m 24.142465,5.9897 c -0.0866,-0.22566 -0.11807,-3.06966 -0.07,-6.32 l 0.0875,-5.9097 3.94197,-0.09 3.94198,-0.09 1.13851,1.13851 c 1.00121,1.00121 1.11599,1.27736 0.95171,2.28972 -0.10275,0.63316 -0.43354,1.42382 -0.73508,1.75702 -0.52123,0.57595 -0.50725,0.64895 0.2835,1.48031 1.07668,1.13199 1.35206,2.31626 0.87484,3.76226 -0.65205,1.97574 -1.74737,2.38964 -6.32747,2.39103 -2.90233,9.6e-4 -3.97122,-0.1061 -4.0875,-0.4091 z m 7.47354,-2.2137 c 0.5247,-0.52471 0.48421,-2.01447 -0.0672,-2.4721 -0.27585,-0.22894 -1.3018,-0.33743 -2.64,-0.27918 l -2.1888,0.0953 -0.10255,1.07046 c -0.1737,1.81321 0.0191,1.96954 2.42851,1.96954 1.27358,0 2.34632,-0.16028 2.57004,-0.384 z m -0.64721,-5.55415 c 0.80655,-0.56492 0.92645,-1.48485 0.26509,-2.03373 -0.69986,-0.58083 -3.61733,-0.82662 -4.1882,-0.35284 -0.48531,0.40277 -0.67549,2.26824 -0.27235,2.67138 0.42101,0.42101 3.4847,0.21303 4.19546,-0.28481 z M 75.013985,110.47511 c -0.19031,-0.12931 -1.61848,-3.95699 -3.173712,-8.50596 -1.555229,-4.548968 -3.029808,-8.472969 -3.276839,-8.719999 -0.36446,-0.364461 -2.164352,-0.449146 -9.546288,-0.449146 h -9.097143 v -6.88 -6.88 h 8.240909 8.24091 l 2.879091,8.56 2.879091,8.560001 12.602692,0.08375 c 9.048983,0.06014 12.726209,-0.01875 13.040734,-0.279792 0.240921,-0.199949 1.682057,-4.161638 3.20252,-8.803754 l 2.76447,-8.440208 h 8.27479 8.2748 v 7.2 7.2 h -9.24082 c -7.01066,0 -9.31714,0.09653 -9.55706,0.4 -0.17394,0.220001 -1.50689,4.000001 -2.962124,8.400008 -1.455235,4.4 -2.788189,8.18 -2.962122,8.4 -0.241021,0.30485 -2.685578,0.39883 -10.27706,0.3951 -5.478451,-0.003 -10.116528,-0.1107 -10.306839,-0.24 z M 74.744296,91.239308 c -0.09542,-0.154384 -1.420298,-3.934384 -2.944186,-8.400001 -1.523885,-4.465616 -2.911949,-8.299303 -3.084586,-8.519303 -0.238182,-0.303529 -2.544035,-0.4 -9.560945,-0.4 h -9.247056 l 0.08624,-6.96 0.08624,-6.96 h 8.16 8.160001 l 2.800326,8.32 c 1.601767,4.758986 3.031805,8.491204 3.341159,8.720001 0.41024,0.303411 3.462384,0.4 12.639678,0.4 11.10344,0 12.143312,-0.04607 12.639405,-0.56 0.297312,-0.308001 1.773312,-4.304001 3.279998,-8.880001 l 2.73944,-8.32 h 8.16 8.16 v 7.2 7.2 l -9.09333,0.08508 c -5.79895,0.05425 -9.24111,0.207721 -9.50124,0.423616 -0.22436,0.186198 -1.652346,4.071913 -3.173306,8.634925 l -2.765383,8.296384 H 85.272264 c -5.69497,0 -10.432554,-0.126313 -10.527968,-0.280697 z m 0.615708,-18.207105 c -0.531414,-0.08116 -1.122966,-1.511207 -3.486624,-8.428737 -1.565645,-4.582048 -3.05193,-8.536301 -3.302858,-8.787229 -0.373577,-0.373581 -2.10432,-0.456234 -9.553376,-0.456234 h -9.097143 v -6.88 -6.880001 h 8.244525 8.244526 l 2.810422,8.451502 c 1.770403,5.323942 2.992208,8.521255 3.301648,8.64 0.270173,0.103674 6.020129,0.188499 12.777675,0.188499 h 12.286452 l 0.460275,-0.72 c 0.253149,-0.396 1.640339,-4.356 3.082644,-8.8 l 2.62237,-8.080001 h 8.28473 8.28474 v 7.200001 7.2 h -9.24082 c -7.00784,0 -9.31852,0.09666 -9.56235,0.4 -0.17684,0.22 -1.50779,4.000001 -2.957673,8.400001 -1.449878,4.4 -2.770032,8.144 -2.93367,8.32 -0.268026,0.288269 -18.528398,0.497495 -20.265493,0.232199 z"
         id="path3784"
         inkscape:connector-curvature="0" />
      <path
         style="fill:#5c5c5c;stroke-width:0.32000002"
         d="m 53.237827,129.5718 c -1.355776,-0.39298 -3.200605,-2.50921 -3.65584,-4.19366 -0.806352,-2.98365 0.260918,-6.41513 2.464979,-7.92537 1.51576,-1.03862 4.300001,-1.24284 5.86666,-0.43032 1.443405,0.74859 2.711018,2.5777 2.207155,3.18482 -0.609629,0.73456 -1.882806,0.49825 -2.840778,-0.52726 -0.999238,-1.06969 -2.077209,-1.2261 -3.47359,-0.504 -1.184151,0.61235 -1.64641,1.75085 -1.64641,4.05494 0,2.31776 0.589677,3.57802 1.934877,4.13522 1.333427,0.55232 2.51441,0.12179 3.343091,-1.21874 0.54897,-0.88804 0.779738,-1.01372 1.592032,-0.86701 1.273825,0.23007 1.529761,0.5485 1.179511,1.46748 -0.928435,2.43601 -4.007354,3.68313 -6.971687,2.8239 z m 47.543493,0.0634 c -1.493877,-0.48731 -2.209561,-1.00426 -2.698002,-1.9488 -0.728339,-1.40845 -0.619722,-2.14572 0.343232,-2.3298 0.648419,-0.12395 1.091267,0.10938 2.05491,1.0827 1.2999,1.31296 2.21231,1.53053 3.65734,0.87213 1.94347,-0.8855 1.1466,-2.54103 -1.52525,-3.1688 -2.15029,-0.50523 -3.20333,-1.05444 -4.025288,-2.09939 -1.651527,-2.09958 -0.206739,-4.98532 2.715368,-5.42351 2.80646,-0.42086 4.8147,0.31794 5.7428,2.11268 0.62429,1.20725 0.40207,1.58759 -0.9276,1.58759 -0.71415,0 -1.26291,-0.25245 -1.739,-0.8 -0.51422,-0.59141 -1.01321,-0.8 -1.91371,-0.8 -2.39128,0 -2.758367,1.59545 -0.54611,2.37353 0.792,0.27856 2.0839,0.73281 2.8709,1.00946 0.78699,0.27664 1.79499,0.93569 2.24,1.46455 1.43741,1.70827 0.85259,4.5371 -1.15233,5.57388 -1.16868,0.60435 -3.9364,0.87247 -5.09726,0.49378 z M 62.877082,128.88851 C 62.778422,128.48782 62.738717,125.64 62.788852,122.56 l 0.09115,-5.6 4.72,-0.0886 4.72,-0.0885 v 0.93432 c 0,1.19697 -0.367737,1.32279 -3.866173,1.32279 h -2.853827 v 1.2739 c 0,1.49331 0.153715,1.56076 3.84,1.68513 2.325075,0.0784 2.4,0.10594 2.4,0.88097 0,0.78596 -0.05333,0.8028 -3.04,0.96 l -3.04,0.16 -0.09672,1.68 -0.09672,1.68 3.136724,0.005 c 1.725197,0.003 3.329322,0.12699 3.56472,0.27619 0.235398,0.14921 0.379398,0.61501 0.32,1.0351 -0.107587,0.76092 -0.125846,0.76415 -4.819767,0.85232 -4.670093,0.0877 -4.713353,0.0821 -4.891152,-0.64 z m 15.096257,0.49815 c -0.117334,-0.11733 -0.213334,-2.49333 -0.213334,-5.28 V 119.04 h -1.378839 c -1.61121,0 -2.579827,-0.5868 -2.411904,-1.46116 0.110614,-0.57597 0.467718,-0.62495 5.154797,-0.70697 l 5.035946,-0.0881 v 0.96204 c 0,1.03002 -0.307027,1.19407 -2.56,1.36784 l -1.12,0.0864 -0.08793,5.2 -0.08793,5.2 h -1.058739 c -0.582308,0 -1.154743,-0.096 -1.272074,-0.21334 z M 86.080005,123.2 v -6.4 h 4.605764 c 3.904656,0 4.635331,0.077 4.8,0.50617 0.259977,0.67749 0.265033,0.65731 -0.308621,1.23097 -0.386032,0.38603 -1.203808,0.50286 -3.52,0.50286 h -3.017143 v 1.28 c 0,0.7888 0.153498,1.29573 0.4,1.32099 0.660371,0.0677 2.209952,0.14739 4.181255,0.21509 1.828758,0.0628 1.859488,0.0793 1.76,0.94392 -0.10104,0.87812 -0.107734,0.88034 -3.141255,1.04 l -3.04,0.16 -0.09634,1.66901 -0.09634,1.669 3.456343,0.091 3.456343,0.091 0.100275,1.04 0.100275,1.04 H 90.900286 86.08001 Z m 24.142465,5.9897 c -0.0866,-0.22566 -0.11807,-3.06966 -0.07,-6.32 l 0.0875,-5.9097 3.94197,-0.09 3.94198,-0.09 1.13851,1.13851 c 1.00121,1.00121 1.11599,1.27736 0.95171,2.28972 -0.10275,0.63316 -0.43354,1.42382 -0.73508,1.75702 -0.52123,0.57595 -0.50725,0.64895 0.2835,1.48031 1.07668,1.13199 1.35206,2.31626 0.87484,3.76226 -0.65205,1.97574 -1.74737,2.38964 -6.32747,2.39103 -2.90233,9.6e-4 -3.97122,-0.1061 -4.0875,-0.4091 z m 7.47354,-2.2137 c 0.5247,-0.52471 0.48421,-2.01447 -0.0672,-2.4721 -0.27585,-0.22894 -1.3018,-0.33743 -2.64,-0.27918 l -2.1888,0.0953 -0.10255,1.07046 c -0.1737,1.81321 0.0191,1.96954 2.42851,1.96954 1.27358,0 2.34632,-0.16028 2.57004,-0.384 z m -0.64721,-5.55415 c 0.80655,-0.56492 0.92645,-1.48485 0.26509,-2.03373 -0.69986,-0.58083 -3.61733,-0.82662 -4.1882,-0.35284 -0.48531,0.40277 -0.67549,2.26824 -0.27235,2.67138 0.42101,0.42101 3.4847,0.21303 4.19546,-0.28481 z"
         id="path3782"
         inkscape:connector-curvature="0" />
      <path
         style="fill:#0e0e0e;stroke-width:0.32000002"
         d="m 53.280003,129.13191 c -2.571245,-0.93428 -3.93304,-3.55923 -3.548243,-6.83946 0.242416,-2.06649 0.807741,-3.22904 2.098272,-4.31495 1.879594,-1.58157 5.543402,-1.43315 7.271104,0.29455 1.685328,1.68533 0.137507,2.71011 -1.681315,1.11316 -1.495168,-1.31277 -2.944035,-1.32981 -4.374768,-0.0515 -1.033511,0.92344 -1.04505,0.96555 -1.04505,3.81422 0,2.59185 0.07617,2.96154 0.760186,3.68965 1.496521,1.59297 4.078035,1.3449 5.023123,-0.48269 0.515482,-0.99684 0.999763,-1.1327 1.835508,-0.51493 0.505052,0.37332 0.499481,0.46819 -0.08356,1.42261 -0.343584,0.56244 -0.955575,1.23522 -1.359978,1.49506 -1.137411,0.73085 -3.431242,0.9062 -4.895277,0.37423 z m 47.306537,0.13556 c -1.165193,-0.35872 -2.666534,-1.98701 -2.666534,-2.89202 0,-0.89268 1.796569,-0.86846 2.081114,0.0281 0.50388,1.58759 3.52742,2.09704 4.81343,0.81103 1.54691,-1.5469 0.87403,-2.47359 -2.5557,-3.51972 -1.91883,-0.58528 -2.889775,-1.06575 -3.358934,-1.66219 -1.369181,-1.74064 -0.48423,-4.17854 1.789144,-4.92882 1.39251,-0.45957 3.94363,-0.21304 5.00728,0.4839 0.81035,0.53096 1.59149,1.8978 1.26893,2.22036 -0.44765,0.44765 -1.71395,0.13415 -2.45617,-0.60807 -1.46325,-1.46325 -4.541696,-0.88526 -4.29948,0.80723 0.12767,0.89217 0.96924,1.38771 3.56331,2.0982 2.43561,0.66709 3.41841,1.53591 3.64455,3.2219 0.21101,1.57321 -0.51864,3.05503 -1.79036,3.63596 -1.13732,0.51954 -3.81598,0.68117 -5.04058,0.30417 z m -37.404431,-0.3987 c -0.08679,-0.22619 -0.118275,-2.92619 -0.06996,-6 l 0.08785,-5.58876 4.4,-0.089 c 4.167699,-0.0843 4.4,-0.0563 4.4,0.53001 0,0.56306 -0.287053,0.62899 -3.17401,0.72903 -1.745705,0.0605 -3.290432,0.22671 -3.432726,0.36938 -0.336032,0.33691 -0.335939,2.66443 1.18e-4,3.00121 0.142362,0.14267 1.615088,0.3093 3.272727,0.37029 2.710774,0.0997 3.013891,0.17215 3.013891,0.72 0,0.55203 -0.262381,0.60956 -2.8,0.61401 -1.54,0.003 -2.960592,0.11069 -3.156871,0.24 -0.563331,0.37111 -0.842137,1.63362 -0.62103,2.81222 l 0.202886,1.08148 3.427508,0.0907 c 3.279094,0.0868 3.431936,0.12188 3.529763,0.8107 0.101895,0.71746 0.08634,0.72 -4.410042,0.72 -3.380432,0 -4.551885,-0.10316 -4.670109,-0.41124 z m 14.897896,-4.69751 c 0,-5.76783 -0.0015,-5.77125 -2.538964,-5.77125 -1.087702,0 -1.301037,-0.10494 -1.301037,-0.64 0,-0.61156 0.213335,-0.64 4.800001,-0.64 4.477968,0 4.8,0.0402 4.8,0.59928 0,0.48698 -0.306234,0.62872 -1.634109,0.75631 -0.898758,0.0864 -1.760554,0.35668 -1.915101,0.60071 -0.154544,0.24403 -0.283197,2.6397 -0.285891,5.3237 l -0.0049,4.88 h -0.96 -0.96 z m 8.32,-0.98028 v -6.08903 l 4.4,0.089 c 3.658209,0.074 4.400001,0.16995 4.400001,0.56903 0,0.38175 -0.622221,0.51275 -3.040001,0.64 -1.672,0.088 -3.22,0.2765 -3.44,0.41888 -0.22,0.14239 -0.4,0.82132 -0.4,1.50874 0,1.63575 0.552416,1.91238 3.818964,1.91238 2.367702,0 2.581037,0.0529 2.581037,0.64 0,0.59086 -0.214967,0.64037 -2.800001,0.6449 -1.54,0.003 -2.988301,0.12432 -3.218448,0.27028 -0.282345,0.17907 -0.386425,0.82799 -0.32,1.99511 l 0.09845,1.72971 3.36,0.16 c 3.184647,0.15165 3.365338,0.19758 3.462257,0.88 0.101888,0.71739 0.08597,0.72 -4.400001,0.72 h -4.502256 z m 24.000005,0.0345 v -6.10543 h 3.79684 c 3.31997,0 3.89966,0.0809 4.61543,0.6439 1.21598,0.95649 1.3868,2.27476 0.49935,3.85376 l -0.73645,1.31034 0.67496,0.536 c 1.63297,1.29677 1.74002,3.47409 0.24017,4.88482 -0.76442,0.719 -1.09968,0.77831 -4.9551,0.87661 l -4.1352,0.10543 z m 7.4148,3.92497 c 0.74163,-0.67116 0.7548,-2.10336 0.0252,-2.73939 -0.72655,-0.63336 -3.60889,-0.99345 -4.68306,-0.58505 -0.74406,0.28289 -0.83694,0.49071 -0.83694,1.87278 0,0.85503 0.096,1.65059 0.21334,1.76792 0.11734,0.11734 1.222,0.21334 2.45481,0.21334 1.63665,0 2.39938,-0.1429 2.82667,-0.5296 z m -0.87601,-5.27897 c 1.56099,-0.71123 1.4434,-2.55193 -0.19962,-3.12469 -1.25706,-0.43821 -2.99709,-0.4453 -3.80021,-0.0155 -0.71502,0.38267 -0.87322,2.48649 -0.23496,3.12475 0.48874,0.48874 3.17451,0.49853 4.23479,0.0154 z"
         id="path3780"
         inkscape:connector-curvature="0" />
    </g>
  </g>
</svg>
