<?xml version="1.0" encoding="UTF-8" standalone="no"?>
<!-- Created with Inkscape (http://www.inkscape.org/) -->

<svg
   xmlns:dc="http://purl.org/dc/elements/1.1/"
   xmlns:cc="http://creativecommons.org/ns#"
   xmlns:rdf="http://www.w3.org/1999/02/22-rdf-syntax-ns#"
   xmlns:svg="http://www.w3.org/2000/svg"
   xmlns="http://www.w3.org/2000/svg"
   xmlns:sodipodi="http://sodipodi.sourceforge.net/DTD/sodipodi-0.dtd"
   xmlns:inkscape="http://www.inkscape.org/namespaces/inkscape"
   width="25.64245mm"
   height="21.269396mm"
   viewBox="0 0 25.64245 21.269396"
   version="1.1"
   id="svg2590"
   inkscape:version="0.92.4 (5da689c313, 2019-01-14)"
   sodipodi:docname="srf.svg">
  <defs
     id="defs2584" />
  <sodipodi:namedview
     id="base"
     pagecolor="#ffffff"
     bordercolor="#666666"
     borderopacity="1.0"
     inkscape:pageopacity="0.0"
     inkscape:pageshadow="2"
     inkscape:zoom="1.979899"
     inkscape:cx="76.119415"
     inkscape:cy="69.810518"
     inkscape:document-units="mm"
     inkscape:current-layer="layer1"
     showgrid="false"
     inkscape:window-width="1920"
     inkscape:window-height="1001"
     inkscape:window-x="-9"
     inkscape:window-y="-9"
     inkscape:window-maximized="1" />
  <metadata
     id="metadata2587">
    <rdf:RDF>
      <cc:Work
         rdf:about="">
        <dc:format>image/svg+xml</dc:format>
        <dc:type
           rdf:resource="http://purl.org/dc/dcmitype/StillImage" />
        <dc:title></dc:title>
      </cc:Work>
    </rdf:RDF>
  </metadata>
  <g
     inkscape:label="Layer 1"
     inkscape:groupmode="layer"
     id="layer1"
     transform="translate(37.8855,-143.90824)">
    <g
       transform="matrix(0.21251068,0,0,0.21251068,-43.121763,136.07217)"
       id="g2552"
       style="fill:#808080">
      <path
         style="fill:#808080;stroke-width:0.32000002"
         d="m 25.142859,136.45715 c -0.425207,-0.42521 -0.502858,-1.54027 -0.502858,-7.22104 0,-4.01906 0.133088,-6.96685 0.331259,-7.33714 0.290832,-0.54342 0.691122,-0.61875 3.280001,-0.61718 3.51071,0.002 4.981775,0.35852 6.101467,1.47822 1.501757,1.50175 1.513783,3.75879 0.02944,5.52285 -0.694035,0.82481 -0.761683,1.07747 -0.446284,1.6668 0.204464,0.38204 0.628512,1.43166 0.942329,2.33249 l 0.570579,1.63786 -0.147612,-1.92 c -0.270365,-3.51658 1.907286,-6.24131 4.986157,-6.23881 1.94079,0.002 3.427018,0.92824 4.17761,2.60474 l 0.587718,1.31272 0.553126,-1.16563 c 0.923066,-1.94524 2.160714,-2.59302 4.954212,-2.59302 h 2.4 l 0.16,1.07675 0.16,1.07675 0.639245,-0.70951 c 2.182125,-2.42199 6.240477,-2.05423 7.74522,0.70186 l 0.575536,1.05415 0.103843,-1.27594 c 0.153232,-1.88275 0.456089,-2.08406 3.135338,-2.08406 2.272451,0 2.360819,-0.0285 2.360819,-0.76082 0,-0.88594 0.390182,-1.24827 1.887373,-1.75262 1.373018,-0.46252 1.952627,-0.0491 1.952627,1.39262 0,0.90047 0.129456,1.06671 0.96,1.23282 0.854036,0.1708 0.96,0.31958 0.96,1.34779 0,0.99036 -0.137411,1.20767 -0.96,1.51816 -0.943779,0.35624 -0.96,0.40115 -0.96,2.65797 0,1.84767 0.104103,2.33555 0.533511,2.50033 0.665564,0.2554 0.890995,0.0111 1.368189,-1.48273 0.459161,-1.43739 1.809296,-2.34741 3.952163,-2.66384 2.234064,-0.32991 1.734963,-0.94968 -0.764768,-0.94968 h -2.049095 l -0.09788,-1.34942 c -0.08827,-1.21688 -0.01747,-1.3696 0.720947,-1.55493 0.450355,-0.11303 1.913392,-0.15024 3.251191,-0.0827 2.27495,0.11488 2.492909,0.1906 3.367984,1.16997 l 0.935625,1.04715 -0.08893,4.38495 -0.08893,4.38496 -1.095431,0.10441 c -0.602483,0.0574 -1.412483,-0.0653 -1.8,-0.27267 -0.519632,-0.2781 -0.877536,-0.28451 -1.363533,-0.0244 -1.040227,0.55671 -2.773357,0.41667 -3.681213,-0.29745 l -0.826483,-0.65011 -0.347929,0.65011 c -0.285476,0.53342 -0.666241,0.65011 -2.121287,0.65011 -1.533357,0 -1.899946,-0.12659 -2.708739,-0.93538 -0.90362,-0.90361 -0.935386,-1.03946 -0.935386,-4 0,-3.05559 -0.0024,-3.06461 -0.8,-3.06461 h -0.8 v 3.80576 c 0,4.17558 -0.0091,4.19424 -2.042173,4.19424 -1.465562,0 -1.79793,-0.5001 -1.797091,-2.704 l 6.4e-4,-1.936 -2.880733,0.10271 c -2.200688,0.0785 -2.880736,0.208 -2.880736,0.54874 0,0.70266 1.20606,1.16912 2.829814,1.09447 2.278141,-0.10474 2.290186,-0.0981 2.290186,1.25984 0,1.49483 -0.262919,1.63424 -3.082064,1.63424 -2.042199,0 -3.465213,-0.46487 -4.677937,-1.52819 -0.509804,-0.44699 -0.56,-0.43493 -0.56,0.13459 0,0.34408 -0.1728,0.7984 -0.384,1.0096 -0.522749,0.52275 -3.873187,0.48568 -5.17255,-0.0572 -1.245485,-0.5204 -2.416561,-1.90433 -2.665751,-3.15029 l -0.177606,-0.88849 h -2.821114 c -1.551613,0 -2.906202,0.13767 -3.010199,0.30594 -0.403414,0.65274 1.391661,1.37929 3.020983,1.22274 1.765613,-0.16965 2.25033,0.12142 2.25033,1.35132 0,1.29468 -0.563744,1.6 -2.954279,1.6 -2.585584,0 -3.967466,-0.50678 -5.121415,-1.87817 l -0.845811,-1.00519 0.06075,1.36168 0.06075,1.36168 -1.249498,0.10227 c -2.258851,0.18488 -2.652539,-0.0726 -3.215106,-2.1027 -0.654584,-2.36216 -1.357967,-3.91957 -1.770219,-3.91957 -0.194118,0 -0.325177,1.07047 -0.325177,2.656 0,1.63911 -0.14702,2.80302 -0.384,3.04 -0.56039,0.56039 -2.994411,0.47987 -3.593143,-0.11886 z M 79.053387,133.415 c 0.551142,-1.02981 0.183837,-1.57205 -0.874643,-1.29119 -0.660538,0.17527 -0.925575,0.46611 -0.999994,1.09734 -0.08633,0.73228 0.01811,0.85886 0.708739,0.85886 0.492644,0 0.949437,-0.26055 1.165898,-0.66501 z m -26.36005,-2.05499 v -2.4 h -1.368521 c -1.585219,0 -2.364813,0.79119 -2.364813,2.4 0,1.6088 0.779594,2.4 2.364813,2.4 h 1.368521 z m -11.413335,-1.88082 c 0,-0.24245 -0.22807,-0.6301 -0.506822,-0.86144 -0.594237,-0.49318 -1.510243,-0.0689 -1.67664,0.77656 -0.08046,0.40882 0.150752,0.5257 1.04,0.5257 0.757904,0 1.143462,-0.14864 1.143462,-0.44082 z m 17.280001,0.0248 c 0,-0.44888 -0.62159,-1.184 -1.001142,-1.184 -0.334547,0 -1.238858,0.95103 -1.238858,1.30286 0,0.16343 0.504,0.29714 1.12,0.29714 0.705642,0 1.12,-0.1539 1.12,-0.416 z m -28.138964,-2.15526 c 0.968308,-0.51822 0.834722,-2.16255 -0.20789,-2.55895 -1.121233,-0.42631 -1.413147,-0.1669 -1.413147,1.25575 0,1.66763 0.375706,1.96967 1.621037,1.30319 z m 57.322966,9.22725 c -0.544377,-0.54438 -0.544377,-14.36763 0,-14.912 0.529559,-0.52956 7.662442,-0.52956 8.192001,0 0.496028,0.49603 0.496028,2.25597 0,2.752 -0.217399,0.2174 -1.258666,0.384 -2.400001,0.384 h -2.016 v 1.28 1.28 h 2.016 c 1.139514,0 2.182679,0.16668 2.399377,0.38337 0.297836,0.29784 0.632624,0.14181 1.500441,-0.69932 0.957322,-0.92787 1.380698,-1.09962 2.960627,-1.20102 2.17881,-0.13984 3.58825,0.56065 4.28212,2.12821 0.54642,1.23443 0.74087,1.23723 1.24593,0.0179 0.68682,-1.65814 1.80693,-2.29389 3.83009,-2.17388 l 1.76542,0.10472 0.16,-2.24 0.16,-2.24 1.46803,-0.0954 c 0.94738,-0.0616 1.59588,0.0587 1.82855,0.33899 0.20467,0.24662 0.40006,1.9479 0.45197,3.93542 l 0.0914,3.501 0.55224,-1.00911 c 0.80899,-1.47826 2.41342,-2.35089 4.32237,-2.35089 1.78656,0 2.93259,0.6863 3.96028,2.37161 l 0.60271,0.98839 0.001,-1.296 c 6.4e-4,-0.7128 0.174,-1.4688 0.3852,-1.68 0.48818,-0.48818 2.57168,-0.50033 3.0542,-0.0178 0.26607,0.26606 0.61168,0.27309 1.264,0.0257 0.49379,-0.18727 2.65006,-0.31605 4.79172,-0.28619 3.64331,0.0508 3.94711,0.10424 4.72048,0.83052 0.45462,0.42693 0.96955,1.29093 1.1443,1.92 0.45817,1.6493 0.4122,7.48487 -0.0627,7.95976 -0.47109,0.47109 -2.56479,0.50722 -3.01989,0.0521 -0.22919,-0.22918 -0.60202,-0.22918 -1.20483,0 -2.12536,0.80806 -4.41389,-0.12485 -4.93487,-2.0117 -0.692,-2.50622 0.60159,-4.15918 3.75897,-4.80322 1.76019,-0.35905 1.93744,-0.46078 1.47359,-0.84574 -0.43803,-0.36354 -1.02494,-0.37162 -3.46812,-0.0478 -1.61747,0.21442 -3.14032,0.58781 -3.38412,0.82977 -0.29169,0.2895 -0.49824,1.51544 -0.60404,3.58523 -0.0908,1.77645 -0.3157,3.24762 -0.51674,3.38041 -0.5676,0.37489 -2.59142,0.28142 -3.01195,-0.13911 -0.2112,-0.2112 -0.384,-1.2192 -0.384,-2.24 v -1.856 h -2.88 c -1.584,0 -2.88,0.13372 -2.88,0.29715 0,0.16343 0.24377,0.54091 0.54171,0.83885 0.43152,0.43152 0.92352,0.50708 2.41881,0.37149 1.80026,-0.16324 1.89021,-0.13573 2.19734,0.67208 0.21624,0.56877 0.21236,1.07905 -0.0119,1.57137 -0.30098,0.66057 -0.54882,0.72906 -2.63802,0.72906 -2.77642,0 -4.62041,-0.76788 -5.55488,-2.3132 l -0.6331,-1.04679 -0.10385,1.27594 c -0.0571,0.70177 -0.25475,1.45777 -0.43918,1.68 -0.4223,0.50884 -2.5641,0.52893 -3.06429,0.0287 -0.2871,-0.2871 -0.56896,-0.2871 -1.19906,0 -2.10669,0.95987 -4.61393,-0.37325 -5.17447,-2.7513 l -0.2813,-1.19339 -2.52064,-0.0944 c -3.201077,-0.11987 -3.676235,0.0336 -2.86831,0.92634 0.49065,0.54216 0.90852,0.6412 2.36356,0.56023 2.113,-0.11758 2.56754,0.1139 2.56754,1.30753 0,1.41778 -0.63301,1.70291 -3.49235,1.57306 -1.943475,-0.0883 -2.752729,-0.27105 -3.426281,-0.77393 -1.403713,-1.04802 -2.060711,-2.14313 -2.303335,-3.83927 -0.124269,-0.86876 -0.332166,-1.54357 -0.461994,-1.49957 -0.129824,0.044 -1.028044,0.08 -1.996045,0.08 h -1.76 v 2.656 c 0,1.63912 -0.14702,2.80303 -0.384,3.04 -0.2112,0.2112 -0.9744,0.384 -1.696,0.384 -0.7216,0 -1.4848,-0.1728 -1.696,-0.384 z m 48.883245,-2.96063 c 0.57283,-0.69021 0.27294,-1.63602 -0.47884,-1.5102 -0.89395,0.14961 -1.5493,0.87822 -1.3222,1.47002 0.24282,0.63277 1.28985,0.65613 1.80104,0.0402 z m -25.22193,-1.13537 c 0.29885,-1.46158 -0.0759,-3.2097 -0.78257,-3.65026 -0.82401,-0.51375 -1.17202,0.24171 -1.17784,2.55692 -0.005,2.14048 0.13876,2.44553 1.09008,2.30684 0.44598,-0.065 0.71107,-0.43465 0.87033,-1.2135 z m -9.64531,-2.81884 c 0,-0.14236 -0.20757,-0.53836 -0.46126,-0.88 -0.36909,-0.49704 -0.57691,-0.55037 -1.04,-0.26686 -0.318309,0.19486 -0.625304,0.59086 -0.682207,0.88 -0.08046,0.40882 0.150752,0.5257 1.039997,0.5257 0.62891,0 1.14347,-0.11648 1.14347,-0.25884 z m 19.84,-0.0383 c 0,-0.35184 -0.90431,-1.30286 -1.23886,-1.30286 -0.37955,0 -1.00114,0.73512 -1.00114,1.184 0,0.26209 0.41436,0.416 1.12,0.416 0.616,0 1.12,-0.13372 1.12,-0.29714 z m 20.02286,6.83428 c -0.42521,-0.42521 -0.50286,-1.54027 -0.50286,-7.22104 0,-4.01906 0.13309,-6.96685 0.33126,-7.33714 0.24801,-0.46341 0.67422,-0.61896 1.696,-0.61896 0.7506,0 1.53754,0.1728 1.74874,0.384 0.54438,0.54437 0.54438,14.36762 0,14.912 -0.55117,0.55117 -2.68044,0.47385 -3.27314,-0.11886 z m -78.995158,-11.8561 c -0.372761,-0.37276 -0.258374,-2.52238 0.156292,-2.93704 0.437625,-0.43763 2.445469,-0.50771 3.076758,-0.10739 0.271901,0.17242 0.385114,0.76504 0.32,1.6751 l -0.100758,1.40829 -1.612291,0.0944 c -0.886762,0.0519 -1.714762,-0.008 -1.840001,-0.13333 z M 78.880005,110.6616 C 68.599364,100.85816 57.555376,90.662383 51.040003,84.959791 c -1.584,-1.3864 -2.997571,-2.713831 -3.141271,-2.94985 -0.267568,-0.439469 2.77074,-6.518141 7.856218,-15.717742 1.394861,-2.523293 2.456045,-4.667872 2.358189,-4.765728 -0.218195,-0.218192 -6.039507,3.224173 -14.005117,8.281757 -3.284589,2.085479 -6.105133,3.791776 -6.267876,3.791776 -0.162742,0 -1.488416,-0.939545 -2.945936,-2.087878 -1.457523,-1.148333 -4.21698,-3.185629 -6.132126,-4.527328 -3.429595,-2.402676 -3.873232,-2.913197 -3.082082,-3.546749 2.027766,-1.623828 20.557444,-11.599515 28.400001,-15.289502 l 5.28,-2.484282 6.080001,0.05988 c 3.344,0.03293 8.375114,0.195357 11.180257,0.360945 2.805139,0.16559 5.153238,0.248086 5.217993,0.183331 0.133978,-0.133978 -2.690336,-1.250781 -7.59825,-3.004535 -2.203712,-0.787459 -3.36,-1.362938 -3.36,-1.672259 0,-0.326439 1.674647,-1.025536 5.44,-2.270983 7.773483,-2.571193 8.483499,-2.72096 10.498919,-2.214592 5.908276,1.484439 23.687937,8.013393 25.208617,9.256977 0.62844,0.513933 0.6274,0.549654 -0.17768,6.066688 -0.44542,3.052343 -0.80985,5.744775 -0.80985,5.983181 0,0.269069 2.50601,-0.853401 6.60755,-2.959594 l 6.60755,-3.393062 3.55245,1.830534 c 7.07899,3.647725 17.15245,9.573211 17.15245,10.089543 0,0.280448 -2.03147,1.99992 -4.56,3.859671 -5.39711,3.969607 -10.85272,8.295271 -15.90568,12.611338 -3.27174,2.794612 -3.77039,3.112708 -4.64,2.95994 -0.53588,-0.09414 -3.63832,-0.750602 -6.89432,-1.458804 -9.98197,-2.171139 -25.713227,-4.959427 -25.532568,-4.52552 0.05091,0.122275 3.082167,2.47689 6.736125,5.232474 9.468343,7.140413 14.360253,11.127422 14.251043,11.614881 -0.15848,0.707353 -22.636023,21.885911 -23.225002,21.882821 -0.302281,-0.002 -3.141603,-2.47457 -6.309603,-5.49552 z m 9.989066,-37.282498 c 3.510637,-2.503475 15.029139,-10.138583 18.651389,-12.363191 1.83126,-1.124669 1.94468,-1.258039 1.39635,-1.642036 -1.56402,-1.095286 -9.417639,-5.327094 -13.716804,-7.391101 -7.420503,-3.562547 -9.467755,-4.372989 -10.520427,-4.164714 -1.965062,0.3888 -23.562497,11.355339 -23.557915,11.962014 9.6e-4,0.120963 1.404916,1.075853 3.120001,2.121981 3.436352,2.096022 15.370346,10.064196 18.622365,12.433914 1.135217,0.827219 2.174295,1.504035 2.309066,1.504035 0.134771,0 1.797959,-1.107404 3.695975,-2.460902 z M 80.800005,68.3425 c -3.889956,-0.769542 -6.157242,-1.772598 -8.229134,-3.640599 -2.341568,-2.111139 -2.998528,-4.524592 -1.889638,-6.941898 2.791021,-6.084246 15.270625,-8.565466 23.563227,-4.684889 8.79944,4.117757 6.99838,12.23961 -3.306333,14.909828 -2.809667,0.72806 -7.439824,0.89136 -10.138122,0.357558 z"
         id="path2566"
         inkscape:connector-curvature="0" />
      <path
         style="fill:#808080;stroke-width:0.32000002"
         d="m 25.344001,136.25601 c -0.543605,-0.54361 -0.543605,-13.7284 0,-14.272 0.543568,-0.54357 6.071205,-0.50478 7.386279,0.0518 1.4377,0.60852 2.175757,1.54424 2.371991,3.00725 0.180985,1.34936 -0.527952,3.16871 -1.359002,3.48762 -0.524685,0.20134 -0.625763,1.2511 -0.148845,1.54585 0.452794,0.27984 2.010848,5.55967 1.801572,6.10504 -0.222551,0.57996 -2.873408,0.62698 -3.292385,0.0584 -0.162113,-0.22 -0.615328,-1.42934 -1.007143,-2.68743 -1.248043,-4.00735 -2.296466,-3.99271 -2.296466,0.0321 0,2.13664 -0.100638,2.70549 -0.506172,2.86111 -0.849114,0.32584 -2.543212,0.21686 -2.949829,-0.18976 z m 5.304799,-8.75415 c 0.79035,-0.55358 0.97201,-2.08965 0.311202,-2.63145 -0.543796,-0.44585 -1.593164,-0.5889 -2.08,-0.28353 -0.510304,0.32009 -0.521941,2.52319 -0.016,3.02913 0.510953,0.51095 0.930667,0.48411 1.784798,-0.11415 z m 7.431202,8.58431 c -1.37632,-0.69573 -2.562909,-2.88673 -2.552973,-4.71397 0.0099,-1.81055 1.028525,-3.87262 2.294368,-4.64438 1.214378,-0.74039 3.538503,-0.84716 4.677882,-0.2149 0.914951,0.50772 1.974138,2.07077 1.983514,2.92709 0.0038,0.352 0.136592,0.84474 0.294973,1.09497 0.213728,0.33769 0.375856,0.12857 0.628915,-0.81123 0.192237,-0.7139 0.83977,-1.74984 1.484528,-2.37498 1.089504,-1.05634 1.252432,-1.10876 3.446183,-1.10876 h 2.302611 v 1.12 c 0,1.08766 -0.03901,1.12283 -1.350896,1.21795 -3.478122,0.2522 -3.578365,5.50205 -0.105059,5.50205 1.443616,0 2.08881,0.62742 1.805594,1.75584 -0.187879,0.74857 -0.336324,0.80416 -2.147373,0.80416 -3.088996,0 -4.905604,-1.26671 -5.507028,-3.84 -0.185258,-0.79266 -0.214256,-0.79901 -3.161104,-0.69146 -1.635776,0.0597 -3.118135,0.24972 -3.294135,0.42226 -0.211853,0.20769 -0.0081,0.58382 0.602788,1.11291 0.724944,0.62785 1.239491,0.7885 2.4,0.74931 2.344621,-0.0792 2.326877,-0.0876 2.217488,1.04698 l -0.100275,1.04 -2.400001,0.0862 c -1.792716,0.0644 -2.683398,-0.0571 -3.52,-0.48 z m 3.52,-6.38097 c 0,-0.6058 -0.892563,-1.70519 -1.3844,-1.70519 -0.559808,0 -1.4956,1.03214 -1.4956,1.64959 0,0.48641 0.253655,0.59041 1.44,0.59041 1.13225,0 1.44,-0.1143 1.44,-0.53481 z m 13.760001,6.31713 c -1.628505,-0.87649 -2.36,-2.32658 -2.36,-4.67842 0,-3.31568 1.727827,-5.26526 4.664109,-5.26271 1.919863,0.002 3.260221,0.90505 3.924816,2.64527 0.298404,0.78136 0.494967,1.83755 0.436813,2.34709 -0.105715,0.92624 -0.106349,0.92648 -2.822576,1.08645 -2.215798,0.13049 -2.735786,0.25955 -2.819574,0.6998 -0.175652,0.92292 1.310892,1.6139 3.206278,1.49036 l 1.690135,-0.11016 v 1.12 1.12 l -2.400001,0.0726 c -1.842848,0.0557 -2.660003,-0.0674 -3.52,-0.53024 z m 3.52,-6.39946 c 0,-0.64232 -0.787193,-1.62286 -1.302857,-1.62286 -0.163427,0 -0.585143,0.288 -0.937143,0.64 -1.104985,1.10498 -0.791475,1.6 1.013335,1.6 0.998189,0 1.226665,-0.11495 1.226665,-0.61714 z m 4.231364,6.75643 c -0.308887,-0.20238 -0.386999,-1.47257 -0.32,-5.20351 l 0.08864,-4.93578 2.558141,-0.16 c 2.525974,-0.15799 2.560176,-0.17167 2.72,-1.08825 0.128285,-0.7357 0.423216,-1.01863 1.421843,-1.36401 1.458109,-0.5043 1.696698,-0.35369 1.8372,1.15968 0.08154,0.87827 0.268355,1.14574 0.902816,1.29258 0.618634,0.14318 0.8228,0.41895 0.900564,1.21646 0.09023,0.92536 -1.73e-4,1.05146 -0.880001,1.22743 l -0.980563,0.19611 v 2.52792 c 0,2.41911 0.03533,2.54135 0.820832,2.84 1.230384,0.46779 1.32105,0.41415 1.532224,-0.90646 0.311245,-1.94643 2.232452,-3.26146 4.764833,-3.26146 0.665952,0 0.882112,-0.15534 0.882112,-0.63391 0,-0.80781 -1.128608,-1.10945 -3.064769,-0.8191 l -1.456572,0.21842 0.100668,-1.22271 0.100672,-1.2227 2.470202,-0.0933 c 2.668448,-0.10077 4.104439,0.36479 4.729898,1.53347 0.202842,0.37901 0.303075,2.27404 0.249485,4.71669 l -0.08958,4.08313 -1.28,-0.0798 c -1.921869,-0.11983 -2.426128,-0.10693 -4.022583,0.10289 -1.259405,0.16553 -1.597456,0.0787 -2.433501,-0.62475 l -0.970918,-0.81697 -0.359639,0.78932 c -0.311248,0.68311 -0.571081,0.78932 -1.931049,0.78932 -2.643226,0 -3.050807,-0.56953 -3.242311,-4.53057 l -0.16,-3.30943 h -0.96 -0.96 l -0.16,3.84 -0.16,3.84 -1.12,0.0835 c -0.616,0.0459 -1.303885,-0.037 -1.528637,-0.18422 z m 16.070494,-2.6905 c 0.599337,-0.85567 0.6503,-1.83478 0.09814,-1.88564 -0.80562,-0.0742 -1.689917,0.10743 -2.08,0.42725 -0.424762,0.34826 -0.54409,1.59884 -0.186666,1.95626 0.460502,0.46051 1.695917,0.17687 2.168522,-0.49787 z m 8.648439,2.5613 c -0.08975,-0.23388 -0.124282,-3.58983 -0.07674,-7.45766 L 87.84,121.76001 h 4 4.000001 v 1.28 1.28 l -2.240001,0.16 -2.24,0.16 v 1.44 1.44 l 2.1288,0.0939 c 1.996986,0.0881 2.141841,0.14585 2.339357,0.93283 l 0.210557,0.83892 0.574826,-0.93283 c 1.031642,-1.67416 1.845098,-2.16466 3.8277,-2.30807 1.72441,-0.12473 1.94099,-0.0608 3.02801,0.8936 0.64391,0.56537 1.17076,1.14764 1.17076,1.29395 0,0.14631 0.15627,0.6714 0.34729,1.16686 l 0.34729,0.90083 0.6112,-1.59748 c 0.33615,-0.87862 0.93586,-1.84742 1.3327,-2.15289 0.81777,-0.62949 2.52701,-0.73906 3.48996,-0.22371 0.3555,0.19026 0.74204,0.25074 0.85895,0.1344 0.11693,-0.11635 0.2846,-1.24402 0.37261,-2.50593 L 112.16,121.76 h 1.44 1.44 v 7.36 7.36 l -1.44,-0.0764 c -2.28327,-0.12113 -2.63971,-0.1123 -4.07179,0.10085 -1.20864,0.17989 -1.45354,0.0994 -2.31269,-0.75971 -0.5285,-0.52849 -1.12832,-1.58727 -1.33294,-2.35283 l -0.37205,-1.39192 -2.91527,0.10854 c -3.07268,0.11441 -3.536488,0.27108 -3.222757,1.08865 0.281453,0.73345 1.812607,1.27015 3.314307,1.16173 1.55566,-0.11233 2.11061,0.33028 1.82766,1.45765 -0.19819,0.78966 -0.30155,0.82341 -2.52057,0.82293 -3.813634,-9.6e-4 -5.553851,-1.32292 -5.943487,-4.51544 -0.132131,-1.08264 -0.359228,-1.71216 -0.610412,-1.69206 -0.22,0.0176 -1.258596,0.0536 -2.307991,0.08 l -1.907994,0.048 -0.09201,2.96 -0.09201,2.96 -1.523264,0.0977 c -1.044889,0.067 -1.574509,-0.0359 -1.686441,-0.32758 z m 23.46571,-2.55409 c 0.4706,-0.47061 0.50868,-3.9051 0.0527,-4.75704 -0.18219,-0.34043 -0.60913,-0.61896 -0.94874,-0.61896 -0.88429,0 -1.28,0.96299 -1.28,3.11496 0,1.90676 0.35727,2.64504 1.28,2.64504 0.2816,0 0.6848,-0.1728 0.896,-0.384 z m -9.216,-3.8648 c 0,-0.57731 -0.92642,-1.8312 -1.35295,-1.8312 -0.58628,0 -1.527054,1.01626 -1.527054,1.64959 0,0.48641 0.253654,0.59041 1.440004,0.59041 0.95519,0 1.44,-0.13763 1.44,-0.4088 z m 16.34274,6.2483 c -3.21754,-1.64066 -3.65673,-6.5083 -0.81254,-9.00553 0.97022,-0.85187 1.38137,-0.99397 2.87588,-0.99397 2.2951,0 3.53712,1.03121 4.16709,3.45982 0.64095,2.47092 0.53192,2.58123 -2.65697,2.68815 -2.997,0.10049 -3.44562,0.40261 -2.29961,1.54862 0.59162,0.59162 0.96085,0.67468 2.45018,0.55117 1.59175,-0.132 1.78466,-0.0772 2.09045,0.59393 0.24863,0.54568 0.23046,0.86757 -0.0694,1.22883 -0.58774,0.70819 -4.30716,0.66221 -5.74512,-0.071 z m 3.41239,-6.3795 c 0.13402,-0.40786 -1.00023,-1.7 -1.49228,-1.7 -0.52183,0 -1.30285,0.98389 -1.30285,1.64126 0,0.54822 0.18342,0.62202 1.33513,0.53714 0.73432,-0.0541 1.39132,-0.2694 1.46,-0.4784 z m 3.99623,6.67087 c -0.30916,-0.19619 -0.38706,-1.46084 -0.32,-5.19509 l 0.0886,-4.93578 1.06993,-0.10251 c 0.65646,-0.0629 1.28885,0.0956 1.6364,0.41014 0.52008,0.47066 0.64425,0.46801 1.51618,-0.0324 1.38239,-0.79339 2.08018,-0.40751 1.95696,1.0822 -0.0833,1.00704 -0.22955,1.22033 -0.89947,1.31176 -1.58902,0.21685 -1.92,0.87217 -1.92,3.80145 0,3.25191 -0.29272,3.93113 -1.69126,3.92447 -0.56581,-0.003 -1.21263,-0.1216 -1.43738,-0.26423 z m 6.92258,-0.20168 c -0.9916,-0.55561 -1.63042,-2.13173 -1.34852,-3.32712 0.40912,-1.73491 2.2911,-2.91539 4.65569,-2.92029 1.09721,-0.002 1.3714,-0.44356 0.69554,-1.11941 -0.39653,-0.39654 -0.97894,-0.5033 -2.32294,-0.4258 l -1.79371,0.10343 v -1.12 -1.12 h 2.92729 c 2.42713,0 3.04192,0.10388 3.59821,0.60797 0.95938,0.86938 1.31067,2.47311 1.31271,5.99285 0.002,3.52065 -0.26728,4.01428 -1.99528,3.65711 -1.21874,-0.25191 -1.85892,-0.25629 -3.60293,-0.0247 -0.82262,0.10925 -1.58233,6.4e-4 -2.12606,-0.30407 z m 3.94086,-2.29879 c 0.677,-0.61267 0.77823,-1.88786 0.16844,-2.12186 -0.22922,-0.088 -0.87722,0.0337 -1.44,0.27032 -0.74413,0.31288 -1.02324,0.63813 -1.02324,1.19236 0,0.41916 0.096,0.85811 0.21333,0.97544 0.38841,0.38841 1.48732,0.22144 2.08147,-0.31626 z m 5.1292,2.3856 c -0.54361,-0.54361 -0.54361,-13.7284 0,-14.272 0.2112,-0.2112 0.8304,-0.384 1.376,-0.384 1.71686,0 1.76,0.18432 1.76,7.52 0,7.33567 -0.0431,7.52 -1.76,7.52 -0.5456,0 -1.1648,-0.1728 -1.376,-0.384 z M 62.846096,124.02704 c -0.0956,-0.24914 -0.127081,-0.86114 -0.06996,-1.36 0.09691,-0.84628 0.200311,-0.90703 1.543863,-0.90703 h 1.44 l 0.0984,1.36 0.0984,1.36 h -1.468445 c -0.971136,0 -1.527309,-0.1534 -1.642263,-0.45297 z M 78.080005,109.5327 C 69.859342,101.66235 60.652781,93.132697 53.511094,86.770203 c -3.031101,-2.70039 -5.511091,-4.994547 -5.511091,-5.098128 0,-0.286864 7.380592,-14.245162 9.241664,-17.477991 1.562823,-2.714746 1.855536,-3.39408 1.462445,-3.39408 -0.536173,0 -9.720202,5.481926 -16.526103,9.864394 -2.234099,1.438582 -4.155581,2.615606 -4.269959,2.615606 -0.114381,0 -2.102483,-1.414496 -4.418006,-3.143321 -2.315523,-1.728826 -5.038042,-3.749492 -6.050042,-4.490369 -1.012,-0.740873 -1.84,-1.474941 -1.84,-1.631264 0,-0.964989 29.92763,-16.790052 33.915502,-17.933758 0.917668,-0.263184 15.174062,0.08637 20.564501,0.504215 1.838425,0.142509 2.8,0.104512 2.8,-0.11064 0,-0.247283 -6.993671,-3.014852 -11.120001,-4.400458 -0.812944,-0.272986 -0.355325,-0.765127 1.28,-1.376563 2.964103,-1.108253 11.276836,-3.577844 12.043159,-3.577844 0.988084,0 6.33706,1.572647 11.986424,3.524109 4.948073,1.709223 14.544603,5.562074 15.008003,6.025479 0.16536,0.165354 -0.0748,2.781824 -0.57485,6.26248 -0.47238,3.288157 -0.79059,6.04674 -0.70715,6.130183 0.0834,0.08344 3.1393,-1.382448 6.79079,-3.257533 l 6.63907,-3.409248 2.74141,1.390022 c 7.41462,3.759556 17.67955,9.755828 17.6598,10.315988 -0.007,0.208186 -1.33687,1.314522 -2.95451,2.458522 -4.45421,3.150038 -10.83944,8.158976 -16.12544,12.649719 -4.24323,3.604858 -4.84853,4.015207 -5.7067,3.868749 -0.528,-0.09011 -4.344,-0.884224 -8.48,-1.764698 -6.67774,-1.421561 -19.197198,-3.737952 -23.474174,-4.34327 -1.109937,-0.157091 -1.491053,-0.117837 -1.333354,0.137331 0.121453,0.196509 2.548829,2.105046 5.394173,4.241194 6.160381,4.624915 14.482605,11.109236 15.499215,12.07633 0.44103,0.419546 0.62939,0.848867 0.48,1.094058 -0.61139,1.003494 -22.332361,21.319103 -22.781126,21.307163 -0.277606,-0.007 -3.456739,-2.83962 -7.064739,-6.29388 z m 11.61512,-36.368062 c 5.406977,-3.83345 13.126715,-8.943114 17.034905,-11.275338 1.67889,-1.001888 2.99977,-1.979908 2.93528,-2.173376 -0.41565,-1.246945 -22.528265,-12.355921 -24.594681,-12.355921 -0.712435,0 -16.207924,7.560435 -21.650136,10.56336 -3.437107,1.896545 -3.437933,1.810522 0.0371,3.867409 3.232093,1.913091 12.402154,7.96519 17.336897,11.442087 2.284966,1.609929 4.271773,2.927145 4.41512,2.927145 0.143347,0 2.161831,-1.347913 4.485517,-2.995366 z m -8.41512,-5.005703 c -5.614769,-0.91432 -10.135223,-3.969254 -10.753991,-7.267578 -0.926356,-4.937898 5.96873,-9.36024 14.593991,-9.36024 6.279242,0 12.064161,2.424761 13.772106,5.772614 0.738612,1.447799 0.820135,3.801857 0.174269,5.032164 -1.157606,2.205117 -4.382346,4.338938 -8.043799,5.322608 -2.337001,0.62785 -7.371942,0.886471 -9.742576,0.500432 z"
         id="path2564"
         inkscape:connector-curvature="0" />
      <path
         style="fill:#808080;stroke-width:0.32000002"
         d="m 38.925618,136.31098 c -1.967296,-0.58954 -3.177043,-2.47786 -3.177043,-4.9591 0,-3.63065 2.690944,-5.93658 5.830199,-4.99604 1.576646,0.47238 2.261107,1.28228 2.78256,3.29253 0.597917,2.30503 0.354377,2.51164 -2.960512,2.51164 -2.441412,0 -2.68082,0.0555 -2.68082,0.62185 0,1.00629 1.228768,1.61815 3.249639,1.61815 1.560464,0 1.8576,0.0957 2.035235,0.65535 0.351136,1.10633 -0.379305,1.58746 -2.364054,1.55714 -0.990452,-0.0151 -2.212292,-0.15081 -2.715204,-0.30152 z m 2.618948,-6.64859 c 0.132681,-0.93594 -0.461508,-1.66238 -1.359744,-1.66238 -0.884221,0 -1.46482,0.57499 -1.46482,1.45066 0,0.95996 0.29433,1.1535 1.588564,1.04457 0.903004,-0.076 1.152547,-0.24415 1.236,-0.83285 z m 6.7756,6.62533 c -1.356461,-0.55313 -2.239699,-1.62761 -2.733117,-3.32491 -0.969152,-3.33377 0.927501,-6.43792 4.155952,-6.80181 0.780404,-0.088 1.796564,-0.0652 2.258135,0.0507 0.683222,0.17148 0.820602,0.3708 0.739046,1.07229 -0.08716,0.74969 -0.287293,0.89289 -1.540179,1.10202 -1.82184,0.30409 -2.56,1.16163 -2.56,2.974 0,1.90419 0.754474,2.73938 2.669654,2.95525 1.482861,0.16714 1.521757,0.19897 1.427373,1.16828 -0.09477,0.97332 -0.13792,0.99802 -1.857027,1.0634 -0.968,0.0368 -2.119927,-0.0798 -2.559837,-0.25922 z m 7.347642,-0.36771 c -1.739149,-0.877 -2.54681,-2.3231 -2.54681,-4.56 0,-3.18119 1.7576,-5.12 4.64146,-5.12 2.229494,0 3.478534,1.07932 3.985693,3.44413 0.47295,2.20529 0.21191,2.43025 -2.95122,2.54339 -1.423552,0.0509 -2.63488,0.2421 -2.695485,0.42542 -0.06054,0.18312 0.09613,0.61512 0.348164,0.96 0.352294,0.48209 0.962915,0.66405 2.641286,0.78706 1.772208,0.12989 2.203652,0.26828 2.292506,0.73537 0.199549,1.04902 -0.549824,1.50463 -2.474775,1.50463 -1.243776,0 -2.261308,-0.22606 -3.240819,-0.72 z m 3.462874,-6.02795 c 0.05291,-0.27938 -0.173552,-0.84109 -0.503248,-1.24824 -0.46521,-0.57451 -0.789603,-0.69257 -1.448567,-0.52718 -0.869318,0.21818 -1.449734,1.42621 -1.019619,2.12215 0.34249,0.55416 2.856371,0.26081 2.971434,-0.34673 z m 10.778212,6.44346 c -1.299514,-0.52674 -1.583284,-1.27683 -1.74889,-4.6228 l -0.16,-3.23271 h -0.96 -0.96 l -0.16,3.84 -0.16,3.84 -1.247427,0.10214 c -0.781636,0.064 -1.34738,-0.0555 -1.515101,-0.32 -0.305981,-0.48256 -0.377703,-8.2686 -0.08324,-9.03597 0.133524,-0.34796 0.608631,-0.50727 1.520001,-0.5097 0.729168,-0.002 1.865763,-0.0928 2.525763,-0.20186 0.971734,-0.16062 1.2,-0.33511 1.2,-0.9173 0,-0.85467 0.47753,-1.30403 1.716138,-1.6149 1.046272,-0.2626 1.471248,0.17023 1.478963,1.50628 0.0038,0.65776 0.226134,0.92582 0.988269,1.1915 1.239885,0.43223 1.225142,1.66887 -0.02336,1.96032 -0.768557,0.17941 -0.803639,0.29648 -0.892538,2.97861 l -0.09254,2.79186 0.972541,0.19451 c 0.802304,0.16046 0.972538,0.34955 0.972538,1.08027 0,1.21818 -1.613293,1.68226 -3.371111,0.96975 z m 5.93111,0.0785 c -0.264,-0.0965 -0.804,-0.47024 -1.2,-0.83051 -0.796448,-0.72461 -0.986291,-2.64799 -0.374243,-3.79162 0.425104,-0.79432 2.155578,-1.5502 3.563965,-1.55677 1.481607,-0.007 2.110157,-0.45805 1.65241,-1.18599 -0.281008,-0.44688 -0.796464,-0.571 -2.4,-0.5779 -1.878064,-0.008 -2.050532,-0.0673 -2.146695,-0.73761 -0.202633,-1.41237 0.478781,-1.74196 3.267706,-1.58051 2.368627,0.13712 2.605517,0.21691 3.450055,1.16212 0.893116,0.99957 0.906803,1.07518 0.906803,5.00984 v 3.99495 h -1.216 c -0.6688,0 -1.372253,-0.15625 -1.563232,-0.34723 -0.249642,-0.24965 -0.622906,-0.20468 -1.328109,0.16 -0.997293,0.51572 -1.749671,0.59671 -2.61266,0.28123 z m 3.200001,-2.334 c 0.685116,-0.68512 0.858137,-2.06741 0.301811,-2.41124 -0.814608,-0.50346 -2.861812,0.64914 -2.861812,1.61124 0,0.57027 0.88353,1.44 1.462858,1.44 0.251427,0 0.745143,-0.288 1.097143,-0.64 z m 20.353383,2.23451 c -2.974896,-0.9121 -4.310096,-4.93403 -2.604294,-7.84476 1.341456,-2.28902 4.246366,-3.03745 6.375266,-1.64253 1.03124,0.67569 1.85229,2.5601 1.73448,3.98084 l -0.0988,1.19194 -2.8,0.0925 c -2.452331,0.081 -2.800004,0.16422 -2.800004,0.6704 0,1.1002 1.038194,1.63714 3.165474,1.63714 h 1.99508 l -0.10028,1.04 c -0.10018,1.03901 -0.1021,1.04006 -2.02027,1.09931 -1.056,0.0326 -2.33698,-0.0685 -2.846622,-0.2248 z m 2.578722,-6.25492 c 0.10562,-0.27522 0.0322,-0.85122 -0.16318,-1.28 -0.62513,-1.37201 -2.608924,-0.86173 -2.608924,0.67107 0,0.928 0.245757,1.10934 1.503374,1.10934 0.68139,0 1.14721,-0.18373 1.26873,-0.50041 z m 5.82997,6.09942 c -2.28892,-1.24389 -2.82144,-6.47168 -0.90712,-8.90534 0.84245,-1.071 2.47578,-1.3914 3.7456,-0.73475 0.52707,0.27255 1.04856,0.4053 1.15888,0.29498 0.11031,-0.11031 0.20057,-1.25657 0.20057,-2.54724 v -2.34666 h 1.40576 c 0.98668,0 1.46367,0.1509 1.6,0.50617 0.10683,0.27839 0.19424,3.29062 0.19424,6.69383 0,3.40321 -0.0874,6.41543 -0.19424,6.69383 -0.22672,0.59083 -2.35657,0.70736 -2.905,0.15894 -0.24964,-0.24965 -0.6229,-0.20468 -1.3281,0.16 -1.19269,0.61676 -1.87291,0.62277 -2.97059,0.0262 z m 3.11002,-2.00391 c 1.71517,-1.14525 1.30642,-5.6751 -0.51209,-5.6751 -1.13607,0 -1.66652,1.20904 -1.47103,3.35288 0.18508,2.02977 0.99708,2.98062 1.98312,2.32222 z m 8.42922,2.18146 c -1.60095,-0.48579 -2.28353,-1.0454 -2.88149,-2.36238 -0.77069,-1.69742 -0.77056,-3.53124 3.2e-4,-5.22924 1.05633,-2.32654 3.61157,-3.26831 5.90933,-2.17795 1.42462,0.67603 2.15847,1.98329 2.22262,3.95931 l 0.0479,1.4737 -2.8,0.0925 c -2.45233,0.081 -2.8,0.16422 -2.8,0.6704 0,1.09639 1.03886,1.63714 3.14519,1.63714 1.96467,0 1.97481,0.005 1.97481,0.92576 0,0.54898 -0.20602,1.00482 -0.50618,1.12 -0.68568,0.26312 -3.30401,0.19683 -4.31251,-0.1092 z m 2.51572,-6.61667 c 0.11594,-0.81268 -0.70298,-1.71989 -1.55251,-1.71989 -0.76561,0 -1.6679,1.33038 -1.39125,2.05133 0.15803,0.41181 0.52382,0.51841 1.52726,0.44509 1.06415,-0.0778 1.33824,-0.22803 1.4165,-0.77653 z m 11.37721,6.6028 c -1.51079,-0.60968 -2.13029,-2.57946 -1.3499,-4.29222 0.4392,-0.96394 2.058,-1.78867 3.52402,-1.79537 1.50253,-0.007 2.13403,-0.45473 1.67229,-1.18599 -0.28154,-0.44589 -0.78668,-0.56832 -2.33306,-0.56544 -1.78769,0.003 -1.99093,-0.0649 -2.15639,-0.72416 -0.31122,-1.24002 0.38997,-1.67951 2.67962,-1.67951 2.40127,0 3.99669,0.6313 4.52484,1.79047 0.20753,0.45549 0.36434,2.44585 0.36434,4.62458 v 3.82495 h -1.216 c -0.6688,0 -1.36422,-0.14822 -1.54537,-0.32937 -0.22582,-0.22582 -0.62319,-0.17614 -1.264,0.15803 -1.036,0.54026 -1.86903,0.59024 -2.90039,0.17403 z m 3.33455,-2.10084 c 0.5008,-0.35076 0.71121,-0.82413 0.71121,-1.6 0,-0.93327 -0.11151,-1.10185 -0.7288,-1.10185 -1.65204,0 -2.78225,1.80095 -1.7672,2.816 0.51095,0.51095 0.93067,0.48411 1.78479,-0.11415 z M 25.280001,129.12001 v -7.2 h 3.535892 c 3.828979,0 4.992682,0.33892 5.674663,1.6527 0.831401,1.60163 0.622291,3.17983 -0.606804,4.57969 -0.776204,0.88405 -0.915952,1.23143 -0.632691,1.57273 0.351613,0.42367 2.268941,5.791 2.268941,6.35163 0,0.15218 -0.756,0.23317 -1.68,0.17997 l -1.68,-0.0967 -0.673195,-2.01001 c -1.023284,-3.05529 -1.327117,-3.58999 -2.039945,-3.58999 -0.591015,0 -0.64686,0.20494 -0.64686,2.37383 0,3.25305 -0.07683,3.38617 -1.954237,3.38617 h -1.565764 z m 5.760001,-1.76 c 0.352,-0.352 0.64,-0.928 0.64,-1.28 0,-0.97251 -1.175408,-1.97533 -2.179385,-1.85939 -0.769074,0.0888 -0.871272,0.24794 -0.960803,1.496 -0.0551,0.76813 -0.02362,1.59613 0.06996,1.84 0.251372,0.65506 1.695381,0.53824 2.430232,-0.19661 z m 56.790029,8.5694 c -0.08989,-0.23427 -0.124426,-3.44622 -0.07674,-7.13767 l 0.08671,-6.71173 h 4 4.000001 v 0.96 c 0,0.92751 -0.05414,0.96283 -1.6,1.04362 -2.953188,0.15434 -3.040001,0.21111 -3.040001,1.98785 v 1.57929 l 2.16,0.0946 2.160001,0.0946 0.09842,1.18496 0.09842,1.18496 -2.178422,0.095 -2.17842,0.095 -0.16,2.88 -0.16,2.88 -1.523264,0.0977 c -1.046032,0.0671 -1.57447,-0.0358 -1.68671,-0.32827 z m 37.873679,-1.6094 c -0.031,-1.1 -0.0552,-3.296 -0.0539,-4.88 l 0.003,-2.88 1.22853,-0.10258 c 0.86153,-0.0719 1.31218,0.0469 1.50854,0.39778 0.25385,0.45361 0.35164,0.45341 1.04685,-0.002 1.1201,-0.73392 2.22185,-0.48236 2.34002,0.5343 0.10949,0.94184 -0.38016,1.46153 -1.52817,1.62194 -1.17776,0.16457 -1.59796,1.34674 -1.60329,4.51066 l -0.005,2.80014 h -1.44 -1.44 z m 16.0563,-5.2 v -7.2 h 1.44 1.44 v 7.2 7.2 h -1.44 -1.44 z m -78.703129,-5.09967 c -0.242365,-0.29203 -0.324484,-0.82615 -0.202026,-1.31406 0.186246,-0.74206 0.337606,-0.81251 1.555734,-0.72415 1.310212,0.095 1.349415,0.13041 1.349415,1.21788 0,1.05387 -0.06774,1.12567 -1.147389,1.21618 -0.73872,0.0619 -1.292832,-0.0791 -1.555734,-0.39585 z m 17.201063,-12.5914 C 70.397655,101.92807 57.248352,89.772101 51.106857,84.480005 c -1.531865,-1.32 -2.785581,-2.60616 -2.786032,-2.858131 -9.6e-4,-0.49936 6.609162,-13.175707 9.24377,-17.727109 1.671991,-2.888435 1.875088,-3.414761 1.317687,-3.414761 -0.407632,0 -10.004862,5.748025 -15.94258,9.548413 -2.519168,1.612374 -4.782631,2.931587 -5.029917,2.931587 -0.24729,0 -2.245143,-1.360547 -4.439677,-3.02344 -2.194537,-1.66289 -4.796955,-3.559181 -5.783154,-4.213981 -1.01756,-0.675622 -1.752835,-1.388845 -1.70002,-1.649034 0.183386,-0.903433 17.933539,-10.663626 28.093069,-15.447402 l 5.600001,-2.636848 8,0.207142 c 4.4,0.11393 9.800001,0.295962 12.000001,0.404515 5.400141,0.266461 5.03024,-0.03432 -3.987069,-3.241984 -2.104887,-0.748758 -3.87777,-1.513488 -3.939741,-1.699395 -0.09994,-0.299821 10.070083,-3.820999 12.569572,-4.351975 2.320144,-0.492877 27.024333,8.172513 27.603753,9.682458 0.10499,0.273597 -0.17636,3.096762 -0.62522,6.273697 -0.44886,3.176934 -0.75153,5.889504 -0.6726,6.02793 0.0789,0.138425 1.31977,-0.389191 2.75741,-1.17248 4.664,-2.541153 10.38395,-5.319204 10.95214,-5.319204 0.94334,0 19.15005,10.03785 19.94578,10.996644 0.30513,0.367661 -0.21705,0.872138 -2.84432,2.747901 -4.12864,2.947677 -11.50728,8.760733 -16.75273,13.19817 -2.69284,2.278036 -4.29498,3.423389 -4.64,3.317085 -4.22714,-1.302416 -31.597141,-6.394125 -33.303733,-6.195578 -0.694656,0.08082 0.201389,0.867175 5.736758,5.034493 9.587805,7.218209 15.360005,11.851166 15.360005,12.328452 0,0.230701 -0.972,1.325725 -2.16,2.433392 -1.188,1.107665 -6.221153,5.876178 -11.184779,10.596688 -4.963626,4.72052 -9.167552,8.58276 -9.342061,8.58276 -0.174509,0 -2.37736,-1.98498 -4.895226,-4.41107 z m 6.568205,-36.020241 c 2.34632,-1.88448 11.46074,-8.075204 17.043991,-11.576666 2.97542,-1.866004 5.60258,-3.581428 5.83811,-3.812055 0.48746,-0.477299 -0.43475,-1.090093 -7.22457,-4.800656 -5.497447,-3.004292 -16.566289,-8.178426 -17.498859,-8.179844 -0.465347,-6.4e-4 -18.934344,9.22417 -21.920116,10.948641 -1.306417,0.754537 -2.428509,1.534163 -2.49354,1.732502 -0.06503,0.198339 1.363853,1.26801 3.1753,2.377047 3.742992,2.2916 12.802122,8.309767 17.97289,11.939757 1.913642,1.343418 3.545405,2.442579 3.626144,2.442579 0.08074,0 0.747031,-0.482086 1.48065,-1.071305 z M 79.100997,67.51201 c -2.985332,-0.782073 -5.196609,-1.990217 -6.773137,-3.700547 -4.438707,-4.815431 0.07964,-10.549949 9.433927,-11.973172 8.729114,-1.328106 17.758219,2.812083 17.758219,8.142823 0,1.480368 -0.961405,3.37392 -2.273651,4.478103 -1.500993,1.262998 -4.479188,2.680528 -6.763063,3.219005 -2.879268,0.678854 -8.468026,0.597244 -11.382295,-0.166212 z"
         id="path2562"
         inkscape:connector-curvature="0" />
      <path
         style="fill:#808080;stroke-width:0.32000002"
         d="m 25.430363,135.93028 c -0.09008,-0.23475 -0.124763,-3.44709 -0.07707,-7.13854 l 0.08671,-6.71173 2.880001,-0.0999 c 3.373769,-0.117 4.994365,0.27581 5.902832,1.43073 1.154256,1.4674 0.613514,4.39622 -0.96793,5.24258 -0.627401,0.33577 -0.633302,0.39082 -0.125011,1.16657 0.636307,0.97113 2.070109,5.08086 2.070109,5.93358 0,0.51735 -0.210928,0.58784 -1.507981,0.50395 l -1.507984,-0.0975 -0.710307,-2.34105 c -0.822045,-2.70932 -1.240535,-3.32658 -2.165727,-3.1944 -0.602486,0.0861 -0.683693,0.36222 -0.828001,2.81545 l -0.16,2.72 -1.362928,0.0985 c -0.915091,0.0662 -1.416744,-0.0417 -1.526711,-0.32827 z m 5.689639,-8.49772 c 1.308141,-1.1487 0.289489,-3.27255 -1.569596,-3.27255 h -1.070404 v 1.89333 c 0,1.21696 0.142896,1.94985 0.4,2.05154 0.554542,0.21932 1.572559,-0.0862 2.24,-0.67232 z m 6.774387,8.28403 c -2.630214,-1.6039 -2.753449,-6.68511 -0.21064,-8.68529 0.904887,-0.71178 3.377844,-0.86289 4.648311,-0.28403 1.01817,0.46392 1.78881,1.8379 2.033943,3.62635 l 0.200992,1.46639 -2.523498,0.005 c -2.936525,0.006 -3.491805,0.24094 -3.210877,1.36025 0.253968,1.01188 1.663354,1.60753 3.465302,1.46453 1.301377,-0.10327 1.387994,-0.0583 1.483335,0.77032 l 0.101254,0.88 -2.501254,-0.001 c -1.882448,-9.6e-4 -2.745095,-0.14988 -3.486868,-0.60222 z m 3.910842,-5.63905 c 0.291699,-0.76016 -0.751545,-2.07753 -1.645229,-2.07753 -0.483833,0 -0.98583,0.30613 -1.307808,0.79753 -0.798352,1.21844 -0.394669,1.76247 1.307808,1.76247 1.005981,0 1.517668,-0.15006 1.645229,-0.48247 z m 5.683178,5.64281 c -0.581453,-0.3589 -1.210153,-1.15829 -1.52,-1.93268 -1.008822,-2.52129 -0.498022,-4.94855 1.372634,-6.5226 0.883709,-0.7436 1.316678,-0.86506 3.083514,-0.86506 h 2.055446 v 0.96 c 0,0.89875 -0.07781,0.96 -1.219661,0.96 -1.508493,0 -2.512858,0.86166 -2.802214,2.40406 -0.408394,2.17693 0.720793,3.55847 3.061875,3.74615 0.957389,0.0767 1.12,0.20594 1.12,0.88979 0,0.76244 -0.09765,0.80405 -2.08,0.8862 -1.598327,0.0662 -2.309626,-0.0555 -3.071594,-0.52586 z m 8.015165,0.10319 c -3.009286,-1.48516 -2.993126,-7.67406 0.02362,-9.04859 1.145725,-0.52202 3.716733,-0.46856 4.519886,0.094 0.911849,0.63869 1.712918,2.4249 1.712918,3.81944 v 1.15164 h -2.373827 c -2.751732,0 -3.386164,0.17699 -3.386164,0.94464 0,1.11128 1.218941,1.77613 3.234391,1.76414 1.852138,-0.011 1.88561,0.005 1.88561,0.88 v 0.89122 l -2.320001,-0.007 c -1.40672,-0.004 -2.704377,-0.19698 -3.296429,-0.48918 z m 3.588538,-5.76394 c 0.352471,-0.91851 -0.434947,-2.05959 -1.421248,-2.05959 -1.143705,0 -1.670861,0.52499 -1.670861,1.664 0,0.84951 0.07523,0.896 1.450042,0.896 1.020013,0 1.506992,-0.14841 1.642067,-0.50041 z m 4.161226,6.04707 c -0.117334,-0.11733 -0.213334,-2.34933 -0.213334,-4.96 v -4.74666 h 2.336 c 2.485485,0 3.104,-0.29346 3.104,-1.4727 0,-0.50107 0.288019,-0.8051 0.996758,-1.05217 1.233063,-0.42984 1.563242,-0.24403 1.563242,0.87975 0,1.02023 0.518586,1.64512 1.365255,1.64512 0.970288,0 0.615123,1.68341 -0.405255,1.92084 -0.758342,0.17645 -0.804896,0.31617 -0.894006,2.68299 -0.09995,2.65463 0.142009,3.28962 1.317245,3.45696 0.503424,0.0717 0.696761,0.3212 0.696761,0.89921 0,0.72652 -0.138617,0.80892 -1.509107,0.89709 -0.83001,0.0534 -1.795709,-0.0563 -2.146,-0.24377 -0.860749,-0.46066 -1.300963,-2.22867 -1.303107,-5.2336 l -0.0019,-2.50027 -1.04,0.10027 -1.040001,0.10028 -0.07939,3.2 c -0.109555,4.41631 -0.180586,4.64 -1.473379,4.64 -0.583312,0 -1.15657,-0.096 -1.273901,-0.21334 z m 11.452122,-0.57212 c -1.345056,-1.34505 -0.891574,-3.74146 0.888272,-4.694 0.374496,-0.20042 1.411111,-0.45354 2.303588,-0.56248 1.349523,-0.16472 1.639421,-0.31562 1.722102,-0.89641 0.144493,-1.01495 -0.965526,-1.49778 -2.864288,-1.24591 l -1.55513,0.2063 v -0.97102 -0.97102 h 2.734545 c 2.448825,0 2.813648,0.0791 3.491609,0.75706 0.889168,0.88917 1.228205,2.9715 1.07506,6.60294 -0.09514,2.25588 -0.147316,2.40651 -0.86897,2.50851 -0.422266,0.0597 -1.105037,-0.072 -1.517267,-0.29261 -0.579194,-0.30997 -0.935341,-0.31645 -1.5673,-0.0285 -1.383696,0.63045 -2.969296,0.46008 -3.842221,-0.41284 z m 4.459386,-1.41569 c 0.299216,-0.33063 0.573536,-1.01463 0.609594,-1.52 0.05629,-0.78881 -0.06191,-0.93347 -0.83512,-1.0221 -1.182426,-0.13555 -2.459316,0.71939 -2.459316,1.64662 0,1.47695 1.658125,2.02998 2.684842,0.89548 z m 8.835159,-4.98045 v -7.2184 h 3.84 3.840001 v 1.12 1.12 h -2.205764 c -2.425229,0 -2.594237,0.13598 -2.594237,2.08728 0,1.34105 0.32496,1.5503 2.72,1.75146 1.884164,0.15825 1.920001,0.17917 1.920001,1.12126 v 0.96 l -2.157559,0.0946 c -2.484086,0.10888 -2.42583,0.0237 -2.561056,3.74544 l -0.08139,2.24 -1.36,0.0984 -1.36,0.0984 z m 10.300743,6.54034 c -2.561718,-1.57864 -2.689274,-6.63982 -0.216365,-8.58501 0.660349,-0.51943 1.321325,-0.69373 2.630777,-0.69373 1.54716,0 1.86835,0.11993 2.78508,1.04 1.00599,1.00964 1.74446,3.36046 1.28777,4.09941 -0.10218,0.16532 -1.22975,0.30059 -2.50573,0.30059 -2.536895,0 -3.579177,0.44665 -3.220911,1.38028 0.349955,0.91197 1.963471,1.55735 3.608121,1.44318 1.40414,-0.0975 1.49052,-0.0571 1.49052,0.69654 0,0.7746 -0.0762,0.80272 -2.4,0.88575 -1.95626,0.0699 -2.595854,-0.0349 -3.459262,-0.56701 z m 4.038402,-5.83126 c 0.0577,-0.30389 -0.26404,-0.92147 -0.71498,-1.37241 -0.66963,-0.66963 -0.93622,-0.75762 -1.45469,-0.48014 -0.804594,0.4306 -1.393311,1.51291 -1.157378,2.12774 0.274067,0.7142 3.184918,0.47344 3.327048,-0.27519 z m 5.21825,5.9507 c -1.05864,-0.74151 -1.63739,-2.35578 -1.63739,-4.56707 0,-3.37401 1.0077,-4.83111 3.34111,-4.83111 0.78161,0 1.51011,0.144 1.61889,0.32 0.10877,0.176 0.39921,0.32 0.64542,0.32 0.33699,0 0.47076,-0.61307 0.54112,-2.48 l 0.0935,-2.48 h 1.28 1.28 l 0.0861,7.12 0.0861,7.12 h -1.02092 c -0.56151,0 -1.28427,-0.23832 -1.60613,-0.5296 -0.54453,-0.49279 -0.62586,-0.49279 -1.17039,0 -0.74818,0.67709 -2.57608,0.68111 -3.53741,0.008 z m 3.94446,-2.10939 c 0.7608,-1.08619 0.67234,-4.2346 -0.14185,-5.04879 -0.352,-0.352 -0.784,-0.64 -0.96,-0.64 -0.176,0 -0.608,0.288 -0.96,0.64 -0.4923,0.4923 -0.64,1.06666 -0.64,2.48879 0,2.03055 0.60682,3.27121 1.6,3.27121 0.33204,0 0.82787,-0.32004 1.10185,-0.71121 z m 6.67368,2.01111 c -1.38005,-0.85082 -2.06125,-2.28508 -2.06125,-4.3399 0,-3.14906 1.58373,-4.96 4.33767,-4.96 2.53884,0 3.83176,1.26933 4.07434,4 l 0.11371,1.28 -2.78026,0.16692 c -1.52914,0.0918 -2.88453,0.2712 -3.01198,0.39865 -0.41657,0.41657 0.48405,1.83955 1.37983,2.18013 0.4815,0.18307 1.52727,0.28817 2.32393,0.23357 1.35818,-0.0931 1.44848,-0.0494 1.44848,0.70073 0,0.7746 -0.0762,0.80272 -2.4,0.88575 -1.93243,0.069 -2.59959,-0.0373 -3.42447,-0.54585 z m 3.74447,-6.0359 c 0,-1.13901 -0.52716,-1.664 -1.67086,-1.664 -0.64622,0 -1.00383,0.2216 -1.25807,0.77959 -0.58045,1.27395 -0.15977,1.78041 1.47889,1.78041 1.3748,0 1.45004,-0.0465 1.45004,-0.896 z m 4.06856,6.4579 c -0.12571,-0.12572 -0.22856,-2.36457 -0.22856,-4.97524 v -4.74666 h 1.1041 c 0.71843,0 1.21391,0.19561 1.41847,0.56 0.29941,0.53333 0.35966,0.53333 1.26527,0 1.48726,-0.87587 1.97216,-0.73819 1.97216,0.56 0,0.95661 -0.10779,1.12 -0.73884,1.12 -1.63919,0 -1.96868,0.64833 -2.14116,4.21312 l -0.16,3.30688 -1.13144,0.0952 c -0.62229,0.0524 -1.23429,-0.008 -1.36,-0.13333 z m 6.55565,-0.45076 c -1.39282,-1.29761 -1.2352,-3.40618 0.34269,-4.58424 0.50962,-0.38048 1.54452,-0.68993 2.60017,-0.77747 2.00072,-0.16592 2.44564,-0.69672 1.43289,-1.70947 -0.57527,-0.57527 -0.89973,-0.63625 -2.39274,-0.44971 l -1.72722,0.2158 v -0.98303 -0.98302 h 2.70215 c 2.39421,0 2.80448,0.0879 3.6,0.7716 0.89711,0.77096 0.89785,0.77499 0.89785,4.88 0,4.09279 -0.003,4.10881 -0.76776,4.21691 -0.42226,0.0597 -1.08826,-0.063 -1.48,-0.27266 -0.5263,-0.28167 -0.88427,-0.28912 -1.37121,-0.0285 -1.08573,0.58106 -3.05867,0.42876 -3.83682,-0.2962 z m 4.23245,-1.45352 c 0.59906,-0.59906 0.96706,-1.88619 0.67458,-2.35943 -0.56887,-0.92045 -3.37124,0.14592 -3.37124,1.28284 0,1.40605 1.69179,2.08146 2.69666,1.07659 z m 5.13406,1.71358 c -0.0903,-0.23526 -0.12512,-3.44802 -0.0774,-7.13947 l 0.0867,-6.71173 h 1.28 1.28 v 7.04 7.04 l -1.20257,0.0995 c -0.78407,0.0649 -1.2597,-0.0494 -1.36671,-0.32827 z m -78.811001,-12.8112 c 0.09136,-0.94757 0.205971,-1.04877 1.289491,-1.13868 1.039485,-0.0863 1.214512,0.002 1.390125,0.70182 0.288198,1.14827 -0.04521,1.47686 -1.498503,1.47686 -1.252905,0 -1.279158,-0.0231 -1.181113,-1.04 z M 75.931422,107.14412 C 66.160807,97.893622 58.27416,90.627263 52.078797,85.167519 c -2.067338,-1.821866 -3.758794,-3.372484 -3.758794,-3.445815 0,-0.472701 7.809523,-15.218922 10.197767,-19.255784 1.020873,-1.725587 1.207386,-2.305916 0.741104,-2.305916 -0.445367,0 -8.886551,5.014393 -15.150852,9.000192 -3.284589,2.089895 -6.076714,3.799808 -6.204724,3.799808 -0.128006,0 -1.616614,-1.052307 -3.308019,-2.338461 -1.691402,-1.28615 -4.347501,-3.248784 -5.902441,-4.361408 -2.351774,-1.682787 -2.755336,-2.094176 -2.4,-2.446557 1.393126,-1.381539 19.619859,-11.242551 28.107165,-15.206516 l 5.600001,-2.615456 10.08,0.405162 c 5.544,0.222838 10.944001,0.497436 12.000001,0.610217 l 1.92,0.205053 -8.160001,4.047312 c -10.021411,4.970564 -15.52,7.977015 -15.52,8.485844 0,0.211853 2.016,1.633866 4.48,3.160026 3.96271,2.454435 10.7729,7.001655 18.080001,12.072164 6.437152,4.466841 24.482735,18.318727 24.771215,19.014522 0.13154,0.317264 -11.105054,11.302464 -20.667628,20.205244 l -1.816416,1.69108 z M 117.44001,82.366155 C 112.34374,81.08317 88.0466,76.480004 86.370824,76.480004 c -0.731638,0 -0.02042,-0.670614 2.909181,-2.743065 12.259045,-8.672286 22.566605,-14.985425 31.680005,-19.403246 l 3.36,-1.6288 3.35642,1.727555 c 5.20147,2.677194 16.64358,9.272231 16.64358,9.593066 0,0.158048 -1.044,1.043175 -2.32,1.966947 -5.83667,4.225514 -12.79782,9.707595 -18.14859,14.292465 -3.291,2.819933 -3.3723,2.846324 -6.41141,2.081229 z M 80.204792,67.66362 c -5.990301,-1.190432 -9.763985,-4.485395 -9.405844,-8.212644 0.401232,-4.175696 5.654416,-7.200848 13.076289,-7.530247 5.904141,-0.262038 10.83954,1.194045 13.68211,4.036615 2.621573,2.621578 2.479883,5.414276 -0.418144,8.241053 -3.40201,3.318372 -10.43332,4.757159 -16.934411,3.465223 z M 107.68001,58.027815 C 101.76583,54.491168 86.602696,47.040003 85.319797,47.040003 c -0.229664,0 -1.26857,-0.420032 -2.308682,-0.933408 -1.48303,-0.731988 -6.327069,-2.57186 -10.611111,-4.03033 -0.22,-0.0749 -0.4,-0.278522 -0.4,-0.452503 0,-0.372745 10.392842,-3.809232 12.318238,-4.073136 0.950931,-0.130339 2.352045,0.107728 4.982365,0.84657 7.577053,2.128342 22.699403,7.99322 22.699403,8.803472 0,0.230951 -0.36,2.89465 -0.8,5.919335 -0.44,3.024685 -0.8,5.630055 -0.8,5.789712 0,0.530925 -0.78067,0.277808 -2.72,-0.8819 z"
         id="path2560"
         inkscape:connector-curvature="0" />
      <path
         style="fill:#808080;stroke-width:0.32000002"
         d="m 25.743248,135.91174 c -0.08617,-0.22455 -0.117648,-3.42855 -0.06996,-7.12 l 0.08671,-6.71173 3.2,0.0113 c 3.823117,0.0135 5.026765,0.49173 5.598528,2.2242 0.505155,1.53063 0.149142,2.86331 -1.029942,3.85544 l -0.984362,0.82829 0.655398,1.18036 c 0.781536,1.40754 2.03954,5.49811 1.806724,5.87482 -0.256608,0.4152 -2.25434,0.3112 -2.582736,-0.13445 -0.162113,-0.22 -0.619808,-1.44325 -1.017097,-2.71833 -0.72409,-2.32394 -1.496593,-3.21047 -2.471518,-2.83636 -0.343504,0.13183 -0.454995,0.83519 -0.454995,2.87042 0,2.16302 -0.100037,2.73419 -0.506172,2.89004 -0.860777,0.33031 -2.066078,0.21466 -2.230582,-0.21403 z m 5.314636,-8.18187 c 0.813516,-0.65874 0.988675,-2.26261 0.33334,-3.05224 -0.561705,-0.67682 -2.197985,-0.97677 -2.764329,-0.50675 -0.473836,0.39325 -0.644529,2.67387 -0.272657,3.64295 0.265512,0.69192 1.804503,0.64413 2.703646,-0.084 z m 7.502118,8.14825 c -2.108893,-0.94608 -3.042371,-3.28041 -2.393475,-5.98531 0.477805,-1.99172 1.750746,-3.19701 3.596125,-3.40501 2.56879,-0.28954 4.205722,1.15226 4.446275,3.91625 l 0.111047,1.27596 -2.879984,0.16 c -2.637268,0.14651 -2.888199,0.21757 -2.977405,0.84307 -0.168004,1.17801 1.317485,2.03693 3.522829,2.03693 1.786403,0 1.893033,0.0427 1.796845,0.72 -0.09276,0.65314 -0.295396,0.72691 -2.182257,0.79439 -1.215184,0.0435 -2.479145,-0.10468 -3.04,-0.35628 z m 2.853828,-5.19235 c 1.244601,-0.4776 0.163545,-3.00576 -1.285277,-3.00576 -1.268295,0 -2.403917,2.55415 -1.328551,2.98807 0.57904,0.23365 2.025546,0.24344 2.613828,0.0177 z m 6.597059,5.07374 c -1.550867,-0.78235 -2.33825,-2.28524 -2.319011,-4.42634 0.02902,-3.23142 1.891136,-5.0314 5.028125,-4.86039 1.470074,0.0802 1.6,0.15219 1.6,0.88723 0,0.71153 -0.149395,0.81083 -1.350896,0.89795 -1.754698,0.12723 -2.649104,1.18312 -2.649104,3.12736 0,1.86307 0.981145,2.9983 2.72,3.14716 1.108064,0.0949 1.2936,0.22227 1.381254,0.94855 0.0981,0.81285 0.04827,0.83896 -1.6,0.83848 -0.982502,-2.9e-4 -2.169837,-0.23688 -2.810368,-0.56 z m 7.755415,0.093 c -1.53999,-0.67977 -2.323907,-2.19521 -2.323907,-4.49248 0,-3.33668 1.820861,-5.19842 4.760253,-4.8671 1.084717,0.12226 1.671443,0.40464 2.298141,1.10604 0.852448,0.95405 1.509117,3.47915 1.029501,3.95877 -0.139632,0.13963 -1.475479,0.29627 -2.968545,0.34808 -3.08712,0.10713 -3.565104,0.55994 -2.118313,2.00673 0.687238,0.68724 1.098861,0.80748 2.764281,0.80748 1.846241,0 1.951025,0.0407 1.854545,0.72 -0.09276,0.65314 -0.295396,0.72691 -2.182257,0.79439 -1.261494,0.0451 -2.486774,-0.10517 -3.113699,-0.38191 z m 3.41993,-5.43589 c 0.453664,-0.54663 -0.11305,-1.97831 -1.001379,-2.52976 -1.289034,-0.8002 -3.151223,1.34876 -2.181402,2.51732 0.507293,0.61125 2.678768,0.61974 3.182781,0.0125 z m 4.244647,5.64178 c -0.308013,-0.20133 -0.387101,-1.4081 -0.32,-4.8829 l 0.08912,-4.61547 2.56,-0.16 c 2.521958,-0.15762 2.56153,-0.17333 2.662858,-1.05661 0.06978,-0.60823 0.35952,-0.9942 0.900832,-1.2 1.378409,-0.52407 1.671408,-0.37832 1.776992,0.88397 0.08073,0.96517 0.249027,1.22212 0.899318,1.37312 0.485735,0.11278 0.837939,0.44642 0.896579,0.84932 0.07505,0.51564 -0.121123,0.70711 -0.88,0.85888 l -0.976579,0.19532 v 2.91579 2.9158 l 0.972448,0.36706 c 0.702999,0.26535 0.946832,0.54582 0.88,1.0122 -0.07334,0.51178 -0.372825,0.66545 -1.448774,0.74337 -1.099168,0.0796 -1.508701,-0.0542 -2.16,-0.70546 -0.743572,-0.74357 -0.803674,-1.02732 -0.803674,-3.79422 0,-3.16126 -0.232778,-3.75854 -1.464819,-3.75854 -1.164279,0 -1.389181,0.68183 -1.484135,4.49948 -0.09058,3.64164 -0.09517,3.66095 -0.891046,3.74341 -0.44,0.0456 -0.984106,-0.0374 -1.209123,-0.18452 z m 11.820128,-0.25066 c -1.059302,-0.74197 -1.422902,-1.91965 -0.993955,-3.21937 0.425011,-1.2878 1.490826,-1.90918 3.80016,-2.21552 1.882119,-0.24968 2.318714,-0.78704 1.43385,-1.7648 -0.476275,-0.52628 -0.919783,-0.63271 -2.35881,-0.56605 -1.688602,0.0782 -1.77225,0.0452 -1.77225,-0.69994 0,-0.76685 0.0518,-0.78203 2.668221,-0.78203 2.526929,0 2.709089,0.0475 3.440001,0.89784 0.722761,0.84082 0.771779,1.14125 0.771779,4.73005 0,4.27425 -0.235581,4.71956 -1.970147,3.72406 -0.79706,-0.45745 -1.005489,-0.46409 -1.786106,-0.0569 -1.158058,0.60409 -2.32713,0.58696 -3.232743,-0.0474 z m 4.312855,-1.90974 c 0.265453,-0.40513 0.436179,-1.14191 0.379392,-1.63729 -0.12657,-1.10409 -1.060387,-1.32682 -2.481594,-0.59188 -0.812397,0.42011 -0.981658,0.7011 -0.981658,1.62973 0,0.8658 0.161729,1.18192 0.708065,1.38402 0.976214,0.36112 1.804278,0.0877 2.375795,-0.78458 z m 8.82961,2.15421 c -0.31256,-0.19838 -0.386528,-1.84302 -0.32,-7.1151 l 0.08653,-6.85708 h 3.68 3.680001 l 0.100179,0.86884 c 0.113353,0.98311 -0.262531,1.14551 -2.98018,1.28754 l -1.6,0.0836 v 1.76 1.76 l 2.16,0.0946 c 2.157892,0.0945 2.160001,0.0955 2.160001,1.04 0,0.93085 -0.02666,0.94538 -1.733828,0.94538 -2.7552,0 -2.746173,-0.0105 -2.746173,3.2 0,2.26855 -0.09775,2.84904 -0.506172,3.00576 -0.692135,0.2656 -1.492829,0.23585 -1.980359,-0.0736 z m 10.619393,-0.18703 c -1.380084,-0.60089 -2.302797,-1.89943 -2.557741,-3.59952 -0.450112,-3.00156 1.176925,-5.48358 3.787534,-5.77784 2.63477,-0.29698 4.39735,1.39029 4.39735,4.20947 v 1.11782 l -2.8,0.0925 c -2.580798,0.0852 -2.80763,0.14593 -2.897422,0.77553 -0.160784,1.12739 1.322422,2.03693 3.321682,2.03693 1.77581,0 2.18847,0.24175 1.86254,1.09112 -0.24942,0.64997 -3.6624,0.68603 -5.113943,0.054 z m 2.880963,-5.17939 c 1.1333,-0.43488 0.13533,-3.00576 -1.16677,-3.00576 -0.37216,0 -0.939998,0.23831 -1.261857,0.52959 -0.665632,0.60239 -0.787156,2.21558 -0.185197,2.45848 0.57904,0.23365 2.025544,0.24344 2.613824,0.0177 z m 5.67116,4.82298 c -1.19039,-1.00164 -1.83958,-3.49568 -1.49976,-5.76174 0.41719,-2.782 2.92195,-4.23684 4.90414,-2.84846 0.39147,0.27419 0.85551,0.40969 1.0312,0.30111 0.17569,-0.10858 0.31944,-1.27344 0.31944,-2.58858 0,-2.59498 0.23842,-2.94156 1.76071,-2.55949 l 0.79929,0.20061 v 6.83967 c 0,5.94168 -0.0665,6.86517 -0.50618,7.0339 -0.82416,0.31626 -1.33609,0.22626 -1.89562,-0.33327 -0.49001,-0.49002 -0.60614,-0.49002 -1.63371,0 -1.51093,0.72051 -2.15194,0.66504 -3.27951,-0.28375 z m 3.47043,-1.10628 c 1.34584,-0.72028 1.61847,-4.50953 0.41975,-5.8341 -0.62142,-0.68667 -1.48609,-0.73172 -2.10797,-0.10984 -1.10685,1.10685 -0.86937,5.21495 0.34229,5.92115 0.69018,0.40227 0.63849,0.40139 1.34593,0.0228 z m 7.59083,1.38841 c -2.27002,-0.95438 -3.1261,-4.22654 -1.84436,-7.04965 1.42678,-3.1426 5.956,-3.16225 7.20877,-0.0313 0.26914,0.67265 0.48935,1.64648 0.48935,2.16406 v 0.94107 l -2.8,0.0925 c -2.59047,0.0855 -2.80737,0.14412 -2.89838,0.78287 -0.17575,1.23338 1.08783,2.02959 3.22097,2.02959 1.76858,0 1.87576,0.0434 1.77966,0.72 -0.0917,0.64582 -0.30006,0.72727 -2.02225,0.79058 -1.18622,0.0436 -2.38387,-0.12444 -3.13376,-0.43971 z m 3.30963,-5.40999 c 1.10957,-1.33696 -1.23942,-3.43035 -2.53428,-2.25852 -0.84446,0.76423 -1.03998,1.71354 -0.47025,2.28327 0.62337,0.62337 2.47932,0.60808 3.00453,-0.0247 z m 4.18747,5.51135 c -0.26554,-0.31996 -0.35468,-1.81154 -0.29261,-4.89618 0.089,-4.4234 0.0915,-4.43637 0.86554,-4.54568 0.50603,-0.0715 0.95318,0.12489 1.28442,0.56403 l 0.50815,0.67367 1.26082,-0.6428 c 1.3829,-0.70505 1.88505,-0.50686 1.71743,0.67782 -0.0772,0.5459 -0.34314,0.78424 -0.95383,0.85495 -1.57027,0.18183 -2.01712,1.09774 -2.19326,4.49554 -0.15726,3.03352 -0.17418,3.08807 -0.98739,3.1826 -0.45507,0.0529 -0.99924,-0.11088 -1.20927,-0.36395 z m 7.09758,0.10553 c -0.90173,-0.36331 -1.38092,-1.27975 -1.38092,-2.64094 0,-1.57129 1.1131,-2.47904 3.58134,-2.92064 2.17299,-0.38878 2.65629,-0.95284 1.66541,-1.94371 -0.41492,-0.41492 -0.97316,-0.51979 -2.33598,-0.43884 -1.72519,0.10247 -1.79077,0.0771 -1.79077,-0.69363 0,-0.78807 0.039,-0.8 2.61493,-0.8 2.33508,0 2.70419,0.0839 3.44908,0.78431 0.82364,0.77443 0.83303,0.83492 0.74507,4.8 -0.0847,3.81807 -0.12255,4.02046 -0.76919,4.11272 -0.37407,0.0534 -0.91822,-0.14107 -1.20923,-0.43208 -0.48759,-0.48759 -0.61381,-0.48893 -1.60825,-0.017 -1.19318,0.5662 -1.9129,0.61234 -2.96149,0.18985 z m 3.53592,-1.62099 c 0.62053,-0.4881 0.84316,-0.95547 0.84316,-1.77004 0,-1.32909 -0.51381,-1.60362 -2.05152,-1.09613 -2.09187,0.69038 -1.97629,3.08785 0.16836,3.49228 0.10827,0.0204 0.57627,-0.26133 1.04,-0.62611 z m 5.4664,1.53496 c -0.0862,-0.22455 -0.11764,-3.42855 -0.07,-7.12 l 0.0867,-6.71173 0.73761,-0.10457 c 1.57,-0.22256 1.66239,0.1731 1.66239,7.11975 0,4.5953 -0.11071,6.56753 -0.384,6.84082 -0.50771,0.50771 -1.8347,0.49187 -2.03276,-0.0243 z M 63.253338,123.94667 c -0.117334,-0.11733 -0.213334,-0.54659 -0.213334,-0.9539 0,-0.52289 0.234941,-0.79954 0.799283,-0.94118 1.21288,-0.30441 1.760717,0.0498 1.760717,1.13838 0,0.88604 -0.09236,0.97004 -1.066666,0.97004 -0.586669,0 -1.162669,-0.096 -1.28,-0.21334 z M 79.039397,109.88882 C 68.297812,99.670236 54.486829,86.962197 50.000003,83.168514 c -0.748,-0.632448 -1.36,-1.339812 -1.36,-1.571924 0,-0.499996 5.101546,-10.378899 8.178144,-15.836586 1.190573,-2.112 2.367863,-4.235543 2.616199,-4.718986 0.528966,-1.02975 0.208051,-1.148838 5.205658,1.931779 7.459971,4.598468 17.23898,11.340711 26.720001,18.422389 9.876795,7.377293 16.194595,12.436141 16.092645,12.885837 -0.10486,0.46248 -21.868808,21.238987 -22.248415,21.238987 -0.134998,0 -2.909174,-2.53404 -6.164838,-5.63119 z M 118.88001,82.528821 c -1.77338,-0.547111 -21.383086,-4.404346 -26.960005,-5.303037 -3.036,-0.489239 -5.52,-0.983434 -5.52,-1.098218 0,-0.474294 13.53041,-9.638244 20.960005,-14.195902 4.21142,-2.583485 14.2219,-7.941786 15.95117,-8.53817 1.20725,-0.416352 1.29719,-0.390486 4.62831,1.330954 6.08858,3.146426 15.89869,8.867393 15.97608,9.316772 0.0416,0.241331 -0.92093,1.124288 -2.13888,1.962125 -3.30418,2.272973 -10.40636,7.831466 -16.13287,12.626324 -2.7919,2.337683 -5.2399,4.237958 -5.44,4.222832 -0.2001,-0.01514 -0.79581,-0.160784 -1.32381,-0.32368 z M 33.018376,69.282324 c -2.670814,-2.004611 -5.288554,-3.90025 -5.8172,-4.212528 -0.528646,-0.312279 -0.961174,-0.724803 -0.961174,-0.91672 0,-0.729059 17.487258,-10.332506 27.200001,-14.937374 l 5.92,-2.806707 5.429684,-0.0045 c 5.579901,-0.0046 17.235086,0.535126 18.090318,0.837753 0.274957,0.09729 -2.253891,1.500199 -5.92,3.284177 -7.393537,3.597795 -15.922539,8.161824 -16.693979,8.933267 -0.291971,0.291972 -0.993037,0.689748 -1.557923,0.883946 -1.168474,0.401699 -9.407214,5.299715 -15.8281,9.409965 -2.376001,1.520967 -4.47426,2.85721 -4.662801,2.969431 -0.188541,0.112217 -2.52801,-1.436103 -5.198826,-3.440714 z m 50.021629,-1.317357 c -6.332352,-0.849792 -10.342081,-2.945898 -11.757866,-6.14648 -3.250791,-7.348858 12.318202,-12.934612 22.617998,-8.114756 9.867103,4.617373 5.219408,13.441303 -7.500132,14.239463 -1.32,0.08283 -2.832,0.09263 -3.36,0.02176 z M 108.00001,58.016538 C 99.250345,52.83567 89.083103,48.080656 77.520005,43.761654 c -2.860001,-1.068256 -5.200001,-2.058055 -5.200001,-2.199552 0,-0.245517 6.563559,-2.461805 10.802679,-3.647693 l 2.002679,-0.560247 3.117322,0.882717 c 4.451686,1.260563 12.448096,4.04057 17.537466,6.097024 5.73935,2.319089 6.28756,2.614109 6.1,3.282737 -0.0838,0.298851 -0.47211,2.919363 -0.86285,5.823363 -0.39074,2.904 -0.79748,5.377517 -0.90387,5.496704 -0.10638,0.119188 -1.05742,-0.294889 -2.11342,-0.920169 z"
         id="path2558"
         inkscape:connector-curvature="0" />
      <path
         style="fill:#808080;stroke-width:0.32000002"
         d="m 49.539769,136.02344 c -0.825129,-0.11465 -1.817005,-0.49083 -2.204166,-0.83595 -2.123364,-1.89277 -2.047786,-6.01447 0.141872,-7.73686 1.019248,-0.80174 3.450947,-1.21848 4.338426,-0.74352 0.969433,0.51882 0.475686,1.2929 -0.824679,1.2929 -2.197034,0 -3.531603,2.56723 -2.552605,4.91031 0.520947,1.2468 1.485866,1.80969 3.102218,1.80969 0.725834,0 0.939168,0.14537 0.939168,0.64 0,0.352 -0.132224,0.64 -0.293827,0.64 -0.161607,0 -0.485607,0.0522 -0.72,0.11595 -0.234397,0.0638 -1.101277,0.0221 -1.926407,-0.0925 z m -23.939767,-6.90343 v -6.88 h 3.215891 c 4.390832,0 5.744109,0.7454 5.744109,3.1639 0,1.32608 -0.563446,2.44698 -1.475347,2.93501 -0.870112,0.46568 -0.97505,1.00811 -0.302938,1.56591 0.441402,0.36633 2.098285,4.86431 2.098285,5.69627 0,0.24939 -0.461264,0.39891 -1.230675,0.39891 h -1.230679 l -0.691274,-2.3791 c -0.759454,-2.61374 -1.312208,-3.3809 -2.435993,-3.3809 -0.96163,0 -1.131379,0.50805 -1.131379,3.38617 v 2.37383 h -1.28 -1.28 z m 5.76,-1.44 c 1.511232,-1.51123 0.307716,-3.95827 -1.85823,-3.77823 l -1.18177,0.0982 -0.09817,1.72185 c -0.054,0.94702 -0.02252,1.91902 0.06996,2.16 0.261319,0.68099 2.320872,0.54549 3.068218,-0.20185 z m 6.641811,7.75847 c -2.466806,-1.5295 -2.45696,-6.65279 0.0159,-8.27307 1.085264,-0.71109 3.293873,-0.70799 4.383796,0.006 1.000058,0.65526 1.835805,2.45891 1.696573,3.66142 -0.09678,0.83586 -0.134986,0.84824 -2.898074,0.93948 l -2.8,0.0925 v 0.94016 c 0,1.32777 1.252141,2.07974 3.42689,2.05799 1.424336,-0.0142 1.69311,0.0747 1.69311,0.56 0,0.50364 -0.294729,0.57585 -2.32,0.56842 -1.61488,-0.006 -2.586909,-0.17401 -3.198189,-0.55302 z m 4.076554,-5.19332 c 0.110823,-0.34917 0.01152,-1.03317 -0.220707,-1.52 -0.332163,-0.69638 -0.676794,-0.90628 -1.616006,-0.98423 -1.088753,-0.0904 -1.240961,-2.1e-4 -1.729668,1.02462 -0.735174,1.54168 -0.240633,2.11446 1.825636,2.11446 1.254048,0 1.576585,-0.11763 1.740745,-0.63485 z m 13.632484,5.35013 c -2.844944,-1.46207 -2.995398,-6.35696 -0.257123,-8.36526 1.041411,-0.76379 2.967683,-0.8636 4.176941,-0.21643 1.039578,0.55637 1.878026,2.29952 1.748896,3.63599 l -0.09956,1.03042 -2.558881,0.0949 c -1.407385,0.0522 -2.685641,0.22164 -2.840573,0.37657 -0.154928,0.15493 -0.186307,0.66172 -0.06973,1.12621 0.279168,1.11229 2.096759,1.89729 3.772538,1.62932 1.07016,-0.17112 1.216644,-0.11703 1.216644,0.44924 0,0.58192 -0.20754,0.64332 -2.160001,0.63906 -1.188,-0.003 -2.506118,-0.18259 -2.929152,-0.4 z m 3.753834,-5.61378 c 0.05757,-0.40618 -0.125747,-1.09018 -0.407379,-1.52 -0.975251,-1.48843 -3.377303,-0.68135 -3.377303,1.13476 0,1.19089 0.228919,1.32574 2.067709,1.21811 1.406976,-0.0823 1.625623,-0.18842 1.716973,-0.83287 z m 3.895319,1.41223 v -4.64681 l 2.452438,-0.0935 2.452439,-0.0935 0.367622,-1.09479 c 0.31793,-0.9468 0.980352,-1.52146 1.847501,-1.60272 0.132,-0.0124 0.24,0.46388 0.24,1.05833 0,1.1461 0.396637,1.65542 1.44,1.84913 0.352,0.0653 0.64,0.33087 0.64,0.59005 0,0.25918 -0.288,0.5247 -0.64,0.59005 -1.201673,0.22309 -1.440134,0.70298 -1.435632,2.88913 0.0059,2.85376 0.212935,3.46241 1.30769,3.84404 0.510368,0.17792 0.927942,0.54698 0.927942,0.82013 0,0.38168 -0.365078,0.49665 -1.577142,0.49665 -1.341783,0 -2.105034,-0.30939 -2.622071,-1.06286 -0.02157,-0.0314 -0.129565,-1.56914 -0.24,-3.41714 l -0.200787,-3.36 h -1.28 -1.28 l -0.16,3.84 -0.16,3.84 -1.04,0.10027 -1.04,0.10028 z m 11.532468,3.90593 c -0.704397,-0.75608 -0.850381,-2.17193 -0.325133,-3.15336 0.474157,-0.88598 1.497187,-1.34021 3.504762,-1.55615 1.604803,-0.17261 1.776777,-0.26649 1.864083,-1.01754 0.140678,-1.2102 -0.699194,-1.73261 -2.785498,-1.73261 -1.356022,0 -1.790682,-0.11333 -1.790682,-0.46688 0,-0.93174 4.066417,-1.15376 5.646343,-0.30829 0.868851,0.46495 1.233658,2.12771 1.233658,5.62292 v 3.31225 h -0.920819 c -0.506448,0 -1.102772,-0.21925 -1.325165,-0.48721 -0.36208,-0.43628 -0.482077,-0.43628 -1.147924,0 -1.128412,0.73936 -3.168713,0.62937 -3.953625,-0.21313 z m 4.142944,-0.5772 c 0.702685,-0.37607 1.387603,-2.24167 1.09905,-2.99362 -0.289252,-0.75378 -2.101037,-0.67603 -3.131306,0.13438 -1.896013,1.49141 -0.109207,4.00531 2.032256,2.85924 z m 9.284589,-5.60246 v -6.88 h 3.52 3.520001 v 0.8 c 0,0.77083 -0.07542,0.8 -2.068743,0.8 -2.319267,0 -2.735354,0.35086 -2.726358,2.29896 0.0074,1.59769 0.300684,1.81782 2.563398,1.92391 1.970583,0.0924 2.071703,0.13618 2.071703,0.89713 0,0.75297 -0.112212,0.80576 -1.908932,0.89802 -1.049913,0.0539 -2.093913,0.25155 -2.32,0.43919 -0.274899,0.22814 -0.411069,1.2292 -0.411069,3.02197 v 2.68082 h -1.12 -1.12 z m 10.0545,6.27665 c -1.339056,-0.81656 -1.841872,-2.17567 -1.672285,-4.52021 0.169917,-2.34904 0.943258,-3.51733 2.706,-4.08793 2.58765,-0.83764 4.87659,0.74712 5.0046,3.46496 l 0.0672,1.42653 -2.77038,0.092 c -2.135493,0.0709 -2.813573,0.20459 -2.958856,0.58318 -0.532871,1.38864 1.847376,2.88328 4.009846,2.51794 1.1103,-0.18759 1.23939,-0.13981 1.23939,0.45873 0,0.61618 -0.1804,0.66804 -2.32,0.66693 -1.70499,-9.6e-4 -2.581252,-0.1605 -3.305505,-0.60215 z m 4.038255,-5.01202 c 0.33791,-0.40716 0.3157,-0.69548 -0.12474,-1.61909 -0.48871,-1.02483 -0.64091,-1.11499 -1.72967,-1.02462 -0.939208,0.0779 -1.283839,0.28785 -1.616002,0.98423 -0.71856,1.50647 -0.261193,2.15485 1.520042,2.15485 0.99907,0 1.68353,-0.17385 1.95037,-0.49537 z m 4.95391,4.85112 c -0.92459,-0.92458 -1.24851,-2.45473 -1.06289,-5.02088 0.11183,-1.54606 0.30571,-2.08981 0.98862,-2.77272 0.98438,-0.98438 2.55756,-1.09731 3.81439,-0.2738 0.43137,0.28264 0.88081,0.41739 0.99876,0.29944 0.11795,-0.11795 0.21446,-1.34246 0.21446,-2.72113 v -2.50666 h 1.12 1.12 v 6.88 6.88 h -0.84473 c -0.46459,0 -1.0299,-0.252 -1.25624,-0.56 -0.39192,-0.53334 -0.4569,-0.53334 -1.36465,0 -1.35397,0.79551 -2.80762,0.71586 -3.72772,-0.20425 z m 3.86543,-0.76065 c 0.70666,-0.47185 1.08791,-1.67337 1.08791,-3.42861 0,-1.47976 -0.13816,-1.93374 -0.78546,-2.58104 -0.432,-0.432 -0.94254,-0.78545 -1.13454,-0.78545 -0.192,0 -0.70255,0.35345 -1.13455,0.78545 -0.6473,0.6473 -0.78545,1.10128 -0.78545,2.58104 0,2.37214 0.67686,3.66371 1.92,3.66371 0.264,0 0.63844,-0.1058 0.83209,-0.2351 z m 7.09193,1.02397 c -2.25384,-1.22292 -2.71326,-5.26089 -0.86578,-7.60958 0.90159,-1.14619 2.75535,-1.61383 4.33089,-1.09254 1.43114,0.47352 2.28254,1.73599 2.42987,3.60305 l 0.101,1.28 -2.87677,0.16 c -3.26692,0.1817 -3.65078,0.53801 -2.28727,2.12313 0.69927,0.81293 0.99999,0.91725 2.65263,0.92025 1.51481,0.003 1.88402,0.10765 1.97114,0.56 0.0941,0.48881 -0.17829,0.55506 -2.23627,0.54381 -1.44358,-0.008 -2.67983,-0.19533 -3.21944,-0.48812 z m 3.85996,-5.68737 c 0.21559,-1.8831 -2.22331,-2.93747 -3.28584,-1.4205 -0.5219,0.74511 -0.6585,1.90177 -0.27043,2.28984 0.12523,0.12524 0.95323,0.18524 1.84,0.13333 1.50681,-0.0882 1.61909,-0.1538 1.71627,-1.00267 z m 3.89602,1.5483 v -4.64 h 0.96 c 0.62252,0 0.96,0.1621 0.96,0.46111 0,0.80087 0.61663,0.88372 1.48624,0.19968 1.11721,-0.87879 1.71376,-0.83919 1.71376,0.11378 0,0.60038 -0.21581,0.82197 -0.95961,0.98534 -1.55769,0.34213 -1.92039,1.20172 -1.92039,4.55129 v 2.9688 h -1.12 -1.12 z m 6.42322,3.79684 c -1.71975,-2.18631 0.10263,-4.59684 3.47524,-4.59684 0.95294,0 1.36664,-0.16371 1.62268,-0.64214 0.28293,-0.52865 0.19592,-0.78989 -0.49229,-1.47811 -0.7515,-0.75149 -0.99525,-0.81482 -2.41241,-0.62683 -1.41405,0.18758 -1.57644,0.1458 -1.57644,-0.40557 0,-1.24646 4.77505,-1.16812 6.04457,0.0992 0.40568,0.40498 0.53802,1.36399 0.62153,4.504 l 0.10609,3.98948 h -0.98609 c -0.54236,0 -0.9861,-0.144 -0.9861,-0.32 0,-0.176 -0.3515,-0.32 -0.78112,-0.32 -0.42961,0 -0.87011,0.144 -0.97888,0.32 -0.10878,0.176 -0.82682,0.32 -1.59566,0.32 -1.12902,0 -1.52546,-0.16217 -2.06112,-0.84316 z m 4.34901,-0.58938 c 0.76303,-0.53444 1.1893,-1.84043 0.89913,-2.75468 -0.29513,-0.92985 -2.20632,-0.82692 -3.20591,0.17267 -0.91527,0.91527 -0.97073,1.36762 -0.28731,2.34334 0.5751,0.82108 1.62472,0.91765 2.59409,0.23867 z m 5.22777,-5.44746 v -6.88 h 1.12 1.12 v 6.88 6.88 h -1.12 -1.12 z m -78.491981,-5.15865 c -0.125414,-0.12541 -0.228025,-0.57314 -0.228025,-0.99496 0,-0.6725 0.128061,-0.75459 1.04,-0.66667 0.869261,0.0838 1.04,0.23161 1.04,0.90028 0,0.61827 -0.184451,0.82151 -0.811975,0.89469 -0.446588,0.0521 -0.914588,-0.008 -1.04,-0.13334 z m 13.579544,-15.97809 c -7.506644,-7.22362 -18.56771,-17.454167 -24.52757,-22.685924 -1.76,-1.544986 -3.398653,-2.996724 -3.64145,-3.22608 -0.371747,-0.351172 0.04002,-1.343418 2.607831,-6.284138 2.517334,-4.843604 6.491341,-12.094279 8.11577,-14.807432 0.347798,-0.580899 0.423885,-0.568982 1.92,0.300756 6.560868,3.814032 19.81412,12.87794 30.357851,20.761754 6.423095,4.802708 15.520005,11.932552 15.520005,12.164043 0,0.36975 -21.881919,20.844581 -22.337099,20.900741 -0.32577,0.0402 -3.531508,-2.80894 -8.015338,-7.12372 z M 117.44001,82.05091 C 114.04724,81.205947 99.941561,78.444952 93.920006,77.447192 90.576005,76.893096 87.564632,76.33187 87.228066,76.200024 86.576427,75.94475 89.05037,74.080782 97.811043,68.226394 106.46758,62.441588 117.91021,55.81177 122.78764,53.755043 l 1.66763,-0.703209 4.09237,2.164467 c 5.08227,2.688032 14.51502,8.065661 15.05069,8.580432 0.31336,0.30112 -0.43758,0.99424 -3.52,3.248986 -4.64496,3.397732 -10.49817,8.027882 -15.63881,12.370999 -4.01353,3.390868 -3.99271,3.383031 -6.99951,2.634192 z M 34.880002,70.510734 c -1.496,-1.16104 -4.062533,-3.059156 -5.703406,-4.218036 -2.731553,-1.929181 -2.934156,-2.143661 -2.4,-2.540723 2.540026,-1.888119 19.63764,-11.073911 27.354175,-14.696193 l 5.869233,-2.755123 10.265767,0.380992 c 5.646173,0.209542 10.815936,0.470269 11.488365,0.579389 1.195104,0.193939 1.083949,0.265507 -4.943418,3.182905 -7.295914,3.531405 -16.970714,8.731111 -16.970714,9.120884 0,0.151347 -0.224436,0.275175 -0.498749,0.275175 -0.557002,0 -11.268148,6.37008 -17.26828,10.269709 -2.141267,1.391661 -4.023658,2.526176 -4.183091,2.521149 -0.159437,-0.005 -1.513882,-0.959088 -3.009882,-2.120128 z m 45.221497,-3.151687 c -3.951111,-0.858873 -7.023472,-2.657651 -8.320989,-4.871693 -2.259933,-3.856285 0.930601,-8.036116 7.390682,-9.68233 3.075878,-0.783824 8.356765,-0.860029 11.3121,-0.163239 4.275738,1.008106 8.100813,3.855511 8.575027,6.383294 0.478359,2.549878 -1.51408,5.327072 -5.006249,6.978045 -3.610324,1.706832 -9.640158,2.292899 -13.950571,1.355923 z M 106.56001,57.057424 C 98.607523,52.389123 85.377384,46.304976 76.080004,43.040575 c -1.892,-0.664301 -3.44,-1.305901 -3.44,-1.425782 0,-0.367203 11.287924,-3.869476 12.447009,-3.861898 1.26008,0.0083 7.146887,1.720995 12.672993,3.687187 4.967494,1.767437 12.738024,4.88705 13.425964,5.390087 0.50023,0.365776 0.49134,0.724263 -0.13248,5.340964 -0.78693,5.823952 -0.952,6.71528 -1.23891,6.689859 -0.11801,-0.01046 -1.58257,-0.822064 -3.25457,-1.803568 z"
         id="path2556"
         inkscape:connector-curvature="0" />
      <path
         style="fill:#808080;stroke-width:0.32000002"
         d="m 39.146453,135.78447 c -3.31342,-0.67859 -3.868509,-6.96998 -0.756924,-8.57904 2.483606,-1.28433 5.05345,0.0537 5.36208,2.79192 l 0.168688,1.49657 -2.840147,0.093 c -2.829287,0.0927 -2.840532,0.0964 -2.940813,0.96693 -0.06901,0.59909 0.152819,1.12736 0.705456,1.68 0.686118,0.68612 1.098067,0.80612 2.767331,0.80612 1.42601,0 1.925203,0.10916 1.829264,0.4 -0.133318,0.40415 -2.914381,0.62719 -4.294935,0.34446 z m 2.587377,-4.7787 c 0.741296,-0.28446 0.655267,-2.21667 -0.133828,-3.00576 -1.381024,-1.38103 -3.52,-0.32774 -3.52,1.73333 0,0.60133 0.18,1.16597 0.4,1.25474 0.578797,0.23355 2.661799,0.24487 3.253828,0.0177 z m 6.409744,4.49777 c -1.389466,-0.68574 -2.064438,-2.00788 -2.058854,-4.03291 0.0057,-2.08176 0.466576,-3.06361 1.887267,-4.02102 1.401805,-0.94467 4.298618,-1.06369 4.128211,-0.1696 -0.06132,0.32171 -0.44575,0.59812 -0.903465,0.64958 -2.436532,0.27397 -3.19673,1.16552 -3.19673,3.74907 0,1.8365 0.96863,2.93283 2.858186,3.23498 0.788806,0.12613 1.301814,0.3812 1.301814,0.64727 0,0.60872 -2.746259,0.56949 -4.016429,-0.0574 z m 8.016429,0.0477 c -1.603728,-0.7079 -2.187315,-1.6274 -2.335808,-3.68031 -0.223673,-3.09224 1.279511,-5.15088 3.761072,-5.15088 2.099892,0 3.235047,1.1171 3.710503,3.6515 l 0.215459,1.1485 H 58.7948 c -2.926835,0 -3.66943,0.35662 -3.28232,1.5763 0.386755,1.21855 1.71889,1.9437 3.570679,1.9437 1.312752,0 1.716845,0.11298 1.716845,0.48 0,0.62353 -3.248602,0.64537 -4.640001,0.0312 z m 3.176698,-4.77458 c 1.235693,-0.90356 -0.194691,-3.41661 -1.944675,-3.41661 -1.396864,0 -2.59386,2.51016 -1.648023,3.456 0.514874,0.51487 2.870013,0.48905 3.592698,-0.0394 z m 10.512878,4.89696 c -0.874666,-0.35195 -1.028202,-0.9808 -1.129639,-4.62671 -0.07807,-2.80617 -0.10015,-2.88024 -0.947043,-3.17724 -0.587783,-0.20614 -1.12897,-0.18479 -1.68,0.0663 -0.802055,0.36544 -0.812893,0.41953 -0.812893,4.05724 v 3.68686 h -0.969031 -0.96903 l 0.08903,-4.4 0.08903,-4.4 2.56,-0.16 2.56,-0.16 0.09784,-1.00735 c 0.06999,-0.72059 0.297718,-1.06094 0.8,-1.19563 1.101226,-0.29529 1.137741,-0.2662 1.242842,0.99034 0.0798,0.95405 0.251856,1.22302 0.875593,1.36883 1.136592,0.26569 1.156288,0.8493 0.03622,1.07331 l -0.972499,0.1945 v 3.02514 c 0,3.102 0.337095,4.03086 1.462858,4.03086 0.251427,0 0.457142,0.216 0.457142,0.48 0,0.54385 -1.601459,0.63199 -2.790425,0.15357 z m 5.76,0 c -0.727245,-0.29263 -1.244167,-1.57139 -1.096925,-2.71357 0.129478,-1.00439 1.54575,-2.08273 2.705194,-2.05972 0.857939,0.017 0.917552,0.0627 0.371046,0.2842 -0.953257,0.3864 -1.50889,1.18075 -1.50889,2.15717 0,1.05477 1.213229,2.12855 2.141636,1.89547 0.645197,-0.16198 0.645939,-0.15601 0.0372,0.29879 -0.694112,0.51859 -1.587242,0.565 -2.649264,0.13766 z m 23.415195,-0.12342 c -2.090045,-0.91038 -2.92369,-3.83954 -1.809562,-6.35821 1.739341,-3.93206 7.104798,-2.92033 7.104798,1.33971 v 0.96343 l -2.8,0.0925 c -2.785713,0.092 -2.800519,0.0969 -2.90067,0.96634 -0.06901,0.59909 0.152819,1.12736 0.705456,1.68 0.667671,0.66767 1.110894,0.80612 2.580664,0.80612 1.36404,0 1.77455,0.11103 1.77455,0.48 0,0.62399 -3.24367,0.64501 -4.655236,0.0301 z m 3.189056,-4.54439 c 0.7413,-0.28446 0.65527,-2.21667 -0.13382,-3.00576 -1.38103,-1.38103 -3.520004,-0.32774 -3.520004,1.73333 0,0.60133 0.18,1.16597 0.4,1.25474 0.578797,0.23355 2.661794,0.24487 3.253824,0.0177 z m 5.47387,4.23102 c -1.98428,-1.98427 -1.75262,-7.19771 0.36265,-8.1615 1.05359,-0.48004 1.78626,-0.44685 2.52849,0.11454 0.59785,0.45219 0.58999,0.47021 -0.20924,0.48 -1.4271,0.0175 -2.02204,1.04089 -2.01619,3.46817 0.006,2.57191 0.46077,3.53684 1.79156,3.803 0.91943,0.18389 0.94811,0.22878 0.40144,0.62852 -0.88798,0.64931 -2.0069,0.51908 -2.85871,-0.33273 z m 11.03231,0.20272 c -1.97563,-0.98694 -2.80933,-3.87494 -1.80417,-6.24978 0.60618,-1.43218 1.54419,-2.17647 2.97933,-2.36405 2.36621,-0.30928 3.8383,0.88598 4.17404,3.38909 l 0.17157,1.27914 -2.84039,0.0931 -2.84038,0.0931 -0.0975,1.003 c -0.14394,1.48051 1.09835,2.357 3.34067,2.357 1.31275,0 1.71685,0.11298 1.71685,0.48 0,0.70326 -3.34334,0.64719 -4.8,-0.0805 z m 3.456,-4.6235 c 1.02544,-1.02544 -0.26132,-3.456 -1.82963,-3.456 -1.59645,0 -2.82391,2.27675 -1.78666,3.31399 0.62071,0.62071 3.04249,0.71581 3.61629,0.14201 z m 10.82715,4.52077 c -1.75436,-1.37998 -0.79785,-4.02763 1.55685,-4.30941 0.704,-0.0842 1.064,-0.0611 0.8,0.0515 -1.76675,0.7533 -2.21709,2.90206 -0.80247,3.82896 0.43864,0.2874 1.05064,0.43437 1.36,0.32659 0.47276,-0.16472 0.4634,-0.11929 -0.0587,0.28481 -0.85917,0.66501 -1.85959,0.60109 -2.85569,-0.18244 z m -107.083158,-6.4196 v -6.76278 l 3.219741,0.15504 c 2.536804,0.12216 3.398557,0.28855 4.062774,0.78446 1.696922,1.26693 1.544583,4.14192 -0.269168,5.07985 -1.093129,0.56528 -1.162325,0.9807 -0.314083,1.88559 0.340592,0.36335 0.973299,1.77663 1.406013,3.14063 l 0.786749,2.48 h -1.184327 -1.184329 l -0.574454,-2.21483 c -0.67204,-2.59109 -1.473223,-3.62535 -2.698523,-3.48357 -0.840069,0.0972 -0.851516,0.13239 -0.942852,2.8984 l -0.09246,2.8 H 27.027541 25.92 Z m 4.889195,-0.57029 c 0.423972,-0.1612 0.954817,-0.7372 1.179654,-1.28 0.739813,-1.78607 -0.580688,-3.54692 -2.659906,-3.54692 -1.126582,0 -1.488943,0.62302 -1.488943,2.56 0,0.9856 0.1728,1.9648 0.384,2.176 0.457677,0.45767 1.522088,0.49511 2.585195,0.0909 z m 49.272789,6.85653 c -0.286925,-0.32598 -0.309255,-0.68568 -0.08,-1.28866 0.174909,-0.46005 0.31802,-1.26268 0.31802,-1.78362 0,-0.81046 -0.150119,-0.97871 -1.04,-1.16565 l -1.04,-0.21848 0.96,-0.17558 c 1.201139,-0.21968 1.440902,-1.29056 0.499676,-2.23179 -0.506313,-0.50631 -1.068844,-0.65967 -2.419676,-0.65967 -1.351111,0 -1.760001,-0.11152 -1.760001,-0.48 0,-0.37781 0.446212,-0.48 2.095892,-0.48 2.196477,0 3.759763,0.5538 4.105331,1.45433 0.109328,0.28491 0.198778,2.09023 0.198778,4.01184 0,3.4135 -0.01654,3.49355 -0.72,3.48166 -0.396,-0.007 -0.899111,-0.21567 -1.11802,-0.46438 z m 8.311526,-6.16345 0.08649,-6.64 h 3.36 c 3.146666,0 3.360001,0.0406 3.360001,0.64 0,0.56051 -0.226583,0.64493 -1.824317,0.67974 -2.799696,0.061 -2.861488,0.11572 -2.75106,2.43612 l 0.09538,2.00414 2.16,0.0946 c 1.897556,0.0831 2.160001,0.1706 2.160001,0.72 0,0.54862 -0.227799,0.62538 -1.856001,0.62538 -1.0208,0 -2.0288,0.1728 -2.24,0.384 -0.236979,0.23698 -0.384,1.40089 -0.384,3.04 v 2.656 H 89.433512 88.30702 Z m 23.926498,6.05333 c -0.39807,-0.4423 -0.41481,-0.7245 -0.0981,-1.65333 0.52004,-1.52499 0.50709,-3.00747 -0.0377,-4.31125 -0.3943,-0.94367 -0.3943,-1.14167 0,-1.4689 0.32431,-0.26915 0.45572,-1.11125 0.45572,-2.92029 v -2.54207 l 0.88,0.10125 0.88,0.10126 0.0865,6.64 0.0865,6.64 -0.88649,-0.0267 c -0.48757,-0.0146 -1.10249,-0.26667 -1.36649,-0.56 z m 13.83097,-3.81333 c 0.0868,-4.28842 0.10729,-4.40259 0.80903,-4.50226 0.46208,-0.0656 0.72,0.0636 0.72,0.36082 0,0.25469 0.22022,0.64584 0.48938,0.86922 0.40494,0.33608 0.61555,0.28763 1.22062,-0.28082 0.88685,-0.83314 1.90148,-0.91833 1.75297,-0.14718 -0.058,0.3009 -0.57399,0.66159 -1.16606,0.81501 -1.41793,0.36742 -1.97691,1.74583 -1.97691,4.87493 v 2.41028 h -0.96903 -0.96903 z m 11.51727,3.90875 c -0.2991,-0.33917 -0.32099,-0.63649 -0.08,-1.08679 0.18247,-0.34094 0.33176,-1.14684 0.33176,-1.79088 0,-0.93349 -0.14125,-1.20794 -0.69641,-1.35311 l -0.6964,-0.18212 0.6964,-0.25761 c 0.86813,-0.32114 0.92825,-1.56923 0.11121,-2.30865 -0.40182,-0.36364 -1.16222,-0.52959 -2.42666,-0.52959 -1.33236,0 -1.80389,-0.11059 -1.70551,-0.4 0.0931,-0.27389 0.91768,-0.4 2.61532,-0.4 3.48748,0 3.70205,0.2988 3.70205,5.15545 0,3.56981 -0.0148,3.6443 -0.72,3.63238 -0.396,-0.007 -0.90529,-0.22228 -1.13176,-0.47908 z m 4.73176,-6.22875 v -6.72 h 0.8 0.8 v 6.72 6.72 h -0.8 -0.8 z m -78.982262,-5.84 c 0.07322,-0.51553 0.352173,-0.74876 0.982256,-0.82126 0.757709,-0.0872 0.88,0.0129 0.88,0.72 0,0.70331 -0.141069,0.82126 -0.982256,0.82126 -0.8356,0 -0.966989,-0.1075 -0.88,-0.72 z M 80.320005,110.66759 C 73.807588,104.35494 60.633527,92.124213 54.560003,86.752149 c -2.816,-2.490768 -5.25001,-4.719936 -5.408906,-4.953709 -0.19768,-0.290822 0.395114,-1.728128 1.87729,-4.551738 4.048381,-7.712343 8.945009,-16.446698 9.220295,-16.446698 0.478016,0 9.444746,5.709498 15.673162,9.979767 9.515131,6.52368 20.635285,14.744157 28.178566,20.830772 3.08491,2.489191 3.13016,2.545309 2.56,3.175703 -1.0151,1.122361 -21.230258,20.251054 -21.470312,20.316384 -0.126551,0.0344 -2.318093,-1.96132 -4.870093,-4.43504 z M 117.60001,81.899986 c -4.399,-1.034372 -18.299211,-3.767607 -24.320005,-4.7821 -3.168,-0.533805 -5.885232,-1.009446 -6.038294,-1.056982 -0.721901,-0.224199 16.478809,-11.685051 24.072819,-16.039748 5.1679,-2.963466 12.32597,-6.581153 13.02169,-6.581153 0.78567,0 18.75172,9.8609 19.15505,10.513502 0.0847,0.136976 -1.60225,1.531977 -3.74867,3.100003 -4.21269,3.077501 -13.39968,10.390657 -17.02259,13.550561 -1.232,1.074553 -2.312,1.941161 -2.4,1.925801 -0.088,-0.01536 -1.312,-0.298809 -2.72,-0.629884 z M 34.980904,70.320004 c -1.408422,-1.1 -3.879429,-2.928669 -5.491129,-4.063706 -1.611699,-1.135037 -2.82223,-2.167958 -2.690068,-2.295382 0.864882,-0.833859 14.333335,-8.172129 22.640296,-12.335537 l 9.92,-4.971856 9.280001,0.226995 c 5.104,0.124845 10.281533,0.319802 11.505626,0.433238 l 2.225626,0.206247 -7.296528,3.602954 c -11.123495,5.492672 -21.564421,11.413978 -32.658185,18.521265 -2.297097,1.471651 -4.333664,2.675741 -4.525706,2.675753 -0.192041,1.6e-5 -1.50151,-0.899971 -2.909933,-1.999971 z m 47.180592,-2.807267 c -4.886599,-0.587613 -9.014337,-2.766957 -10.420727,-5.501892 -1.275834,-2.48104 -0.371571,-4.877786 2.591712,-6.869331 5.714292,-3.840429 15.5893,-3.895879 21.244782,-0.119293 7.164767,4.784448 2.086071,11.754445 -9.177258,12.594871 -1.144,0.08536 -3.051328,0.0384 -4.238509,-0.104355 z M 105.92001,56.448995 c -9.035518,-5.11328 -18.019694,-9.244867 -28.435481,-13.07674 -2.527513,-0.929846 -4.471514,-1.763933 -4.32,-1.853523 0.376931,-0.22288 8.904583,-2.977549 10.624449,-3.431991 1.240061,-0.327664 1.766733,-0.259414 4.912445,0.636576 7.619267,2.170193 22.252627,7.720356 22.575827,8.56259 0.20896,0.544541 -1.21288,11.281143 -1.49113,11.259866 -0.10236,-0.0078 -1.84211,-0.951376 -3.86611,-2.096778 z"
         id="path2554"
         inkscape:connector-curvature="0" />
    </g>
  </g>
</svg>
